<?xml version="1.0" encoding="utf-8" standalone="no"?>
<!DOCTYPE svg PUBLIC "-//W3C//DTD SVG 1.1//EN"
  "http://www.w3.org/Graphics/SVG/1.1/DTD/svg11.dtd">
<svg xmlns:xlink="http://www.w3.org/1999/xlink" width="856.638125pt" height="567.754375pt" viewBox="0 0 856.638125 567.754375" xmlns="http://www.w3.org/2000/svg" version="1.1">
 <metadata>
  <rdf:RDF xmlns:dc="http://purl.org/dc/elements/1.1/" xmlns:cc="http://creativecommons.org/ns#" xmlns:rdf="http://www.w3.org/1999/02/22-rdf-syntax-ns#">
   <cc:Work>
    <dc:type rdf:resource="http://purl.org/dc/dcmitype/StillImage"/>
    <dc:date>2025-09-25T12:11:51.654439</dc:date>
    <dc:format>image/svg+xml</dc:format>
    <dc:creator>
     <cc:Agent>
      <dc:title>Matplotlib v3.10.3, https://matplotlib.org/</dc:title>
     </cc:Agent>
    </dc:creator>
   </cc:Work>
  </rdf:RDF>
 </metadata>
 <defs>
  <style type="text/css">*{stroke-linejoin: round; stroke-linecap: butt}</style>
 </defs>
 <g id="figure_1">
  <g id="patch_1">
   <path d="M 0 567.754375 
L 856.638125 567.754375 
L 856.638125 0 
L 0 0 
z
" style="fill: #ffffff"/>
  </g>
  <g id="axes_1">
   <g id="patch_2">
    <path d="M 46.965625 530.198125 
L 830.350625 530.198125 
L 830.350625 22.318125 
L 46.965625 22.318125 
z
" style="fill: #ffffff"/>
   </g>
   <g id="FillBetweenPolyCollection_1">
    <defs>
     <path id="m4b187433f3" d="M 86.134875 -508.787788 
L 86.134875 -496.457689 
L 125.304125 -486.166744 
L 164.473375 -489.088499 
L 203.642625 -491.799015 
L 242.811875 -496.703874 
L 281.981125 -498.458477 
L 321.150375 -496.002472 
L 360.319625 -500.214718 
L 399.488875 -502.236537 
L 438.658125 -498.019676 
L 477.827375 -497.844184 
L 516.996625 -496.879263 
L 556.165875 -503.64445 
L 595.335125 -508.317368 
L 634.504375 -508.935694 
L 673.673625 -507.258033 
L 712.842875 -506.023145 
L 752.012125 -509.024049 
L 791.181375 -511.057904 
L 830.350625 -509.465916 
L 830.350625 -515.776199 
L 830.350625 -515.776199 
L 791.181375 -517.229542 
L 752.012125 -515.372141 
L 712.842875 -512.620756 
L 673.673625 -513.754457 
L 634.504375 -515.291312 
L 595.335125 -514.725342 
L 556.165875 -510.431455 
L 516.996625 -504.169396 
L 477.827375 -505.06551 
L 438.658125 -505.228388 
L 399.488875 -509.132408 
L 360.319625 -507.262972 
L 321.150375 -503.354337 
L 281.981125 -505.635512 
L 242.811875 -504.006415 
L 203.642625 -499.436913 
L 164.473375 -496.902695 
L 125.304125 -495.890114 
L 86.134875 -508.787788 
z
"/>
    </defs>
    <g clip-path="url(#pb35894666e)">
     <use xlink:href="#m4b187433f3" x="0" y="567.754375" style="fill: #1f77b4; fill-opacity: 0.15"/>
    </g>
   </g>
   <g id="FillBetweenPolyCollection_2">
    <defs>
     <path id="mdb481816c5" d="M 86.134875 -204.696295 
L 86.134875 -184.151079 
L 125.304125 -195.835189 
L 164.473375 -201.266548 
L 203.642625 -209.403002 
L 242.811875 -208.479918 
L 281.981125 -211.921007 
L 321.150375 -215.867351 
L 360.319625 -222.000281 
L 399.488875 -221.580083 
L 438.658125 -220.235581 
L 477.827375 -226.791921 
L 516.996625 -229.146633 
L 556.165875 -231.249563 
L 595.335125 -225.110356 
L 634.504375 -220.571688 
L 673.673625 -220.319607 
L 712.842875 -225.614793 
L 752.012125 -230.997186 
L 791.181375 -230.828939 
L 830.350625 -227.380542 
L 830.350625 -239.889411 
L 830.350625 -239.889411 
L 791.181375 -243.3776 
L 752.012125 -243.547722 
L 712.842875 -238.102275 
L 673.673625 -232.738806 
L 634.504375 -232.99428 
L 595.335125 -237.591602 
L 556.165875 -243.8029 
L 516.996625 -241.676206 
L 477.827375 -239.293737 
L 438.658125 -232.653646 
L 399.488875 -234.016105 
L 360.319625 -234.441832 
L 321.150375 -228.224256 
L 281.981125 -224.218904 
L 242.811875 -220.723408 
L 203.642625 -221.661359 
L 164.473375 -213.386867 
L 125.304125 -210.584651 
L 86.134875 -204.696295 
z
"/>
    </defs>
    <g clip-path="url(#pb35894666e)">
     <use xlink:href="#mdb481816c5" x="0" y="567.754375" style="fill: #ff7f0e; fill-opacity: 0.15"/>
    </g>
   </g>
   <g id="FillBetweenPolyCollection_3">
    <defs>
     <path id="m42dd633a81" d="M 86.134875 -383.635887 
L 86.134875 -362.580452 
L 125.304125 -380.367498 
L 164.473375 -386.349951 
L 203.642625 -395.591371 
L 242.811875 -391.22599 
L 281.981125 -389.087002 
L 321.150375 -391.825013 
L 360.319625 -394.90644 
L 399.488875 -396.704518 
L 438.658125 -391.825013 
L 477.827375 -393.194382 
L 516.996625 -393.451166 
L 556.165875 -397.903477 
L 595.335125 -396.618885 
L 634.504375 -398.331723 
L 673.673625 -397.81783 
L 712.842875 -402.529859 
L 752.012125 -400.730362 
L 791.181375 -400.987406 
L 830.350625 -398.503028 
L 830.350625 -410.01309 
L 830.350625 -410.01309 
L 791.181375 -412.435078 
L 752.012125 -412.184566 
L 712.842875 -413.937955 
L 673.673625 -409.344808 
L 634.504375 -409.846025 
L 595.335125 -408.175162 
L 556.165875 -409.428346 
L 516.996625 -405.083036 
L 477.827375 -404.832265 
L 438.658125 -403.494675 
L 399.488875 -408.258715 
L 360.319625 -406.503908 
L 321.150375 -403.494675 
L 281.981125 -400.818765 
L 242.811875 -402.909402 
L 203.642625 -407.172456 
L 164.473375 -398.141896 
L 125.304125 -394.926835 
L 86.134875 -383.635887 
z
"/>
    </defs>
    <g clip-path="url(#pb35894666e)">
     <use xlink:href="#m42dd633a81" x="0" y="567.754375" style="fill: #2ca02c; fill-opacity: 0.15"/>
    </g>
   </g>
   <g id="matplotlib.axis_1">
    <g id="xtick_1">
     <g id="line2d_1">
      <path d="M 46.965625 530.198125 
L 46.965625 22.318125 
" clip-path="url(#pb35894666e)" style="fill: none; stroke: #b0b0b0; stroke-width: 0.8; stroke-linecap: square"/>
     </g>
     <g id="line2d_2">
      <defs>
       <path id="m16424bd716" d="M 0 0 
L 0 3.5 
" style="stroke: #000000; stroke-width: 0.8"/>
      </defs>
      <g>
       <use xlink:href="#m16424bd716" x="46.965625" y="530.198125" style="stroke: #000000; stroke-width: 0.8"/>
      </g>
     </g>
     <g id="text_1">
      <text style="font-size: 10px; font-family: 'Palatino Linotype', 'Book Antiqua', 'Palatino', 'DejaVu Serif', serif; text-anchor: middle" x="46.965625" y="544.796562" transform="rotate(-0 46.965625 544.796562)">0</text>
     </g>
    </g>
    <g id="xtick_2">
     <g id="line2d_3">
      <path d="M 203.642625 530.198125 
L 203.642625 22.318125 
" clip-path="url(#pb35894666e)" style="fill: none; stroke: #b0b0b0; stroke-width: 0.8; stroke-linecap: square"/>
     </g>
     <g id="line2d_4">
      <g>
       <use xlink:href="#m16424bd716" x="203.642625" y="530.198125" style="stroke: #000000; stroke-width: 0.8"/>
      </g>
     </g>
     <g id="text_2">
      <text style="font-size: 10px; font-family: 'Palatino Linotype', 'Book Antiqua', 'Palatino', 'DejaVu Serif', serif; text-anchor: middle" x="203.642625" y="544.796562" transform="rotate(-0 203.642625 544.796562)">20000</text>
     </g>
    </g>
    <g id="xtick_3">
     <g id="line2d_5">
      <path d="M 360.319625 530.198125 
L 360.319625 22.318125 
" clip-path="url(#pb35894666e)" style="fill: none; stroke: #b0b0b0; stroke-width: 0.8; stroke-linecap: square"/>
     </g>
     <g id="line2d_6">
      <g>
       <use xlink:href="#m16424bd716" x="360.319625" y="530.198125" style="stroke: #000000; stroke-width: 0.8"/>
      </g>
     </g>
     <g id="text_3">
      <text style="font-size: 10px; font-family: 'Palatino Linotype', 'Book Antiqua', 'Palatino', 'DejaVu Serif', serif; text-anchor: middle" x="360.319625" y="544.796562" transform="rotate(-0 360.319625 544.796562)">40000</text>
     </g>
    </g>
    <g id="xtick_4">
     <g id="line2d_7">
      <path d="M 516.996625 530.198125 
L 516.996625 22.318125 
" clip-path="url(#pb35894666e)" style="fill: none; stroke: #b0b0b0; stroke-width: 0.8; stroke-linecap: square"/>
     </g>
     <g id="line2d_8">
      <g>
       <use xlink:href="#m16424bd716" x="516.996625" y="530.198125" style="stroke: #000000; stroke-width: 0.8"/>
      </g>
     </g>
     <g id="text_4">
      <text style="font-size: 10px; font-family: 'Palatino Linotype', 'Book Antiqua', 'Palatino', 'DejaVu Serif', serif; text-anchor: middle" x="516.996625" y="544.796562" transform="rotate(-0 516.996625 544.796562)">60000</text>
     </g>
    </g>
    <g id="xtick_5">
     <g id="line2d_9">
      <path d="M 673.673625 530.198125 
L 673.673625 22.318125 
" clip-path="url(#pb35894666e)" style="fill: none; stroke: #b0b0b0; stroke-width: 0.8; stroke-linecap: square"/>
     </g>
     <g id="line2d_10">
      <g>
       <use xlink:href="#m16424bd716" x="673.673625" y="530.198125" style="stroke: #000000; stroke-width: 0.8"/>
      </g>
     </g>
     <g id="text_5">
      <text style="font-size: 10px; font-family: 'Palatino Linotype', 'Book Antiqua', 'Palatino', 'DejaVu Serif', serif; text-anchor: middle" x="673.673625" y="544.796562" transform="rotate(-0 673.673625 544.796562)">80000</text>
     </g>
    </g>
    <g id="xtick_6">
     <g id="line2d_11">
      <path d="M 830.350625 530.198125 
L 830.350625 22.318125 
" clip-path="url(#pb35894666e)" style="fill: none; stroke: #b0b0b0; stroke-width: 0.8; stroke-linecap: square"/>
     </g>
     <g id="line2d_12">
      <g>
       <use xlink:href="#m16424bd716" x="830.350625" y="530.198125" style="stroke: #000000; stroke-width: 0.8"/>
      </g>
     </g>
     <g id="text_6">
      <text style="font-size: 10px; font-family: 'Palatino Linotype', 'Book Antiqua', 'Palatino', 'DejaVu Serif', serif; text-anchor: middle" x="830.350625" y="544.796562" transform="rotate(-0 830.350625 544.796562)">100000</text>
     </g>
    </g>
    <g id="text_7">
     <text style="font-size: 10px; font-family: 'Palatino Linotype', 'Book Antiqua', 'Palatino', 'DejaVu Serif', serif; text-anchor: middle" x="438.658125" y="558.474687" transform="rotate(-0 438.658125 558.474687)">Episode</text>
    </g>
   </g>
   <g id="matplotlib.axis_2">
    <g id="ytick_1">
     <g id="line2d_13">
      <path d="M 46.965625 530.198125 
L 830.350625 530.198125 
" clip-path="url(#pb35894666e)" style="fill: none; stroke: #b0b0b0; stroke-width: 0.8; stroke-linecap: square"/>
     </g>
     <g id="line2d_14">
      <defs>
       <path id="m78f1492a7e" d="M 0 0 
L -3.5 0 
" style="stroke: #000000; stroke-width: 0.8"/>
      </defs>
      <g>
       <use xlink:href="#m78f1492a7e" x="46.965625" y="530.198125" style="stroke: #000000; stroke-width: 0.8"/>
      </g>
     </g>
     <g id="text_8">
      <text style="font-size: 10px; font-family: 'Palatino Linotype', 'Book Antiqua', 'Palatino', 'DejaVu Serif', serif; text-anchor: end" x="39.965625" y="533.997344" transform="rotate(-0 39.965625 533.997344)">0</text>
     </g>
    </g>
    <g id="ytick_2">
     <g id="line2d_15">
      <path d="M 46.965625 428.622125 
L 830.350625 428.622125 
" clip-path="url(#pb35894666e)" style="fill: none; stroke: #b0b0b0; stroke-width: 0.8; stroke-linecap: square"/>
     </g>
     <g id="line2d_16">
      <g>
       <use xlink:href="#m78f1492a7e" x="46.965625" y="428.622125" style="stroke: #000000; stroke-width: 0.8"/>
      </g>
     </g>
     <g id="text_9">
      <text style="font-size: 10px; font-family: 'Palatino Linotype', 'Book Antiqua', 'Palatino', 'DejaVu Serif', serif; text-anchor: end" x="39.965625" y="432.421344" transform="rotate(-0 39.965625 432.421344)">20</text>
     </g>
    </g>
    <g id="ytick_3">
     <g id="line2d_17">
      <path d="M 46.965625 327.046125 
L 830.350625 327.046125 
" clip-path="url(#pb35894666e)" style="fill: none; stroke: #b0b0b0; stroke-width: 0.8; stroke-linecap: square"/>
     </g>
     <g id="line2d_18">
      <g>
       <use xlink:href="#m78f1492a7e" x="46.965625" y="327.046125" style="stroke: #000000; stroke-width: 0.8"/>
      </g>
     </g>
     <g id="text_10">
      <text style="font-size: 10px; font-family: 'Palatino Linotype', 'Book Antiqua', 'Palatino', 'DejaVu Serif', serif; text-anchor: end" x="39.965625" y="330.845344" transform="rotate(-0 39.965625 330.845344)">40</text>
     </g>
    </g>
    <g id="ytick_4">
     <g id="line2d_19">
      <path d="M 46.965625 225.470125 
L 830.350625 225.470125 
" clip-path="url(#pb35894666e)" style="fill: none; stroke: #b0b0b0; stroke-width: 0.8; stroke-linecap: square"/>
     </g>
     <g id="line2d_20">
      <g>
       <use xlink:href="#m78f1492a7e" x="46.965625" y="225.470125" style="stroke: #000000; stroke-width: 0.8"/>
      </g>
     </g>
     <g id="text_11">
      <text style="font-size: 10px; font-family: 'Palatino Linotype', 'Book Antiqua', 'Palatino', 'DejaVu Serif', serif; text-anchor: end" x="39.965625" y="229.269344" transform="rotate(-0 39.965625 229.269344)">60</text>
     </g>
    </g>
    <g id="ytick_5">
     <g id="line2d_21">
      <path d="M 46.965625 123.894125 
L 830.350625 123.894125 
" clip-path="url(#pb35894666e)" style="fill: none; stroke: #b0b0b0; stroke-width: 0.8; stroke-linecap: square"/>
     </g>
     <g id="line2d_22">
      <g>
       <use xlink:href="#m78f1492a7e" x="46.965625" y="123.894125" style="stroke: #000000; stroke-width: 0.8"/>
      </g>
     </g>
     <g id="text_12">
      <text style="font-size: 10px; font-family: 'Palatino Linotype', 'Book Antiqua', 'Palatino', 'DejaVu Serif', serif; text-anchor: end" x="39.965625" y="127.693344" transform="rotate(-0 39.965625 127.693344)">80</text>
     </g>
    </g>
    <g id="ytick_6">
     <g id="line2d_23">
      <path d="M 46.965625 22.318125 
L 830.350625 22.318125 
" clip-path="url(#pb35894666e)" style="fill: none; stroke: #b0b0b0; stroke-width: 0.8; stroke-linecap: square"/>
     </g>
     <g id="line2d_24">
      <g>
       <use xlink:href="#m78f1492a7e" x="46.965625" y="22.318125" style="stroke: #000000; stroke-width: 0.8"/>
      </g>
     </g>
     <g id="text_13">
      <text style="font-size: 10px; font-family: 'Palatino Linotype', 'Book Antiqua', 'Palatino', 'DejaVu Serif', serif; text-anchor: end" x="39.965625" y="26.117344" transform="rotate(-0 39.965625 26.117344)">100</text>
     </g>
    </g>
    <g id="text_14">
     <text style="font-size: 10px; font-family: 'Palatino Linotype', 'Book Antiqua', 'Palatino', 'DejaVu Serif', serif; text-anchor: middle" x="14.798438" y="276.258125" transform="rotate(-90 14.798438 276.258125)">Winrate (%)</text>
    </g>
   </g>
   <g id="line2d_25">
    <path d="M 86.134875 64.726105 
L 125.304125 76.534315 
L 164.473375 74.629765 
L 203.642625 72.005718 
L 242.811875 67.265505 
L 281.981125 65.572572 
L 321.150375 67.942678 
L 360.319625 63.879638 
L 399.488875 61.932765 
L 438.658125 65.995805 
L 477.827375 66.165098 
L 516.996625 67.096212 
L 556.165875 60.578418 
L 595.335125 56.092145 
L 634.504375 55.499618 
L 673.673625 57.107905 
L 712.842875 58.292958 
L 752.012125 55.414972 
L 791.181375 53.468098 
L 830.350625 54.991738 
" clip-path="url(#pb35894666e)" style="fill: none; stroke: #1f77b4; stroke-width: 1.5; stroke-linecap: square"/>
    <defs>
     <path id="mcfb96fcd41" d="M 0 1.5 
C 0.397805 1.5 0.77937 1.341951 1.06066 1.06066 
C 1.341951 0.77937 1.5 0.397805 1.5 0 
C 1.5 -0.397805 1.341951 -0.77937 1.06066 -1.06066 
C 0.77937 -1.341951 0.397805 -1.5 0 -1.5 
C -0.397805 -1.5 -0.77937 -1.341951 -1.06066 -1.06066 
C -1.341951 -0.77937 -1.5 -0.397805 -1.5 0 
C -1.5 0.397805 -1.341951 0.77937 -1.06066 1.06066 
C -0.77937 1.341951 -0.397805 1.5 0 1.5 
z
" style="stroke: #1f77b4"/>
    </defs>
    <g clip-path="url(#pb35894666e)">
     <use xlink:href="#mcfb96fcd41" x="86.134875" y="64.726105" style="fill: #1f77b4; stroke: #1f77b4"/>
     <use xlink:href="#mcfb96fcd41" x="125.304125" y="76.534315" style="fill: #1f77b4; stroke: #1f77b4"/>
     <use xlink:href="#mcfb96fcd41" x="164.473375" y="74.629765" style="fill: #1f77b4; stroke: #1f77b4"/>
     <use xlink:href="#mcfb96fcd41" x="203.642625" y="72.005718" style="fill: #1f77b4; stroke: #1f77b4"/>
     <use xlink:href="#mcfb96fcd41" x="242.811875" y="67.265505" style="fill: #1f77b4; stroke: #1f77b4"/>
     <use xlink:href="#mcfb96fcd41" x="281.981125" y="65.572572" style="fill: #1f77b4; stroke: #1f77b4"/>
     <use xlink:href="#mcfb96fcd41" x="321.150375" y="67.942678" style="fill: #1f77b4; stroke: #1f77b4"/>
     <use xlink:href="#mcfb96fcd41" x="360.319625" y="63.879638" style="fill: #1f77b4; stroke: #1f77b4"/>
     <use xlink:href="#mcfb96fcd41" x="399.488875" y="61.932765" style="fill: #1f77b4; stroke: #1f77b4"/>
     <use xlink:href="#mcfb96fcd41" x="438.658125" y="65.995805" style="fill: #1f77b4; stroke: #1f77b4"/>
     <use xlink:href="#mcfb96fcd41" x="477.827375" y="66.165098" style="fill: #1f77b4; stroke: #1f77b4"/>
     <use xlink:href="#mcfb96fcd41" x="516.996625" y="67.096212" style="fill: #1f77b4; stroke: #1f77b4"/>
     <use xlink:href="#mcfb96fcd41" x="556.165875" y="60.578418" style="fill: #1f77b4; stroke: #1f77b4"/>
     <use xlink:href="#mcfb96fcd41" x="595.335125" y="56.092145" style="fill: #1f77b4; stroke: #1f77b4"/>
     <use xlink:href="#mcfb96fcd41" x="634.504375" y="55.499618" style="fill: #1f77b4; stroke: #1f77b4"/>
     <use xlink:href="#mcfb96fcd41" x="673.673625" y="57.107905" style="fill: #1f77b4; stroke: #1f77b4"/>
     <use xlink:href="#mcfb96fcd41" x="712.842875" y="58.292958" style="fill: #1f77b4; stroke: #1f77b4"/>
     <use xlink:href="#mcfb96fcd41" x="752.012125" y="55.414972" style="fill: #1f77b4; stroke: #1f77b4"/>
     <use xlink:href="#mcfb96fcd41" x="791.181375" y="53.468098" style="fill: #1f77b4; stroke: #1f77b4"/>
     <use xlink:href="#mcfb96fcd41" x="830.350625" y="54.991738" style="fill: #1f77b4; stroke: #1f77b4"/>
    </g>
   </g>
   <g id="line2d_26">
    <path d="M 86.134875 373.517145 
L 125.304125 364.629245 
L 164.473375 360.481558 
L 203.642625 352.270832 
L 242.811875 353.201945 
L 281.981125 349.731432 
L 321.150375 345.753038 
L 360.319625 339.573832 
L 399.488875 339.997065 
L 438.658125 341.351412 
L 477.827375 334.748972 
L 516.996625 332.378865 
L 556.165875 330.262698 
L 595.335125 336.441905 
L 634.504375 341.012825 
L 673.673625 341.266765 
L 712.842875 335.934025 
L 752.012125 330.516638 
L 791.181375 330.685932 
L 830.350625 334.156445 
" clip-path="url(#pb35894666e)" style="fill: none; stroke: #ff7f0e; stroke-width: 1.5; stroke-linecap: square"/>
    <defs>
     <path id="me52ace6dc1" d="M 0 1.5 
C 0.397805 1.5 0.77937 1.341951 1.06066 1.06066 
C 1.341951 0.77937 1.5 0.397805 1.5 0 
C 1.5 -0.397805 1.341951 -0.77937 1.06066 -1.06066 
C 0.77937 -1.341951 0.397805 -1.5 0 -1.5 
C -0.397805 -1.5 -0.77937 -1.341951 -1.06066 -1.06066 
C -1.341951 -0.77937 -1.5 -0.397805 -1.5 0 
C -1.5 0.397805 -1.341951 0.77937 -1.06066 1.06066 
C -0.77937 1.341951 -0.397805 1.5 0 1.5 
z
" style="stroke: #ff7f0e"/>
    </defs>
    <g clip-path="url(#pb35894666e)">
     <use xlink:href="#me52ace6dc1" x="86.134875" y="373.517145" style="fill: #ff7f0e; stroke: #ff7f0e"/>
     <use xlink:href="#me52ace6dc1" x="125.304125" y="364.629245" style="fill: #ff7f0e; stroke: #ff7f0e"/>
     <use xlink:href="#me52ace6dc1" x="164.473375" y="360.481558" style="fill: #ff7f0e; stroke: #ff7f0e"/>
     <use xlink:href="#me52ace6dc1" x="203.642625" y="352.270832" style="fill: #ff7f0e; stroke: #ff7f0e"/>
     <use xlink:href="#me52ace6dc1" x="242.811875" y="353.201945" style="fill: #ff7f0e; stroke: #ff7f0e"/>
     <use xlink:href="#me52ace6dc1" x="281.981125" y="349.731432" style="fill: #ff7f0e; stroke: #ff7f0e"/>
     <use xlink:href="#me52ace6dc1" x="321.150375" y="345.753038" style="fill: #ff7f0e; stroke: #ff7f0e"/>
     <use xlink:href="#me52ace6dc1" x="360.319625" y="339.573832" style="fill: #ff7f0e; stroke: #ff7f0e"/>
     <use xlink:href="#me52ace6dc1" x="399.488875" y="339.997065" style="fill: #ff7f0e; stroke: #ff7f0e"/>
     <use xlink:href="#me52ace6dc1" x="438.658125" y="341.351412" style="fill: #ff7f0e; stroke: #ff7f0e"/>
     <use xlink:href="#me52ace6dc1" x="477.827375" y="334.748972" style="fill: #ff7f0e; stroke: #ff7f0e"/>
     <use xlink:href="#me52ace6dc1" x="516.996625" y="332.378865" style="fill: #ff7f0e; stroke: #ff7f0e"/>
     <use xlink:href="#me52ace6dc1" x="556.165875" y="330.262698" style="fill: #ff7f0e; stroke: #ff7f0e"/>
     <use xlink:href="#me52ace6dc1" x="595.335125" y="336.441905" style="fill: #ff7f0e; stroke: #ff7f0e"/>
     <use xlink:href="#me52ace6dc1" x="634.504375" y="341.012825" style="fill: #ff7f0e; stroke: #ff7f0e"/>
     <use xlink:href="#me52ace6dc1" x="673.673625" y="341.266765" style="fill: #ff7f0e; stroke: #ff7f0e"/>
     <use xlink:href="#me52ace6dc1" x="712.842875" y="335.934025" style="fill: #ff7f0e; stroke: #ff7f0e"/>
     <use xlink:href="#me52ace6dc1" x="752.012125" y="330.516638" style="fill: #ff7f0e; stroke: #ff7f0e"/>
     <use xlink:href="#me52ace6dc1" x="791.181375" y="330.685932" style="fill: #ff7f0e; stroke: #ff7f0e"/>
     <use xlink:href="#me52ace6dc1" x="830.350625" y="334.156445" style="fill: #ff7f0e; stroke: #ff7f0e"/>
    </g>
   </g>
   <g id="line2d_27">
    <path d="M 86.134875 194.489445 
L 125.304125 180.014865 
L 164.473375 175.443945 
L 203.642625 166.302105 
L 242.811875 170.619085 
L 281.981125 172.735252 
L 321.150375 170.026558 
L 360.319625 166.979278 
L 399.488875 165.201698 
L 438.658125 170.026558 
L 477.827375 168.672212 
L 516.996625 168.418272 
L 556.165875 164.016645 
L 595.335125 165.286345 
L 634.504375 163.593412 
L 673.673625 164.101292 
L 712.842875 159.445725 
L 752.012125 161.223305 
L 791.181375 160.969365 
L 830.350625 163.424118 
" clip-path="url(#pb35894666e)" style="fill: none; stroke: #2ca02c; stroke-width: 1.5; stroke-linecap: square"/>
    <defs>
     <path id="mb1f9c94b0b" d="M 0 1.5 
C 0.397805 1.5 0.77937 1.341951 1.06066 1.06066 
C 1.341951 0.77937 1.5 0.397805 1.5 0 
C 1.5 -0.397805 1.341951 -0.77937 1.06066 -1.06066 
C 0.77937 -1.341951 0.397805 -1.5 0 -1.5 
C -0.397805 -1.5 -0.77937 -1.341951 -1.06066 -1.06066 
C -1.341951 -0.77937 -1.5 -0.397805 -1.5 0 
C -1.5 0.397805 -1.341951 0.77937 -1.06066 1.06066 
C -0.77937 1.341951 -0.397805 1.5 0 1.5 
z
" style="stroke: #2ca02c"/>
    </defs>
    <g clip-path="url(#pb35894666e)">
     <use xlink:href="#mb1f9c94b0b" x="86.134875" y="194.489445" style="fill: #2ca02c; stroke: #2ca02c"/>
     <use xlink:href="#mb1f9c94b0b" x="125.304125" y="180.014865" style="fill: #2ca02c; stroke: #2ca02c"/>
     <use xlink:href="#mb1f9c94b0b" x="164.473375" y="175.443945" style="fill: #2ca02c; stroke: #2ca02c"/>
     <use xlink:href="#mb1f9c94b0b" x="203.642625" y="166.302105" style="fill: #2ca02c; stroke: #2ca02c"/>
     <use xlink:href="#mb1f9c94b0b" x="242.811875" y="170.619085" style="fill: #2ca02c; stroke: #2ca02c"/>
     <use xlink:href="#mb1f9c94b0b" x="281.981125" y="172.735252" style="fill: #2ca02c; stroke: #2ca02c"/>
     <use xlink:href="#mb1f9c94b0b" x="321.150375" y="170.026558" style="fill: #2ca02c; stroke: #2ca02c"/>
     <use xlink:href="#mb1f9c94b0b" x="360.319625" y="166.979278" style="fill: #2ca02c; stroke: #2ca02c"/>
     <use xlink:href="#mb1f9c94b0b" x="399.488875" y="165.201698" style="fill: #2ca02c; stroke: #2ca02c"/>
     <use xlink:href="#mb1f9c94b0b" x="438.658125" y="170.026558" style="fill: #2ca02c; stroke: #2ca02c"/>
     <use xlink:href="#mb1f9c94b0b" x="477.827375" y="168.672212" style="fill: #2ca02c; stroke: #2ca02c"/>
     <use xlink:href="#mb1f9c94b0b" x="516.996625" y="168.418272" style="fill: #2ca02c; stroke: #2ca02c"/>
     <use xlink:href="#mb1f9c94b0b" x="556.165875" y="164.016645" style="fill: #2ca02c; stroke: #2ca02c"/>
     <use xlink:href="#mb1f9c94b0b" x="595.335125" y="165.286345" style="fill: #2ca02c; stroke: #2ca02c"/>
     <use xlink:href="#mb1f9c94b0b" x="634.504375" y="163.593412" style="fill: #2ca02c; stroke: #2ca02c"/>
     <use xlink:href="#mb1f9c94b0b" x="673.673625" y="164.101292" style="fill: #2ca02c; stroke: #2ca02c"/>
     <use xlink:href="#mb1f9c94b0b" x="712.842875" y="159.445725" style="fill: #2ca02c; stroke: #2ca02c"/>
     <use xlink:href="#mb1f9c94b0b" x="752.012125" y="161.223305" style="fill: #2ca02c; stroke: #2ca02c"/>
     <use xlink:href="#mb1f9c94b0b" x="791.181375" y="160.969365" style="fill: #2ca02c; stroke: #2ca02c"/>
     <use xlink:href="#mb1f9c94b0b" x="830.350625" y="163.424118" style="fill: #2ca02c; stroke: #2ca02c"/>
    </g>
   </g>
   <g id="line2d_28">
    <path d="M 86.134875 210.910898 
L 125.304125 207.059475 
L 164.473375 203.518423 
L 203.642625 196.859552 
L 242.811875 197.028845 
L 281.981125 196.013085 
L 321.150375 194.574092 
L 360.319625 190.144249 
L 399.488875 189.043843 
L 438.658125 192.457925 
L 477.827375 189.862094 
L 516.996625 189.297783 
L 556.165875 184.952587 
L 595.335125 185.940132 
L 634.504375 186.701952 
L 673.673625 187.491987 
L 712.842875 184.557569 
L 752.012125 182.384972 
L 791.181375 181.707798 
L 830.350625 184.190767 
" clip-path="url(#pb35894666e)" style="fill: none; stroke-dasharray: 5.55,2.4; stroke-dashoffset: 0; stroke: #444444; stroke-width: 1.5"/>
    <defs>
     <path id="mba7fd433d0" d="M 0 1.5 
C 0.397805 1.5 0.77937 1.341951 1.06066 1.06066 
C 1.341951 0.77937 1.5 0.397805 1.5 0 
C 1.5 -0.397805 1.341951 -0.77937 1.06066 -1.06066 
C 0.77937 -1.341951 0.397805 -1.5 0 -1.5 
C -0.397805 -1.5 -0.77937 -1.341951 -1.06066 -1.06066 
C -1.341951 -0.77937 -1.5 -0.397805 -1.5 0 
C -1.5 0.397805 -1.341951 0.77937 -1.06066 1.06066 
C -0.77937 1.341951 -0.397805 1.5 0 1.5 
z
" style="stroke: #444444"/>
    </defs>
    <g clip-path="url(#pb35894666e)">
     <use xlink:href="#mba7fd433d0" x="86.134875" y="210.910898" style="fill: #444444; stroke: #444444"/>
     <use xlink:href="#mba7fd433d0" x="125.304125" y="207.059475" style="fill: #444444; stroke: #444444"/>
     <use xlink:href="#mba7fd433d0" x="164.473375" y="203.518423" style="fill: #444444; stroke: #444444"/>
     <use xlink:href="#mba7fd433d0" x="203.642625" y="196.859552" style="fill: #444444; stroke: #444444"/>
     <use xlink:href="#mba7fd433d0" x="242.811875" y="197.028845" style="fill: #444444; stroke: #444444"/>
     <use xlink:href="#mba7fd433d0" x="281.981125" y="196.013085" style="fill: #444444; stroke: #444444"/>
     <use xlink:href="#mba7fd433d0" x="321.150375" y="194.574092" style="fill: #444444; stroke: #444444"/>
     <use xlink:href="#mba7fd433d0" x="360.319625" y="190.144249" style="fill: #444444; stroke: #444444"/>
     <use xlink:href="#mba7fd433d0" x="399.488875" y="189.043843" style="fill: #444444; stroke: #444444"/>
     <use xlink:href="#mba7fd433d0" x="438.658125" y="192.457925" style="fill: #444444; stroke: #444444"/>
     <use xlink:href="#mba7fd433d0" x="477.827375" y="189.862094" style="fill: #444444; stroke: #444444"/>
     <use xlink:href="#mba7fd433d0" x="516.996625" y="189.297783" style="fill: #444444; stroke: #444444"/>
     <use xlink:href="#mba7fd433d0" x="556.165875" y="184.952587" style="fill: #444444; stroke: #444444"/>
     <use xlink:href="#mba7fd433d0" x="595.335125" y="185.940132" style="fill: #444444; stroke: #444444"/>
     <use xlink:href="#mba7fd433d0" x="634.504375" y="186.701952" style="fill: #444444; stroke: #444444"/>
     <use xlink:href="#mba7fd433d0" x="673.673625" y="187.491987" style="fill: #444444; stroke: #444444"/>
     <use xlink:href="#mba7fd433d0" x="712.842875" y="184.557569" style="fill: #444444; stroke: #444444"/>
     <use xlink:href="#mba7fd433d0" x="752.012125" y="182.384972" style="fill: #444444; stroke: #444444"/>
     <use xlink:href="#mba7fd433d0" x="791.181375" y="181.707798" style="fill: #444444; stroke: #444444"/>
     <use xlink:href="#mba7fd433d0" x="830.350625" y="184.190767" style="fill: #444444; stroke: #444444"/>
    </g>
   </g>
   <g id="line2d_29">
    <path d="M 46.965625 403.228125 
L 830.350625 403.228125 
" clip-path="url(#pb35894666e)" style="fill: none; stroke: #ff0000; stroke-linecap: square"/>
   </g>
   <g id="patch_3">
    <path d="M 46.965625 530.198125 
L 46.965625 22.318125 
" style="fill: none; stroke: #000000; stroke-width: 0.8; stroke-linejoin: miter; stroke-linecap: square"/>
   </g>
   <g id="patch_4">
    <path d="M 830.350625 530.198125 
L 830.350625 22.318125 
" style="fill: none; stroke: #000000; stroke-width: 0.8; stroke-linejoin: miter; stroke-linecap: square"/>
   </g>
   <g id="patch_5">
    <path d="M 46.965625 530.198125 
L 830.350625 530.198125 
" style="fill: none; stroke: #000000; stroke-width: 0.8; stroke-linejoin: miter; stroke-linecap: square"/>
   </g>
   <g id="patch_6">
    <path d="M 46.965625 22.318125 
L 830.350625 22.318125 
" style="fill: none; stroke: #000000; stroke-width: 0.8; stroke-linejoin: miter; stroke-linecap: square"/>
   </g>
   <g id="text_15">
    <text style="font-size: 12px; font-family: 'Palatino Linotype', 'Book Antiqua', 'Palatino', 'DejaVu Serif', serif; text-anchor: middle" x="438.658125" y="16.318125" transform="rotate(-0 438.658125 16.318125)">Lernkurve (Benchmark) - K1A2 vs. feste Heuristiken</text>
   </g>
   <g id="legend_1">
    <g id="patch_7">
     <path d="M 730.755313 103.993125 
L 823.350625 103.993125 
Q 825.350625 103.993125 825.350625 101.993125 
L 825.350625 29.318125 
Q 825.350625 27.318125 823.350625 27.318125 
L 730.755313 27.318125 
Q 728.755313 27.318125 728.755313 29.318125 
L 728.755313 101.993125 
Q 728.755313 103.993125 730.755313 103.993125 
z
" style="fill: #ffffff; opacity: 0.8; stroke: #cccccc; stroke-linejoin: miter"/>
    </g>
    <g id="line2d_30">
     <path d="M 732.755313 35.416562 
L 742.755313 35.416562 
L 752.755313 35.416562 
" style="fill: none; stroke: #1f77b4; stroke-width: 1.5; stroke-linecap: square"/>
     <g>
      <use xlink:href="#mcfb96fcd41" x="742.755313" y="35.416562" style="fill: #1f77b4; stroke: #1f77b4"/>
     </g>
    </g>
    <g id="text_16">
     <text style="font-size: 10px; font-family: 'Palatino Linotype', 'Book Antiqua', 'Palatino', 'DejaVu Serif', serif; text-anchor: start" x="760.755313" y="38.916562" transform="rotate(-0 760.755313 38.916562)">Single Only</text>
    </g>
    <g id="line2d_31">
     <path d="M 732.755313 50.236875 
L 742.755313 50.236875 
L 752.755313 50.236875 
" style="fill: none; stroke: #ff7f0e; stroke-width: 1.5; stroke-linecap: square"/>
     <g>
      <use xlink:href="#me52ace6dc1" x="742.755313" y="50.236875" style="fill: #ff7f0e; stroke: #ff7f0e"/>
     </g>
    </g>
    <g id="text_17">
     <text style="font-size: 10px; font-family: 'Palatino Linotype', 'Book Antiqua', 'Palatino', 'DejaVu Serif', serif; text-anchor: start" x="760.755313" y="53.736875" transform="rotate(-0 760.755313 53.736875)">Max Combo</text>
    </g>
    <g id="line2d_32">
     <path d="M 732.755313 64.915 
L 742.755313 64.915 
L 752.755313 64.915 
" style="fill: none; stroke: #2ca02c; stroke-width: 1.5; stroke-linecap: square"/>
     <g>
      <use xlink:href="#mb1f9c94b0b" x="742.755313" y="64.915" style="fill: #2ca02c; stroke: #2ca02c"/>
     </g>
    </g>
    <g id="text_18">
     <text style="font-size: 10px; font-family: 'Palatino Linotype', 'Book Antiqua', 'Palatino', 'DejaVu Serif', serif; text-anchor: start" x="760.755313" y="68.415" transform="rotate(-0 760.755313 68.415)">Random 2</text>
    </g>
    <g id="line2d_33">
     <path d="M 732.755313 79.593125 
L 742.755313 79.593125 
L 752.755313 79.593125 
" style="fill: none; stroke-dasharray: 5.55,2.4; stroke-dashoffset: 0; stroke: #444444; stroke-width: 1.5"/>
     <g>
      <use xlink:href="#mba7fd433d0" x="742.755313" y="79.593125" style="fill: #444444; stroke: #444444"/>
     </g>
    </g>
    <g id="text_19">
     <text style="font-size: 10px; font-family: 'Palatino Linotype', 'Book Antiqua', 'Palatino', 'DejaVu Serif', serif; text-anchor: start" x="760.755313" y="83.093125" transform="rotate(-0 760.755313 83.093125)">Avg Macro</text>
    </g>
    <g id="line2d_34">
     <path d="M 732.755313 94.413437 
L 742.755313 94.413437 
L 752.755313 94.413437 
" style="fill: none; stroke: #ff0000; stroke-linecap: square"/>
    </g>
    <g id="text_20">
     <text style="font-size: 10px; font-family: 'Palatino Linotype', 'Book Antiqua', 'Palatino', 'DejaVu Serif', serif; text-anchor: start" x="760.755313" y="97.913437" transform="rotate(-0 760.755313 97.913437)">25% Linie</text>
    </g>
   </g>
  </g>
 </g>
 <defs>
  <clipPath id="pb35894666e">
   <rect x="46.965625" y="22.318125" width="783.385" height="507.88"/>
  </clipPath>
 </defs>
</svg>
