<?xml version="1.0" encoding="utf-8" standalone="no"?>
<!DOCTYPE svg PUBLIC "-//W3C//DTD SVG 1.1//EN"
  "http://www.w3.org/Graphics/SVG/1.1/DTD/svg11.dtd">
<svg xmlns:xlink="http://www.w3.org/1999/xlink" width="856.645pt" height="495.896562pt" viewBox="0 0 856.645 495.896562" xmlns="http://www.w3.org/2000/svg" version="1.1">
 <metadata>
  <rdf:RDF xmlns:dc="http://purl.org/dc/elements/1.1/" xmlns:cc="http://creativecommons.org/ns#" xmlns:rdf="http://www.w3.org/1999/02/22-rdf-syntax-ns#">
   <cc:Work>
    <dc:type rdf:resource="http://purl.org/dc/dcmitype/StillImage"/>
    <dc:date>2025-09-24T21:05:15.252062</dc:date>
    <dc:format>image/svg+xml</dc:format>
    <dc:creator>
     <cc:Agent>
      <dc:title>Matplotlib v3.10.3, https://matplotlib.org/</dc:title>
     </cc:Agent>
    </dc:creator>
   </cc:Work>
  </rdf:RDF>
 </metadata>
 <defs>
  <style type="text/css">*{stroke-linejoin: round; stroke-linecap: butt}</style>
 </defs>
 <g id="figure_1">
  <g id="patch_1">
   <path d="M 0 495.896562 
L 856.645 495.896562 
L 856.645 0 
L 0 0 
z
" style="fill: #ffffff"/>
  </g>
  <g id="axes_1">
   <g id="patch_2">
    <path d="M 43.78125 458.198125 
L 839.90125 458.198125 
L 839.90125 22.318125 
L 43.78125 22.318125 
z
" style="fill: #ffffff"/>
   </g>
   <g id="matplotlib.axis_1">
    <g id="xtick_1">
     <g id="line2d_1">
      <path d="M 201.728905 458.198125 
L 201.728905 22.318125 
" clip-path="url(#p6ee5e23efe)" style="fill: none; stroke: #b0b0b0; stroke-width: 0.8; stroke-linecap: square"/>
     </g>
     <g id="line2d_2">
      <defs>
       <path id="md5b97d1c57" d="M 0 0 
L 0 3.5 
" style="stroke: #000000; stroke-width: 0.8"/>
      </defs>
      <g>
       <use xlink:href="#md5b97d1c57" x="201.728905" y="458.198125" style="stroke: #000000; stroke-width: 0.8"/>
      </g>
     </g>
     <g id="text_1">
      <text style="font-size: 10px; font-family: 'Palatino Linotype', 'Book Antiqua', 'Palatino', 'DejaVu Serif', serif; text-anchor: middle" x="201.728905" y="472.796562" transform="rotate(-0 201.728905 472.796562)">100</text>
     </g>
    </g>
    <g id="xtick_2">
     <g id="line2d_3">
      <path d="M 361.271991 458.198125 
L 361.271991 22.318125 
" clip-path="url(#p6ee5e23efe)" style="fill: none; stroke: #b0b0b0; stroke-width: 0.8; stroke-linecap: square"/>
     </g>
     <g id="line2d_4">
      <g>
       <use xlink:href="#md5b97d1c57" x="361.271991" y="458.198125" style="stroke: #000000; stroke-width: 0.8"/>
      </g>
     </g>
     <g id="text_2">
      <text style="font-size: 10px; font-family: 'Palatino Linotype', 'Book Antiqua', 'Palatino', 'DejaVu Serif', serif; text-anchor: middle" x="361.271991" y="472.796562" transform="rotate(-0 361.271991 472.796562)">200</text>
     </g>
    </g>
    <g id="xtick_3">
     <g id="line2d_5">
      <path d="M 520.815078 458.198125 
L 520.815078 22.318125 
" clip-path="url(#p6ee5e23efe)" style="fill: none; stroke: #b0b0b0; stroke-width: 0.8; stroke-linecap: square"/>
     </g>
     <g id="line2d_6">
      <g>
       <use xlink:href="#md5b97d1c57" x="520.815078" y="458.198125" style="stroke: #000000; stroke-width: 0.8"/>
      </g>
     </g>
     <g id="text_3">
      <text style="font-size: 10px; font-family: 'Palatino Linotype', 'Book Antiqua', 'Palatino', 'DejaVu Serif', serif; text-anchor: middle" x="520.815078" y="472.796562" transform="rotate(-0 520.815078 472.796562)">300</text>
     </g>
    </g>
    <g id="xtick_4">
     <g id="line2d_7">
      <path d="M 680.358164 458.198125 
L 680.358164 22.318125 
" clip-path="url(#p6ee5e23efe)" style="fill: none; stroke: #b0b0b0; stroke-width: 0.8; stroke-linecap: square"/>
     </g>
     <g id="line2d_8">
      <g>
       <use xlink:href="#md5b97d1c57" x="680.358164" y="458.198125" style="stroke: #000000; stroke-width: 0.8"/>
      </g>
     </g>
     <g id="text_4">
      <text style="font-size: 10px; font-family: 'Palatino Linotype', 'Book Antiqua', 'Palatino', 'DejaVu Serif', serif; text-anchor: middle" x="680.358164" y="472.796562" transform="rotate(-0 680.358164 472.796562)">400</text>
     </g>
    </g>
    <g id="xtick_5">
     <g id="line2d_9">
      <path d="M 839.90125 458.198125 
L 839.90125 22.318125 
" clip-path="url(#p6ee5e23efe)" style="fill: none; stroke: #b0b0b0; stroke-width: 0.8; stroke-linecap: square"/>
     </g>
     <g id="line2d_10">
      <g>
       <use xlink:href="#md5b97d1c57" x="839.90125" y="458.198125" style="stroke: #000000; stroke-width: 0.8"/>
      </g>
     </g>
     <g id="text_5">
      <text style="font-size: 10px; font-family: 'Palatino Linotype', 'Book Antiqua', 'Palatino', 'DejaVu Serif', serif; text-anchor: middle" x="839.90125" y="472.796562" transform="rotate(-0 839.90125 472.796562)">500</text>
     </g>
    </g>
    <g id="text_6">
     <text style="font-size: 10px; font-family: 'Palatino Linotype', 'Book Antiqua', 'Palatino', 'DejaVu Serif', serif; text-anchor: middle" x="441.84125" y="486.474687" transform="rotate(-0 441.84125 486.474687)">Trainings-Episode</text>
    </g>
   </g>
   <g id="matplotlib.axis_2">
    <g id="ytick_1">
     <g id="line2d_11">
      <path d="M 43.78125 438.385398 
L 839.90125 438.385398 
" clip-path="url(#p6ee5e23efe)" style="fill: none; stroke: #b0b0b0; stroke-width: 0.8; stroke-linecap: square"/>
     </g>
     <g id="line2d_12">
      <defs>
       <path id="m12cc1a3ce6" d="M 0 0 
L -3.5 0 
" style="stroke: #000000; stroke-width: 0.8"/>
      </defs>
      <g>
       <use xlink:href="#m12cc1a3ce6" x="43.78125" y="438.385398" style="stroke: #000000; stroke-width: 0.8"/>
      </g>
     </g>
     <g id="text_7">
      <text style="font-size: 10px; font-family: 'Palatino Linotype', 'Book Antiqua', 'Palatino', 'DejaVu Serif', serif; text-anchor: end" x="36.78125" y="442.184616" transform="rotate(-0 36.78125 442.184616)">0.0</text>
     </g>
    </g>
    <g id="ytick_2">
     <g id="line2d_13">
      <path d="M 43.78125 385.785237 
L 839.90125 385.785237 
" clip-path="url(#p6ee5e23efe)" style="fill: none; stroke: #b0b0b0; stroke-width: 0.8; stroke-linecap: square"/>
     </g>
     <g id="line2d_14">
      <g>
       <use xlink:href="#m12cc1a3ce6" x="43.78125" y="385.785237" style="stroke: #000000; stroke-width: 0.8"/>
      </g>
     </g>
     <g id="text_8">
      <text style="font-size: 10px; font-family: 'Palatino Linotype', 'Book Antiqua', 'Palatino', 'DejaVu Serif', serif; text-anchor: end" x="36.78125" y="389.584456" transform="rotate(-0 36.78125 389.584456)">0.1</text>
     </g>
    </g>
    <g id="ytick_3">
     <g id="line2d_15">
      <path d="M 43.78125 333.185076 
L 839.90125 333.185076 
" clip-path="url(#p6ee5e23efe)" style="fill: none; stroke: #b0b0b0; stroke-width: 0.8; stroke-linecap: square"/>
     </g>
     <g id="line2d_16">
      <g>
       <use xlink:href="#m12cc1a3ce6" x="43.78125" y="333.185076" style="stroke: #000000; stroke-width: 0.8"/>
      </g>
     </g>
     <g id="text_9">
      <text style="font-size: 10px; font-family: 'Palatino Linotype', 'Book Antiqua', 'Palatino', 'DejaVu Serif', serif; text-anchor: end" x="36.78125" y="336.984295" transform="rotate(-0 36.78125 336.984295)">0.2</text>
     </g>
    </g>
    <g id="ytick_4">
     <g id="line2d_17">
      <path d="M 43.78125 280.584915 
L 839.90125 280.584915 
" clip-path="url(#p6ee5e23efe)" style="fill: none; stroke: #b0b0b0; stroke-width: 0.8; stroke-linecap: square"/>
     </g>
     <g id="line2d_18">
      <g>
       <use xlink:href="#m12cc1a3ce6" x="43.78125" y="280.584915" style="stroke: #000000; stroke-width: 0.8"/>
      </g>
     </g>
     <g id="text_10">
      <text style="font-size: 10px; font-family: 'Palatino Linotype', 'Book Antiqua', 'Palatino', 'DejaVu Serif', serif; text-anchor: end" x="36.78125" y="284.384134" transform="rotate(-0 36.78125 284.384134)">0.3</text>
     </g>
    </g>
    <g id="ytick_5">
     <g id="line2d_19">
      <path d="M 43.78125 227.984754 
L 839.90125 227.984754 
" clip-path="url(#p6ee5e23efe)" style="fill: none; stroke: #b0b0b0; stroke-width: 0.8; stroke-linecap: square"/>
     </g>
     <g id="line2d_20">
      <g>
       <use xlink:href="#m12cc1a3ce6" x="43.78125" y="227.984754" style="stroke: #000000; stroke-width: 0.8"/>
      </g>
     </g>
     <g id="text_11">
      <text style="font-size: 10px; font-family: 'Palatino Linotype', 'Book Antiqua', 'Palatino', 'DejaVu Serif', serif; text-anchor: end" x="36.78125" y="231.783973" transform="rotate(-0 36.78125 231.783973)">0.4</text>
     </g>
    </g>
    <g id="ytick_6">
     <g id="line2d_21">
      <path d="M 43.78125 175.384593 
L 839.90125 175.384593 
" clip-path="url(#p6ee5e23efe)" style="fill: none; stroke: #b0b0b0; stroke-width: 0.8; stroke-linecap: square"/>
     </g>
     <g id="line2d_22">
      <g>
       <use xlink:href="#m12cc1a3ce6" x="43.78125" y="175.384593" style="stroke: #000000; stroke-width: 0.8"/>
      </g>
     </g>
     <g id="text_12">
      <text style="font-size: 10px; font-family: 'Palatino Linotype', 'Book Antiqua', 'Palatino', 'DejaVu Serif', serif; text-anchor: end" x="36.78125" y="179.183812" transform="rotate(-0 36.78125 179.183812)">0.5</text>
     </g>
    </g>
    <g id="ytick_7">
     <g id="line2d_23">
      <path d="M 43.78125 122.784432 
L 839.90125 122.784432 
" clip-path="url(#p6ee5e23efe)" style="fill: none; stroke: #b0b0b0; stroke-width: 0.8; stroke-linecap: square"/>
     </g>
     <g id="line2d_24">
      <g>
       <use xlink:href="#m12cc1a3ce6" x="43.78125" y="122.784432" style="stroke: #000000; stroke-width: 0.8"/>
      </g>
     </g>
     <g id="text_13">
      <text style="font-size: 10px; font-family: 'Palatino Linotype', 'Book Antiqua', 'Palatino', 'DejaVu Serif', serif; text-anchor: end" x="36.78125" y="126.583651" transform="rotate(-0 36.78125 126.583651)">0.6</text>
     </g>
    </g>
    <g id="ytick_8">
     <g id="line2d_25">
      <path d="M 43.78125 70.184271 
L 839.90125 70.184271 
" clip-path="url(#p6ee5e23efe)" style="fill: none; stroke: #b0b0b0; stroke-width: 0.8; stroke-linecap: square"/>
     </g>
     <g id="line2d_26">
      <g>
       <use xlink:href="#m12cc1a3ce6" x="43.78125" y="70.184271" style="stroke: #000000; stroke-width: 0.8"/>
      </g>
     </g>
     <g id="text_14">
      <text style="font-size: 10px; font-family: 'Palatino Linotype', 'Book Antiqua', 'Palatino', 'DejaVu Serif', serif; text-anchor: end" x="36.78125" y="73.98349" transform="rotate(-0 36.78125 73.98349)">0.7</text>
     </g>
    </g>
    <g id="text_15">
     <text style="font-size: 10px; font-family: 'Palatino Linotype', 'Book Antiqua', 'Palatino', 'DejaVu Serif', serif; text-anchor: middle" x="14.798438" y="240.258125" transform="rotate(-90 14.798438 240.258125)">Rewards</text>
    </g>
   </g>
   <g id="line2d_27">
    <path d="M 43.78125 438.385398 
L 45.376681 438.385398 
L 46.972112 263.051528 
L 48.567543 306.884995 
L 50.162973 227.984754 
L 51.758404 263.051528 
L 53.353835 288.099224 
L 54.949266 306.884995 
L 56.544697 321.496151 
L 58.140128 333.185076 
L 59.735559 342.748742 
L 61.330989 263.051528 
L 62.92642 276.538749 
L 64.521851 288.099224 
L 66.117282 298.118302 
L 67.712713 306.884995 
L 69.308144 252.737771 
L 70.903575 263.051528 
L 72.499006 272.279626 
L 74.094436 280.584915 
L 75.689867 288.099224 
L 77.285298 294.930413 
L 78.880729 255.428316 
L 80.47616 197.301327 
L 82.071591 206.94469 
L 83.667022 215.846255 
L 85.262452 224.088446 
L 88.453314 238.867546 
L 90.048745 245.518141 
L 91.644176 217.804078 
L 93.239607 224.697244 
L 94.835038 183.354315 
L 96.430468 175.384593 
L 99.62133 131.551126 
L 102.812192 147.700298 
L 106.003054 162.234553 
L 109.193915 175.384593 
L 110.789346 169.268295 
L 112.384777 175.384593 
L 113.980208 157.851206 
L 115.575639 163.949776 
L 117.17107 147.405784 
L 118.766501 142.509493 
L 121.957362 154.344529 
L 123.552793 149.600201 
L 125.148224 124.807515 
L 126.743655 110.874962 
L 128.339086 116.93997 
L 129.934517 103.657101 
L 133.125378 115.401954 
L 134.720809 120.970634 
L 136.31624 117.435263 
L 137.911671 122.784432 
L 139.507102 110.712264 
L 142.697963 121.114586 
L 144.293394 117.853167 
L 147.484256 127.566265 
L 150.675118 136.708004 
L 152.270549 133.456929 
L 155.46141 142.046463 
L 157.056841 124.245548 
L 160.247703 132.735814 
L 163.438565 140.779224 
L 166.629426 148.410152 
L 171.415719 159.149976 
L 174.606581 165.87854 
L 176.202012 150.336898 
L 177.797442 147.537449 
L 180.988304 154.223609 
L 182.583735 145.498138 
L 184.179166 148.789006 
L 185.774597 146.162282 
L 190.560889 155.588834 
L 195.347182 164.426226 
L 196.942613 167.250548 
L 201.728905 159.604545 
L 203.324336 151.948878 
L 204.919767 149.600201 
L 209.70606 157.851206 
L 214.492352 165.643823 
L 216.087783 158.494633 
L 220.874076 165.991707 
L 225.660368 173.09763 
L 227.255799 170.850097 
L 228.85123 173.136723 
L 230.446661 166.469312 
L 232.042092 164.334139 
L 233.637523 166.6179 
L 235.232953 160.169671 
L 236.828384 149.515662 
L 240.019246 154.174851 
L 241.614677 152.240522 
L 243.210108 154.511513 
L 244.805539 152.604996 
L 246.400969 146.61888 
L 247.9964 148.880636 
L 249.591831 147.06143 
L 251.187262 149.285277 
L 252.782693 147.490569 
L 254.378124 149.677748 
L 255.973555 147.906897 
L 259.164416 152.17864 
L 260.759847 146.588885 
L 262.355278 148.703352 
L 265.54614 145.327358 
L 267.141571 139.944769 
L 273.523294 148.177613 
L 275.118725 142.959837 
L 276.714156 141.391292 
L 278.309587 143.398009 
L 279.905018 141.847578 
L 281.500448 143.824497 
L 283.095879 143.824497 
L 284.69131 140.317819 
L 286.286741 143.824497 
L 291.073034 143.824497 
L 292.668464 136.811142 
L 294.263895 136.811142 
L 295.859326 129.797787 
L 299.050188 129.797787 
L 300.645619 133.304465 
L 303.83648 126.29111 
L 307.027342 126.29111 
L 308.622773 129.797787 
L 310.218204 126.29111 
L 315.004496 126.29111 
L 316.599927 115.771078 
L 318.195358 122.784432 
L 324.577082 122.784432 
L 326.172513 119.277755 
L 329.363374 119.277755 
L 330.958805 126.29111 
L 332.554236 119.277755 
L 334.149667 129.797787 
L 335.745098 133.304465 
L 337.340529 133.304465 
L 338.935959 140.317819 
L 340.53139 136.811142 
L 348.508545 136.811142 
L 350.103975 140.317819 
L 351.699406 140.317819 
L 353.294837 147.331174 
L 354.890268 147.331174 
L 356.485699 143.824497 
L 359.676561 143.824497 
L 361.271991 140.317819 
L 362.867422 140.317819 
L 364.462853 147.331174 
L 367.653715 147.331174 
L 369.249146 150.837851 
L 372.440008 150.837851 
L 375.630869 143.824497 
L 377.2263 143.824497 
L 378.821731 150.837851 
L 380.417162 147.331174 
L 382.012593 140.317819 
L 383.608024 140.317819 
L 385.203454 136.811142 
L 386.798885 129.797787 
L 388.394316 129.797787 
L 389.989747 126.29111 
L 391.585178 129.797787 
L 394.77604 129.797787 
L 396.37147 140.317819 
L 397.966901 136.811142 
L 409.134917 136.811142 
L 410.730348 129.797787 
L 413.92121 129.797787 
L 415.516641 140.317819 
L 417.112072 143.824497 
L 420.302933 143.824497 
L 421.898364 150.837851 
L 423.493795 147.331174 
L 425.089226 150.837851 
L 429.875519 140.317819 
L 431.470949 129.797787 
L 433.06638 129.797787 
L 434.661811 126.29111 
L 436.257242 126.29111 
L 437.852673 129.797787 
L 439.448104 126.29111 
L 441.043535 129.797787 
L 442.638965 136.811142 
L 445.829827 136.811142 
L 447.425258 133.304465 
L 449.020689 122.784432 
L 450.61612 115.771078 
L 453.806981 94.731013 
L 455.402412 98.237691 
L 456.997843 98.237691 
L 460.188705 91.224336 
L 461.784136 84.210981 
L 463.379567 84.210981 
L 464.974997 80.704304 
L 466.570428 84.210981 
L 468.165859 80.704304 
L 469.76129 87.717658 
L 471.356721 87.717658 
L 472.952152 84.210981 
L 474.547583 91.224336 
L 476.143014 101.744368 
L 477.738444 91.224336 
L 479.333875 91.224336 
L 480.929306 94.731013 
L 482.524737 94.731013 
L 485.715599 101.744368 
L 487.31103 94.731013 
L 488.90646 94.731013 
L 490.501891 87.717658 
L 492.097322 84.210981 
L 493.692753 73.690949 
L 495.288184 77.197626 
L 496.883615 73.690949 
L 501.669907 73.690949 
L 504.860769 80.704304 
L 506.4562 87.717658 
L 508.051631 87.717658 
L 509.647062 84.210981 
L 511.242492 77.197626 
L 512.837923 66.677594 
L 514.433354 73.690949 
L 516.028785 77.197626 
L 517.624216 77.197626 
L 519.219647 80.704304 
L 522.410509 80.704304 
L 524.005939 84.210981 
L 525.60137 73.690949 
L 527.196801 70.184271 
L 528.792232 73.690949 
L 530.387663 73.690949 
L 531.983094 77.197626 
L 535.173955 77.197626 
L 536.769386 73.690949 
L 539.960248 73.690949 
L 543.15111 80.704304 
L 549.532833 80.704304 
L 551.128264 77.197626 
L 552.723695 77.197626 
L 554.319126 73.690949 
L 555.914557 84.210981 
L 557.509987 84.210981 
L 559.105418 91.224336 
L 562.29628 91.224336 
L 563.891711 87.717658 
L 565.487142 80.704304 
L 567.082573 80.704304 
L 568.678004 73.690949 
L 570.273434 70.184271 
L 571.868865 77.197626 
L 573.464296 73.690949 
L 575.059727 73.690949 
L 576.655158 77.197626 
L 578.250589 77.197626 
L 579.84602 80.704304 
L 583.036881 80.704304 
L 584.632312 73.690949 
L 587.823174 66.677594 
L 589.418605 56.157562 
L 594.204897 56.157562 
L 595.800328 66.677594 
L 597.395759 70.184271 
L 598.99119 70.184271 
L 600.586621 63.170917 
L 605.372913 73.690949 
L 608.563775 73.690949 
L 610.159206 66.677594 
L 613.350068 66.677594 
L 614.945498 70.184271 
L 616.540929 66.677594 
L 618.13636 66.677594 
L 619.731791 70.184271 
L 621.327222 77.197626 
L 624.518084 70.184271 
L 626.113515 77.197626 
L 627.708945 70.184271 
L 629.304376 73.690949 
L 632.495238 73.690949 
L 635.6861 66.677594 
L 637.281531 70.184271 
L 638.876961 70.184271 
L 642.067823 63.170917 
L 646.854116 63.170917 
L 648.449547 59.664239 
L 650.044977 66.677594 
L 651.640408 66.677594 
L 653.235839 63.170917 
L 658.022132 63.170917 
L 659.617563 59.664239 
L 661.212993 59.664239 
L 662.808424 63.170917 
L 664.403855 63.170917 
L 669.190148 73.690949 
L 670.785579 80.704304 
L 672.38101 77.197626 
L 673.97644 80.704304 
L 675.571871 80.704304 
L 677.167302 73.690949 
L 678.762733 80.704304 
L 681.953595 73.690949 
L 683.549026 73.690949 
L 685.144456 70.184271 
L 686.739887 70.184271 
L 691.52618 91.224336 
L 694.717042 98.237691 
L 696.312472 98.237691 
L 697.907903 94.731013 
L 699.503334 98.237691 
L 701.098765 105.251045 
L 702.694196 94.731013 
L 704.289627 98.237691 
L 705.885058 87.717658 
L 707.480488 91.224336 
L 709.075919 91.224336 
L 712.266781 98.237691 
L 715.457643 98.237691 
L 717.053074 108.757723 
L 718.648505 108.757723 
L 720.243935 105.251045 
L 723.434797 105.251045 
L 725.030228 108.757723 
L 726.625659 115.771078 
L 728.22109 119.277755 
L 733.007382 140.317819 
L 734.602813 140.317819 
L 736.198244 136.811142 
L 737.793675 136.811142 
L 739.389106 143.824497 
L 740.984537 140.317819 
L 742.579967 133.304465 
L 744.175398 129.797787 
L 745.770829 129.797787 
L 747.36626 126.29111 
L 748.961691 126.29111 
L 750.557122 129.797787 
L 752.152553 136.811142 
L 755.343414 129.797787 
L 756.938845 119.277755 
L 758.534276 119.277755 
L 760.129707 115.771078 
L 761.725138 105.251045 
L 763.320569 105.251045 
L 764.915999 115.771078 
L 766.51143 119.277755 
L 768.106861 112.2644 
L 769.702292 112.2644 
L 771.297723 115.771078 
L 772.893154 115.771078 
L 774.488585 122.784432 
L 780.870308 122.784432 
L 782.465739 119.277755 
L 784.06117 112.2644 
L 785.656601 112.2644 
L 787.252032 105.251045 
L 790.442893 112.2644 
L 792.038324 112.2644 
L 793.633755 115.771078 
L 795.229186 112.2644 
L 796.824617 101.744368 
L 798.420048 94.731013 
L 801.610909 73.690949 
L 803.20634 66.677594 
L 804.801771 77.197626 
L 806.397202 66.677594 
L 807.992633 73.690949 
L 809.588064 66.677594 
L 811.183494 63.170917 
L 812.778925 66.677594 
L 819.160649 52.650884 
L 822.351511 52.650884 
L 823.946941 56.157562 
L 825.542372 52.650884 
L 827.137803 52.650884 
L 828.733234 63.170917 
L 830.328665 59.664239 
L 831.924096 49.144207 
L 835.114957 49.144207 
L 838.305819 42.130852 
L 839.90125 49.144207 
L 839.90125 49.144207 
" clip-path="url(#p6ee5e23efe)" style="fill: none; stroke: #1f77b4; stroke-width: 2.2; stroke-linecap: square"/>
   </g>
   <g id="line2d_28">
    <path d="M 43.78125 438.385398 
L 45.376681 438.385398 
L 46.972112 263.051528 
L 48.567543 306.884995 
L 50.162973 227.984754 
L 51.758404 263.051528 
L 53.353835 288.099224 
L 54.949266 306.884995 
L 56.544697 321.496151 
L 58.140128 333.185076 
L 59.735559 342.748742 
L 61.330989 263.051528 
L 62.92642 276.538749 
L 64.521851 288.099224 
L 66.117282 298.118302 
L 67.712713 306.884995 
L 69.308144 252.737771 
L 70.903575 263.051528 
L 72.499006 272.279626 
L 74.094436 280.584915 
L 75.689867 288.099224 
L 77.285298 294.930413 
L 78.880729 255.428316 
L 80.47616 197.301327 
L 82.071591 206.94469 
L 83.667022 215.846255 
L 85.262452 224.088446 
L 88.453314 238.867546 
L 90.048745 245.518141 
L 91.644176 217.804078 
L 93.239607 224.697244 
L 94.835038 183.354315 
L 96.430468 175.384593 
L 99.62133 131.551126 
L 102.812192 147.700298 
L 106.003054 162.234553 
L 109.193915 175.384593 
L 110.789346 169.268295 
L 112.384777 175.384593 
L 113.980208 157.851206 
L 115.575639 163.949776 
L 117.17107 147.405784 
L 118.766501 142.509493 
L 121.957362 154.344529 
L 123.552793 149.600201 
L 125.148224 124.807515 
L 126.743655 110.874962 
L 128.339086 116.93997 
L 129.934517 103.657101 
L 133.125378 115.401954 
L 134.720809 120.970634 
L 136.31624 117.435263 
L 137.911671 122.784432 
L 139.507102 110.712264 
L 142.697963 121.114586 
L 144.293394 117.853167 
L 147.484256 127.566265 
L 150.675118 136.708004 
L 152.270549 133.456929 
L 155.46141 142.046463 
L 157.056841 124.245548 
L 160.247703 132.735814 
L 163.438565 140.779224 
L 166.629426 148.410152 
L 171.415719 159.149976 
L 174.606581 165.87854 
L 176.202012 150.336898 
L 177.797442 147.537449 
L 180.988304 154.223609 
L 182.583735 145.498138 
L 184.179166 148.789006 
L 185.774597 146.162282 
L 190.560889 155.588834 
L 195.347182 164.426226 
L 196.942613 167.250548 
L 201.728905 159.604545 
L 203.324336 151.948878 
L 204.919767 149.600201 
L 209.70606 157.851206 
L 214.492352 165.643823 
L 216.087783 158.494633 
L 220.874076 165.991707 
L 225.660368 173.09763 
L 227.255799 170.850097 
L 228.85123 173.136723 
L 230.446661 166.469312 
L 232.042092 164.334139 
L 233.637523 166.6179 
L 235.232953 160.169671 
L 236.828384 149.515662 
L 240.019246 154.174851 
L 241.614677 152.240522 
L 243.210108 154.511513 
L 244.805539 152.604996 
L 246.400969 146.61888 
L 247.9964 148.880636 
L 249.591831 147.06143 
L 251.187262 149.285277 
L 252.782693 147.490569 
L 254.378124 149.677748 
L 255.973555 147.906897 
L 259.164416 152.17864 
L 260.759847 146.588885 
L 262.355278 148.703352 
L 265.54614 145.327358 
L 267.141571 139.944769 
L 273.523294 148.177613 
L 275.118725 142.959837 
L 276.714156 141.391292 
L 278.309587 143.398009 
L 279.905018 141.847578 
L 281.500448 143.824497 
L 283.095879 143.824497 
L 284.69131 140.317819 
L 286.286741 143.824497 
L 291.073034 143.824497 
L 292.668464 136.811142 
L 294.263895 136.811142 
L 295.859326 129.797787 
L 299.050188 129.797787 
L 300.645619 133.304465 
L 303.83648 126.29111 
L 307.027342 126.29111 
L 308.622773 129.797787 
L 310.218204 126.29111 
L 315.004496 126.29111 
L 316.599927 115.771078 
L 318.195358 122.784432 
L 324.577082 122.784432 
L 326.172513 119.277755 
L 329.363374 119.277755 
L 330.958805 126.29111 
L 332.554236 119.277755 
L 334.149667 129.797787 
L 335.745098 133.304465 
L 337.340529 133.304465 
L 338.935959 140.317819 
L 340.53139 136.811142 
L 348.508545 136.811142 
L 350.103975 140.317819 
L 351.699406 140.317819 
L 353.294837 147.331174 
L 354.890268 147.331174 
L 356.485699 143.824497 
L 359.676561 143.824497 
L 361.271991 140.317819 
L 362.867422 140.317819 
L 364.462853 147.331174 
L 367.653715 147.331174 
L 369.249146 150.837851 
L 372.440008 150.837851 
L 375.630869 143.824497 
L 377.2263 143.824497 
L 378.821731 150.837851 
L 380.417162 147.331174 
L 382.012593 140.317819 
L 383.608024 140.317819 
L 385.203454 136.811142 
L 386.798885 129.797787 
L 388.394316 129.797787 
L 389.989747 126.29111 
L 391.585178 129.797787 
L 394.77604 129.797787 
L 396.37147 140.317819 
L 397.966901 136.811142 
L 409.134917 136.811142 
L 410.730348 129.797787 
L 413.92121 129.797787 
L 415.516641 140.317819 
L 417.112072 143.824497 
L 420.302933 143.824497 
L 421.898364 150.837851 
L 423.493795 147.331174 
L 425.089226 150.837851 
L 429.875519 140.317819 
L 431.470949 129.797787 
L 433.06638 129.797787 
L 434.661811 126.29111 
L 436.257242 126.29111 
L 437.852673 129.797787 
L 439.448104 126.29111 
L 441.043535 129.797787 
L 442.638965 136.811142 
L 445.829827 136.811142 
L 447.425258 133.304465 
L 449.020689 122.784432 
L 450.61612 115.771078 
L 453.806981 94.731013 
L 455.402412 98.237691 
L 456.997843 98.237691 
L 460.188705 91.224336 
L 461.784136 84.210981 
L 463.379567 84.210981 
L 464.974997 80.704304 
L 466.570428 84.210981 
L 468.165859 80.704304 
L 469.76129 87.717658 
L 471.356721 87.717658 
L 472.952152 84.210981 
L 474.547583 91.224336 
L 476.143014 101.744368 
L 477.738444 91.224336 
L 479.333875 91.224336 
L 480.929306 94.731013 
L 482.524737 94.731013 
L 485.715599 101.744368 
L 487.31103 94.731013 
L 488.90646 94.731013 
L 490.501891 87.717658 
L 492.097322 84.210981 
L 493.692753 73.690949 
L 495.288184 77.197626 
L 496.883615 73.690949 
L 501.669907 73.690949 
L 504.860769 80.704304 
L 506.4562 87.717658 
L 508.051631 87.717658 
L 509.647062 84.210981 
L 511.242492 77.197626 
L 512.837923 66.677594 
L 514.433354 73.690949 
L 516.028785 77.197626 
L 517.624216 77.197626 
L 519.219647 80.704304 
L 522.410509 80.704304 
L 524.005939 84.210981 
L 525.60137 73.690949 
L 527.196801 70.184271 
L 528.792232 73.690949 
L 530.387663 73.690949 
L 531.983094 77.197626 
L 535.173955 77.197626 
L 536.769386 73.690949 
L 539.960248 73.690949 
L 543.15111 80.704304 
L 549.532833 80.704304 
L 551.128264 77.197626 
L 552.723695 77.197626 
L 554.319126 73.690949 
L 555.914557 84.210981 
L 557.509987 84.210981 
L 559.105418 91.224336 
L 562.29628 91.224336 
L 563.891711 87.717658 
L 565.487142 80.704304 
L 567.082573 80.704304 
L 568.678004 73.690949 
L 570.273434 70.184271 
L 571.868865 77.197626 
L 573.464296 73.690949 
L 575.059727 73.690949 
L 576.655158 77.197626 
L 578.250589 77.197626 
L 579.84602 80.704304 
L 583.036881 80.704304 
L 584.632312 73.690949 
L 587.823174 66.677594 
L 589.418605 56.157562 
L 594.204897 56.157562 
L 595.800328 66.677594 
L 597.395759 70.184271 
L 598.99119 70.184271 
L 600.586621 63.170917 
L 605.372913 73.690949 
L 608.563775 73.690949 
L 610.159206 66.677594 
L 613.350068 66.677594 
L 614.945498 70.184271 
L 616.540929 66.677594 
L 618.13636 66.677594 
L 619.731791 70.184271 
L 621.327222 77.197626 
L 624.518084 70.184271 
L 626.113515 77.197626 
L 627.708945 70.184271 
L 629.304376 73.690949 
L 632.495238 73.690949 
L 635.6861 66.677594 
L 637.281531 70.184271 
L 638.876961 70.184271 
L 642.067823 63.170917 
L 646.854116 63.170917 
L 648.449547 59.664239 
L 650.044977 66.677594 
L 651.640408 66.677594 
L 653.235839 63.170917 
L 658.022132 63.170917 
L 659.617563 59.664239 
L 661.212993 59.664239 
L 662.808424 63.170917 
L 664.403855 63.170917 
L 669.190148 73.690949 
L 670.785579 80.704304 
L 672.38101 77.197626 
L 673.97644 80.704304 
L 675.571871 80.704304 
L 677.167302 73.690949 
L 678.762733 80.704304 
L 681.953595 73.690949 
L 683.549026 73.690949 
L 685.144456 70.184271 
L 686.739887 70.184271 
L 691.52618 91.224336 
L 694.717042 98.237691 
L 696.312472 98.237691 
L 697.907903 94.731013 
L 699.503334 98.237691 
L 701.098765 105.251045 
L 702.694196 94.731013 
L 704.289627 98.237691 
L 705.885058 87.717658 
L 707.480488 91.224336 
L 709.075919 91.224336 
L 712.266781 98.237691 
L 715.457643 98.237691 
L 717.053074 108.757723 
L 718.648505 108.757723 
L 720.243935 105.251045 
L 723.434797 105.251045 
L 725.030228 108.757723 
L 726.625659 115.771078 
L 728.22109 119.277755 
L 733.007382 140.317819 
L 734.602813 140.317819 
L 736.198244 136.811142 
L 737.793675 136.811142 
L 739.389106 143.824497 
L 740.984537 140.317819 
L 742.579967 133.304465 
L 744.175398 129.797787 
L 745.770829 129.797787 
L 747.36626 126.29111 
L 748.961691 126.29111 
L 750.557122 129.797787 
L 752.152553 136.811142 
L 755.343414 129.797787 
L 756.938845 119.277755 
L 758.534276 119.277755 
L 760.129707 115.771078 
L 761.725138 105.251045 
L 763.320569 105.251045 
L 764.915999 115.771078 
L 766.51143 119.277755 
L 768.106861 112.2644 
L 769.702292 112.2644 
L 771.297723 115.771078 
L 772.893154 115.771078 
L 774.488585 122.784432 
L 780.870308 122.784432 
L 782.465739 119.277755 
L 784.06117 112.2644 
L 785.656601 112.2644 
L 787.252032 105.251045 
L 790.442893 112.2644 
L 792.038324 112.2644 
L 793.633755 115.771078 
L 795.229186 112.2644 
L 796.824617 101.744368 
L 798.420048 94.731013 
L 801.610909 73.690949 
L 803.20634 66.677594 
L 804.801771 77.197626 
L 806.397202 66.677594 
L 807.992633 73.690949 
L 809.588064 66.677594 
L 811.183494 63.170917 
L 812.778925 66.677594 
L 819.160649 52.650884 
L 822.351511 52.650884 
L 823.946941 56.157562 
L 825.542372 52.650884 
L 827.137803 52.650884 
L 828.733234 63.170917 
L 830.328665 59.664239 
L 831.924096 49.144207 
L 835.114957 49.144207 
L 838.305819 42.130852 
L 839.90125 49.144207 
L 839.90125 49.144207 
" clip-path="url(#p6ee5e23efe)" style="fill: none; stroke-dasharray: 6.66,2.88; stroke-dashoffset: 0; stroke: #6baed6; stroke-width: 1.8"/>
   </g>
   <g id="line2d_29">
    <path d="M 43.78125 438.385398 
L 839.90125 438.385398 
L 839.90125 438.385398 
" clip-path="url(#p6ee5e23efe)" style="fill: none; stroke-dasharray: 1.8,2.97; stroke-dashoffset: 0; stroke: #08519c; stroke-width: 1.8"/>
   </g>
   <g id="patch_3">
    <path d="M 43.78125 458.198125 
L 43.78125 22.318125 
" style="fill: none; stroke: #000000; stroke-width: 0.8; stroke-linejoin: miter; stroke-linecap: square"/>
   </g>
   <g id="patch_4">
    <path d="M 839.90125 458.198125 
L 839.90125 22.318125 
" style="fill: none; stroke: #000000; stroke-width: 0.8; stroke-linejoin: miter; stroke-linecap: square"/>
   </g>
   <g id="patch_5">
    <path d="M 43.78125 458.198125 
L 839.90125 458.198125 
" style="fill: none; stroke: #000000; stroke-width: 0.8; stroke-linejoin: miter; stroke-linecap: square"/>
   </g>
   <g id="patch_6">
    <path d="M 43.78125 22.318125 
L 839.90125 22.318125 
" style="fill: none; stroke: #000000; stroke-width: 0.8; stroke-linejoin: miter; stroke-linecap: square"/>
   </g>
   <g id="text_16">
    <text style="font-size: 12px; font-family: 'Palatino Linotype', 'Book Antiqua', 'Palatino', 'DejaVu Serif', serif; text-anchor: middle" x="441.84125" y="16.318125" transform="rotate(-0 441.84125 16.318125)">Rewards (Training) – Final Komponenten</text>
   </g>
   <g id="legend_1">
    <g id="patch_7">
     <path d="M 50.78125 74.3525 
L 188.048438 74.3525 
Q 190.048438 74.3525 190.048438 72.3525 
L 190.048438 29.318125 
Q 190.048438 27.318125 188.048438 27.318125 
L 50.78125 27.318125 
Q 48.78125 27.318125 48.78125 29.318125 
L 48.78125 72.3525 
Q 48.78125 74.3525 50.78125 74.3525 
z
" style="fill: #ffffff; opacity: 0.8; stroke: #cccccc; stroke-linejoin: miter"/>
    </g>
    <g id="line2d_30">
     <path d="M 52.78125 35.416562 
L 62.78125 35.416562 
L 72.78125 35.416562 
" style="fill: none; stroke: #1f77b4; stroke-width: 2.2; stroke-linecap: square"/>
    </g>
    <g id="text_17">
     <text style="font-size: 10px; font-family: 'Palatino Linotype', 'Book Antiqua', 'Palatino', 'DejaVu Serif', serif; text-anchor: start" x="80.78125" y="38.916562" transform="rotate(-0 80.78125 38.916562)">Final Reward (Total)</text>
    </g>
    <g id="line2d_31">
     <path d="M 52.78125 50.094687 
L 62.78125 50.094687 
L 72.78125 50.094687 
" style="fill: none; stroke-dasharray: 6.66,2.88; stroke-dashoffset: 0; stroke: #6baed6; stroke-width: 1.8"/>
    </g>
    <g id="text_18">
     <text style="font-size: 10px; font-family: 'Palatino Linotype', 'Book Antiqua', 'Palatino', 'DejaVu Serif', serif; text-anchor: start" x="80.78125" y="53.594687" transform="rotate(-0 80.78125 53.594687)">Final Reward (Env)</text>
    </g>
    <g id="line2d_32">
     <path d="M 52.78125 64.772812 
L 62.78125 64.772812 
L 72.78125 64.772812 
" style="fill: none; stroke-dasharray: 1.8,2.97; stroke-dashoffset: 0; stroke: #08519c; stroke-width: 1.8"/>
    </g>
    <g id="text_19">
     <text style="font-size: 10px; font-family: 'Palatino Linotype', 'Book Antiqua', 'Palatino', 'DejaVu Serif', serif; text-anchor: start" x="80.78125" y="68.272812" transform="rotate(-0 80.78125 68.272812)">Final Reward (Rank)</text>
    </g>
   </g>
  </g>
 </g>
 <defs>
  <clipPath id="p6ee5e23efe">
   <rect x="43.78125" y="22.318125" width="796.12" height="435.88"/>
  </clipPath>
 </defs>
</svg>
