<?xml version="1.0" encoding="utf-8" standalone="no"?>
<!DOCTYPE svg PUBLIC "-//W3C//DTD SVG 1.1//EN"
  "http://www.w3.org/Graphics/SVG/1.1/DTD/svg11.dtd">
<svg xmlns:xlink="http://www.w3.org/1999/xlink" width="856.564062pt" height="495.896562pt" viewBox="0 0 856.564062 495.896562" xmlns="http://www.w3.org/2000/svg" version="1.1">
 <metadata>
  <rdf:RDF xmlns:dc="http://purl.org/dc/elements/1.1/" xmlns:cc="http://creativecommons.org/ns#" xmlns:rdf="http://www.w3.org/1999/02/22-rdf-syntax-ns#">
   <cc:Work>
    <dc:type rdf:resource="http://purl.org/dc/dcmitype/StillImage"/>
    <dc:date>2025-09-24T21:07:13.677749</dc:date>
    <dc:format>image/svg+xml</dc:format>
    <dc:creator>
     <cc:Agent>
      <dc:title>Matplotlib v3.10.3, https://matplotlib.org/</dc:title>
     </cc:Agent>
    </dc:creator>
   </cc:Work>
  </rdf:RDF>
 </metadata>
 <defs>
  <style type="text/css">*{stroke-linejoin: round; stroke-linecap: butt}</style>
 </defs>
 <g id="figure_1">
  <g id="patch_1">
   <path d="M 0 495.896562 
L 856.564062 495.896562 
L 856.564062 0 
L 0 0 
z
" style="fill: #ffffff"/>
  </g>
  <g id="axes_1">
   <g id="patch_2">
    <path d="M 42.620313 458.198125 
L 839.820312 458.198125 
L 839.820312 22.318125 
L 42.620313 22.318125 
z
" style="fill: #ffffff"/>
   </g>
   <g id="matplotlib.axis_1">
    <g id="xtick_1">
     <g id="line2d_1">
      <path d="M 200.782236 458.198125 
L 200.782236 22.318125 
" clip-path="url(#pbee010ba94)" style="fill: none; stroke: #b0b0b0; stroke-width: 0.8; stroke-linecap: square"/>
     </g>
     <g id="line2d_2">
      <defs>
       <path id="m5762eaadd5" d="M 0 0 
L 0 3.5 
" style="stroke: #000000; stroke-width: 0.8"/>
      </defs>
      <g>
       <use xlink:href="#m5762eaadd5" x="200.782236" y="458.198125" style="stroke: #000000; stroke-width: 0.8"/>
      </g>
     </g>
     <g id="text_1">
      <text style="font-size: 10px; font-family: 'Palatino Linotype', 'Book Antiqua', 'Palatino', 'DejaVu Serif', serif; text-anchor: middle" x="200.782236" y="472.796562" transform="rotate(-0 200.782236 472.796562)">100</text>
     </g>
    </g>
    <g id="xtick_2">
     <g id="line2d_3">
      <path d="M 360.541755 458.198125 
L 360.541755 22.318125 
" clip-path="url(#pbee010ba94)" style="fill: none; stroke: #b0b0b0; stroke-width: 0.8; stroke-linecap: square"/>
     </g>
     <g id="line2d_4">
      <g>
       <use xlink:href="#m5762eaadd5" x="360.541755" y="458.198125" style="stroke: #000000; stroke-width: 0.8"/>
      </g>
     </g>
     <g id="text_2">
      <text style="font-size: 10px; font-family: 'Palatino Linotype', 'Book Antiqua', 'Palatino', 'DejaVu Serif', serif; text-anchor: middle" x="360.541755" y="472.796562" transform="rotate(-0 360.541755 472.796562)">200</text>
     </g>
    </g>
    <g id="xtick_3">
     <g id="line2d_5">
      <path d="M 520.301274 458.198125 
L 520.301274 22.318125 
" clip-path="url(#pbee010ba94)" style="fill: none; stroke: #b0b0b0; stroke-width: 0.8; stroke-linecap: square"/>
     </g>
     <g id="line2d_6">
      <g>
       <use xlink:href="#m5762eaadd5" x="520.301274" y="458.198125" style="stroke: #000000; stroke-width: 0.8"/>
      </g>
     </g>
     <g id="text_3">
      <text style="font-size: 10px; font-family: 'Palatino Linotype', 'Book Antiqua', 'Palatino', 'DejaVu Serif', serif; text-anchor: middle" x="520.301274" y="472.796562" transform="rotate(-0 520.301274 472.796562)">300</text>
     </g>
    </g>
    <g id="xtick_4">
     <g id="line2d_7">
      <path d="M 680.060793 458.198125 
L 680.060793 22.318125 
" clip-path="url(#pbee010ba94)" style="fill: none; stroke: #b0b0b0; stroke-width: 0.8; stroke-linecap: square"/>
     </g>
     <g id="line2d_8">
      <g>
       <use xlink:href="#m5762eaadd5" x="680.060793" y="458.198125" style="stroke: #000000; stroke-width: 0.8"/>
      </g>
     </g>
     <g id="text_4">
      <text style="font-size: 10px; font-family: 'Palatino Linotype', 'Book Antiqua', 'Palatino', 'DejaVu Serif', serif; text-anchor: middle" x="680.060793" y="472.796562" transform="rotate(-0 680.060793 472.796562)">400</text>
     </g>
    </g>
    <g id="xtick_5">
     <g id="line2d_9">
      <path d="M 839.820312 458.198125 
L 839.820312 22.318125 
" clip-path="url(#pbee010ba94)" style="fill: none; stroke: #b0b0b0; stroke-width: 0.8; stroke-linecap: square"/>
     </g>
     <g id="line2d_10">
      <g>
       <use xlink:href="#m5762eaadd5" x="839.820312" y="458.198125" style="stroke: #000000; stroke-width: 0.8"/>
      </g>
     </g>
     <g id="text_5">
      <text style="font-size: 10px; font-family: 'Palatino Linotype', 'Book Antiqua', 'Palatino', 'DejaVu Serif', serif; text-anchor: middle" x="839.820312" y="472.796562" transform="rotate(-0 839.820312 472.796562)">500</text>
     </g>
    </g>
    <g id="text_6">
     <text style="font-size: 10px; font-family: 'Palatino Linotype', 'Book Antiqua', 'Palatino', 'DejaVu Serif', serif; text-anchor: middle" x="441.220313" y="486.474687" transform="rotate(-0 441.220313 486.474687)">Trainings-Episode</text>
    </g>
   </g>
   <g id="matplotlib.axis_2">
    <g id="ytick_1">
     <g id="line2d_11">
      <path d="M 42.620313 456.045767 
L 839.820312 456.045767 
" clip-path="url(#pbee010ba94)" style="fill: none; stroke: #b0b0b0; stroke-width: 0.8; stroke-linecap: square"/>
     </g>
     <g id="line2d_12">
      <defs>
       <path id="md53b894e64" d="M 0 0 
L -3.5 0 
" style="stroke: #000000; stroke-width: 0.8"/>
      </defs>
      <g>
       <use xlink:href="#md53b894e64" x="42.620313" y="456.045767" style="stroke: #000000; stroke-width: 0.8"/>
      </g>
     </g>
     <g id="text_7">
      <text style="font-size: 10px; font-family: 'Palatino Linotype', 'Book Antiqua', 'Palatino', 'DejaVu Serif', serif; text-anchor: end" x="35.620313" y="459.844986" transform="rotate(-0 35.620313 459.844986)">−2</text>
     </g>
    </g>
    <g id="ytick_2">
     <g id="line2d_13">
      <path d="M 42.620313 373.262784 
L 839.820312 373.262784 
" clip-path="url(#pbee010ba94)" style="fill: none; stroke: #b0b0b0; stroke-width: 0.8; stroke-linecap: square"/>
     </g>
     <g id="line2d_14">
      <g>
       <use xlink:href="#md53b894e64" x="42.620313" y="373.262784" style="stroke: #000000; stroke-width: 0.8"/>
      </g>
     </g>
     <g id="text_8">
      <text style="font-size: 10px; font-family: 'Palatino Linotype', 'Book Antiqua', 'Palatino', 'DejaVu Serif', serif; text-anchor: end" x="35.620313" y="377.062003" transform="rotate(-0 35.620313 377.062003)">0</text>
     </g>
    </g>
    <g id="ytick_3">
     <g id="line2d_15">
      <path d="M 42.620313 290.479801 
L 839.820312 290.479801 
" clip-path="url(#pbee010ba94)" style="fill: none; stroke: #b0b0b0; stroke-width: 0.8; stroke-linecap: square"/>
     </g>
     <g id="line2d_16">
      <g>
       <use xlink:href="#md53b894e64" x="42.620313" y="290.479801" style="stroke: #000000; stroke-width: 0.8"/>
      </g>
     </g>
     <g id="text_9">
      <text style="font-size: 10px; font-family: 'Palatino Linotype', 'Book Antiqua', 'Palatino', 'DejaVu Serif', serif; text-anchor: end" x="35.620313" y="294.27902" transform="rotate(-0 35.620313 294.27902)">2</text>
     </g>
    </g>
    <g id="ytick_4">
     <g id="line2d_17">
      <path d="M 42.620313 207.696818 
L 839.820312 207.696818 
" clip-path="url(#pbee010ba94)" style="fill: none; stroke: #b0b0b0; stroke-width: 0.8; stroke-linecap: square"/>
     </g>
     <g id="line2d_18">
      <g>
       <use xlink:href="#md53b894e64" x="42.620313" y="207.696818" style="stroke: #000000; stroke-width: 0.8"/>
      </g>
     </g>
     <g id="text_10">
      <text style="font-size: 10px; font-family: 'Palatino Linotype', 'Book Antiqua', 'Palatino', 'DejaVu Serif', serif; text-anchor: end" x="35.620313" y="211.496037" transform="rotate(-0 35.620313 211.496037)">4</text>
     </g>
    </g>
    <g id="ytick_5">
     <g id="line2d_19">
      <path d="M 42.620313 124.913835 
L 839.820312 124.913835 
" clip-path="url(#pbee010ba94)" style="fill: none; stroke: #b0b0b0; stroke-width: 0.8; stroke-linecap: square"/>
     </g>
     <g id="line2d_20">
      <g>
       <use xlink:href="#md53b894e64" x="42.620313" y="124.913835" style="stroke: #000000; stroke-width: 0.8"/>
      </g>
     </g>
     <g id="text_11">
      <text style="font-size: 10px; font-family: 'Palatino Linotype', 'Book Antiqua', 'Palatino', 'DejaVu Serif', serif; text-anchor: end" x="35.620313" y="128.713054" transform="rotate(-0 35.620313 128.713054)">6</text>
     </g>
    </g>
    <g id="ytick_6">
     <g id="line2d_21">
      <path d="M 42.620313 42.130852 
L 839.820312 42.130852 
" clip-path="url(#pbee010ba94)" style="fill: none; stroke: #b0b0b0; stroke-width: 0.8; stroke-linecap: square"/>
     </g>
     <g id="line2d_22">
      <g>
       <use xlink:href="#md53b894e64" x="42.620313" y="42.130852" style="stroke: #000000; stroke-width: 0.8"/>
      </g>
     </g>
     <g id="text_12">
      <text style="font-size: 10px; font-family: 'Palatino Linotype', 'Book Antiqua', 'Palatino', 'DejaVu Serif', serif; text-anchor: end" x="35.620313" y="45.930071" transform="rotate(-0 35.620313 45.930071)">8</text>
     </g>
    </g>
    <g id="text_13">
     <text style="font-size: 10px; font-family: 'Palatino Linotype', 'Book Antiqua', 'Palatino', 'DejaVu Serif', serif; text-anchor: middle" x="14.798438" y="240.258125" transform="rotate(-90 14.798438 240.258125)">Rewards</text>
    </g>
   </g>
   <g id="line2d_23">
    <path d="M 42.620313 42.130852 
L 44.217908 269.784056 
L 45.815503 290.479801 
L 47.413098 342.219166 
L 49.010693 340.149591 
L 50.608288 366.364202 
L 52.205884 355.523574 
L 53.803479 352.567039 
L 55.401074 368.66373 
L 56.998669 360.845337 
L 58.596264 373.262784 
L 60.19386 383.610657 
L 61.791455 392.36655 
L 63.38905 385.088925 
L 64.986645 392.578814 
L 66.58424 399.132467 
L 68.181836 378.132372 
L 69.779431 375.562312 
L 71.377026 381.976783 
L 72.974621 387.749806 
L 74.572216 385.088925 
L 76.169811 390.195667 
L 77.767407 394.858345 
L 79.365002 392.233885 
L 80.962597 378.229763 
L 82.560192 376.446745 
L 85.755383 385.088925 
L 88.950573 392.578814 
L 90.548168 395.961344 
L 92.145763 393.95853 
L 93.743359 383.297085 
L 96.938549 389.819381 
L 98.536144 387.059948 
L 101.731335 392.86928 
L 103.32893 391.305229 
L 106.52412 396.482402 
L 108.121715 393.95853 
L 111.316906 398.662109 
L 114.512096 395.75816 
L 116.109691 393.518195 
L 117.707286 395.683176 
L 119.304882 393.536168 
L 122.500072 397.610721 
L 125.695262 401.37776 
L 127.292858 400.090603 
L 130.488048 403.567269 
L 133.683238 401.094994 
L 136.878429 404.306403 
L 138.476024 402.440393 
L 143.268809 406.893371 
L 144.866405 405.739185 
L 146.464 407.12855 
L 148.061595 406.005308 
L 152.854381 409.92382 
L 156.049571 412.354749 
L 157.647166 410.685229 
L 160.842357 412.998616 
L 164.037547 410.891413 
L 165.635142 412.000975 
L 167.232737 410.986675 
L 168.830333 406.375978 
L 170.427928 404.945161 
L 172.025523 404.054016 
L 173.623118 405.179115 
L 175.220713 404.306403 
L 176.818308 405.40206 
L 180.013499 402.760169 
L 181.611094 401.954614 
L 186.40388 405.102393 
L 188.001475 406.106033 
L 189.59907 404.86274 
L 191.196665 401.00389 
L 194.391856 403.012919 
L 199.184641 400.857112 
L 200.782236 401.822914 
L 203.977427 400.451313 
L 205.575022 401.392924 
L 207.172617 400.326452 
L 210.367807 402.158731 
L 211.965403 398.793985 
L 213.562998 399.707348 
L 215.160593 399.084999 
L 221.550974 402.566495 
L 223.148569 401.583279 
L 224.746164 402.416791 
L 231.136545 400.045514 
L 232.73414 400.857112 
L 234.331735 399.944903 
L 235.929331 399.386922 
L 240.722116 401.740131 
L 242.319711 401.185616 
L 243.917306 400.313917 
L 245.514902 401.072693 
L 247.112497 400.215384 
L 248.710092 397.460887 
L 250.307687 396.960203 
L 256.698068 399.937301 
L 258.295663 399.132467 
L 261.490854 398.157667 
L 264.686044 393.07157 
L 266.283639 393.811752 
L 267.881234 393.084062 
L 269.47883 390.629844 
L 272.67402 389.819381 
L 274.271615 390.55649 
L 275.86921 390.157271 
L 277.466805 387.805741 
L 279.064401 388.541523 
L 280.661996 387.887778 
L 282.259591 390.923154 
L 283.857186 389.819381 
L 285.454781 389.543438 
L 287.052377 389.543438 
L 288.649972 390.647211 
L 290.247567 389.543438 
L 291.845162 390.923154 
L 295.040353 390.923154 
L 296.637948 392.302871 
L 298.235543 390.923154 
L 299.833138 387.887778 
L 301.430733 386.508062 
L 303.028329 387.887778 
L 304.625924 386.508062 
L 306.223519 386.508062 
L 307.821114 388.439665 
L 309.418709 389.543438 
L 311.016304 389.543438 
L 312.6139 388.163721 
L 314.211495 389.267494 
L 319.00428 389.267494 
L 320.601876 390.923154 
L 322.199471 392.026927 
L 323.797066 388.991551 
L 328.589852 385.680232 
L 330.187447 382.644856 
L 331.785042 380.713253 
L 333.382637 383.748629 
L 334.980232 383.748629 
L 336.577828 382.644856 
L 338.175423 382.920799 
L 339.773018 382.920799 
L 341.370613 381.541083 
L 342.968208 382.644856 
L 344.565803 379.60948 
L 346.163399 378.229763 
L 347.760994 379.60948 
L 349.358589 379.60948 
L 350.956184 378.505707 
L 352.553779 379.60948 
L 354.151375 379.333536 
L 355.74897 380.713253 
L 357.346565 380.713253 
L 358.94416 380.989196 
L 362.139351 380.989196 
L 363.736946 379.60948 
L 365.334541 378.505707 
L 366.932136 376.574104 
L 370.127327 376.574104 
L 371.724922 376.29816 
L 373.322517 374.366558 
L 374.920112 372.986841 
L 376.517707 371.883068 
L 378.115302 372.159011 
L 379.712898 369.123635 
L 381.310493 367.743919 
L 384.505683 367.743919 
L 386.103278 366.640146 
L 387.700874 367.743919 
L 389.298469 366.640146 
L 390.896064 366.640146 
L 394.091254 364.4326 
L 395.68885 364.4326 
L 397.286445 362.77694 
L 398.88404 362.77694 
L 400.481635 361.397224 
L 402.07923 361.12128 
L 403.676826 361.12128 
L 405.274421 359.741564 
L 406.872016 359.741564 
L 408.469611 361.673167 
L 410.067206 360.017507 
L 411.664801 358.085904 
L 413.262397 356.982131 
L 414.859992 358.085904 
L 416.457587 356.706188 
L 418.055182 358.085904 
L 419.652777 358.085904 
L 421.250373 359.189677 
L 422.847968 359.189677 
L 426.043158 353.118925 
L 427.640753 353.118925 
L 429.238349 354.498642 
L 430.835944 357.534018 
L 432.433539 356.430245 
L 434.031134 353.394868 
L 435.628729 353.118925 
L 437.226325 353.118925 
L 438.82392 351.187322 
L 442.01911 351.187322 
L 443.616705 352.291095 
L 445.2143 352.291095 
L 446.811896 352.567039 
L 450.007086 352.567039 
L 451.604681 355.602415 
L 453.202276 354.498642 
L 454.799872 352.567039 
L 456.397467 351.463266 
L 457.995062 351.463266 
L 461.190252 349.255719 
L 462.787848 347.60006 
L 464.385443 347.60006 
L 467.580633 349.807606 
L 469.178228 349.807606 
L 470.775824 350.911379 
L 472.373419 349.531663 
L 473.971014 349.807606 
L 475.568609 349.531663 
L 478.763799 347.324116 
L 480.361395 347.324116 
L 481.95899 347.048173 
L 483.556585 347.324116 
L 486.751775 347.324116 
L 488.349371 349.255719 
L 489.946966 350.359492 
L 496.337347 350.359492 
L 497.934942 350.635436 
L 499.532537 351.739209 
L 501.130132 349.807606 
L 504.325323 355.878358 
L 505.922918 354.774585 
L 507.520513 355.050528 
L 509.118108 358.085904 
L 510.715703 357.809961 
L 512.313298 358.913734 
L 513.910894 358.913734 
L 515.508489 360.017507 
L 517.106084 361.94911 
L 518.703679 361.94911 
L 520.301274 362.225053 
L 521.89887 360.845337 
L 523.496465 360.569394 
L 525.09406 360.845337 
L 526.691655 359.741564 
L 528.28925 359.741564 
L 529.886846 360.845337 
L 533.082036 360.845337 
L 534.679631 359.465621 
L 536.277226 356.430245 
L 537.874822 357.809961 
L 539.472417 357.809961 
L 541.070012 358.085904 
L 542.667607 355.050528 
L 544.265202 356.430245 
L 545.862797 353.394868 
L 547.460393 354.498642 
L 550.655583 352.291095 
L 553.850773 352.291095 
L 555.448369 350.911379 
L 558.643559 350.911379 
L 560.241154 352.291095 
L 561.838749 352.291095 
L 563.436345 353.946755 
L 565.03394 352.015152 
L 568.22913 352.015152 
L 571.424321 358.085904 
L 573.021916 358.085904 
L 574.619511 356.706188 
L 576.217106 357.809961 
L 577.814701 357.534018 
L 582.607487 357.534018 
L 584.205082 359.465621 
L 585.802677 360.845337 
L 587.400272 359.741564 
L 588.997868 356.706188 
L 590.595463 356.430245 
L 592.193058 356.430245 
L 593.790653 357.809961 
L 595.388248 357.809961 
L 596.985844 356.706188 
L 601.778629 356.706188 
L 603.376224 358.085904 
L 604.97382 359.189677 
L 606.571415 360.845337 
L 609.766605 360.845337 
L 611.3642 359.189677 
L 612.961795 361.12128 
L 614.559391 361.397224 
L 616.156986 361.397224 
L 617.754581 362.500997 
L 619.352176 364.4326 
L 624.144962 364.4326 
L 625.742557 365.536373 
L 627.340152 364.156656 
L 628.937747 364.156656 
L 630.535343 363.052883 
L 633.730533 359.189677 
L 635.328128 358.085904 
L 636.925723 361.12128 
L 638.523319 361.12128 
L 640.120914 361.397224 
L 641.718509 362.77694 
L 643.316104 362.500997 
L 644.913699 362.77694 
L 646.511294 362.77694 
L 648.10889 363.880713 
L 649.706485 366.916089 
L 651.30408 368.847692 
L 652.901675 368.847692 
L 654.49927 367.467976 
L 656.096866 368.847692 
L 657.694461 367.743919 
L 659.292056 368.019862 
L 662.487246 368.019862 
L 664.084842 369.951465 
L 665.682437 372.986841 
L 667.280032 372.986841 
L 668.877627 371.883068 
L 670.475222 370.503352 
L 672.072818 371.607125 
L 673.670413 374.642501 
L 675.268008 372.986841 
L 676.865603 371.055238 
L 678.463198 372.986841 
L 680.060793 372.986841 
L 681.658389 374.090614 
L 683.255984 372.986841 
L 684.853579 372.986841 
L 686.451174 372.710898 
L 689.646365 369.951465 
L 691.24396 368.847692 
L 692.841555 368.847692 
L 694.43915 370.503352 
L 696.036745 371.607125 
L 697.634341 368.571749 
L 699.231936 369.675522 
L 700.829531 369.399579 
L 702.427126 371.331181 
L 704.024721 368.295805 
L 708.817507 368.295805 
L 710.415102 366.916089 
L 712.012697 365.260429 
L 713.610292 363.328826 
L 715.207888 364.708543 
L 716.805483 364.708543 
L 718.403078 362.77694 
L 720.000673 361.397224 
L 721.598268 361.673167 
L 723.195864 362.77694 
L 724.793459 361.673167 
L 726.391054 361.94911 
L 727.988649 363.052883 
L 729.586244 361.94911 
L 731.18384 361.94911 
L 732.781435 358.913734 
L 734.37903 357.534018 
L 735.976625 356.430245 
L 737.57422 357.534018 
L 739.171816 356.430245 
L 740.769411 358.361847 
L 742.367006 356.982131 
L 743.964601 356.982131 
L 745.562196 356.706188 
L 758.342958 356.706188 
L 759.940553 357.809961 
L 761.538148 356.154301 
L 763.135743 357.534018 
L 764.733339 355.602415 
L 766.330934 355.326471 
L 767.928529 354.222698 
L 771.123719 348.151946 
L 772.721315 349.255719 
L 774.31891 349.531663 
L 775.916505 349.531663 
L 777.5141 348.151946 
L 779.111695 351.187322 
L 780.70929 352.291095 
L 782.306886 355.326471 
L 783.904481 355.326471 
L 785.502076 357.258074 
L 787.099671 357.258074 
L 788.697266 356.982131 
L 790.294862 355.050528 
L 791.892457 356.430245 
L 793.490052 353.394868 
L 795.087647 354.774585 
L 796.685242 353.670812 
L 798.282838 354.774585 
L 801.478028 352.015152 
L 803.075623 353.394868 
L 804.673218 356.430245 
L 806.270814 357.534018 
L 807.868409 357.534018 
L 811.063599 351.463266 
L 812.661194 350.359492 
L 814.258789 350.635436 
L 815.856385 349.255719 
L 817.45398 347.60006 
L 819.051575 347.60006 
L 820.64917 348.979776 
L 822.246765 347.60006 
L 823.844361 348.703833 
L 825.441956 348.703833 
L 827.039551 348.427889 
L 828.637146 348.427889 
L 830.234741 349.807606 
L 831.832337 348.703833 
L 833.429932 347.324116 
L 835.027527 346.220343 
L 838.222717 348.427889 
L 839.820312 345.392513 
L 839.820312 345.392513 
" clip-path="url(#pbee010ba94)" style="fill: none; stroke: #1f77b4; stroke-width: 2.2; stroke-linecap: square"/>
   </g>
   <g id="line2d_24">
    <path d="M 42.620313 249.08831 
L 44.217908 311.175547 
L 45.815503 318.074129 
L 47.413098 331.871293 
L 49.010693 331.871293 
L 50.608288 338.769875 
L 52.205884 331.871293 
L 53.803479 331.871293 
L 55.401074 336.470348 
L 56.998669 331.871293 
L 58.596264 335.634156 
L 60.19386 338.769875 
L 61.791455 341.423176 
L 63.38905 337.784363 
L 64.986645 340.149591 
L 66.58424 342.219166 
L 68.181836 336.74088 
L 69.779431 336.470348 
L 71.377026 338.406792 
L 72.974621 340.149591 
L 74.572216 339.755387 
L 77.767407 342.669073 
L 79.365002 342.219166 
L 80.962597 338.493932 
L 82.560192 338.239215 
L 85.755383 340.740898 
L 88.950573 342.909024 
L 90.548168 343.888178 
L 92.145763 343.51265 
L 93.743359 340.651306 
L 96.938549 342.514819 
L 98.536144 341.069402 
L 101.731335 342.763791 
L 103.32893 342.484496 
L 106.52412 343.985876 
L 108.121715 342.711922 
L 111.316906 344.100597 
L 114.512096 343.568888 
L 116.109691 342.439333 
L 117.707286 343.081489 
L 119.304882 342.007985 
L 124.097667 343.811146 
L 125.695262 344.366837 
L 127.292858 344.135439 
L 130.488048 345.175701 
L 133.683238 344.716928 
L 136.878429 345.668457 
L 138.476024 344.763725 
L 143.268809 346.099618 
L 144.866405 345.880721 
L 146.464 346.295601 
L 148.061595 346.080312 
L 156.049571 347.967984 
L 157.647166 347.180475 
L 160.842357 347.876003 
L 164.037547 347.460296 
L 165.635142 347.791097 
L 167.232737 347.589581 
L 168.830333 346.358315 
L 170.427928 345.668457 
L 172.025523 345.500199 
L 173.623118 345.834688 
L 175.220713 345.668457 
L 176.818308 345.993096 
L 180.013499 344.716928 
L 181.611094 344.570955 
L 188.001475 345.818426 
L 189.59907 345.223387 
L 191.196665 344.200673 
L 194.391856 344.806134 
L 199.184641 344.414169 
L 200.782236 344.702655 
L 203.977427 344.45106 
L 205.575022 344.730785 
L 207.172617 344.209141 
L 210.367807 344.757323 
L 211.965403 343.86322 
L 213.562998 344.135439 
L 215.160593 344.022923 
L 221.550974 345.057963 
L 223.148569 344.579207 
L 224.746164 344.828629 
L 231.136545 344.393089 
L 232.73414 344.633669 
L 234.331735 344.186117 
L 235.929331 344.085176 
L 240.722116 344.785438 
L 242.319711 344.682945 
L 243.917306 344.256149 
L 245.514902 344.482763 
L 247.112497 344.064135 
L 248.710092 343.333552 
L 250.307687 343.246054 
L 256.698068 344.135439 
L 258.295663 343.740912 
L 261.490854 343.568888 
L 264.686044 342.219166 
L 266.283639 342.439333 
L 267.881234 342.073421 
L 269.47883 341.423176 
L 272.67402 341.291425 
L 274.271615 341.510407 
L 275.86921 341.444835 
L 277.466805 340.820805 
L 279.064401 341.038536 
L 280.661996 340.701478 
L 282.259591 341.529308 
L 285.454781 340.977421 
L 287.052377 340.977421 
L 288.649972 341.253364 
L 290.247567 340.977421 
L 291.845162 341.529308 
L 295.040353 341.529308 
L 296.637948 342.081194 
L 298.235543 341.529308 
L 299.833138 340.701478 
L 301.430733 340.149591 
L 303.028329 340.701478 
L 304.625924 340.149591 
L 306.223519 340.149591 
L 307.821114 340.701478 
L 309.418709 340.977421 
L 311.016304 340.977421 
L 312.6139 340.425534 
L 314.211495 340.701478 
L 319.00428 340.701478 
L 322.199471 341.253364 
L 323.797066 340.425534 
L 328.589852 339.597705 
L 330.187447 338.769875 
L 331.785042 338.217988 
L 333.382637 339.045818 
L 334.980232 339.045818 
L 336.577828 338.769875 
L 338.175423 339.045818 
L 339.773018 339.045818 
L 341.370613 338.493932 
L 342.968208 338.769875 
L 344.565803 337.942045 
L 346.163399 337.390158 
L 347.760994 337.942045 
L 349.358589 337.942045 
L 350.956184 337.666102 
L 352.553779 337.942045 
L 354.151375 337.666102 
L 355.74897 338.217988 
L 357.346565 338.217988 
L 358.94416 338.493932 
L 362.139351 338.493932 
L 363.736946 337.942045 
L 365.334541 337.666102 
L 366.932136 337.114215 
L 370.127327 337.114215 
L 371.724922 336.838272 
L 374.920112 335.734499 
L 376.517707 335.458555 
L 378.115302 335.734499 
L 379.712898 334.906669 
L 381.310493 334.354782 
L 384.505683 334.354782 
L 386.103278 334.078839 
L 387.700874 334.354782 
L 389.298469 334.078839 
L 390.896064 334.078839 
L 394.091254 333.526953 
L 395.68885 333.526953 
L 397.286445 333.251009 
L 398.88404 333.251009 
L 400.481635 332.699123 
L 402.07923 332.423179 
L 403.676826 332.423179 
L 405.274421 331.871293 
L 406.872016 331.871293 
L 408.469611 332.423179 
L 410.067206 332.147236 
L 411.664801 331.59535 
L 413.262397 331.319406 
L 414.859992 331.59535 
L 416.457587 331.043463 
L 418.055182 331.59535 
L 419.652777 331.59535 
L 421.250373 331.871293 
L 422.847968 331.871293 
L 426.043158 330.215633 
L 427.640753 330.215633 
L 429.238349 330.76752 
L 430.835944 331.59535 
L 432.433539 331.319406 
L 434.031134 330.491577 
L 435.628729 330.215633 
L 437.226325 330.215633 
L 438.82392 329.663747 
L 442.01911 329.663747 
L 443.616705 329.93969 
L 445.2143 329.93969 
L 446.811896 330.215633 
L 450.007086 330.215633 
L 451.604681 331.043463 
L 453.202276 330.76752 
L 454.799872 330.215633 
L 456.397467 329.93969 
L 457.995062 329.93969 
L 462.787848 329.11186 
L 464.385443 329.11186 
L 467.580633 329.663747 
L 469.178228 329.663747 
L 470.775824 329.93969 
L 472.373419 329.387803 
L 473.971014 329.663747 
L 478.763799 328.835917 
L 480.361395 328.835917 
L 481.95899 328.559974 
L 483.556585 328.835917 
L 486.751775 328.835917 
L 488.349371 329.387803 
L 489.946966 329.663747 
L 496.337347 329.663747 
L 499.532537 330.215633 
L 501.130132 329.663747 
L 504.325323 331.319406 
L 505.922918 331.043463 
L 507.520513 331.319406 
L 509.118108 332.147236 
L 510.715703 331.871293 
L 512.313298 332.147236 
L 513.910894 332.147236 
L 515.508489 332.423179 
L 517.106084 332.975066 
L 518.703679 332.975066 
L 520.301274 333.251009 
L 521.89887 332.699123 
L 523.496465 332.423179 
L 525.09406 332.699123 
L 526.691655 332.423179 
L 528.28925 332.423179 
L 529.886846 332.699123 
L 533.082036 332.699123 
L 534.679631 332.147236 
L 536.277226 331.319406 
L 537.874822 331.871293 
L 539.472417 331.871293 
L 541.070012 332.147236 
L 542.667607 331.319406 
L 544.265202 331.871293 
L 545.862797 331.043463 
L 547.460393 331.319406 
L 550.655583 330.76752 
L 553.850773 330.76752 
L 555.448369 330.215633 
L 558.643559 330.215633 
L 560.241154 330.76752 
L 561.838749 330.76752 
L 563.436345 331.043463 
L 565.03394 330.491577 
L 568.22913 330.491577 
L 571.424321 332.147236 
L 573.021916 332.147236 
L 574.619511 331.59535 
L 576.217106 331.871293 
L 577.814701 331.59535 
L 582.607487 331.59535 
L 585.802677 332.699123 
L 587.400272 332.423179 
L 588.997868 331.59535 
L 590.595463 331.319406 
L 592.193058 331.319406 
L 593.790653 331.871293 
L 595.388248 331.871293 
L 596.985844 331.59535 
L 601.778629 331.59535 
L 603.376224 332.147236 
L 606.571415 332.699123 
L 609.766605 332.699123 
L 611.3642 332.423179 
L 612.961795 332.975066 
L 614.559391 333.251009 
L 616.156986 333.251009 
L 617.754581 333.526953 
L 619.352176 334.078839 
L 624.144962 334.078839 
L 625.742557 334.354782 
L 627.340152 333.802896 
L 628.937747 333.802896 
L 630.535343 333.526953 
L 633.730533 332.423179 
L 635.328128 332.147236 
L 636.925723 332.975066 
L 638.523319 332.975066 
L 640.120914 333.251009 
L 641.718509 333.802896 
L 643.316104 333.526953 
L 644.913699 333.802896 
L 646.511294 333.802896 
L 648.10889 334.078839 
L 649.706485 334.906669 
L 651.30408 335.458555 
L 652.901675 335.458555 
L 654.49927 334.906669 
L 656.096866 335.458555 
L 657.694461 335.182612 
L 659.292056 335.458555 
L 662.487246 335.458555 
L 664.084842 336.010442 
L 665.682437 336.838272 
L 667.280032 336.838272 
L 668.877627 336.562329 
L 670.475222 336.010442 
L 672.072818 336.286385 
L 673.670413 337.114215 
L 675.268008 336.838272 
L 676.865603 336.286385 
L 678.463198 336.838272 
L 680.060793 336.838272 
L 681.658389 337.114215 
L 683.255984 336.838272 
L 684.853579 336.838272 
L 686.451174 336.562329 
L 689.646365 335.458555 
L 691.24396 335.182612 
L 692.841555 335.182612 
L 696.036745 335.734499 
L 697.634341 334.906669 
L 699.231936 335.182612 
L 700.829531 334.906669 
L 702.427126 335.458555 
L 704.024721 334.630726 
L 708.817507 334.630726 
L 710.415102 334.078839 
L 712.012697 333.802896 
L 713.610292 333.251009 
L 715.207888 333.802896 
L 716.805483 333.802896 
L 720.000673 332.699123 
L 723.195864 333.251009 
L 724.793459 332.975066 
L 727.988649 333.526953 
L 729.586244 333.251009 
L 731.18384 333.251009 
L 732.781435 332.423179 
L 734.37903 331.871293 
L 735.976625 331.59535 
L 737.57422 331.871293 
L 739.171816 331.59535 
L 740.769411 332.147236 
L 742.367006 331.59535 
L 743.964601 331.59535 
L 745.562196 331.319406 
L 758.342958 331.319406 
L 759.940553 331.59535 
L 761.538148 331.319406 
L 763.135743 331.871293 
L 764.733339 331.319406 
L 767.928529 330.76752 
L 771.123719 329.11186 
L 774.31891 329.663747 
L 775.916505 329.663747 
L 777.5141 329.11186 
L 779.111695 329.93969 
L 780.70929 330.215633 
L 782.306886 331.043463 
L 783.904481 331.043463 
L 785.502076 331.59535 
L 787.099671 331.59535 
L 788.697266 331.319406 
L 790.294862 330.76752 
L 791.892457 331.319406 
L 793.490052 330.491577 
L 795.087647 331.043463 
L 796.685242 330.76752 
L 798.282838 331.043463 
L 801.478028 329.93969 
L 803.075623 330.491577 
L 804.673218 331.319406 
L 806.270814 331.59535 
L 807.868409 331.59535 
L 811.063599 329.93969 
L 812.661194 329.663747 
L 814.258789 329.93969 
L 815.856385 329.387803 
L 817.45398 329.11186 
L 819.051575 329.11186 
L 820.64917 329.663747 
L 822.246765 329.11186 
L 823.844361 329.387803 
L 825.441956 329.387803 
L 827.039551 329.11186 
L 828.637146 329.11186 
L 830.234741 329.663747 
L 831.832337 329.387803 
L 833.429932 328.835917 
L 835.027527 328.559974 
L 838.222717 329.11186 
L 839.820312 328.28403 
L 839.820312 328.28403 
" clip-path="url(#pbee010ba94)" style="fill: none; stroke-dasharray: 6.66,2.88; stroke-dashoffset: 0; stroke: #6baed6; stroke-width: 1.8"/>
   </g>
   <g id="line2d_25">
    <path d="M 42.620313 166.305327 
L 44.217908 331.871293 
L 45.815503 345.668457 
L 47.413098 383.610657 
L 49.010693 381.541083 
L 50.608288 400.857112 
L 52.205884 396.915065 
L 53.803479 393.95853 
L 55.401074 405.456167 
L 56.998669 402.236828 
L 58.596264 410.891413 
L 60.19386 418.103567 
L 61.791455 424.206159 
L 63.38905 420.567346 
L 64.986645 425.692007 
L 66.58424 430.176085 
L 68.181836 414.654276 
L 69.779431 412.354749 
L 71.377026 416.832775 
L 72.974621 420.863 
L 74.572216 418.596323 
L 76.169811 422.180002 
L 77.767407 425.452056 
L 79.365002 423.277503 
L 80.962597 412.998616 
L 82.560192 411.470315 
L 85.755383 417.610811 
L 88.950573 422.932574 
L 90.548168 425.335951 
L 92.145763 423.708665 
L 93.743359 415.908564 
L 96.938549 420.567346 
L 98.536144 419.253331 
L 101.731335 423.368274 
L 103.32893 422.083518 
L 106.52412 425.75931 
L 108.121715 424.509393 
L 111.316906 427.824296 
L 114.512096 425.452056 
L 116.109691 424.341646 
L 117.707286 425.864472 
L 119.304882 424.790968 
L 122.500072 427.639842 
L 125.695262 430.273707 
L 127.292858 429.217949 
L 130.488048 431.654353 
L 133.683238 429.64085 
L 136.878429 431.900731 
L 138.476024 430.939453 
L 143.268809 434.056538 
L 144.866405 433.121249 
L 146.464 434.095734 
L 148.061595 433.18778 
L 152.854381 435.941329 
L 156.049571 437.649549 
L 157.647166 436.767539 
L 160.842357 438.385398 
L 164.037547 436.693901 
L 165.635142 437.472662 
L 167.232737 436.659879 
L 168.830333 433.280447 
L 172.025523 431.816602 
L 173.623118 432.607212 
L 175.220713 431.900731 
L 176.818308 432.671749 
L 181.611094 430.646443 
L 188.001475 433.550392 
L 189.59907 432.902138 
L 191.196665 430.066001 
L 194.391856 431.469569 
L 199.184641 429.705727 
L 200.782236 430.383043 
L 203.977427 429.263038 
L 205.575022 429.924923 
L 207.172617 429.380095 
L 210.367807 430.664192 
L 211.965403 428.193549 
L 213.562998 428.834694 
L 215.160593 428.32486 
L 221.550974 430.771317 
L 223.148569 430.266856 
L 224.746164 430.850947 
L 231.136545 428.91521 
L 232.73414 429.486227 
L 235.929331 428.564531 
L 240.722116 430.217477 
L 243.917306 429.320552 
L 245.514902 429.852714 
L 247.112497 429.414033 
L 248.710092 427.390119 
L 250.307687 426.976934 
L 256.698068 429.064647 
L 261.490854 427.851563 
L 264.686044 424.115188 
L 266.283639 424.635203 
L 267.881234 424.273425 
L 269.47883 422.469453 
L 272.67402 421.79074 
L 274.271615 422.308867 
L 275.86921 421.97522 
L 277.466805 420.247721 
L 279.064401 420.765771 
L 280.661996 420.449085 
L 282.259591 422.656631 
L 283.857186 421.828801 
L 287.052377 421.828801 
L 288.649972 422.656631 
L 290.247567 421.828801 
L 291.845162 422.656631 
L 295.040353 422.656631 
L 296.637948 423.484461 
L 298.235543 422.656631 
L 299.833138 420.449085 
L 301.430733 419.621255 
L 303.028329 420.449085 
L 304.625924 419.621255 
L 306.223519 419.621255 
L 307.821114 421.000971 
L 309.418709 421.828801 
L 311.016304 421.828801 
L 312.6139 421.000971 
L 314.211495 421.828801 
L 319.00428 421.828801 
L 320.601876 423.208518 
L 322.199471 424.036347 
L 323.797066 421.828801 
L 328.589852 419.345312 
L 330.187447 417.137765 
L 331.785042 415.758049 
L 333.382637 417.965595 
L 334.980232 417.965595 
L 336.577828 417.137765 
L 339.773018 417.137765 
L 341.370613 416.309936 
L 342.968208 417.137765 
L 344.565803 414.930219 
L 346.163399 414.102389 
L 347.760994 414.930219 
L 349.358589 414.930219 
L 350.956184 414.102389 
L 352.553779 414.930219 
L 354.151375 414.930219 
L 355.74897 415.758049 
L 362.139351 415.758049 
L 365.334541 414.102389 
L 366.932136 412.722673 
L 371.724922 412.722673 
L 373.322517 411.342957 
L 376.517707 409.687297 
L 378.115302 409.687297 
L 379.712898 407.479751 
L 381.310493 406.651921 
L 384.505683 406.651921 
L 386.103278 405.824091 
L 387.700874 406.651921 
L 389.298469 405.824091 
L 390.896064 405.824091 
L 394.091254 404.168431 
L 395.68885 404.168431 
L 397.286445 402.788715 
L 398.88404 402.788715 
L 400.481635 401.960885 
L 403.676826 401.960885 
L 405.274421 401.133055 
L 406.872016 401.133055 
L 408.469611 402.512772 
L 411.664801 399.753339 
L 413.262397 398.925509 
L 414.859992 399.753339 
L 416.457587 398.925509 
L 418.055182 399.753339 
L 419.652777 399.753339 
L 421.250373 400.581169 
L 422.847968 400.581169 
L 426.043158 396.166076 
L 427.640753 396.166076 
L 429.238349 396.993906 
L 430.835944 399.201452 
L 432.433539 398.373623 
L 434.031134 396.166076 
L 437.226325 396.166076 
L 438.82392 394.78636 
L 442.01911 394.78636 
L 443.616705 395.61419 
L 450.007086 395.61419 
L 451.604681 397.821736 
L 453.202276 396.993906 
L 454.799872 395.61419 
L 456.397467 394.78636 
L 457.995062 394.78636 
L 461.190252 393.1307 
L 462.787848 391.750984 
L 464.385443 391.750984 
L 467.580633 393.406644 
L 469.178228 393.406644 
L 470.775824 394.234473 
L 472.373419 393.406644 
L 475.568609 393.406644 
L 478.763799 391.750984 
L 486.751775 391.750984 
L 488.349371 393.1307 
L 489.946966 393.95853 
L 497.934942 393.95853 
L 499.532537 394.78636 
L 501.130132 393.406644 
L 504.325323 397.821736 
L 505.922918 396.993906 
L 507.520513 396.993906 
L 509.118108 399.201452 
L 510.715703 399.201452 
L 512.313298 400.029282 
L 513.910894 400.029282 
L 515.508489 400.857112 
L 517.106084 402.236828 
L 520.301274 402.236828 
L 521.89887 401.408999 
L 525.09406 401.408999 
L 526.691655 400.581169 
L 528.28925 400.581169 
L 529.886846 401.408999 
L 533.082036 401.408999 
L 534.679631 400.581169 
L 536.277226 398.373623 
L 537.874822 399.201452 
L 541.070012 399.201452 
L 542.667607 396.993906 
L 544.265202 397.821736 
L 545.862797 395.61419 
L 547.460393 396.44202 
L 550.655583 394.78636 
L 553.850773 394.78636 
L 555.448369 393.95853 
L 558.643559 393.95853 
L 560.241154 394.78636 
L 561.838749 394.78636 
L 563.436345 396.166076 
L 565.03394 394.78636 
L 568.22913 394.78636 
L 571.424321 399.201452 
L 573.021916 399.201452 
L 574.619511 398.373623 
L 576.217106 399.201452 
L 582.607487 399.201452 
L 584.205082 400.581169 
L 585.802677 401.408999 
L 587.400272 400.581169 
L 588.997868 398.373623 
L 592.193058 398.373623 
L 593.790653 399.201452 
L 595.388248 399.201452 
L 596.985844 398.373623 
L 601.778629 398.373623 
L 604.97382 400.029282 
L 606.571415 401.408999 
L 609.766605 401.408999 
L 611.3642 400.029282 
L 612.961795 401.408999 
L 616.156986 401.408999 
L 617.754581 402.236828 
L 619.352176 403.616545 
L 624.144962 403.616545 
L 625.742557 404.444375 
L 627.340152 403.616545 
L 628.937747 403.616545 
L 630.535343 402.788715 
L 633.730533 400.029282 
L 635.328128 399.201452 
L 636.925723 401.408999 
L 640.120914 401.408999 
L 641.718509 402.236828 
L 646.511294 402.236828 
L 648.10889 403.064658 
L 649.706485 405.272205 
L 651.30408 406.651921 
L 652.901675 406.651921 
L 654.49927 405.824091 
L 656.096866 406.651921 
L 657.694461 405.824091 
L 662.487246 405.824091 
L 664.084842 407.203807 
L 665.682437 409.411354 
L 667.280032 409.411354 
L 670.475222 407.755694 
L 672.072818 408.583524 
L 673.670413 410.79107 
L 676.865603 408.031637 
L 678.463198 409.411354 
L 680.060793 409.411354 
L 681.658389 410.239183 
L 683.255984 409.411354 
L 686.451174 409.411354 
L 691.24396 406.927864 
L 692.841555 406.927864 
L 694.43915 408.307581 
L 696.036745 409.13541 
L 697.634341 406.927864 
L 699.231936 407.755694 
L 700.829531 407.755694 
L 702.427126 409.13541 
L 704.024721 406.927864 
L 708.817507 406.927864 
L 710.415102 406.100034 
L 713.610292 403.340602 
L 715.207888 404.168431 
L 716.805483 404.168431 
L 718.403078 402.788715 
L 720.000673 401.960885 
L 721.598268 401.960885 
L 723.195864 402.788715 
L 724.793459 401.960885 
L 726.391054 401.960885 
L 727.988649 402.788715 
L 729.586244 401.960885 
L 731.18384 401.960885 
L 732.781435 399.753339 
L 735.976625 398.097679 
L 737.57422 398.925509 
L 739.171816 398.097679 
L 740.769411 399.477396 
L 742.367006 398.649566 
L 758.342958 398.649566 
L 759.940553 399.477396 
L 761.538148 398.097679 
L 763.135743 398.925509 
L 764.733339 397.545793 
L 766.330934 397.545793 
L 767.928529 396.717963 
L 771.123719 392.302871 
L 772.721315 393.1307 
L 775.916505 393.1307 
L 777.5141 392.302871 
L 779.111695 394.510417 
L 780.70929 395.338247 
L 782.306886 397.545793 
L 783.904481 397.545793 
L 785.502076 398.925509 
L 788.697266 398.925509 
L 790.294862 397.545793 
L 791.892457 398.373623 
L 793.490052 396.166076 
L 795.087647 396.993906 
L 796.685242 396.166076 
L 798.282838 396.993906 
L 801.478028 395.338247 
L 803.075623 396.166076 
L 804.673218 398.373623 
L 806.270814 399.201452 
L 807.868409 399.201452 
L 811.063599 394.78636 
L 812.661194 393.95853 
L 814.258789 393.95853 
L 815.856385 393.1307 
L 817.45398 391.750984 
L 819.051575 391.750984 
L 820.64917 392.578814 
L 822.246765 391.750984 
L 823.844361 392.578814 
L 828.637146 392.578814 
L 830.234741 393.406644 
L 835.027527 390.923154 
L 838.222717 392.578814 
L 839.820312 390.371268 
L 839.820312 390.371268 
" clip-path="url(#pbee010ba94)" style="fill: none; stroke-dasharray: 1.8,2.97; stroke-dashoffset: 0; stroke: #08519c; stroke-width: 1.8"/>
   </g>
   <g id="patch_3">
    <path d="M 42.620313 458.198125 
L 42.620313 22.318125 
" style="fill: none; stroke: #000000; stroke-width: 0.8; stroke-linejoin: miter; stroke-linecap: square"/>
   </g>
   <g id="patch_4">
    <path d="M 839.820312 458.198125 
L 839.820312 22.318125 
" style="fill: none; stroke: #000000; stroke-width: 0.8; stroke-linejoin: miter; stroke-linecap: square"/>
   </g>
   <g id="patch_5">
    <path d="M 42.620313 458.198125 
L 839.820312 458.198125 
" style="fill: none; stroke: #000000; stroke-width: 0.8; stroke-linejoin: miter; stroke-linecap: square"/>
   </g>
   <g id="patch_6">
    <path d="M 42.620313 22.318125 
L 839.820312 22.318125 
" style="fill: none; stroke: #000000; stroke-width: 0.8; stroke-linejoin: miter; stroke-linecap: square"/>
   </g>
   <g id="text_14">
    <text style="font-size: 12px; font-family: 'Palatino Linotype', 'Book Antiqua', 'Palatino', 'DejaVu Serif', serif; text-anchor: middle" x="441.220313" y="16.318125" transform="rotate(-0 441.220313 16.318125)">Rewards (Training) – Final Komponenten</text>
   </g>
   <g id="legend_1">
    <g id="patch_7">
     <path d="M 695.553125 74.3525 
L 832.820312 74.3525 
Q 834.820312 74.3525 834.820312 72.3525 
L 834.820312 29.318125 
Q 834.820312 27.318125 832.820312 27.318125 
L 695.553125 27.318125 
Q 693.553125 27.318125 693.553125 29.318125 
L 693.553125 72.3525 
Q 693.553125 74.3525 695.553125 74.3525 
z
" style="fill: #ffffff; opacity: 0.8; stroke: #cccccc; stroke-linejoin: miter"/>
    </g>
    <g id="line2d_26">
     <path d="M 697.553125 35.416562 
L 707.553125 35.416562 
L 717.553125 35.416562 
" style="fill: none; stroke: #1f77b4; stroke-width: 2.2; stroke-linecap: square"/>
    </g>
    <g id="text_15">
     <text style="font-size: 10px; font-family: 'Palatino Linotype', 'Book Antiqua', 'Palatino', 'DejaVu Serif', serif; text-anchor: start" x="725.553125" y="38.916562" transform="rotate(-0 725.553125 38.916562)">Final Reward (Total)</text>
    </g>
    <g id="line2d_27">
     <path d="M 697.553125 50.094687 
L 707.553125 50.094687 
L 717.553125 50.094687 
" style="fill: none; stroke-dasharray: 6.66,2.88; stroke-dashoffset: 0; stroke: #6baed6; stroke-width: 1.8"/>
    </g>
    <g id="text_16">
     <text style="font-size: 10px; font-family: 'Palatino Linotype', 'Book Antiqua', 'Palatino', 'DejaVu Serif', serif; text-anchor: start" x="725.553125" y="53.594687" transform="rotate(-0 725.553125 53.594687)">Final Reward (Env)</text>
    </g>
    <g id="line2d_28">
     <path d="M 697.553125 64.772812 
L 707.553125 64.772812 
L 717.553125 64.772812 
" style="fill: none; stroke-dasharray: 1.8,2.97; stroke-dashoffset: 0; stroke: #08519c; stroke-width: 1.8"/>
    </g>
    <g id="text_17">
     <text style="font-size: 10px; font-family: 'Palatino Linotype', 'Book Antiqua', 'Palatino', 'DejaVu Serif', serif; text-anchor: start" x="725.553125" y="68.272812" transform="rotate(-0 725.553125 68.272812)">Final Reward (Rank)</text>
    </g>
   </g>
  </g>
 </g>
 <defs>
  <clipPath id="pbee010ba94">
   <rect x="42.620313" y="22.318125" width="797.2" height="435.88"/>
  </clipPath>
 </defs>
</svg>
