<?xml version="1.0" encoding="utf-8" standalone="no"?>
<!DOCTYPE svg PUBLIC "-//W3C//DTD SVG 1.1//EN"
  "http://www.w3.org/Graphics/SVG/1.1/DTD/svg11.dtd">
<svg xmlns:xlink="http://www.w3.org/1999/xlink" width="856.536562pt" height="495.896562pt" viewBox="0 0 856.536562 495.896562" xmlns="http://www.w3.org/2000/svg" version="1.1">
 <metadata>
  <rdf:RDF xmlns:dc="http://purl.org/dc/elements/1.1/" xmlns:cc="http://creativecommons.org/ns#" xmlns:rdf="http://www.w3.org/1999/02/22-rdf-syntax-ns#">
   <cc:Work>
    <dc:type rdf:resource="http://purl.org/dc/dcmitype/StillImage"/>
    <dc:date>2025-09-24T21:07:14.071409</dc:date>
    <dc:format>image/svg+xml</dc:format>
    <dc:creator>
     <cc:Agent>
      <dc:title>Matplotlib v3.10.3, https://matplotlib.org/</dc:title>
     </cc:Agent>
    </dc:creator>
   </cc:Work>
  </rdf:RDF>
 </metadata>
 <defs>
  <style type="text/css">*{stroke-linejoin: round; stroke-linecap: butt}</style>
 </defs>
 <g id="figure_1">
  <g id="patch_1">
   <path d="M -0 495.896562 
L 856.536562 495.896562 
L 856.536562 0 
L -0 0 
z
" style="fill: #ffffff"/>
  </g>
  <g id="axes_1">
   <g id="patch_2">
    <path d="M 48.982813 458.198125 
L 839.792812 458.198125 
L 839.792812 22.318125 
L 48.982813 22.318125 
z
" style="fill: #ffffff"/>
   </g>
   <g id="matplotlib.axis_1">
    <g id="xtick_1">
     <g id="line2d_1">
      <path d="M 205.876981 458.198125 
L 205.876981 22.318125 
" clip-path="url(#p133bf7b282)" style="fill: none; stroke: #b0b0b0; stroke-width: 0.8; stroke-linecap: square"/>
     </g>
     <g id="line2d_2">
      <defs>
       <path id="m7c23a76788" d="M 0 0 
L 0 3.5 
" style="stroke: #000000; stroke-width: 0.8"/>
      </defs>
      <g>
       <use xlink:href="#m7c23a76788" x="205.876981" y="458.198125" style="stroke: #000000; stroke-width: 0.8"/>
      </g>
     </g>
     <g id="text_1">
      <text style="font-size: 10px; font-family: 'Palatino Linotype', 'Book Antiqua', 'Palatino', 'DejaVu Serif', serif; text-anchor: middle" x="205.876981" y="472.796562" transform="rotate(-0 205.876981 472.796562)">100</text>
     </g>
    </g>
    <g id="xtick_2">
     <g id="line2d_3">
      <path d="M 364.355939 458.198125 
L 364.355939 22.318125 
" clip-path="url(#p133bf7b282)" style="fill: none; stroke: #b0b0b0; stroke-width: 0.8; stroke-linecap: square"/>
     </g>
     <g id="line2d_4">
      <g>
       <use xlink:href="#m7c23a76788" x="364.355939" y="458.198125" style="stroke: #000000; stroke-width: 0.8"/>
      </g>
     </g>
     <g id="text_2">
      <text style="font-size: 10px; font-family: 'Palatino Linotype', 'Book Antiqua', 'Palatino', 'DejaVu Serif', serif; text-anchor: middle" x="364.355939" y="472.796562" transform="rotate(-0 364.355939 472.796562)">200</text>
     </g>
    </g>
    <g id="xtick_3">
     <g id="line2d_5">
      <path d="M 522.834897 458.198125 
L 522.834897 22.318125 
" clip-path="url(#p133bf7b282)" style="fill: none; stroke: #b0b0b0; stroke-width: 0.8; stroke-linecap: square"/>
     </g>
     <g id="line2d_6">
      <g>
       <use xlink:href="#m7c23a76788" x="522.834897" y="458.198125" style="stroke: #000000; stroke-width: 0.8"/>
      </g>
     </g>
     <g id="text_3">
      <text style="font-size: 10px; font-family: 'Palatino Linotype', 'Book Antiqua', 'Palatino', 'DejaVu Serif', serif; text-anchor: middle" x="522.834897" y="472.796562" transform="rotate(-0 522.834897 472.796562)">300</text>
     </g>
    </g>
    <g id="xtick_4">
     <g id="line2d_7">
      <path d="M 681.313855 458.198125 
L 681.313855 22.318125 
" clip-path="url(#p133bf7b282)" style="fill: none; stroke: #b0b0b0; stroke-width: 0.8; stroke-linecap: square"/>
     </g>
     <g id="line2d_8">
      <g>
       <use xlink:href="#m7c23a76788" x="681.313855" y="458.198125" style="stroke: #000000; stroke-width: 0.8"/>
      </g>
     </g>
     <g id="text_4">
      <text style="font-size: 10px; font-family: 'Palatino Linotype', 'Book Antiqua', 'Palatino', 'DejaVu Serif', serif; text-anchor: middle" x="681.313855" y="472.796562" transform="rotate(-0 681.313855 472.796562)">400</text>
     </g>
    </g>
    <g id="xtick_5">
     <g id="line2d_9">
      <path d="M 839.792812 458.198125 
L 839.792812 22.318125 
" clip-path="url(#p133bf7b282)" style="fill: none; stroke: #b0b0b0; stroke-width: 0.8; stroke-linecap: square"/>
     </g>
     <g id="line2d_10">
      <g>
       <use xlink:href="#m7c23a76788" x="839.792812" y="458.198125" style="stroke: #000000; stroke-width: 0.8"/>
      </g>
     </g>
     <g id="text_5">
      <text style="font-size: 10px; font-family: 'Palatino Linotype', 'Book Antiqua', 'Palatino', 'DejaVu Serif', serif; text-anchor: middle" x="839.792812" y="472.796562" transform="rotate(-0 839.792812 472.796562)">500</text>
     </g>
    </g>
    <g id="text_6">
     <text style="font-size: 10px; font-family: 'Palatino Linotype', 'Book Antiqua', 'Palatino', 'DejaVu Serif', serif; text-anchor: middle" x="444.387812" y="486.474687" transform="rotate(-0 444.387812 486.474687)">Trainings-Episode</text>
    </g>
   </g>
   <g id="matplotlib.axis_2">
    <g id="ytick_1">
     <g id="line2d_11">
      <path d="M 48.982813 400.199856 
L 839.792812 400.199856 
" clip-path="url(#p133bf7b282)" style="fill: none; stroke: #b0b0b0; stroke-width: 0.8; stroke-linecap: square"/>
     </g>
     <g id="line2d_12">
      <defs>
       <path id="m8d31b6b61e" d="M 0 0 
L -3.5 0 
" style="stroke: #000000; stroke-width: 0.8"/>
      </defs>
      <g>
       <use xlink:href="#m8d31b6b61e" x="48.982813" y="400.199856" style="stroke: #000000; stroke-width: 0.8"/>
      </g>
     </g>
     <g id="text_7">
      <text style="font-size: 10px; font-family: 'Palatino Linotype', 'Book Antiqua', 'Palatino', 'DejaVu Serif', serif; text-anchor: end" x="41.982813" y="403.999075" transform="rotate(-0 41.982813 403.999075)">−80</text>
     </g>
    </g>
    <g id="ytick_2">
     <g id="line2d_13">
      <path d="M 48.982813 340.534948 
L 839.792812 340.534948 
" clip-path="url(#p133bf7b282)" style="fill: none; stroke: #b0b0b0; stroke-width: 0.8; stroke-linecap: square"/>
     </g>
     <g id="line2d_14">
      <g>
       <use xlink:href="#m8d31b6b61e" x="48.982813" y="340.534948" style="stroke: #000000; stroke-width: 0.8"/>
      </g>
     </g>
     <g id="text_8">
      <text style="font-size: 10px; font-family: 'Palatino Linotype', 'Book Antiqua', 'Palatino', 'DejaVu Serif', serif; text-anchor: end" x="41.982813" y="344.334167" transform="rotate(-0 41.982813 344.334167)">−60</text>
     </g>
    </g>
    <g id="ytick_3">
     <g id="line2d_15">
      <path d="M 48.982813 280.870039 
L 839.792812 280.870039 
" clip-path="url(#p133bf7b282)" style="fill: none; stroke: #b0b0b0; stroke-width: 0.8; stroke-linecap: square"/>
     </g>
     <g id="line2d_16">
      <g>
       <use xlink:href="#m8d31b6b61e" x="48.982813" y="280.870039" style="stroke: #000000; stroke-width: 0.8"/>
      </g>
     </g>
     <g id="text_9">
      <text style="font-size: 10px; font-family: 'Palatino Linotype', 'Book Antiqua', 'Palatino', 'DejaVu Serif', serif; text-anchor: end" x="41.982813" y="284.669258" transform="rotate(-0 41.982813 284.669258)">−40</text>
     </g>
    </g>
    <g id="ytick_4">
     <g id="line2d_17">
      <path d="M 48.982813 221.205131 
L 839.792812 221.205131 
" clip-path="url(#p133bf7b282)" style="fill: none; stroke: #b0b0b0; stroke-width: 0.8; stroke-linecap: square"/>
     </g>
     <g id="line2d_18">
      <g>
       <use xlink:href="#m8d31b6b61e" x="48.982813" y="221.205131" style="stroke: #000000; stroke-width: 0.8"/>
      </g>
     </g>
     <g id="text_10">
      <text style="font-size: 10px; font-family: 'Palatino Linotype', 'Book Antiqua', 'Palatino', 'DejaVu Serif', serif; text-anchor: end" x="41.982813" y="225.00435" transform="rotate(-0 41.982813 225.00435)">−20</text>
     </g>
    </g>
    <g id="ytick_5">
     <g id="line2d_19">
      <path d="M 48.982813 161.540222 
L 839.792812 161.540222 
" clip-path="url(#p133bf7b282)" style="fill: none; stroke: #b0b0b0; stroke-width: 0.8; stroke-linecap: square"/>
     </g>
     <g id="line2d_20">
      <g>
       <use xlink:href="#m8d31b6b61e" x="48.982813" y="161.540222" style="stroke: #000000; stroke-width: 0.8"/>
      </g>
     </g>
     <g id="text_11">
      <text style="font-size: 10px; font-family: 'Palatino Linotype', 'Book Antiqua', 'Palatino', 'DejaVu Serif', serif; text-anchor: end" x="41.982813" y="165.339441" transform="rotate(-0 41.982813 165.339441)">0</text>
     </g>
    </g>
    <g id="ytick_6">
     <g id="line2d_21">
      <path d="M 48.982813 101.875314 
L 839.792812 101.875314 
" clip-path="url(#p133bf7b282)" style="fill: none; stroke: #b0b0b0; stroke-width: 0.8; stroke-linecap: square"/>
     </g>
     <g id="line2d_22">
      <g>
       <use xlink:href="#m8d31b6b61e" x="48.982813" y="101.875314" style="stroke: #000000; stroke-width: 0.8"/>
      </g>
     </g>
     <g id="text_12">
      <text style="font-size: 10px; font-family: 'Palatino Linotype', 'Book Antiqua', 'Palatino', 'DejaVu Serif', serif; text-anchor: end" x="41.982813" y="105.674533" transform="rotate(-0 41.982813 105.674533)">20</text>
     </g>
    </g>
    <g id="ytick_7">
     <g id="line2d_23">
      <path d="M 48.982813 42.210405 
L 839.792812 42.210405 
" clip-path="url(#p133bf7b282)" style="fill: none; stroke: #b0b0b0; stroke-width: 0.8; stroke-linecap: square"/>
     </g>
     <g id="line2d_24">
      <g>
       <use xlink:href="#m8d31b6b61e" x="48.982813" y="42.210405" style="stroke: #000000; stroke-width: 0.8"/>
      </g>
     </g>
     <g id="text_13">
      <text style="font-size: 10px; font-family: 'Palatino Linotype', 'Book Antiqua', 'Palatino', 'DejaVu Serif', serif; text-anchor: end" x="41.982813" y="46.009624" transform="rotate(-0 41.982813 46.009624)">40</text>
     </g>
    </g>
    <g id="text_14">
     <text style="font-size: 10px; font-family: 'Palatino Linotype', 'Book Antiqua', 'Palatino', 'DejaVu Serif', serif; text-anchor: middle" x="14.798438" y="240.258125" transform="rotate(-90 14.798438 240.258125)">Rewards</text>
    </g>
   </g>
   <g id="line2d_25">
    <path d="M 48.982813 149.607241 
L 50.567602 206.288904 
L 52.152392 272.914718 
L 53.737181 297.650795 
L 55.321971 308.315897 
L 56.90676 345.009816 
L 58.49155 339.682592 
L 60.07634 340.721401 
L 61.661129 340.03774 
L 63.245919 332.331023 
L 64.830708 332.263222 
L 66.415498 336.308683 
L 68.000287 346.730919 
L 69.585077 345.222905 
L 71.169867 345.308141 
L 72.754656 342.026571 
L 74.339446 330.356816 
L 75.924235 328.43623 
L 77.509025 326.089759 
L 79.093815 327.856155 
L 80.678604 324.837395 
L 82.263394 325.415318 
L 83.848183 325.164749 
L 85.432973 327.669702 
L 87.017762 329.13895 
L 88.602552 325.905571 
L 90.187342 327.939023 
L 91.772131 327.216888 
L 93.356921 324.898627 
L 94.94171 325.966766 
L 96.5265 326.196123 
L 98.111289 324.45339 
L 99.696079 320.917849 
L 101.280869 320.266427 
L 102.865658 322.16668 
L 104.450448 320.812381 
L 106.035237 316.507728 
L 107.620027 315.805413 
L 109.204817 313.876973 
L 110.789606 314.095935 
L 112.374396 312.266878 
L 113.959185 307.967852 
L 115.543975 307.753937 
L 117.128764 311.177101 
L 118.713554 309.80752 
L 120.298344 311.059186 
L 121.883133 309.972551 
L 123.467923 310.484965 
L 125.052712 308.571604 
L 126.637502 310.195342 
L 128.222291 309.269366 
L 129.807081 309.555092 
L 131.391871 309.098296 
L 132.97666 307.581135 
L 134.56145 307.448044 
L 136.146239 307.079981 
L 137.731029 307.248209 
L 139.315819 306.587672 
L 140.900608 306.379316 
L 142.485398 304.910025 
L 144.070187 305.83638 
L 145.654977 304.01425 
L 147.239766 303.646881 
L 148.824556 303.710512 
L 150.409346 302.739523 
L 151.994135 303.086178 
L 153.578925 302.153492 
L 155.163714 303.025024 
L 156.748504 302.206729 
L 158.333293 301.603595 
L 159.918083 300.282143 
L 161.502873 299.349587 
L 163.087662 299.362074 
L 166.257241 298.252416 
L 167.842031 297.317142 
L 169.426821 298.227104 
L 171.01161 299.859544 
L 172.5964 300.128966 
L 174.181189 298.65764 
L 175.765979 296.799097 
L 177.350768 296.568459 
L 178.935558 295.768295 
L 180.520348 296.727409 
L 182.105137 297.15505 
L 183.689927 296.878967 
L 185.274716 296.077733 
L 186.859506 295.057405 
L 188.444295 295.082355 
L 193.198664 293.548832 
L 194.783454 293.701202 
L 196.368243 292.818889 
L 197.953033 292.850125 
L 199.537823 293.051625 
L 201.122612 292.680001 
L 202.707402 292.894345 
L 204.292191 292.682486 
L 205.876981 292.295869 
L 207.46177 292.448576 
L 209.04656 292.086457 
L 210.63135 292.571313 
L 212.216139 292.272348 
L 213.800929 292.518902 
L 215.385718 292.35272 
L 216.970508 291.534445 
L 218.555297 291.311398 
L 220.140087 290.613483 
L 221.724877 290.931713 
L 223.309666 290.935133 
L 224.894456 291.670986 
L 226.479245 292.129811 
L 229.648825 292.686285 
L 231.233614 293.060197 
L 232.818404 292.994255 
L 234.403193 293.548832 
L 237.572772 293.722855 
L 239.157562 293.579651 
L 240.742352 293.609964 
L 242.327141 293.409372 
L 243.911931 294.366819 
L 245.49672 293.566732 
L 248.666299 293.47249 
L 250.251089 292.942861 
L 251.835879 292.814584 
L 253.420668 291.930995 
L 255.005458 292.723316 
L 256.590247 292.667419 
L 258.175037 293.105832 
L 259.759827 292.992257 
L 261.344616 293.300229 
L 262.929406 294.283676 
L 264.514195 294.577725 
L 266.098985 295.191779 
L 267.683774 295.228249 
L 269.268564 294.326607 
L 270.853354 293.808015 
L 272.438143 293.580346 
L 277.192512 292.453261 
L 278.777301 292.394357 
L 280.362091 291.930371 
L 281.946881 290.867943 
L 283.53167 290.370375 
L 285.11646 289.501563 
L 286.701249 290.316983 
L 288.286039 290.505922 
L 289.870829 289.203238 
L 293.040408 288.049717 
L 294.625197 286.568038 
L 296.209987 286.607815 
L 297.794776 286.180216 
L 299.379566 285.474181 
L 300.964356 285.275298 
L 302.549145 284.927253 
L 304.133935 283.733955 
L 305.718724 282.142891 
L 307.303514 282.013617 
L 308.888303 280.939648 
L 310.473093 281.108699 
L 312.057883 283.077641 
L 313.642672 283.684234 
L 315.227462 283.366021 
L 316.812251 282.669931 
L 318.397041 282.33183 
L 319.981831 281.198196 
L 321.56662 280.492162 
L 324.736199 277.707799 
L 326.320989 278.006124 
L 327.905778 276.116735 
L 329.490568 274.983102 
L 331.075358 275.639416 
L 332.660147 275.420644 
L 334.244937 274.863772 
L 335.829726 275.082543 
L 338.999305 275.012934 
L 340.584095 273.929022 
L 342.168885 274.157737 
L 343.753674 274.893604 
L 345.338464 274.71461 
L 346.923253 274.784219 
L 348.508043 274.71461 
L 350.092833 273.988687 
L 351.677622 275.052711 
L 353.262412 274.396397 
L 354.847201 273.173266 
L 356.431991 273.312484 
L 358.01678 272.427455 
L 359.60157 272.168907 
L 362.771149 272.029689 
L 364.355939 271.114827 
L 365.940728 271.522537 
L 367.525518 271.094939 
L 369.110307 270.876167 
L 372.279887 270.02097 
L 373.864676 270.577843 
L 375.449466 270.02097 
L 377.034255 270.229797 
L 378.619045 270.011026 
L 380.203835 270.846335 
L 381.788624 270.249686 
L 383.373414 270.080635 
L 384.958203 270.170132 
L 386.542993 269.364656 
L 388.127782 269.662981 
L 389.712572 268.807784 
L 391.297362 268.260855 
L 392.882151 267.922754 
L 394.466941 267.882978 
L 396.05173 268.002307 
L 397.63652 268.72823 
L 399.221309 269.195606 
L 400.806099 268.380185 
L 402.390889 268.250911 
L 403.975678 267.644318 
L 405.560468 267.316161 
L 407.145257 265.635599 
L 408.730047 264.442301 
L 410.314837 263.656713 
L 411.899626 264.213586 
L 413.484416 264.084312 
L 415.069205 263.268891 
L 416.653995 263.547328 
L 418.238784 262.612577 
L 419.823574 261.469 
L 421.408364 260.872351 
L 422.993153 260.842518 
L 424.577943 261.299949 
L 426.162732 261.498832 
L 427.747522 261.240284 
L 429.332311 261.240284 
L 430.917101 261.657939 
L 432.501891 260.593915 
L 434.08668 261.140843 
L 435.67147 260.961848 
L 437.256259 260.076819 
L 438.841049 259.808327 
L 440.425839 258.982962 
L 442.010628 258.366425 
L 443.595418 258.296816 
L 445.180207 258.674693 
L 446.764997 257.958715 
L 448.349786 256.944411 
L 449.934576 256.665975 
L 451.519366 256.526757 
L 453.104155 257.113462 
L 454.688945 257.431674 
L 456.273734 257.401842 
L 457.858524 257.650446 
L 459.443314 257.630558 
L 461.028103 257.958715 
L 462.612893 256.238376 
L 464.197682 255.651671 
L 465.782472 254.508094 
L 467.367261 254.876028 
L 468.952051 253.682729 
L 470.536841 253.304852 
L 472.12163 251.853006 
L 476.875999 250.709428 
L 478.460788 249.864175 
L 480.045578 249.247638 
L 481.630368 247.487523 
L 483.215157 248.064284 
L 484.799947 247.944954 
L 486.384736 246.612438 
L 487.969526 246.284281 
L 489.554316 246.194783 
L 491.139105 246.47322 
L 492.723895 244.991541 
L 495.893474 243.161817 
L 497.478263 243.301035 
L 499.063053 242.604945 
L 500.647843 241.113322 
L 502.232632 241.66025 
L 503.817422 241.063601 
L 505.402211 240.96416 
L 506.987001 241.560809 
L 508.57179 241.958575 
L 510.15658 241.451423 
L 511.74137 241.690083 
L 513.326159 241.590641 
L 514.910949 241.043713 
L 516.495738 241.421591 
L 518.080528 240.864718 
L 519.665318 241.451423 
L 521.250107 241.540921 
L 522.834897 242.396118 
L 524.419686 241.451423 
L 526.004476 241.232652 
L 527.589265 240.775221 
L 529.174055 239.860359 
L 530.758845 239.949856 
L 533.928424 238.398569 
L 535.513213 239.303486 
L 538.682792 239.114548 
L 540.267582 238.368736 
L 541.852372 238.488066 
L 543.437161 238.060468 
L 545.021951 237.483707 
L 546.60674 238.110188 
L 548.19153 237.68259 
L 549.77632 236.300353 
L 551.361109 235.514765 
L 554.530688 234.729177 
L 556.115478 235.385491 
L 560.869847 236.787616 
L 562.454636 237.046164 
L 564.039426 236.777672 
L 565.624215 238.080356 
L 567.209005 238.000803 
L 568.793794 237.612981 
L 570.378584 236.568845 
L 571.963374 236.996443 
L 573.548163 237.056108 
L 575.132953 237.891417 
L 576.717742 237.543372 
L 578.302532 237.861585 
L 583.056901 236.588733 
L 584.64169 237.165494 
L 586.22648 236.300353 
L 587.811269 236.877114 
L 589.396059 236.906946 
L 590.980849 236.598677 
L 592.565638 236.50918 
L 594.150428 236.688175 
L 597.320007 236.74784 
L 598.904796 235.584374 
L 600.489586 235.62415 
L 602.074376 234.818674 
L 603.659165 233.87398 
L 606.828744 232.770179 
L 608.413534 232.690626 
L 609.998324 233.038671 
L 611.583113 231.93487 
L 613.167903 232.153642 
L 614.752692 231.547048 
L 616.337482 231.348165 
L 617.922271 230.671963 
L 619.507061 230.214532 
L 621.091851 231.039897 
L 622.67664 230.055426 
L 624.26143 230.23442 
L 625.846219 229.518441 
L 627.431009 230.045482 
L 629.015798 230.950399 
L 630.600588 230.582466 
L 632.185378 229.985817 
L 633.770167 229.568162 
L 635.354957 228.6533 
L 636.939746 228.663244 
L 638.524536 229.080899 
L 640.109326 228.842239 
L 641.694115 228.752742 
L 643.278905 229.667604 
L 644.863694 230.045482 
L 646.448484 229.747157 
L 648.033273 229.70738 
L 649.618063 229.975872 
L 651.202853 230.642131 
L 652.787642 230.423359 
L 654.372432 229.906263 
L 655.957221 230.304029 
L 657.542011 229.965928 
L 659.1268 230.841014 
L 662.29638 231.387942 
L 663.881169 230.264253 
L 665.465959 230.652075 
L 667.050748 230.095202 
L 668.635538 229.249949 
L 670.220328 229.528386 
L 671.805117 229.289726 
L 673.389907 228.553859 
L 674.974696 228.454417 
L 676.559486 228.225702 
L 678.144275 228.136204 
L 679.729065 228.235646 
L 681.313855 228.971513 
L 682.898644 228.414641 
L 684.483434 228.961569 
L 686.068223 229.140564 
L 687.653013 228.931737 
L 690.822592 227.330728 
L 693.992171 227.897545 
L 695.576961 227.59922 
L 697.16175 226.415866 
L 698.74654 224.884467 
L 700.33133 225.341898 
L 701.916119 225.620334 
L 703.500909 226.435755 
L 705.085698 225.113182 
L 706.670488 225.053517 
L 708.255277 225.282233 
L 709.840067 227.062236 
L 711.424857 226.982683 
L 713.009646 226.395978 
L 714.594436 226.395978 
L 716.179225 227.092069 
L 717.764015 227.390393 
L 719.348804 227.251175 
L 720.933594 226.694302 
L 722.518384 226.634638 
L 724.103173 227.798103 
L 725.687963 228.394752 
L 727.272752 228.146149 
L 730.442332 228.951625 
L 732.027121 229.617883 
L 733.611911 229.200229 
L 735.1967 228.543915 
L 736.78149 228.255534 
L 738.366279 228.36492 
L 739.951069 226.913074 
L 743.120648 225.988268 
L 744.705438 226.067821 
L 746.290227 225.719776 
L 747.875017 225.819217 
L 749.459806 225.640222 
L 752.629386 226.306481 
L 754.214175 225.461228 
L 755.798965 226.316425 
L 760.553334 226.495419 
L 762.138123 226.515308 
L 763.722913 226.117542 
L 765.307702 226.942906 
L 766.892492 227.251175 
L 768.477281 227.370505 
L 770.062071 227.141789 
L 771.646861 227.161678 
L 773.23165 225.381674 
L 776.401229 224.536422 
L 777.986019 225.133071 
L 779.570808 225.152959 
L 781.155598 225.868938 
L 782.740388 225.888826 
L 784.325177 225.49106 
L 785.909967 224.834746 
L 787.494756 225.182791 
L 790.664336 225.461228 
L 792.249125 225.988268 
L 793.833915 225.182791 
L 795.418704 225.441339 
L 797.003494 225.162903 
L 798.588283 225.003797 
L 803.342652 223.432621 
L 804.927442 223.591727 
L 806.512231 222.97519 
L 808.097021 223.14424 
L 809.68181 222.656977 
L 812.85139 221.284684 
L 814.436179 220.956527 
L 817.605758 221.145466 
L 819.190548 221.433846 
L 820.775338 221.205131 
L 822.360127 220.369822 
L 823.944917 221.811724 
L 825.529706 222.279099 
L 827.114496 222.32882 
L 828.699285 223.164129 
L 830.284075 222.547591 
L 831.868865 222.20949 
L 833.453654 222.527703 
L 835.038444 222.318876 
L 836.623233 222.766363 
L 839.792812 223.243682 
L 839.792812 223.243682 
" clip-path="url(#p133bf7b282)" style="fill: none; stroke: #2ca02c; stroke-width: 2.2; stroke-linecap: square"/>
   </g>
   <g id="line2d_26">
    <path d="M 48.982813 42.210405 
L 50.567602 51.160142 
L 52.152392 58.121048 
L 53.737181 63.093123 
L 55.321971 64.883071 
L 56.90676 72.04286 
L 58.49155 71.190504 
L 60.07634 72.04286 
L 61.661129 72.705803 
L 63.245919 69.656263 
L 64.830708 69.873227 
L 66.415498 71.545652 
L 68.000287 70.207016 
L 69.585077 70.338148 
L 71.169867 68.462965 
L 72.754656 68.686709 
L 74.339446 66.778309 
L 75.924235 65.744897 
L 79.093815 65.181395 
L 83.848183 66.076369 
L 85.432973 66.324973 
L 87.017762 65.837709 
L 88.602552 65.617408 
L 90.187342 66.076369 
L 93.356921 66.076369 
L 96.5265 65.306499 
L 98.111289 65.51701 
L 99.696079 64.629947 
L 101.280869 64.847974 
L 102.865658 65.394484 
L 104.450448 65.24769 
L 106.035237 64.463804 
L 107.620027 64.820266 
L 109.204817 64.240526 
L 110.789606 64.286422 
L 112.374396 63.893506 
L 113.959185 62.951064 
L 115.543975 63.023746 
L 117.128764 64.042338 
L 118.713554 63.822361 
L 120.298344 63.871361 
L 121.883133 63.664383 
L 123.467923 63.963237 
L 125.052712 63.154006 
L 126.637502 63.570443 
L 128.222291 63.502589 
L 129.807081 63.781565 
L 134.56145 64.232181 
L 140.900608 63.548195 
L 142.485398 63.192565 
L 145.654977 63.189357 
L 147.239766 63.140477 
L 148.824556 63.559256 
L 153.578925 63.226702 
L 155.163714 63.531836 
L 161.502873 62.595916 
L 163.087662 62.561861 
L 164.672452 62.689982 
L 166.257241 62.655581 
L 167.842031 62.465072 
L 172.5964 62.90431 
L 175.765979 62.39335 
L 177.350768 62.438265 
L 178.935558 62.338326 
L 182.105137 62.77725 
L 186.859506 62.076108 
L 188.444295 62.121055 
L 193.198664 61.731207 
L 194.783454 61.777929 
L 196.368243 61.633237 
L 199.537823 61.787954 
L 201.122612 61.586123 
L 202.707402 61.571059 
L 204.292191 61.676835 
L 207.46177 61.468584 
L 209.04656 61.279778 
L 210.63135 61.442201 
L 213.800929 61.416824 
L 215.385718 61.517069 
L 221.724877 61.086213 
L 223.309666 61.184921 
L 224.894456 61.494956 
L 226.479245 61.429898 
L 231.233614 61.601501 
L 232.818404 61.333774 
L 234.403193 61.525656 
L 239.157562 61.589173 
L 243.911931 61.649618 
L 245.49672 61.350908 
L 247.08151 61.341059 
L 248.666299 61.472305 
L 251.835879 61.266175 
L 253.420668 61.211384 
L 255.005458 61.294067 
L 256.590247 61.239895 
L 258.175037 61.365981 
L 261.344616 61.347372 
L 267.683774 61.655156 
L 269.268564 61.388412 
L 280.362091 61.083999 
L 281.946881 60.795218 
L 285.11646 60.507644 
L 286.701249 60.547421 
L 291.455618 60.070101 
L 294.625197 59.553006 
L 297.794776 59.393899 
L 299.379566 59.155239 
L 300.964356 59.274569 
L 302.549145 59.234793 
L 304.133935 58.876803 
L 305.718724 58.717697 
L 308.888303 58.67792 
L 310.473093 58.479037 
L 313.642672 58.91658 
L 318.397041 58.598367 
L 319.981831 58.359707 
L 326.320989 57.922165 
L 327.905778 57.603952 
L 329.490568 57.405069 
L 331.075358 57.444845 
L 332.660147 57.603952 
L 334.244937 57.444845 
L 337.414516 57.365292 
L 340.584095 57.086856 
L 343.753674 57.285739 
L 346.923253 57.206186 
L 348.508043 57.206186 
L 350.092833 56.848196 
L 351.677622 57.166409 
L 353.262412 57.047079 
L 354.847201 56.56976 
L 356.431991 56.56976 
L 359.60157 56.410654 
L 361.18636 56.3311 
L 362.771149 56.490207 
L 364.355939 56.251547 
L 365.940728 56.370877 
L 370.695097 55.575345 
L 372.279887 55.535568 
L 373.864676 55.654898 
L 375.449466 55.535568 
L 377.034255 55.654898 
L 378.619045 55.456015 
L 381.788624 55.694675 
L 383.373414 55.535568 
L 384.958203 55.575345 
L 386.542993 55.336685 
L 389.712572 55.177579 
L 392.882151 54.978696 
L 397.63652 55.177579 
L 399.221309 55.177579 
L 400.806099 54.899143 
L 402.390889 54.740036 
L 403.975678 54.4616 
L 405.560468 54.382047 
L 407.145257 54.024057 
L 410.314837 53.546738 
L 413.484416 53.467185 
L 415.069205 53.228525 
L 416.653995 53.308078 
L 419.823574 52.790983 
L 422.993153 52.631876 
L 426.162732 52.790983 
L 430.917101 52.950089 
L 432.501891 52.552323 
L 435.67147 52.393217 
L 437.256259 52.194334 
L 440.425839 52.075004 
L 442.010628 51.717014 
L 445.180207 51.756791 
L 446.764997 51.717014 
L 448.349786 51.438578 
L 453.104155 51.239695 
L 461.028103 51.319248 
L 462.612893 50.802152 
L 464.197682 50.841929 
L 465.782472 50.563493 
L 467.367261 50.643046 
L 468.952051 50.36461 
L 470.536841 50.404386 
L 472.12163 50.046397 
L 473.70642 50.12595 
L 475.291209 49.88729 
L 480.045578 49.569078 
L 481.630368 49.211088 
L 483.215157 49.449748 
L 484.799947 49.489524 
L 486.384736 48.932652 
L 491.139105 48.733769 
L 494.308684 48.336003 
L 495.893474 48.13712 
L 499.063053 48.057567 
L 500.647843 47.858683 
L 503.817422 47.818907 
L 505.402211 47.858683 
L 506.987001 48.057567 
L 511.74137 48.097343 
L 518.080528 47.699577 
L 519.665318 47.938237 
L 521.250107 47.978013 
L 522.834897 48.216673 
L 524.419686 48.097343 
L 526.004476 48.13712 
L 529.174055 47.818907 
L 530.758845 47.938237 
L 533.928424 47.381364 
L 535.513213 47.262034 
L 538.682792 47.301811 
L 540.267582 47.142705 
L 543.437161 47.381364 
L 545.021951 47.301811 
L 546.60674 47.421141 
L 556.115478 47.023375 
L 559.285057 47.182481 
L 562.454636 47.262034 
L 564.039426 47.182481 
L 565.624215 47.421141 
L 568.793794 47.262034 
L 570.378584 47.063151 
L 571.963374 47.341588 
L 573.548163 47.222258 
L 575.132953 47.460917 
L 578.302532 47.421141 
L 583.056901 46.864268 
L 584.64169 46.983598 
L 586.22648 46.784715 
L 587.811269 47.142705 
L 592.565638 46.983598 
L 594.150428 47.063151 
L 597.320007 46.824492 
L 598.904796 46.466502 
L 600.489586 46.506279 
L 605.243955 45.989183 
L 609.998324 45.869853 
L 611.583113 45.631194 
L 613.167903 45.7903 
L 614.752692 45.511864 
L 616.337482 45.710747 
L 617.922271 45.631194 
L 619.507061 45.432311 
L 621.091851 45.55164 
L 624.26143 45.352757 
L 625.846219 45.312981 
L 627.431009 45.432311 
L 629.015798 45.432311 
L 632.185378 45.074321 
L 636.939746 45.034544 
L 638.524536 45.233428 
L 640.109326 45.114098 
L 646.448484 45.55164 
L 649.618063 45.432311 
L 652.787642 45.432311 
L 654.372432 45.273204 
L 655.957221 45.432311 
L 657.542011 45.273204 
L 659.1268 45.472087 
L 662.29638 45.591417 
L 663.881169 45.312981 
L 668.635538 44.994768 
L 670.220328 45.312981 
L 671.805117 45.312981 
L 674.974696 45.114098 
L 678.144275 44.954991 
L 679.729065 45.114098 
L 687.653013 45.114098 
L 689.237802 44.994768 
L 690.822592 45.114098 
L 695.576961 45.074321 
L 698.74654 44.398119 
L 700.33133 44.517449 
L 703.500909 44.557225 
L 706.670488 44.239012 
L 709.840067 44.437895 
L 714.594436 44.318566 
L 717.764015 44.517449 
L 719.348804 44.517449 
L 722.518384 44.358342 
L 724.103173 44.915215 
L 727.272752 44.994768 
L 728.857542 44.875438 
L 732.027121 45.153874 
L 736.78149 44.795885 
L 738.366279 44.954991 
L 743.120648 44.358342 
L 744.705438 44.358342 
L 746.290227 44.079906 
L 749.459806 43.761693 
L 752.629386 43.9208 
L 754.214175 43.642363 
L 755.798965 43.881023 
L 757.383754 43.721916 
L 758.968544 43.761693 
L 762.138123 43.56281 
L 770.062071 43.841246 
L 771.646861 44.079906 
L 774.81644 43.9208 
L 776.401229 43.642363 
L 777.986019 43.68214 
L 779.570808 43.56281 
L 782.740388 43.56281 
L 787.494756 43.284374 
L 789.079546 43.244597 
L 790.664336 43.085491 
L 792.249125 43.204821 
L 797.003494 43.165044 
L 800.173073 43.085491 
L 803.342652 42.767278 
L 809.68181 42.528618 
L 811.2666 42.449065 
L 814.436179 42.449065 
L 816.020969 42.210405 
L 819.190548 42.289959 
L 822.360127 42.130852 
L 825.529706 42.528618 
L 828.699285 42.568395 
L 830.284075 42.528618 
L 831.868865 42.369512 
L 833.453654 42.568395 
L 839.792812 42.807055 
L 839.792812 42.807055 
" clip-path="url(#p133bf7b282)" style="fill: none; stroke-dasharray: 6.66,2.88; stroke-dashoffset: 0; stroke: #74c476; stroke-width: 1.8"/>
   </g>
   <g id="line2d_27">
    <path d="M 48.982813 268.937058 
L 50.567602 316.668984 
L 52.152392 376.333893 
L 53.737181 396.097894 
L 55.321971 404.973049 
L 56.90676 434.507179 
L 58.49155 430.032311 
L 60.07634 430.218763 
L 61.661129 428.87216 
L 63.245919 424.214982 
L 64.830708 423.930218 
L 66.415498 426.303254 
L 68.000287 438.064125 
L 69.585077 436.424979 
L 71.169867 438.385398 
L 72.754656 434.880084 
L 74.339446 425.11873 
L 75.924235 424.231556 
L 77.509025 422.181665 
L 79.093815 424.214982 
L 80.678604 420.869485 
L 82.263394 421.150375 
L 83.848183 420.628602 
L 85.432973 422.884952 
L 87.017762 424.841464 
L 88.602552 421.828386 
L 90.187342 423.402876 
L 91.772131 422.680741 
L 93.356921 420.362481 
L 94.94171 421.828386 
L 96.5265 422.429846 
L 98.111289 420.476603 
L 99.696079 417.828125 
L 101.280869 416.958676 
L 102.865658 418.312418 
L 104.450448 417.104914 
L 106.035237 413.584147 
L 107.620027 412.52537 
L 109.204817 411.17667 
L 110.789606 411.349736 
L 112.374396 409.913594 
L 113.959185 406.55701 
L 115.543975 406.270414 
L 117.128764 408.674985 
L 118.713554 407.525381 
L 120.298344 408.728047 
L 121.883133 407.84839 
L 123.467923 408.061951 
L 125.052712 406.95782 
L 126.637502 408.165122 
L 128.222291 407.307 
L 129.807081 407.313749 
L 131.391871 406.70108 
L 132.97666 405.033819 
L 136.146239 404.56818 
L 137.731029 404.805569 
L 139.315819 404.520419 
L 140.900608 404.371344 
L 142.485398 403.257683 
L 144.070187 404.136762 
L 145.654977 402.365115 
L 148.824556 401.691479 
L 150.409346 400.86535 
L 151.994135 401.262072 
L 153.578925 400.467013 
L 155.163714 401.03341 
L 156.748504 400.437651 
L 158.333293 399.965458 
L 159.918083 399.023365 
L 161.502873 398.293894 
L 163.087662 398.340436 
L 164.672452 397.599595 
L 166.257241 397.137058 
L 167.842031 396.392293 
L 169.426821 397.177867 
L 171.01161 398.612617 
L 172.5964 398.764877 
L 174.181189 397.552226 
L 175.765979 395.945969 
L 177.350768 395.670417 
L 178.935558 394.970191 
L 180.520348 395.742746 
L 182.105137 395.918022 
L 183.689927 395.881088 
L 185.274716 395.313506 
L 186.859506 394.52152 
L 188.444295 394.501522 
L 193.198664 393.357848 
L 194.783454 393.463496 
L 196.368243 392.725874 
L 201.122612 392.6341 
L 202.707402 392.863508 
L 205.876981 392.234591 
L 207.46177 392.520215 
L 209.04656 392.346901 
L 210.63135 392.669334 
L 212.216139 392.38318 
L 213.800929 392.642301 
L 215.385718 392.375873 
L 216.970508 391.682272 
L 218.555297 391.581592 
L 220.140087 390.949059 
L 221.724877 391.385722 
L 223.309666 391.290434 
L 226.479245 392.240135 
L 228.064035 392.401548 
L 231.233614 392.998919 
L 232.818404 393.200704 
L 234.403193 393.563399 
L 235.987983 393.70691 
L 240.742352 393.524233 
L 242.327141 393.384474 
L 243.911931 394.257424 
L 245.49672 393.756046 
L 247.08151 393.72432 
L 248.666299 393.540407 
L 250.251089 393.161262 
L 251.835879 393.088632 
L 253.420668 392.259834 
L 255.005458 392.969471 
L 256.590247 392.967746 
L 258.175037 393.280073 
L 259.759827 393.220398 
L 261.344616 393.493079 
L 262.929406 394.397883 
L 264.514195 394.570886 
L 266.098985 395.065648 
L 267.683774 395.113316 
L 269.268564 394.478418 
L 270.853354 394.011209 
L 272.438143 393.876216 
L 277.192512 392.896049 
L 278.777301 392.803042 
L 280.362091 392.386594 
L 281.946881 391.612947 
L 283.53167 391.240109 
L 285.11646 390.534141 
L 286.701249 391.309785 
L 288.286039 391.65783 
L 289.870829 390.554029 
L 293.040408 389.798274 
L 294.625197 388.555255 
L 296.209987 388.634808 
L 297.794776 388.32654 
L 299.379566 387.859164 
L 302.549145 387.232683 
L 304.133935 386.397374 
L 305.718724 384.965416 
L 307.303514 384.875919 
L 308.888303 383.801951 
L 310.473093 384.169884 
L 312.057883 385.939943 
L 313.642672 386.307877 
L 315.227462 386.069217 
L 316.812251 385.45268 
L 318.397041 385.273685 
L 319.981831 384.378711 
L 321.56662 383.792006 
L 324.736199 381.325857 
L 326.320989 381.624181 
L 327.905778 380.053006 
L 329.490568 379.118255 
L 331.075358 379.734793 
L 334.244937 378.959149 
L 335.829726 379.17792 
L 338.999305 379.307194 
L 340.584095 378.382388 
L 342.168885 378.53155 
L 343.753674 379.148088 
L 345.338464 379.048646 
L 346.923253 379.118255 
L 348.508043 379.048646 
L 350.092833 378.680713 
L 351.677622 379.426524 
L 353.262412 378.88954 
L 354.847201 378.143728 
L 356.431991 378.282947 
L 358.01678 377.517247 
L 359.60157 377.298476 
L 361.18636 377.328308 
L 362.771149 377.079704 
L 364.355939 376.403502 
L 365.940728 376.691882 
L 367.525518 376.502943 
L 369.110307 376.562608 
L 370.695097 376.383614 
L 372.279887 376.025624 
L 373.864676 376.463167 
L 375.449466 376.025624 
L 378.619045 376.095233 
L 380.203835 376.771436 
L 381.788624 376.095233 
L 384.958203 376.13501 
L 386.542993 375.568193 
L 388.127782 375.906294 
L 389.712572 375.170427 
L 391.297362 374.742829 
L 392.882151 374.484281 
L 394.466941 374.364951 
L 396.05173 374.444504 
L 397.63652 375.090874 
L 399.221309 375.558249 
L 400.806099 375.021265 
L 402.390889 375.051097 
L 405.560468 374.474337 
L 407.145257 373.151764 
L 408.730047 372.197126 
L 410.314837 371.650198 
L 411.899626 372.20707 
L 413.484416 372.157349 
L 415.069205 371.580589 
L 416.653995 371.779472 
L 418.238784 371.083381 
L 419.823574 370.21824 
L 421.408364 369.701144 
L 422.993153 369.750865 
L 424.577943 370.088966 
L 426.162732 370.248072 
L 427.747522 369.909971 
L 429.332311 369.870195 
L 430.917101 370.248072 
L 432.501891 369.581814 
L 434.08668 370.168519 
L 435.67147 370.108854 
L 437.256259 369.422708 
L 438.841049 369.233769 
L 440.425839 368.448181 
L 442.010628 368.189633 
L 443.595418 368.080247 
L 445.180207 368.458125 
L 448.349786 367.046055 
L 451.519366 366.707954 
L 453.104155 367.413989 
L 454.688945 367.732202 
L 456.273734 367.662593 
L 457.858524 367.950973 
L 459.443314 367.851532 
L 461.028103 368.179689 
L 462.612893 366.976446 
L 464.197682 366.349965 
L 465.782472 365.484824 
L 467.367261 365.773204 
L 468.952051 364.858342 
L 470.536841 364.440688 
L 472.12163 363.346831 
L 473.70642 362.8894 
L 475.291209 362.839679 
L 476.875999 362.441913 
L 478.460788 361.71599 
L 480.045578 361.218783 
L 481.630368 359.816657 
L 483.215157 360.154759 
L 484.799947 359.995652 
L 486.384736 359.220008 
L 487.969526 358.971405 
L 489.554316 358.96146 
L 491.139105 359.279673 
L 492.723895 358.036654 
L 495.893474 356.56492 
L 497.478263 356.704138 
L 499.063053 356.087601 
L 500.647843 354.794861 
L 502.232632 355.381566 
L 503.817422 354.784917 
L 505.402211 354.645699 
L 508.57179 355.401454 
L 510.15658 354.934079 
L 511.74137 355.132962 
L 513.326159 355.113074 
L 514.910949 354.685475 
L 516.495738 355.023576 
L 518.080528 354.705364 
L 519.665318 355.053409 
L 521.250107 355.10313 
L 522.834897 355.719667 
L 524.419686 354.894302 
L 527.589265 354.297653 
L 529.174055 353.581674 
L 530.758845 353.551842 
L 532.343634 353.154076 
L 533.928424 352.557427 
L 535.513213 353.581674 
L 538.682792 353.352959 
L 540.267582 352.766254 
L 541.852372 352.726477 
L 545.021951 351.722118 
L 546.60674 352.22927 
L 548.19153 351.881225 
L 549.77632 350.538764 
L 551.361109 349.872506 
L 554.530688 349.246024 
L 556.115478 349.902338 
L 559.285057 350.64815 
L 560.869847 351.105581 
L 562.454636 351.324352 
L 564.039426 351.135413 
L 565.624215 352.199437 
L 567.209005 352.199437 
L 568.793794 351.891169 
L 570.378584 351.045916 
L 573.548163 351.374073 
L 575.132953 351.970722 
L 576.717742 351.662453 
L 578.302532 351.980666 
L 583.056901 351.264687 
L 584.64169 351.722118 
L 586.22648 351.05586 
L 589.396059 351.384017 
L 592.565638 351.065804 
L 597.320007 351.46357 
L 598.904796 350.658094 
L 600.489586 350.658094 
L 605.243955 348.907923 
L 606.828744 348.360995 
L 608.413534 348.241665 
L 609.998324 348.70904 
L 611.583113 347.843899 
L 613.167903 347.903564 
L 616.337482 347.177641 
L 617.922271 346.580992 
L 619.507061 346.322444 
L 621.091851 347.028479 
L 622.67664 346.163338 
L 624.26143 346.421885 
L 625.846219 345.745683 
L 627.431009 346.153393 
L 629.015798 347.058311 
L 630.600588 346.889261 
L 633.770167 346.07384 
L 635.354957 345.238531 
L 636.939746 345.168922 
L 638.524536 345.387694 
L 641.694115 345.059537 
L 643.278905 345.775516 
L 644.863694 346.034064 
L 646.448484 345.735739 
L 648.033273 345.775516 
L 649.618063 346.083784 
L 651.202853 346.750042 
L 652.787642 346.531271 
L 654.372432 346.173282 
L 655.957221 346.411941 
L 657.542011 346.232947 
L 659.1268 346.909149 
L 662.29638 347.336747 
L 663.881169 346.491495 
L 665.465959 346.95887 
L 667.050748 346.521327 
L 668.635538 345.795404 
L 670.220328 345.755627 
L 671.805117 345.516968 
L 673.389907 344.90043 
L 674.974696 344.880542 
L 676.559486 344.691603 
L 679.729065 344.661771 
L 681.313855 345.397638 
L 682.898644 344.840765 
L 684.483434 345.347917 
L 686.068223 345.526912 
L 687.653013 345.357861 
L 689.237802 344.671715 
L 690.822592 343.756853 
L 693.992171 344.32367 
L 695.576961 344.065122 
L 697.16175 343.19998 
L 698.74654 342.026571 
L 701.916119 342.643108 
L 703.500909 343.418752 
L 705.085698 342.295063 
L 708.255277 342.464113 
L 709.840067 344.164563 
L 711.424857 344.124786 
L 713.009646 343.577858 
L 714.594436 343.617635 
L 716.179225 344.194396 
L 717.764015 344.413167 
L 719.348804 344.273949 
L 720.933594 343.836406 
L 722.518384 343.816518 
L 725.687963 344.940207 
L 727.272752 344.691603 
L 728.857542 345.228587 
L 730.442332 345.457303 
L 732.027121 346.004231 
L 733.611911 345.705907 
L 735.1967 345.248476 
L 736.78149 344.999872 
L 738.366279 344.950151 
L 739.951069 343.697188 
L 743.120648 343.170148 
L 744.705438 343.249701 
L 746.290227 343.180092 
L 747.875017 343.43864 
L 749.459806 343.418752 
L 752.629386 343.925903 
L 754.214175 343.359087 
L 755.798965 343.975624 
L 757.383754 344.214284 
L 758.968544 344.164563 
L 760.553334 344.393279 
L 762.138123 344.49272 
L 763.722913 344.055177 
L 765.307702 344.800989 
L 766.892492 345.029704 
L 768.477281 345.109257 
L 771.646861 344.621994 
L 773.23165 342.881768 
L 776.401229 342.434281 
L 777.986019 342.991153 
L 779.570808 343.130371 
L 781.155598 343.806574 
L 782.740388 343.866239 
L 784.325177 343.587802 
L 785.909967 342.971265 
L 787.494756 343.43864 
L 790.664336 343.915959 
L 792.249125 344.32367 
L 793.833915 343.55797 
L 795.418704 343.776741 
L 801.757863 342.732605 
L 803.342652 342.205565 
L 804.927442 342.404448 
L 806.512231 341.787911 
L 808.097021 341.996738 
L 809.68181 341.668581 
L 812.85139 340.336065 
L 814.436179 340.047684 
L 816.020969 340.365897 
L 817.605758 340.39573 
L 819.190548 340.68411 
L 820.775338 340.495171 
L 822.360127 339.779192 
L 823.944917 341.022211 
L 825.529706 341.290703 
L 827.114496 341.300647 
L 828.699285 342.135956 
L 830.284075 341.559195 
L 831.868865 341.380201 
L 833.453654 341.499531 
L 835.038444 341.21115 
L 838.208023 341.777967 
L 839.792812 341.97685 
L 839.792812 341.97685 
" clip-path="url(#p133bf7b282)" style="fill: none; stroke-dasharray: 1.8,2.97; stroke-dashoffset: 0; stroke: #006d2c; stroke-width: 1.8"/>
   </g>
   <g id="patch_3">
    <path d="M 48.982813 458.198125 
L 48.982813 22.318125 
" style="fill: none; stroke: #000000; stroke-width: 0.8; stroke-linejoin: miter; stroke-linecap: square"/>
   </g>
   <g id="patch_4">
    <path d="M 839.792812 458.198125 
L 839.792812 22.318125 
" style="fill: none; stroke: #000000; stroke-width: 0.8; stroke-linejoin: miter; stroke-linecap: square"/>
   </g>
   <g id="patch_5">
    <path d="M 48.982813 458.198125 
L 839.792812 458.198125 
" style="fill: none; stroke: #000000; stroke-width: 0.8; stroke-linejoin: miter; stroke-linecap: square"/>
   </g>
   <g id="patch_6">
    <path d="M 48.982813 22.318125 
L 839.792812 22.318125 
" style="fill: none; stroke: #000000; stroke-width: 0.8; stroke-linejoin: miter; stroke-linecap: square"/>
   </g>
   <g id="text_15">
    <text style="font-size: 12px; font-family: 'Palatino Linotype', 'Book Antiqua', 'Palatino', 'DejaVu Serif', serif; text-anchor: middle" x="444.387812" y="16.318125" transform="rotate(-0 444.387812 16.318125)">Rewards (Training) – Step Komponenten</text>
   </g>
   <g id="legend_1">
    <g id="patch_7">
     <path d="M 655.920937 453.198125 
L 832.792812 453.198125 
Q 834.792812 453.198125 834.792812 451.198125 
L 834.792812 408.021562 
Q 834.792812 406.021562 832.792812 406.021562 
L 655.920937 406.021562 
Q 653.920937 406.021562 653.920937 408.021562 
L 653.920937 451.198125 
Q 653.920937 453.198125 655.920937 453.198125 
z
" style="fill: #ffffff; opacity: 0.8; stroke: #cccccc; stroke-linejoin: miter"/>
    </g>
    <g id="line2d_28">
     <path d="M 657.920937 414.12 
L 667.920937 414.12 
L 677.920937 414.12 
" style="fill: none; stroke: #2ca02c; stroke-width: 2.2; stroke-linecap: square"/>
    </g>
    <g id="text_16">
     <text style="font-size: 10px; font-family: 'Palatino Linotype', 'Book Antiqua', 'Palatino', 'DejaVu Serif', serif; text-anchor: start" x="685.920937" y="417.62" transform="rotate(-0 685.920937 417.62)">Step Reward (Total)</text>
    </g>
    <g id="line2d_29">
     <path d="M 657.920937 428.798125 
L 667.920937 428.798125 
L 677.920937 428.798125 
" style="fill: none; stroke-dasharray: 6.66,2.88; stroke-dashoffset: 0; stroke: #74c476; stroke-width: 1.8"/>
    </g>
    <g id="text_17">
     <text style="font-size: 10px; font-family: 'Palatino Linotype', 'Book Antiqua', 'Palatino', 'DejaVu Serif', serif; text-anchor: start" x="685.920937" y="432.298125" transform="rotate(-0 685.920937 432.298125)">Step Reward (Combo)</text>
    </g>
    <g id="line2d_30">
     <path d="M 657.920937 443.47625 
L 667.920937 443.47625 
L 677.920937 443.47625 
" style="fill: none; stroke-dasharray: 1.8,2.97; stroke-dashoffset: 0; stroke: #006d2c; stroke-width: 1.8"/>
    </g>
    <g id="text_18">
     <text style="font-size: 10px; font-family: 'Palatino Linotype', 'Book Antiqua', 'Palatino', 'DejaVu Serif', serif; text-anchor: start" x="685.920937" y="446.97625" transform="rotate(-0 685.920937 446.97625)">Step Reward (Hand-Penalty)</text>
    </g>
   </g>
  </g>
 </g>
 <defs>
  <clipPath id="p133bf7b282">
   <rect x="48.982813" y="22.318125" width="790.81" height="435.88"/>
  </clipPath>
 </defs>
</svg>
