<?xml version="1.0" encoding="utf-8" standalone="no"?>
<!DOCTYPE svg PUBLIC "-//W3C//DTD SVG 1.1//EN"
  "http://www.w3.org/Graphics/SVG/1.1/DTD/svg11.dtd">
<svg xmlns:xlink="http://www.w3.org/1999/xlink" width="856.536562pt" height="495.896562pt" viewBox="0 0 856.536562 495.896562" xmlns="http://www.w3.org/2000/svg" version="1.1">
 <metadata>
  <rdf:RDF xmlns:dc="http://purl.org/dc/elements/1.1/" xmlns:cc="http://creativecommons.org/ns#" xmlns:rdf="http://www.w3.org/1999/02/22-rdf-syntax-ns#">
   <cc:Work>
    <dc:type rdf:resource="http://purl.org/dc/dcmitype/StillImage"/>
    <dc:date>2025-09-24T21:07:20.340398</dc:date>
    <dc:format>image/svg+xml</dc:format>
    <dc:creator>
     <cc:Agent>
      <dc:title>Matplotlib v3.10.3, https://matplotlib.org/</dc:title>
     </cc:Agent>
    </dc:creator>
   </cc:Work>
  </rdf:RDF>
 </metadata>
 <defs>
  <style type="text/css">*{stroke-linejoin: round; stroke-linecap: butt}</style>
 </defs>
 <g id="figure_1">
  <g id="patch_1">
   <path d="M -0 495.896562 
L 856.536562 495.896562 
L 856.536562 0 
L -0 0 
z
" style="fill: #ffffff"/>
  </g>
  <g id="axes_1">
   <g id="patch_2">
    <path d="M 48.982813 458.198125 
L 839.792812 458.198125 
L 839.792812 22.318125 
L 48.982813 22.318125 
z
" style="fill: #ffffff"/>
   </g>
   <g id="matplotlib.axis_1">
    <g id="xtick_1">
     <g id="line2d_1">
      <path d="M 205.876981 458.198125 
L 205.876981 22.318125 
" clip-path="url(#pcb7cdc4157)" style="fill: none; stroke: #b0b0b0; stroke-width: 0.8; stroke-linecap: square"/>
     </g>
     <g id="line2d_2">
      <defs>
       <path id="m8f81aebd32" d="M 0 0 
L 0 3.5 
" style="stroke: #000000; stroke-width: 0.8"/>
      </defs>
      <g>
       <use xlink:href="#m8f81aebd32" x="205.876981" y="458.198125" style="stroke: #000000; stroke-width: 0.8"/>
      </g>
     </g>
     <g id="text_1">
      <text style="font-size: 10px; font-family: 'Palatino Linotype', 'Book Antiqua', 'Palatino', 'DejaVu Serif', serif; text-anchor: middle" x="205.876981" y="472.796562" transform="rotate(-0 205.876981 472.796562)">100</text>
     </g>
    </g>
    <g id="xtick_2">
     <g id="line2d_3">
      <path d="M 364.355939 458.198125 
L 364.355939 22.318125 
" clip-path="url(#pcb7cdc4157)" style="fill: none; stroke: #b0b0b0; stroke-width: 0.8; stroke-linecap: square"/>
     </g>
     <g id="line2d_4">
      <g>
       <use xlink:href="#m8f81aebd32" x="364.355939" y="458.198125" style="stroke: #000000; stroke-width: 0.8"/>
      </g>
     </g>
     <g id="text_2">
      <text style="font-size: 10px; font-family: 'Palatino Linotype', 'Book Antiqua', 'Palatino', 'DejaVu Serif', serif; text-anchor: middle" x="364.355939" y="472.796562" transform="rotate(-0 364.355939 472.796562)">200</text>
     </g>
    </g>
    <g id="xtick_3">
     <g id="line2d_5">
      <path d="M 522.834897 458.198125 
L 522.834897 22.318125 
" clip-path="url(#pcb7cdc4157)" style="fill: none; stroke: #b0b0b0; stroke-width: 0.8; stroke-linecap: square"/>
     </g>
     <g id="line2d_6">
      <g>
       <use xlink:href="#m8f81aebd32" x="522.834897" y="458.198125" style="stroke: #000000; stroke-width: 0.8"/>
      </g>
     </g>
     <g id="text_3">
      <text style="font-size: 10px; font-family: 'Palatino Linotype', 'Book Antiqua', 'Palatino', 'DejaVu Serif', serif; text-anchor: middle" x="522.834897" y="472.796562" transform="rotate(-0 522.834897 472.796562)">300</text>
     </g>
    </g>
    <g id="xtick_4">
     <g id="line2d_7">
      <path d="M 681.313855 458.198125 
L 681.313855 22.318125 
" clip-path="url(#pcb7cdc4157)" style="fill: none; stroke: #b0b0b0; stroke-width: 0.8; stroke-linecap: square"/>
     </g>
     <g id="line2d_8">
      <g>
       <use xlink:href="#m8f81aebd32" x="681.313855" y="458.198125" style="stroke: #000000; stroke-width: 0.8"/>
      </g>
     </g>
     <g id="text_4">
      <text style="font-size: 10px; font-family: 'Palatino Linotype', 'Book Antiqua', 'Palatino', 'DejaVu Serif', serif; text-anchor: middle" x="681.313855" y="472.796562" transform="rotate(-0 681.313855 472.796562)">400</text>
     </g>
    </g>
    <g id="xtick_5">
     <g id="line2d_9">
      <path d="M 839.792812 458.198125 
L 839.792812 22.318125 
" clip-path="url(#pcb7cdc4157)" style="fill: none; stroke: #b0b0b0; stroke-width: 0.8; stroke-linecap: square"/>
     </g>
     <g id="line2d_10">
      <g>
       <use xlink:href="#m8f81aebd32" x="839.792812" y="458.198125" style="stroke: #000000; stroke-width: 0.8"/>
      </g>
     </g>
     <g id="text_5">
      <text style="font-size: 10px; font-family: 'Palatino Linotype', 'Book Antiqua', 'Palatino', 'DejaVu Serif', serif; text-anchor: middle" x="839.792812" y="472.796562" transform="rotate(-0 839.792812 472.796562)">500</text>
     </g>
    </g>
    <g id="text_6">
     <text style="font-size: 10px; font-family: 'Palatino Linotype', 'Book Antiqua', 'Palatino', 'DejaVu Serif', serif; text-anchor: middle" x="444.387812" y="486.474687" transform="rotate(-0 444.387812 486.474687)">Trainings-Episode</text>
    </g>
   </g>
   <g id="matplotlib.axis_2">
    <g id="ytick_1">
     <g id="line2d_11">
      <path d="M 48.982813 426.116048 
L 839.792812 426.116048 
" clip-path="url(#pcb7cdc4157)" style="fill: none; stroke: #b0b0b0; stroke-width: 0.8; stroke-linecap: square"/>
     </g>
     <g id="line2d_12">
      <defs>
       <path id="mb43bef87d6" d="M 0 0 
L -3.5 0 
" style="stroke: #000000; stroke-width: 0.8"/>
      </defs>
      <g>
       <use xlink:href="#mb43bef87d6" x="48.982813" y="426.116048" style="stroke: #000000; stroke-width: 0.8"/>
      </g>
     </g>
     <g id="text_7">
      <text style="font-size: 10px; font-family: 'Palatino Linotype', 'Book Antiqua', 'Palatino', 'DejaVu Serif', serif; text-anchor: end" x="41.982813" y="429.915267" transform="rotate(-0 41.982813 429.915267)">−60</text>
     </g>
    </g>
    <g id="ytick_2">
     <g id="line2d_13">
      <path d="M 48.982813 367.041403 
L 839.792812 367.041403 
" clip-path="url(#pcb7cdc4157)" style="fill: none; stroke: #b0b0b0; stroke-width: 0.8; stroke-linecap: square"/>
     </g>
     <g id="line2d_14">
      <g>
       <use xlink:href="#mb43bef87d6" x="48.982813" y="367.041403" style="stroke: #000000; stroke-width: 0.8"/>
      </g>
     </g>
     <g id="text_8">
      <text style="font-size: 10px; font-family: 'Palatino Linotype', 'Book Antiqua', 'Palatino', 'DejaVu Serif', serif; text-anchor: end" x="41.982813" y="370.840621" transform="rotate(-0 41.982813 370.840621)">−50</text>
     </g>
    </g>
    <g id="ytick_3">
     <g id="line2d_15">
      <path d="M 48.982813 307.966757 
L 839.792812 307.966757 
" clip-path="url(#pcb7cdc4157)" style="fill: none; stroke: #b0b0b0; stroke-width: 0.8; stroke-linecap: square"/>
     </g>
     <g id="line2d_16">
      <g>
       <use xlink:href="#mb43bef87d6" x="48.982813" y="307.966757" style="stroke: #000000; stroke-width: 0.8"/>
      </g>
     </g>
     <g id="text_9">
      <text style="font-size: 10px; font-family: 'Palatino Linotype', 'Book Antiqua', 'Palatino', 'DejaVu Serif', serif; text-anchor: end" x="41.982813" y="311.765976" transform="rotate(-0 41.982813 311.765976)">−40</text>
     </g>
    </g>
    <g id="ytick_4">
     <g id="line2d_17">
      <path d="M 48.982813 248.892112 
L 839.792812 248.892112 
" clip-path="url(#pcb7cdc4157)" style="fill: none; stroke: #b0b0b0; stroke-width: 0.8; stroke-linecap: square"/>
     </g>
     <g id="line2d_18">
      <g>
       <use xlink:href="#mb43bef87d6" x="48.982813" y="248.892112" style="stroke: #000000; stroke-width: 0.8"/>
      </g>
     </g>
     <g id="text_10">
      <text style="font-size: 10px; font-family: 'Palatino Linotype', 'Book Antiqua', 'Palatino', 'DejaVu Serif', serif; text-anchor: end" x="41.982813" y="252.69133" transform="rotate(-0 41.982813 252.69133)">−30</text>
     </g>
    </g>
    <g id="ytick_5">
     <g id="line2d_19">
      <path d="M 48.982813 189.817466 
L 839.792812 189.817466 
" clip-path="url(#pcb7cdc4157)" style="fill: none; stroke: #b0b0b0; stroke-width: 0.8; stroke-linecap: square"/>
     </g>
     <g id="line2d_20">
      <g>
       <use xlink:href="#mb43bef87d6" x="48.982813" y="189.817466" style="stroke: #000000; stroke-width: 0.8"/>
      </g>
     </g>
     <g id="text_11">
      <text style="font-size: 10px; font-family: 'Palatino Linotype', 'Book Antiqua', 'Palatino', 'DejaVu Serif', serif; text-anchor: end" x="41.982813" y="193.616685" transform="rotate(-0 41.982813 193.616685)">−20</text>
     </g>
    </g>
    <g id="ytick_6">
     <g id="line2d_21">
      <path d="M 48.982813 130.742821 
L 839.792812 130.742821 
" clip-path="url(#pcb7cdc4157)" style="fill: none; stroke: #b0b0b0; stroke-width: 0.8; stroke-linecap: square"/>
     </g>
     <g id="line2d_22">
      <g>
       <use xlink:href="#mb43bef87d6" x="48.982813" y="130.742821" style="stroke: #000000; stroke-width: 0.8"/>
      </g>
     </g>
     <g id="text_12">
      <text style="font-size: 10px; font-family: 'Palatino Linotype', 'Book Antiqua', 'Palatino', 'DejaVu Serif', serif; text-anchor: end" x="41.982813" y="134.542039" transform="rotate(-0 41.982813 134.542039)">−10</text>
     </g>
    </g>
    <g id="ytick_7">
     <g id="line2d_23">
      <path d="M 48.982813 71.668175 
L 839.792812 71.668175 
" clip-path="url(#pcb7cdc4157)" style="fill: none; stroke: #b0b0b0; stroke-width: 0.8; stroke-linecap: square"/>
     </g>
     <g id="line2d_24">
      <g>
       <use xlink:href="#mb43bef87d6" x="48.982813" y="71.668175" style="stroke: #000000; stroke-width: 0.8"/>
      </g>
     </g>
     <g id="text_13">
      <text style="font-size: 10px; font-family: 'Palatino Linotype', 'Book Antiqua', 'Palatino', 'DejaVu Serif', serif; text-anchor: end" x="41.982813" y="75.467394" transform="rotate(-0 41.982813 75.467394)">0</text>
     </g>
    </g>
    <g id="text_14">
     <text style="font-size: 10px; font-family: 'Palatino Linotype', 'Book Antiqua', 'Palatino', 'DejaVu Serif', serif; text-anchor: middle" x="14.798438" y="240.258125" transform="rotate(-90 14.798438 240.258125)">Rewards</text>
    </g>
   </g>
   <g id="line2d_25">
    <path d="M 48.982813 53.945781 
L 50.567602 62.806978 
L 52.152392 63.791556 
L 53.737181 65.76071 
L 55.321971 65.76071 
L 56.90676 66.745288 
L 58.49155 65.76071 
L 60.07634 65.76071 
L 61.661129 66.417095 
L 63.245919 65.76071 
L 66.415498 66.745288 
L 68.000287 67.123972 
L 69.585077 66.604634 
L 72.754656 67.237577 
L 74.339446 66.455706 
L 75.924235 66.417095 
L 79.093815 66.942203 
L 80.678604 66.885942 
L 83.848183 67.301788 
L 85.432973 67.237577 
L 87.017762 66.705905 
L 88.602552 66.669551 
L 94.94171 67.336034 
L 96.5265 67.475781 
L 98.111289 67.422185 
L 99.696079 67.013809 
L 102.865658 67.279773 
L 104.450448 67.07348 
L 107.620027 67.315306 
L 109.204817 67.275445 
L 112.374396 67.489725 
L 113.959185 67.307904 
L 117.128764 67.506098 
L 120.298344 67.430211 
L 121.883133 67.268999 
L 123.467923 67.360649 
L 125.052712 67.207437 
L 131.391871 67.544096 
L 134.56145 67.586654 
L 137.731029 67.626226 
L 140.900608 67.663114 
L 142.485398 67.729865 
L 144.070187 67.60074 
L 151.994135 67.819372 
L 155.163714 67.845698 
L 161.502873 68.058058 
L 163.087662 67.945663 
L 167.842031 68.014875 
L 174.181189 67.828323 
L 177.350768 67.705851 
L 182.105137 67.776198 
L 186.859506 67.573228 
L 193.198664 67.751269 
L 197.953033 67.564042 
L 201.122612 67.587761 
L 209.04656 67.556116 
L 210.63135 67.596039 
L 212.216139 67.521589 
L 215.385718 67.599827 
L 216.970508 67.472219 
L 226.479245 67.642735 
L 229.648825 67.610004 
L 243.911931 67.571063 
L 247.08151 67.589211 
L 255.005458 67.384136 
L 262.929406 67.454763 
L 267.683774 67.333201 
L 269.268564 67.237577 
L 272.438143 67.216776 
L 275.607722 67.114504 
L 294.625197 67.060353 
L 297.794776 67.139119 
L 302.549145 67.139119 
L 305.718724 66.942203 
L 307.303514 67.02097 
L 310.473093 66.942203 
L 313.642672 67.060353 
L 327.905778 66.981586 
L 334.244937 66.745288 
L 335.829726 66.666522 
L 337.414516 66.784671 
L 346.923253 66.745288 
L 350.092833 66.548372 
L 353.262412 66.627139 
L 358.01678 66.587756 
L 361.18636 66.666522 
L 365.940728 66.705905 
L 370.695097 66.508989 
L 375.449466 66.469606 
L 380.203835 66.272691 
L 381.788624 66.312074 
L 384.958203 66.115158 
L 396.05173 66.036392 
L 410.314837 65.76071 
L 411.899626 65.839477 
L 419.823574 65.642561 
L 422.993153 65.721327 
L 426.162732 65.76071 
L 429.332311 65.524412 
L 432.501891 65.603178 
L 434.08668 65.721327 
L 446.764997 65.485029 
L 453.104155 65.524412 
L 454.688945 65.642561 
L 467.367261 65.36688 
L 473.70642 65.485029 
L 475.291209 65.406263 
L 478.460788 65.406263 
L 484.799947 65.288113 
L 494.308684 65.445646 
L 503.817422 65.445646 
L 506.987001 65.681944 
L 510.15658 65.681944 
L 511.74137 65.800094 
L 514.910949 65.800094 
L 518.080528 65.839477 
L 521.250107 65.918243 
L 522.834897 65.957626 
L 526.004476 65.839477 
L 529.174055 65.839477 
L 537.098003 65.800094 
L 538.682792 65.681944 
L 541.852372 65.76071 
L 543.437161 65.800094 
L 545.021951 65.681944 
L 546.60674 65.76071 
L 548.19153 65.642561 
L 551.361109 65.642561 
L 559.285057 65.524412 
L 564.039426 65.603178 
L 565.624215 65.642561 
L 568.793794 65.563795 
L 570.378584 65.563795 
L 573.548163 65.800094 
L 590.980849 65.721327 
L 594.150428 65.681944 
L 597.320007 65.76071 
L 602.074376 65.721327 
L 605.243955 65.800094 
L 611.583113 65.87886 
L 613.167903 65.839477 
L 616.337482 65.957626 
L 619.507061 65.997009 
L 622.67664 66.075775 
L 632.185378 65.997009 
L 636.939746 65.800094 
L 638.524536 65.918243 
L 641.694115 65.957626 
L 643.278905 66.036392 
L 646.448484 66.036392 
L 649.618063 66.075775 
L 652.787642 66.272691 
L 665.465959 66.351457 
L 667.050748 66.469606 
L 670.220328 66.430223 
L 671.805117 66.351457 
L 676.559486 66.469606 
L 678.144275 66.39084 
L 681.313855 66.469606 
L 684.483434 66.469606 
L 687.653013 66.430223 
L 692.407382 66.233308 
L 709.840067 66.154541 
L 714.594436 65.957626 
L 717.764015 66.036392 
L 720.933594 65.87886 
L 728.857542 65.997009 
L 739.951069 65.721327 
L 741.535859 65.800094 
L 744.705438 65.721327 
L 749.459806 65.681944 
L 768.477281 65.603178 
L 771.646861 65.36688 
L 776.401229 65.445646 
L 777.986019 65.36688 
L 782.740388 65.642561 
L 800.173073 65.563795 
L 801.757863 65.485029 
L 808.097021 65.721327 
L 812.85139 65.445646 
L 814.436179 65.485029 
L 817.605758 65.36688 
L 838.208023 65.36688 
L 839.792812 65.24873 
L 839.792812 65.24873 
" clip-path="url(#pcb7cdc4157)" style="fill: none; stroke: #6baed6; stroke-width: 1.5; stroke-linecap: square"/>
   </g>
   <g id="line2d_26">
    <path d="M 48.982813 48.038317 
L 50.567602 160.280143 
L 52.152392 292.213518 
L 53.737181 341.196245 
L 55.321971 362.315431 
L 56.90676 434.977245 
L 58.49155 424.428201 
L 60.07634 426.485265 
L 61.661129 425.131471 
L 63.245919 409.870521 
L 64.830708 409.73626 
L 66.415498 417.74714 
L 68.000287 438.385398 
L 69.585077 435.399207 
L 71.169867 435.567992 
L 72.754656 429.069781 
L 74.339446 405.961169 
L 75.924235 402.157998 
L 77.509025 397.511483 
L 79.093815 401.009324 
L 80.678604 395.031532 
L 82.263394 396.175944 
L 83.848183 395.679764 
L 85.432973 400.640107 
L 87.017762 403.549534 
L 88.602552 397.146751 
L 90.187342 401.17342 
L 91.772131 399.743439 
L 93.356921 395.152786 
L 94.94171 397.26793 
L 96.5265 397.722106 
L 98.111289 394.271122 
L 99.696079 387.269993 
L 101.280869 385.980039 
L 102.865658 389.742945 
L 104.450448 387.061144 
L 106.035237 378.537009 
L 107.620027 377.146276 
L 109.204817 373.327551 
L 110.789606 373.761144 
L 112.374396 370.13922 
L 113.959185 361.626227 
L 115.543975 361.20263 
L 117.128764 367.981227 
L 118.713554 365.269163 
L 120.298344 367.74773 
L 121.883133 365.595959 
L 123.467923 366.61065 
L 125.052712 362.821785 
L 126.637502 366.037134 
L 128.222291 364.203503 
L 129.807081 364.769301 
L 131.391871 363.864747 
L 132.97666 360.860444 
L 134.56145 360.596896 
L 136.146239 359.868053 
L 137.731029 360.201181 
L 139.315819 358.893176 
L 140.900608 358.480585 
L 142.485398 355.571076 
L 144.070187 357.405456 
L 145.654977 353.797248 
L 147.239766 353.06978 
L 148.824556 353.195783 
L 150.409346 351.273017 
L 151.994135 351.959467 
L 153.578925 350.112549 
L 155.163714 351.838369 
L 156.748504 350.217971 
L 158.333293 349.023636 
L 159.918083 346.406879 
L 161.502873 344.560218 
L 163.087662 344.584945 
L 164.672452 343.371629 
L 166.257241 342.387584 
L 167.842031 340.535542 
L 169.426821 342.33746 
L 171.01161 345.570041 
L 172.5964 346.103554 
L 174.181189 343.190015 
L 175.765979 339.509701 
L 177.350768 339.052988 
L 178.935558 337.468493 
L 180.520348 339.367744 
L 182.105137 340.214564 
L 183.689927 339.667861 
L 185.274716 338.081246 
L 186.859506 336.060779 
L 188.444295 336.110184 
L 190.029085 335.042636 
L 191.613875 334.128386 
L 193.198664 333.073482 
L 194.783454 333.375207 
L 196.368243 331.628038 
L 197.953033 331.689891 
L 199.537823 332.088904 
L 201.122612 331.353009 
L 202.707402 331.777456 
L 204.292191 331.35793 
L 205.876981 330.592346 
L 207.46177 330.894738 
L 209.04656 330.177666 
L 210.63135 331.137783 
L 212.216139 330.545768 
L 213.800929 331.034 
L 215.385718 330.704923 
L 216.970508 329.084563 
L 218.555297 328.642883 
L 220.140087 327.260862 
L 221.724877 327.891024 
L 223.309666 327.897798 
L 224.894456 329.354944 
L 226.479245 330.263515 
L 229.648825 331.365454 
L 231.233614 332.10588 
L 232.818404 331.975299 
L 234.403193 333.073482 
L 235.987983 333.334105 
L 237.572772 333.418084 
L 239.157562 333.134509 
L 240.742352 333.194536 
L 242.327141 332.79732 
L 243.911931 334.69327 
L 245.49672 333.108926 
L 248.666299 332.922306 
L 250.251089 331.873528 
L 251.835879 331.619513 
L 253.420668 329.869818 
L 255.005458 331.438782 
L 256.590247 331.328094 
L 258.175037 332.196245 
L 259.759827 331.971343 
L 261.344616 332.581193 
L 262.929406 334.528629 
L 264.514195 335.11091 
L 266.098985 336.326868 
L 267.683774 336.399087 
L 269.268564 334.613642 
L 270.853354 333.586719 
L 272.438143 333.135884 
L 275.607722 331.617127 
L 277.192512 330.904016 
L 278.777301 330.787374 
L 280.362091 329.868582 
L 281.946881 327.764747 
L 283.53167 326.779455 
L 285.11646 325.059021 
L 286.701249 326.673728 
L 288.286039 327.047868 
L 289.870829 324.468275 
L 291.455618 323.404931 
L 293.040408 322.184055 
L 294.625197 319.250014 
L 296.209987 319.328781 
L 297.794776 318.482044 
L 299.379566 317.083944 
L 300.964356 316.690113 
L 302.549145 316.000909 
L 304.133935 313.637923 
L 305.718724 310.487275 
L 307.303514 310.231285 
L 308.888303 308.104598 
L 310.473093 308.439354 
L 312.057883 312.338281 
L 313.642672 313.539465 
L 315.227462 312.909336 
L 316.812251 311.530927 
L 318.397041 310.861415 
L 319.981831 308.616578 
L 321.56662 307.218478 
L 324.736199 301.704845 
L 326.320989 302.295591 
L 327.905778 298.554197 
L 329.490568 296.30936 
L 331.075358 297.609003 
L 332.660147 297.175789 
L 334.244937 296.073062 
L 335.829726 296.506276 
L 338.999305 296.368435 
L 340.584095 294.222056 
L 342.168885 294.674962 
L 343.753674 296.132137 
L 345.338464 295.777689 
L 346.923253 295.91553 
L 348.508043 295.777689 
L 350.092833 294.340206 
L 351.677622 296.447201 
L 353.262412 295.147559 
L 354.847201 292.725499 
L 356.431991 293.00118 
L 358.01678 291.248633 
L 359.60157 290.736652 
L 362.771149 290.460971 
L 364.355939 288.649348 
L 365.940728 289.456702 
L 367.525518 288.609965 
L 369.110307 288.176751 
L 372.279887 286.483278 
L 373.864676 287.586004 
L 375.449466 286.483278 
L 377.034255 286.8968 
L 378.619045 286.463586 
L 380.203835 288.117676 
L 381.788624 286.936183 
L 383.373414 286.601427 
L 384.958203 286.778651 
L 386.542993 285.183636 
L 388.127782 285.774382 
L 389.712572 284.080909 
L 391.297362 282.997874 
L 392.882151 282.328361 
L 394.466941 282.249595 
L 396.05173 282.485893 
L 397.63652 283.923376 
L 399.221309 284.848879 
L 400.806099 283.234172 
L 402.390889 282.978182 
L 403.975678 281.776998 
L 405.560468 281.127177 
L 407.145257 277.799305 
L 408.730047 275.436319 
L 410.314837 273.880687 
L 411.899626 274.983413 
L 413.484416 274.727423 
L 415.069205 273.112716 
L 416.653995 273.66408 
L 418.238784 271.813074 
L 419.823574 269.548546 
L 421.408364 268.367053 
L 422.993153 268.307978 
L 424.577943 269.21379 
L 426.162732 269.607621 
L 427.747522 269.09564 
L 429.332311 269.09564 
L 430.917101 269.922685 
L 432.501891 267.81569 
L 434.08668 268.898725 
L 435.67147 268.544277 
L 437.256259 266.791729 
L 438.841049 266.260057 
L 440.425839 264.625659 
L 442.010628 263.404783 
L 443.595418 263.266942 
L 445.180207 264.015221 
L 446.764997 262.597429 
L 448.349786 260.588891 
L 449.934576 260.037528 
L 451.519366 259.761846 
L 453.104155 260.923648 
L 454.688945 261.553777 
L 456.273734 261.494703 
L 457.858524 261.986991 
L 459.443314 261.947608 
L 461.028103 262.597429 
L 462.612893 259.190792 
L 464.197682 258.02899 
L 465.782472 255.764462 
L 467.367261 256.493049 
L 468.952051 254.130064 
L 470.536841 253.381785 
L 472.12163 250.506819 
L 473.70642 249.75854 
L 475.291209 249.187485 
L 476.875999 248.242291 
L 478.460788 246.568509 
L 480.045578 245.347633 
L 481.630368 241.862229 
L 483.215157 243.004339 
L 484.799947 242.76804 
L 486.384736 240.129373 
L 487.969526 239.479551 
L 489.554316 239.302328 
L 491.139105 239.853691 
L 492.723895 236.91965 
L 495.893474 233.296405 
L 497.478263 233.572087 
L 499.063053 232.193679 
L 500.647843 229.239946 
L 502.232632 230.322981 
L 503.817422 229.141488 
L 505.402211 228.944573 
L 506.987001 230.126066 
L 508.57179 230.913728 
L 510.15658 229.909459 
L 511.74137 230.382056 
L 513.326159 230.185141 
L 514.910949 229.102105 
L 516.495738 229.850384 
L 518.080528 228.747658 
L 519.665318 229.909459 
L 521.250107 230.086683 
L 522.834897 231.780156 
L 524.419686 229.909459 
L 526.004476 229.476245 
L 527.589265 228.570434 
L 529.174055 226.758811 
L 530.758845 226.936035 
L 532.343634 225.518244 
L 533.928424 223.864153 
L 535.513213 225.656084 
L 538.682792 225.281945 
L 540.267582 223.805079 
L 541.852372 224.041377 
L 543.437161 223.194641 
L 545.021951 222.052531 
L 546.60674 223.293099 
L 548.19153 222.446362 
L 549.77632 219.709237 
L 551.361109 218.153604 
L 552.945899 217.444709 
L 554.530688 216.597972 
L 556.115478 217.897614 
L 560.869847 220.674123 
L 562.454636 221.186103 
L 564.039426 220.654431 
L 565.624215 223.234024 
L 567.209005 223.076492 
L 568.793794 222.308521 
L 570.378584 220.240909 
L 571.963374 221.087645 
L 573.548163 221.205794 
L 575.132953 222.859885 
L 576.717742 222.17068 
L 578.302532 222.80081 
L 583.056901 220.280292 
L 584.64169 221.422401 
L 586.22648 219.709237 
L 587.811269 220.851347 
L 589.396059 220.910421 
L 590.980849 220.299983 
L 592.565638 220.122759 
L 594.150428 220.477207 
L 597.320007 220.595356 
L 598.904796 218.291445 
L 600.489586 218.370211 
L 602.074376 216.775196 
L 603.659165 214.904499 
L 605.243955 213.880538 
L 606.828744 212.718737 
L 608.413534 212.561205 
L 609.998324 213.250409 
L 611.583113 211.064647 
L 613.167903 211.497861 
L 614.752692 210.296677 
L 616.337482 209.902846 
L 617.922271 208.56382 
L 619.507061 207.658009 
L 621.091851 209.292408 
L 622.67664 207.342944 
L 624.26143 207.697392 
L 625.846219 206.279601 
L 627.431009 207.323253 
L 629.015798 209.115184 
L 630.600588 208.386596 
L 632.185378 207.205103 
L 633.770167 206.378058 
L 635.354957 204.566436 
L 636.939746 204.586128 
L 638.524536 205.413173 
L 640.109326 204.940575 
L 641.694115 204.763351 
L 643.278905 206.574974 
L 644.863694 207.323253 
L 646.448484 206.732506 
L 648.033273 206.65374 
L 649.618063 207.185412 
L 651.202853 208.504746 
L 652.787642 208.071532 
L 654.372432 207.047571 
L 655.957221 207.835233 
L 657.542011 207.16572 
L 659.1268 208.898577 
L 660.71159 209.509015 
L 662.29638 209.981612 
L 663.881169 207.756467 
L 665.465959 208.524437 
L 667.050748 207.42171 
L 668.635538 205.747929 
L 670.220328 206.299292 
L 671.805117 205.826695 
L 673.389907 204.36952 
L 674.974696 204.172605 
L 676.559486 203.719699 
L 678.144275 203.542475 
L 679.729065 203.739391 
L 681.313855 205.196566 
L 682.898644 204.093839 
L 684.483434 205.176874 
L 686.068223 205.531322 
L 687.653013 205.117799 
L 690.822592 201.94746 
L 692.407382 202.420057 
L 693.992171 203.069878 
L 695.576961 202.479132 
L 697.16175 200.135838 
L 698.74654 197.103339 
L 700.33133 198.00915 
L 701.916119 198.560514 
L 703.500909 200.175221 
L 705.085698 197.556245 
L 706.670488 197.438095 
L 708.255277 197.891001 
L 709.840067 201.415788 
L 711.424857 201.258256 
L 713.009646 200.096454 
L 714.594436 200.096454 
L 716.179225 201.474863 
L 717.764015 202.065609 
L 719.348804 201.789928 
L 720.933594 200.687201 
L 722.518384 200.569052 
L 724.103173 202.872963 
L 725.687963 204.054456 
L 727.272752 203.562167 
L 730.442332 205.157182 
L 732.027121 206.476516 
L 733.611911 205.649471 
L 735.1967 204.349829 
L 736.78149 203.778774 
L 738.366279 203.995381 
L 739.951069 201.120415 
L 743.120648 199.289101 
L 744.705438 199.446633 
L 746.290227 198.757429 
L 747.875017 198.954345 
L 749.459806 198.599897 
L 752.629386 199.919231 
L 754.214175 198.245449 
L 755.798965 199.938922 
L 757.383754 200.096454 
L 758.968544 200.076763 
L 760.553334 200.29337 
L 762.138123 200.332753 
L 763.722913 199.545091 
L 765.307702 201.17949 
L 766.892492 201.789928 
L 768.477281 202.026226 
L 770.062071 201.573321 
L 771.646861 201.612704 
L 773.23165 198.087916 
L 774.81644 197.319946 
L 776.401229 196.414135 
L 777.986019 197.595628 
L 779.570808 197.635011 
L 781.155598 199.052802 
L 782.740388 199.092185 
L 784.325177 198.304524 
L 785.909967 197.004881 
L 787.494756 197.694086 
L 789.079546 198.048533 
L 790.664336 198.245449 
L 792.249125 199.289101 
L 793.833915 197.694086 
L 795.418704 198.206066 
L 797.003494 197.654702 
L 798.588283 197.339638 
L 800.173073 196.374752 
L 801.757863 195.58709 
L 803.342652 194.228373 
L 804.927442 194.543438 
L 806.512231 193.322562 
L 808.097021 193.657318 
L 809.68181 192.692432 
L 811.2666 191.235258 
L 812.85139 189.974999 
L 814.436179 189.325177 
L 817.605758 189.699317 
L 819.190548 190.270372 
L 820.775338 189.817466 
L 822.360127 188.163376 
L 823.944917 191.018651 
L 825.529706 191.944153 
L 827.114496 192.042611 
L 828.699285 193.696701 
L 830.284075 192.475825 
L 831.868865 191.806313 
L 833.453654 192.436442 
L 835.038444 192.02292 
L 836.623233 192.909039 
L 838.208023 193.30287 
L 839.792812 193.854234 
L 839.792812 193.854234 
" clip-path="url(#pcb7cdc4157)" style="fill: none; stroke: #2ca02c; stroke-width: 1.5; stroke-linecap: square"/>
   </g>
   <g id="line2d_27">
    <path d="M 48.982813 42.130852 
L 50.567602 65.76071 
L 52.152392 67.729865 
L 53.737181 73.145041 
L 55.321971 72.849668 
L 56.90676 75.606485 
L 58.49155 75.043869 
L 60.07634 74.621907 
L 61.661129 76.26287 
L 63.245919 75.8034 
L 64.830708 77.038597 
L 66.415498 78.067928 
L 68.000287 78.938901 
L 69.585077 78.419563 
L 72.754656 79.790939 
L 74.339446 77.57564 
L 75.924235 77.247447 
L 79.093815 78.461759 
L 80.678604 78.138255 
L 83.848183 79.116717 
L 85.432973 78.806361 
L 87.017762 77.339341 
L 88.602552 77.121219 
L 93.356921 78.390462 
L 96.5265 79.100147 
L 98.111289 78.867897 
L 99.696079 77.754654 
L 102.865658 78.419563 
L 104.450448 78.232025 
L 107.620027 78.819316 
L 109.204817 78.635954 
L 112.374396 79.160569 
L 113.959185 78.982179 
L 117.128764 79.455287 
L 121.883133 78.958238 
L 123.467923 79.175578 
L 125.052712 79.022366 
L 131.391871 79.804872 
L 132.97666 79.654192 
L 136.146239 80.00192 
L 139.315819 79.714549 
L 142.485398 80.037083 
L 144.070187 79.899888 
L 148.824556 80.344764 
L 150.409346 80.211278 
L 151.994135 80.350358 
L 153.578925 80.220773 
L 161.502873 80.857564 
L 163.087662 80.731682 
L 166.257241 80.962586 
L 169.426821 80.721173 
L 171.01161 80.832319 
L 172.5964 80.716317 
L 174.181189 80.233999 
L 177.350768 80.025076 
L 178.935558 80.137913 
L 180.520348 80.037083 
L 182.105137 80.147124 
L 186.859506 79.858069 
L 193.198664 80.272526 
L 194.783454 80.180006 
L 196.368243 79.775227 
L 199.537823 79.975547 
L 204.292191 79.723809 
L 205.876981 79.820476 
L 209.04656 79.660627 
L 210.63135 79.755093 
L 212.216139 79.677334 
L 215.385718 79.860602 
L 216.970508 79.507988 
L 218.555297 79.599493 
L 220.140087 79.526729 
L 226.479245 79.875891 
L 228.064035 79.803894 
L 229.648825 79.887256 
L 235.987983 79.610985 
L 237.572772 79.692481 
L 240.742352 79.560935 
L 245.49672 79.796846 
L 248.666299 79.668836 
L 250.251089 79.744787 
L 251.835879 79.682177 
L 253.420668 79.393321 
L 255.005458 79.33435 
L 261.344616 79.632312 
L 266.098985 79.459179 
L 269.268564 78.925917 
L 270.853354 79.000135 
L 272.438143 78.948501 
L 274.022933 78.691035 
L 277.192512 78.594168 
L 278.777301 78.668116 
L 280.362091 78.620497 
L 281.946881 78.373946 
L 283.53167 78.447883 
L 285.11646 78.402685 
L 286.701249 78.717749 
L 288.286039 78.5996 
L 291.455618 78.5996 
L 293.040408 78.717749 
L 294.625197 78.5996 
L 296.209987 78.717749 
L 299.379566 78.717749 
L 300.964356 78.835899 
L 302.549145 78.717749 
L 304.133935 78.402685 
L 305.718724 78.284535 
L 307.303514 78.402685 
L 308.888303 78.284535 
L 310.473093 78.284535 
L 313.642672 78.5996 
L 315.227462 78.5996 
L 316.812251 78.481451 
L 318.397041 78.5996 
L 323.15141 78.5996 
L 326.320989 78.914665 
L 327.905778 78.5996 
L 332.660147 78.245152 
L 334.244937 77.930087 
L 335.829726 77.733172 
L 337.414516 78.048237 
L 338.999305 78.048237 
L 340.584095 77.930087 
L 343.753674 77.930087 
L 345.338464 77.811938 
L 346.923253 77.930087 
L 348.508043 77.615023 
L 350.092833 77.496873 
L 351.677622 77.615023 
L 353.262412 77.615023 
L 354.847201 77.496873 
L 356.431991 77.615023 
L 358.01678 77.615023 
L 359.60157 77.733172 
L 365.940728 77.733172 
L 372.279887 77.299958 
L 375.449466 77.299958 
L 378.619045 76.984893 
L 380.203835 76.866744 
L 381.788624 76.866744 
L 383.373414 76.551679 
L 384.958203 76.43353 
L 388.127782 76.43353 
L 389.712572 76.31538 
L 391.297362 76.43353 
L 392.882151 76.31538 
L 394.466941 76.31538 
L 397.63652 76.079082 
L 399.221309 76.079082 
L 400.806099 75.882166 
L 402.390889 75.882166 
L 403.975678 75.764017 
L 407.145257 75.764017 
L 408.730047 75.645868 
L 410.314837 75.645868 
L 411.899626 75.842783 
L 416.653995 75.330803 
L 418.238784 75.448952 
L 419.823574 75.330803 
L 421.408364 75.448952 
L 422.993153 75.448952 
L 424.577943 75.567102 
L 426.162732 75.567102 
L 429.332311 74.936972 
L 430.917101 74.936972 
L 432.501891 75.055121 
L 434.08668 75.370186 
L 435.67147 75.252037 
L 437.256259 74.936972 
L 440.425839 74.936972 
L 442.010628 74.740057 
L 445.180207 74.740057 
L 446.764997 74.858206 
L 453.104155 74.858206 
L 454.688945 75.173271 
L 467.367261 74.306843 
L 470.536841 74.543141 
L 472.12163 74.543141 
L 473.70642 74.66129 
L 475.291209 74.543141 
L 478.460788 74.543141 
L 481.630368 74.306843 
L 489.554316 74.306843 
L 492.723895 74.621907 
L 500.647843 74.621907 
L 502.232632 74.740057 
L 503.817422 74.543141 
L 506.987001 75.173271 
L 508.57179 75.055121 
L 510.15658 75.055121 
L 511.74137 75.370186 
L 513.326159 75.370186 
L 514.910949 75.488335 
L 516.495738 75.488335 
L 521.250107 75.8034 
L 522.834897 75.8034 
L 524.419686 75.685251 
L 527.589265 75.685251 
L 529.174055 75.567102 
L 530.758845 75.567102 
L 532.343634 75.685251 
L 535.513213 75.685251 
L 537.098003 75.567102 
L 538.682792 75.252037 
L 540.267582 75.370186 
L 543.437161 75.370186 
L 545.021951 75.055121 
L 546.60674 75.173271 
L 548.19153 74.858206 
L 549.77632 74.976355 
L 552.945899 74.740057 
L 556.115478 74.740057 
L 557.700267 74.621907 
L 560.869847 74.621907 
L 562.454636 74.740057 
L 564.039426 74.740057 
L 565.624215 74.936972 
L 567.209005 74.740057 
L 570.378584 74.740057 
L 573.548163 75.370186 
L 575.132953 75.370186 
L 576.717742 75.252037 
L 578.302532 75.370186 
L 584.64169 75.370186 
L 587.811269 75.685251 
L 589.396059 75.567102 
L 590.980849 75.252037 
L 594.150428 75.252037 
L 595.735217 75.370186 
L 597.320007 75.370186 
L 598.904796 75.252037 
L 603.659165 75.252037 
L 609.998324 75.685251 
L 611.583113 75.685251 
L 613.167903 75.488335 
L 614.752692 75.685251 
L 617.922271 75.685251 
L 622.67664 76.000316 
L 625.846219 76.000316 
L 627.431009 76.118465 
L 629.015798 76.000316 
L 630.600588 76.000316 
L 633.770167 75.685251 
L 636.939746 75.370186 
L 638.524536 75.685251 
L 641.694115 75.685251 
L 643.278905 75.8034 
L 648.033273 75.8034 
L 649.618063 75.92155 
L 651.202853 76.236614 
L 652.787642 76.43353 
L 654.372432 76.43353 
L 655.957221 76.31538 
L 657.542011 76.43353 
L 659.1268 76.31538 
L 663.881169 76.31538 
L 665.465959 76.512296 
L 667.050748 76.827361 
L 668.635538 76.827361 
L 671.805117 76.591062 
L 673.389907 76.709211 
L 674.974696 77.024276 
L 678.144275 76.630445 
L 679.729065 76.827361 
L 681.313855 76.827361 
L 682.898644 76.94551 
L 684.483434 76.827361 
L 687.653013 76.827361 
L 692.407382 76.472913 
L 693.992171 76.472913 
L 697.16175 76.787978 
L 698.74654 76.472913 
L 700.33133 76.591062 
L 701.916119 76.591062 
L 703.500909 76.787978 
L 705.085698 76.472913 
L 709.840067 76.472913 
L 713.009646 76.157848 
L 714.594436 75.960933 
L 716.179225 76.079082 
L 717.764015 76.079082 
L 720.933594 75.764017 
L 722.518384 75.764017 
L 724.103173 75.882166 
L 725.687963 75.764017 
L 727.272752 75.764017 
L 728.857542 75.882166 
L 730.442332 75.764017 
L 732.027121 75.764017 
L 733.611911 75.448952 
L 736.78149 75.212654 
L 738.366279 75.330803 
L 739.951069 75.212654 
L 741.535859 75.409569 
L 743.120648 75.29142 
L 758.968544 75.29142 
L 760.553334 75.409569 
L 762.138123 75.212654 
L 763.722913 75.330803 
L 765.307702 75.133888 
L 766.892492 75.133888 
L 768.477281 75.015738 
L 771.646861 74.385609 
L 773.23165 74.503758 
L 776.401229 74.503758 
L 777.986019 74.385609 
L 779.570808 74.700674 
L 781.155598 74.818823 
L 782.740388 75.133888 
L 784.325177 75.133888 
L 785.909967 75.330803 
L 789.079546 75.330803 
L 790.664336 75.133888 
L 792.249125 75.252037 
L 793.833915 74.936972 
L 795.418704 75.055121 
L 797.003494 74.936972 
L 798.588283 75.055121 
L 801.757863 74.818823 
L 803.342652 74.936972 
L 804.927442 75.252037 
L 806.512231 75.370186 
L 808.097021 75.370186 
L 811.2666 74.740057 
L 812.85139 74.621907 
L 814.436179 74.621907 
L 819.190548 74.306843 
L 820.775338 74.424992 
L 822.360127 74.306843 
L 823.944917 74.424992 
L 828.699285 74.424992 
L 830.284075 74.543141 
L 835.038444 74.188693 
L 838.208023 74.424992 
L 839.792812 74.109927 
L 839.792812 74.109927 
" clip-path="url(#pcb7cdc4157)" style="fill: none; stroke: #08519c; stroke-width: 1.5; stroke-linecap: square"/>
   </g>
   <g id="patch_3">
    <path d="M 48.982813 458.198125 
L 48.982813 22.318125 
" style="fill: none; stroke: #000000; stroke-width: 0.8; stroke-linejoin: miter; stroke-linecap: square"/>
   </g>
   <g id="patch_4">
    <path d="M 839.792812 458.198125 
L 839.792812 22.318125 
" style="fill: none; stroke: #000000; stroke-width: 0.8; stroke-linejoin: miter; stroke-linecap: square"/>
   </g>
   <g id="patch_5">
    <path d="M 48.982813 458.198125 
L 839.792812 458.198125 
" style="fill: none; stroke: #000000; stroke-width: 0.8; stroke-linejoin: miter; stroke-linecap: square"/>
   </g>
   <g id="patch_6">
    <path d="M 48.982813 22.318125 
L 839.792812 22.318125 
" style="fill: none; stroke: #000000; stroke-width: 0.8; stroke-linejoin: miter; stroke-linecap: square"/>
   </g>
   <g id="text_15">
    <text style="font-size: 12px; font-family: 'Palatino Linotype', 'Book Antiqua', 'Palatino', 'DejaVu Serif', serif; text-anchor: middle" x="444.387812" y="16.318125" transform="rotate(-0 444.387812 16.318125)">Reward-Komponenten</text>
   </g>
   <g id="legend_1">
    <g id="patch_7">
     <path d="M 695.525625 453.198125 
L 832.792812 453.198125 
Q 834.792812 453.198125 834.792812 451.198125 
L 834.792812 408.16375 
Q 834.792812 406.16375 832.792812 406.16375 
L 695.525625 406.16375 
Q 693.525625 406.16375 693.525625 408.16375 
L 693.525625 451.198125 
Q 693.525625 453.198125 695.525625 453.198125 
z
" style="fill: #ffffff; opacity: 0.8; stroke: #cccccc; stroke-linejoin: miter"/>
    </g>
    <g id="line2d_28">
     <path d="M 697.525625 414.262187 
L 707.525625 414.262187 
L 717.525625 414.262187 
" style="fill: none; stroke: #6baed6; stroke-width: 1.5; stroke-linecap: square"/>
    </g>
    <g id="text_16">
     <text style="font-size: 10px; font-family: 'Palatino Linotype', 'Book Antiqua', 'Palatino', 'DejaVu Serif', serif; text-anchor: start" x="725.525625" y="417.762187" transform="rotate(-0 725.525625 417.762187)">Final Reward (Env)</text>
    </g>
    <g id="line2d_29">
     <path d="M 697.525625 428.940312 
L 707.525625 428.940312 
L 717.525625 428.940312 
" style="fill: none; stroke: #2ca02c; stroke-width: 1.5; stroke-linecap: square"/>
    </g>
    <g id="text_17">
     <text style="font-size: 10px; font-family: 'Palatino Linotype', 'Book Antiqua', 'Palatino', 'DejaVu Serif', serif; text-anchor: start" x="725.525625" y="432.440312" transform="rotate(-0 725.525625 432.440312)">Step Reward</text>
    </g>
    <g id="line2d_30">
     <path d="M 697.525625 443.618437 
L 707.525625 443.618437 
L 717.525625 443.618437 
" style="fill: none; stroke: #08519c; stroke-width: 1.5; stroke-linecap: square"/>
    </g>
    <g id="text_18">
     <text style="font-size: 10px; font-family: 'Palatino Linotype', 'Book Antiqua', 'Palatino', 'DejaVu Serif', serif; text-anchor: start" x="725.525625" y="447.118437" transform="rotate(-0 725.525625 447.118437)">Final Reward (Rank)</text>
    </g>
   </g>
  </g>
 </g>
 <defs>
  <clipPath id="pcb7cdc4157">
   <rect x="48.982813" y="22.318125" width="790.81" height="435.88"/>
  </clipPath>
 </defs>
</svg>
