<?xml version="1.0" encoding="utf-8" standalone="no"?>
<!DOCTYPE svg PUBLIC "-//W3C//DTD SVG 1.1//EN"
  "http://www.w3.org/Graphics/SVG/1.1/DTD/svg11.dtd">
<svg xmlns:xlink="http://www.w3.org/1999/xlink" width="856.64875pt" height="495.896562pt" viewBox="0 0 856.64875 495.896562" xmlns="http://www.w3.org/2000/svg" version="1.1">
 <metadata>
  <rdf:RDF xmlns:dc="http://purl.org/dc/elements/1.1/" xmlns:cc="http://creativecommons.org/ns#" xmlns:rdf="http://www.w3.org/1999/02/22-rdf-syntax-ns#">
   <cc:Work>
    <dc:type rdf:resource="http://purl.org/dc/dcmitype/StillImage"/>
    <dc:date>2025-09-24T20:15:27.963893</dc:date>
    <dc:format>image/svg+xml</dc:format>
    <dc:creator>
     <cc:Agent>
      <dc:title>Matplotlib v3.10.3, https://matplotlib.org/</dc:title>
     </cc:Agent>
    </dc:creator>
   </cc:Work>
  </rdf:RDF>
 </metadata>
 <defs>
  <style type="text/css">*{stroke-linejoin: round; stroke-linecap: butt}</style>
 </defs>
 <g id="figure_1">
  <g id="patch_1">
   <path d="M 0 495.896562 
L 856.64875 495.896562 
L 856.64875 0 
L 0 0 
L 0 495.896562 
z
" style="fill: none"/>
  </g>
  <g id="axes_1">
   <g id="patch_2">
    <path d="M 50.14375 458.198125 
L 836.72375 458.198125 
L 836.72375 22.318125 
L 50.14375 22.318125 
L 50.14375 458.198125 
z
" style="fill: none"/>
   </g>
   <g id="matplotlib.axis_1">
    <g id="xtick_1">
     <g id="line2d_1">
      <path d="M 181.021849 458.198125 
L 181.021849 22.318125 
" clip-path="url(#p21d60d1637)" style="fill: none; stroke: #b0b0b0; stroke-width: 0.8; stroke-linecap: square"/>
     </g>
     <g id="line2d_2">
      <defs>
       <path id="me91ec9cf95" d="M 0 0 
L 0 3.5 
" style="stroke: #000000; stroke-width: 0.8"/>
      </defs>
      <g>
       <use xlink:href="#me91ec9cf95" x="181.021849" y="458.198125" style="stroke: #000000; stroke-width: 0.8"/>
      </g>
     </g>
     <g id="text_1">
      <text style="font-size: 10px; font-family: 'Palatino Linotype', 'Book Antiqua', 'Palatino', 'DejaVu Serif', serif; text-anchor: middle" x="181.021849" y="472.796562" transform="rotate(-0 181.021849 472.796562)">500</text>
     </g>
    </g>
    <g id="xtick_2">
     <g id="line2d_3">
      <path d="M 312.162229 458.198125 
L 312.162229 22.318125 
" clip-path="url(#p21d60d1637)" style="fill: none; stroke: #b0b0b0; stroke-width: 0.8; stroke-linecap: square"/>
     </g>
     <g id="line2d_4">
      <g>
       <use xlink:href="#me91ec9cf95" x="312.162229" y="458.198125" style="stroke: #000000; stroke-width: 0.8"/>
      </g>
     </g>
     <g id="text_2">
      <text style="font-size: 10px; font-family: 'Palatino Linotype', 'Book Antiqua', 'Palatino', 'DejaVu Serif', serif; text-anchor: middle" x="312.162229" y="472.796562" transform="rotate(-0 312.162229 472.796562)">1000</text>
     </g>
    </g>
    <g id="xtick_3">
     <g id="line2d_5">
      <path d="M 443.30261 458.198125 
L 443.30261 22.318125 
" clip-path="url(#p21d60d1637)" style="fill: none; stroke: #b0b0b0; stroke-width: 0.8; stroke-linecap: square"/>
     </g>
     <g id="line2d_6">
      <g>
       <use xlink:href="#me91ec9cf95" x="443.30261" y="458.198125" style="stroke: #000000; stroke-width: 0.8"/>
      </g>
     </g>
     <g id="text_3">
      <text style="font-size: 10px; font-family: 'Palatino Linotype', 'Book Antiqua', 'Palatino', 'DejaVu Serif', serif; text-anchor: middle" x="443.30261" y="472.796562" transform="rotate(-0 443.30261 472.796562)">1500</text>
     </g>
    </g>
    <g id="xtick_4">
     <g id="line2d_7">
      <path d="M 574.44299 458.198125 
L 574.44299 22.318125 
" clip-path="url(#p21d60d1637)" style="fill: none; stroke: #b0b0b0; stroke-width: 0.8; stroke-linecap: square"/>
     </g>
     <g id="line2d_8">
      <g>
       <use xlink:href="#me91ec9cf95" x="574.44299" y="458.198125" style="stroke: #000000; stroke-width: 0.8"/>
      </g>
     </g>
     <g id="text_4">
      <text style="font-size: 10px; font-family: 'Palatino Linotype', 'Book Antiqua', 'Palatino', 'DejaVu Serif', serif; text-anchor: middle" x="574.44299" y="472.796562" transform="rotate(-0 574.44299 472.796562)">2000</text>
     </g>
    </g>
    <g id="xtick_5">
     <g id="line2d_9">
      <path d="M 705.58337 458.198125 
L 705.58337 22.318125 
" clip-path="url(#p21d60d1637)" style="fill: none; stroke: #b0b0b0; stroke-width: 0.8; stroke-linecap: square"/>
     </g>
     <g id="line2d_10">
      <g>
       <use xlink:href="#me91ec9cf95" x="705.58337" y="458.198125" style="stroke: #000000; stroke-width: 0.8"/>
      </g>
     </g>
     <g id="text_5">
      <text style="font-size: 10px; font-family: 'Palatino Linotype', 'Book Antiqua', 'Palatino', 'DejaVu Serif', serif; text-anchor: middle" x="705.58337" y="472.796562" transform="rotate(-0 705.58337 472.796562)">2500</text>
     </g>
    </g>
    <g id="xtick_6">
     <g id="line2d_11">
      <path d="M 836.72375 458.198125 
L 836.72375 22.318125 
" clip-path="url(#p21d60d1637)" style="fill: none; stroke: #b0b0b0; stroke-width: 0.8; stroke-linecap: square"/>
     </g>
     <g id="line2d_12">
      <g>
       <use xlink:href="#me91ec9cf95" x="836.72375" y="458.198125" style="stroke: #000000; stroke-width: 0.8"/>
      </g>
     </g>
     <g id="text_6">
      <text style="font-size: 10px; font-family: 'Palatino Linotype', 'Book Antiqua', 'Palatino', 'DejaVu Serif', serif; text-anchor: middle" x="836.72375" y="472.796562" transform="rotate(-0 836.72375 472.796562)">3000</text>
     </g>
    </g>
    <g id="text_7">
     <text style="font-size: 10px; font-family: 'Palatino Linotype', 'Book Antiqua', 'Palatino', 'DejaVu Serif', serif; text-anchor: middle" x="443.43375" y="486.474687" transform="rotate(-0 443.43375 486.474687)">Trainings-Episode</text>
    </g>
   </g>
   <g id="matplotlib.axis_2">
    <g id="ytick_1">
     <g id="line2d_13">
      <path d="M 50.14375 438.385398 
L 836.72375 438.385398 
" clip-path="url(#p21d60d1637)" style="fill: none; stroke: #b0b0b0; stroke-width: 0.8; stroke-linecap: square"/>
     </g>
     <g id="line2d_14">
      <defs>
       <path id="m025f307708" d="M 0 0 
L -3.5 0 
" style="stroke: #000000; stroke-width: 0.8"/>
      </defs>
      <g>
       <use xlink:href="#m025f307708" x="50.14375" y="438.385398" style="stroke: #000000; stroke-width: 0.8"/>
      </g>
     </g>
     <g id="text_8">
      <text style="font-size: 10px; font-family: 'Palatino Linotype', 'Book Antiqua', 'Palatino', 'DejaVu Serif', serif; text-anchor: end" x="43.14375" y="442.184616" transform="rotate(-0 43.14375 442.184616)">0.00</text>
     </g>
    </g>
    <g id="ytick_2">
     <g id="line2d_15">
      <path d="M 50.14375 383.754716 
L 836.72375 383.754716 
" clip-path="url(#p21d60d1637)" style="fill: none; stroke: #b0b0b0; stroke-width: 0.8; stroke-linecap: square"/>
     </g>
     <g id="line2d_16">
      <g>
       <use xlink:href="#m025f307708" x="50.14375" y="383.754716" style="stroke: #000000; stroke-width: 0.8"/>
      </g>
     </g>
     <g id="text_9">
      <text style="font-size: 10px; font-family: 'Palatino Linotype', 'Book Antiqua', 'Palatino', 'DejaVu Serif', serif; text-anchor: end" x="43.14375" y="387.553935" transform="rotate(-0 43.14375 387.553935)">0.25</text>
     </g>
    </g>
    <g id="ytick_3">
     <g id="line2d_17">
      <path d="M 50.14375 329.124034 
L 836.72375 329.124034 
" clip-path="url(#p21d60d1637)" style="fill: none; stroke: #b0b0b0; stroke-width: 0.8; stroke-linecap: square"/>
     </g>
     <g id="line2d_18">
      <g>
       <use xlink:href="#m025f307708" x="50.14375" y="329.124034" style="stroke: #000000; stroke-width: 0.8"/>
      </g>
     </g>
     <g id="text_10">
      <text style="font-size: 10px; font-family: 'Palatino Linotype', 'Book Antiqua', 'Palatino', 'DejaVu Serif', serif; text-anchor: end" x="43.14375" y="332.923253" transform="rotate(-0 43.14375 332.923253)">0.50</text>
     </g>
    </g>
    <g id="ytick_4">
     <g id="line2d_19">
      <path d="M 50.14375 274.493352 
L 836.72375 274.493352 
" clip-path="url(#p21d60d1637)" style="fill: none; stroke: #b0b0b0; stroke-width: 0.8; stroke-linecap: square"/>
     </g>
     <g id="line2d_20">
      <g>
       <use xlink:href="#m025f307708" x="50.14375" y="274.493352" style="stroke: #000000; stroke-width: 0.8"/>
      </g>
     </g>
     <g id="text_11">
      <text style="font-size: 10px; font-family: 'Palatino Linotype', 'Book Antiqua', 'Palatino', 'DejaVu Serif', serif; text-anchor: end" x="43.14375" y="278.292571" transform="rotate(-0 43.14375 278.292571)">0.75</text>
     </g>
    </g>
    <g id="ytick_5">
     <g id="line2d_21">
      <path d="M 50.14375 219.86267 
L 836.72375 219.86267 
" clip-path="url(#p21d60d1637)" style="fill: none; stroke: #b0b0b0; stroke-width: 0.8; stroke-linecap: square"/>
     </g>
     <g id="line2d_22">
      <g>
       <use xlink:href="#m025f307708" x="50.14375" y="219.86267" style="stroke: #000000; stroke-width: 0.8"/>
      </g>
     </g>
     <g id="text_12">
      <text style="font-size: 10px; font-family: 'Palatino Linotype', 'Book Antiqua', 'Palatino', 'DejaVu Serif', serif; text-anchor: end" x="43.14375" y="223.661889" transform="rotate(-0 43.14375 223.661889)">1.00</text>
     </g>
    </g>
    <g id="ytick_6">
     <g id="line2d_23">
      <path d="M 50.14375 165.231989 
L 836.72375 165.231989 
" clip-path="url(#p21d60d1637)" style="fill: none; stroke: #b0b0b0; stroke-width: 0.8; stroke-linecap: square"/>
     </g>
     <g id="line2d_24">
      <g>
       <use xlink:href="#m025f307708" x="50.14375" y="165.231989" style="stroke: #000000; stroke-width: 0.8"/>
      </g>
     </g>
     <g id="text_13">
      <text style="font-size: 10px; font-family: 'Palatino Linotype', 'Book Antiqua', 'Palatino', 'DejaVu Serif', serif; text-anchor: end" x="43.14375" y="169.031207" transform="rotate(-0 43.14375 169.031207)">1.25</text>
     </g>
    </g>
    <g id="ytick_7">
     <g id="line2d_25">
      <path d="M 50.14375 110.601307 
L 836.72375 110.601307 
" clip-path="url(#p21d60d1637)" style="fill: none; stroke: #b0b0b0; stroke-width: 0.8; stroke-linecap: square"/>
     </g>
     <g id="line2d_26">
      <g>
       <use xlink:href="#m025f307708" x="50.14375" y="110.601307" style="stroke: #000000; stroke-width: 0.8"/>
      </g>
     </g>
     <g id="text_14">
      <text style="font-size: 10px; font-family: 'Palatino Linotype', 'Book Antiqua', 'Palatino', 'DejaVu Serif', serif; text-anchor: end" x="43.14375" y="114.400526" transform="rotate(-0 43.14375 114.400526)">1.50</text>
     </g>
    </g>
    <g id="ytick_8">
     <g id="line2d_27">
      <path d="M 50.14375 55.970625 
L 836.72375 55.970625 
" clip-path="url(#p21d60d1637)" style="fill: none; stroke: #b0b0b0; stroke-width: 0.8; stroke-linecap: square"/>
     </g>
     <g id="line2d_28">
      <g>
       <use xlink:href="#m025f307708" x="50.14375" y="55.970625" style="stroke: #000000; stroke-width: 0.8"/>
      </g>
     </g>
     <g id="text_15">
      <text style="font-size: 10px; font-family: 'Palatino Linotype', 'Book Antiqua', 'Palatino', 'DejaVu Serif', serif; text-anchor: end" x="43.14375" y="59.769844" transform="rotate(-0 43.14375 59.769844)">1.75</text>
     </g>
    </g>
    <g id="text_16">
     <text style="font-size: 10px; font-family: 'Palatino Linotype', 'Book Antiqua', 'Palatino', 'DejaVu Serif', serif; text-anchor: middle" x="14.798438" y="240.258125" transform="rotate(-90 14.798438 240.258125)">Rewards</text>
    </g>
   </g>
   <g id="line2d_29">
    <path d="M 50.14375 438.385398 
L 50.406031 110.601307 
L 50.668312 219.86267 
L 51.192873 307.271761 
L 51.717435 344.7328 
L 52.241996 365.544489 
L 52.504277 329.124034 
L 53.028838 347.334261 
L 53.291119 354.338195 
L 53.5534 329.124034 
L 54.340242 309.842617 
L 54.602523 304.843731 
L 54.864804 311.87224 
L 55.127084 307.271761 
L 55.389365 313.515268 
L 55.651646 309.258332 
L 55.913927 314.872552 
L 56.176207 310.913807 
L 56.438488 316.01267 
L 56.700769 295.505153 
L 56.96305 300.797014 
L 57.487611 295.215335 
L 58.536734 312.569282 
L 59.323577 323.053958 
L 59.585857 320.265005 
L 60.110419 326.322461 
L 60.3727 323.660966 
L 60.63498 326.459123 
L 60.897261 313.515268 
L 61.159542 316.419224 
L 61.421823 309.258332 
L 61.684103 312.127822 
L 61.946384 305.371564 
L 62.208665 303.552226 
L 63.520069 316.516954 
L 64.306911 323.164323 
L 64.569192 321.319651 
L 64.831473 315.705972 
L 65.618315 310.913807 
L 66.405157 316.983883 
L 66.667438 315.466364 
L 67.191999 319.191183 
L 67.45428 314.447134 
L 67.978842 318.039548 
L 68.241122 313.515268 
L 68.503403 315.274002 
L 68.765684 310.913807 
L 69.552526 316.01267 
L 69.814807 311.87224 
L 71.388492 321.1293 
L 71.650772 319.90922 
L 71.913053 321.319651 
L 72.175334 320.126039 
L 72.699895 322.844645 
L 72.962176 319.191183 
L 73.224457 320.530444 
L 73.486738 316.983883 
L 75.060422 324.571477 
L 75.322703 325.744817 
L 75.584984 320.204739 
L 75.847265 321.398483 
L 76.109545 318.197898 
L 76.634107 320.554515 
L 76.896388 319.576925 
L 77.68323 322.939429 
L 77.945511 321.976094 
L 78.732353 325.150894 
L 78.994634 320.265005 
L 79.781476 323.373436 
L 80.568318 320.719314 
L 81.35516 323.660966 
L 81.617441 322.803129 
L 82.928845 327.389727 
L 83.191126 326.543057 
L 83.453407 327.416825 
L 83.715687 326.583072 
L 83.977968 327.44309 
L 84.240249 324.953753 
L 85.813933 329.921562 
L 86.076214 325.957038 
L 86.600776 327.563157 
L 86.863056 326.799324 
L 87.125337 324.507357 
L 87.912179 326.863454 
L 88.436741 322.434563 
L 89.223583 324.75358 
L 89.485864 324.75358 
L 89.748145 329.124034 
L 90.272706 329.124034 
L 90.534987 326.210398 
L 91.321829 326.210398 
L 91.58411 323.296761 
L 91.846391 326.210398 
L 92.108672 326.210398 
L 92.370952 324.75358 
L 92.633233 321.839943 
L 92.895514 323.296761 
L 93.157795 321.839943 
L 93.682356 324.75358 
L 93.944637 323.296761 
L 94.469198 323.296761 
L 94.731479 321.839943 
L 94.99376 323.296761 
L 95.256041 323.296761 
L 95.518322 324.75358 
L 95.780602 323.296761 
L 96.042883 326.210398 
L 96.567445 320.383125 
L 96.829725 321.839943 
L 97.092006 318.926307 
L 97.354287 318.926307 
L 97.616568 316.01267 
L 98.141129 316.01267 
L 98.40341 314.555852 
L 98.665691 314.555852 
L 98.927971 316.01267 
L 99.190252 316.01267 
L 99.714814 313.099034 
L 99.977094 313.099034 
L 100.239375 317.469489 
L 100.501656 317.469489 
L 100.763937 316.01267 
L 101.026217 316.01267 
L 101.288498 318.926307 
L 101.81306 318.926307 
L 102.599902 314.555852 
L 103.124464 314.555852 
L 103.649025 311.642216 
L 103.911306 311.642216 
L 104.173587 314.555852 
L 104.435867 316.01267 
L 104.698148 316.01267 
L 104.960429 317.469489 
L 105.22271 317.469489 
L 105.48499 314.555852 
L 105.747271 313.099034 
L 106.009552 314.555852 
L 106.271833 311.642216 
L 106.534113 310.185398 
L 106.796394 311.642216 
L 107.058675 310.185398 
L 107.320956 310.185398 
L 107.583236 311.642216 
L 107.845517 310.185398 
L 108.107798 313.099034 
L 108.370079 308.72858 
L 108.63236 308.72858 
L 108.89464 307.271761 
L 109.156921 308.72858 
L 109.681483 308.72858 
L 109.943763 305.814943 
L 110.206044 305.814943 
L 110.468325 304.358125 
L 110.730606 304.358125 
L 110.992886 305.814943 
L 111.255167 305.814943 
L 111.517448 307.271761 
L 111.779729 302.901307 
L 112.042009 301.444489 
L 112.30429 301.444489 
L 112.566571 299.98767 
L 112.828852 302.901307 
L 113.353413 302.901307 
L 113.615694 299.98767 
L 113.877975 299.98767 
L 114.140256 297.074034 
L 114.664817 297.074034 
L 114.927098 301.444489 
L 115.189379 301.444489 
L 115.451659 304.358125 
L 115.71394 302.901307 
L 115.976221 298.530852 
L 116.238502 299.98767 
L 116.500782 299.98767 
L 116.763063 295.617216 
L 117.025344 295.617216 
L 117.287625 297.074034 
L 117.812186 297.074034 
L 118.074467 292.70358 
L 118.336748 294.160398 
L 118.599028 294.160398 
L 118.861309 292.70358 
L 119.648151 292.70358 
L 119.910432 294.160398 
L 120.434994 294.160398 
L 120.697275 292.70358 
L 120.959555 294.160398 
L 121.484117 294.160398 
L 122.008678 291.246761 
L 122.270959 291.246761 
L 122.53324 292.70358 
L 122.795521 289.789943 
L 123.057801 291.246761 
L 123.844644 291.246761 
L 124.106924 288.333125 
L 124.631486 288.333125 
L 124.893767 285.419489 
L 125.156047 285.419489 
L 125.418328 286.876307 
L 125.94289 286.876307 
L 126.467451 289.789943 
L 126.729732 288.333125 
L 127.254294 281.049034 
L 127.778855 286.876307 
L 128.041136 286.876307 
L 128.565697 281.049034 
L 128.827978 281.049034 
L 129.35254 278.135398 
L 129.61482 273.764943 
L 129.877101 276.67858 
L 130.139382 273.764943 
L 130.663943 273.764943 
L 130.926224 275.221761 
L 131.450786 275.221761 
L 131.713066 276.67858 
L 131.975347 275.221761 
L 132.237628 275.221761 
L 132.762189 272.308125 
L 133.02447 269.394489 
L 133.549032 269.394489 
L 133.811313 270.851307 
L 134.073593 267.93767 
L 134.335874 263.567216 
L 134.598155 262.110398 
L 134.860436 262.110398 
L 135.122716 263.567216 
L 135.384997 262.110398 
L 135.909559 267.93767 
L 136.43412 267.93767 
L 136.696401 266.480852 
L 136.958682 269.394489 
L 137.220962 265.024034 
L 137.483243 265.024034 
L 137.745524 266.480852 
L 138.007805 262.110398 
L 138.270085 262.110398 
L 138.532366 259.196761 
L 138.794647 259.196761 
L 139.056928 262.110398 
L 139.84377 262.110398 
L 140.106051 266.480852 
L 140.368332 265.024034 
L 141.155174 265.024034 
L 141.942016 269.394489 
L 142.466578 269.394489 
L 143.25342 273.764943 
L 143.515701 272.308125 
L 143.777981 267.93767 
L 144.040262 267.93767 
L 144.302543 265.024034 
L 144.564824 265.024034 
L 144.827104 267.93767 
L 145.089385 269.394489 
L 145.876227 269.394489 
L 146.138508 266.480852 
L 146.400789 267.93767 
L 146.66307 263.567216 
L 146.925351 265.024034 
L 147.187631 263.567216 
L 147.449912 260.65358 
L 147.974474 260.65358 
L 148.499035 263.567216 
L 149.023597 263.567216 
L 149.285877 266.480852 
L 149.548158 263.567216 
L 149.810439 265.024034 
L 150.07272 265.024034 
L 150.335 263.567216 
L 150.859562 263.567216 
L 151.121843 266.480852 
L 151.384123 267.93767 
L 151.646404 267.93767 
L 151.908685 269.394489 
L 152.170966 269.394489 
L 152.433246 266.480852 
L 152.695527 266.480852 
L 152.957808 269.394489 
L 153.220089 267.93767 
L 153.48237 269.394489 
L 153.74465 267.93767 
L 154.793773 267.93767 
L 155.056054 269.394489 
L 155.318335 273.764943 
L 155.842896 273.764943 
L 156.105177 278.135398 
L 157.1543 278.135398 
L 157.416581 279.592216 
L 157.678862 282.505852 
L 157.941142 281.049034 
L 158.465704 281.049034 
L 158.727985 282.505852 
L 159.777108 282.505852 
L 160.039389 281.049034 
L 160.56395 281.049034 
L 160.826231 276.67858 
L 161.350792 279.592216 
L 161.875354 276.67858 
L 162.137635 278.135398 
L 162.662196 278.135398 
L 162.924477 281.049034 
L 163.711319 281.049034 
L 163.9736 278.135398 
L 164.235881 281.049034 
L 164.498161 281.049034 
L 164.760442 283.96267 
L 165.022723 283.96267 
L 165.285004 282.505852 
L 165.547285 279.592216 
L 165.809565 281.049034 
L 166.071846 281.049034 
L 166.334127 285.419489 
L 166.596408 285.419489 
L 167.38325 273.764943 
L 167.645531 273.764943 
L 167.907811 276.67858 
L 168.170092 273.764943 
L 168.694654 276.67858 
L 169.219215 276.67858 
L 169.481496 279.592216 
L 169.743777 279.592216 
L 170.006057 278.135398 
L 170.268338 279.592216 
L 170.7929 279.592216 
L 171.05518 278.135398 
L 171.317461 278.135398 
L 171.579742 279.592216 
L 171.842023 283.96267 
L 172.104304 281.049034 
L 172.366584 283.96267 
L 172.628865 285.419489 
L 173.153427 285.419489 
L 173.677988 294.160398 
L 173.940269 295.617216 
L 174.20255 295.617216 
L 174.46483 292.70358 
L 174.727111 292.70358 
L 174.989392 289.789943 
L 175.251673 288.333125 
L 175.513953 288.333125 
L 175.776234 291.246761 
L 176.038515 292.70358 
L 176.300796 289.789943 
L 176.563076 291.246761 
L 177.612199 291.246761 
L 178.136761 288.333125 
L 178.399042 285.419489 
L 178.923603 285.419489 
L 179.185884 282.505852 
L 179.448165 282.505852 
L 179.710446 283.96267 
L 180.235007 281.049034 
L 180.759569 281.049034 
L 181.021849 279.592216 
L 181.28413 276.67858 
L 181.546411 276.67858 
L 182.070972 270.851307 
L 182.333253 270.851307 
L 182.595534 269.394489 
L 182.857815 269.394489 
L 183.120095 273.764943 
L 183.382376 272.308125 
L 183.644657 275.221761 
L 183.906938 272.308125 
L 184.169218 272.308125 
L 184.431499 270.851307 
L 184.69378 266.480852 
L 184.956061 266.480852 
L 185.218342 267.93767 
L 185.480622 270.851307 
L 185.742903 270.851307 
L 186.005184 275.221761 
L 186.267465 270.851307 
L 186.529745 270.851307 
L 186.792026 273.764943 
L 187.054307 278.135398 
L 187.316588 275.221761 
L 187.578868 270.851307 
L 188.365711 270.851307 
L 188.627991 267.93767 
L 188.890272 270.851307 
L 189.414834 263.567216 
L 189.677114 265.024034 
L 189.939395 262.110398 
L 190.201676 262.110398 
L 190.463957 260.65358 
L 190.726237 260.65358 
L 190.988518 263.567216 
L 191.250799 262.110398 
L 192.037641 262.110398 
L 192.299922 259.196761 
L 192.562203 260.65358 
L 192.824484 260.65358 
L 193.349045 254.826307 
L 193.611326 253.369489 
L 194.398168 244.62858 
L 194.660449 244.62858 
L 194.92273 243.171761 
L 195.18501 243.171761 
L 195.709572 237.344489 
L 195.971853 237.344489 
L 196.496414 231.517216 
L 197.283257 231.517216 
L 197.545537 230.060398 
L 197.807818 227.146761 
L 198.070099 227.146761 
L 198.33238 225.689943 
L 199.119222 225.689943 
L 199.381503 227.146761 
L 199.643783 225.689943 
L 199.906064 222.776307 
L 200.168345 227.146761 
L 200.692906 227.146761 
L 200.955187 224.233125 
L 201.217468 222.776307 
L 201.479749 224.233125 
L 202.00431 224.233125 
L 202.528872 218.405852 
L 202.791152 221.319489 
L 203.053433 221.319489 
L 203.315714 224.233125 
L 203.577995 222.776307 
L 203.840276 222.776307 
L 204.102556 219.86267 
L 204.364837 215.492216 
L 204.627118 215.492216 
L 204.889399 218.405852 
L 205.151679 215.492216 
L 205.676241 212.57858 
L 205.938522 215.492216 
L 206.200802 215.492216 
L 206.725364 221.319489 
L 206.987645 222.776307 
L 207.249925 221.319489 
L 207.512206 224.233125 
L 207.774487 221.319489 
L 208.036768 221.319489 
L 208.299048 225.689943 
L 208.561329 225.689943 
L 209.085891 219.86267 
L 209.872733 219.86267 
L 210.397295 216.949034 
L 210.659575 219.86267 
L 210.921856 219.86267 
L 211.184137 216.949034 
L 211.446418 221.319489 
L 211.970979 218.405852 
L 212.23326 218.405852 
L 212.495541 215.492216 
L 213.282383 211.121761 
L 213.544664 211.121761 
L 213.806944 212.57858 
L 214.593787 221.319489 
L 214.856067 221.319489 
L 215.118348 218.405852 
L 215.380629 216.949034 
L 215.90519 222.776307 
L 216.167471 221.319489 
L 216.429752 221.319489 
L 216.692033 225.689943 
L 216.954314 224.233125 
L 217.216594 225.689943 
L 217.478875 228.60358 
L 217.741156 227.146761 
L 218.003437 227.146761 
L 218.265717 222.776307 
L 218.527998 224.233125 
L 219.05256 224.233125 
L 219.31484 225.689943 
L 220.101683 221.319489 
L 220.363963 222.776307 
L 220.626244 222.776307 
L 220.888525 219.86267 
L 221.150806 222.776307 
L 221.413086 224.233125 
L 221.675367 224.233125 
L 221.937648 222.776307 
L 222.199929 222.776307 
L 222.462209 221.319489 
L 222.72449 224.233125 
L 222.986771 224.233125 
L 223.249052 225.689943 
L 223.773613 225.689943 
L 224.035894 228.60358 
L 224.560456 225.689943 
L 224.822736 227.146761 
L 225.347298 224.233125 
L 225.609579 227.146761 
L 226.396421 227.146761 
L 226.658702 228.60358 
L 226.920982 232.974034 
L 227.445544 227.146761 
L 227.707825 225.689943 
L 227.970105 228.60358 
L 228.232386 228.60358 
L 228.494667 232.974034 
L 228.756948 232.974034 
L 229.019228 230.060398 
L 229.54379 227.146761 
L 229.806071 230.060398 
L 230.068352 228.60358 
L 230.330632 228.60358 
L 230.592913 227.146761 
L 230.855194 224.233125 
L 231.117475 225.689943 
L 231.379755 225.689943 
L 231.642036 224.233125 
L 231.904317 221.319489 
L 232.166598 219.86267 
L 232.428878 224.233125 
L 232.691159 225.689943 
L 233.215721 225.689943 
L 233.478001 227.146761 
L 233.740282 230.060398 
L 234.002563 230.060398 
L 234.264844 231.517216 
L 234.527124 228.60358 
L 234.789405 228.60358 
L 235.051686 230.060398 
L 235.313967 230.060398 
L 235.838528 235.88767 
L 236.100809 237.344489 
L 236.36309 232.974034 
L 236.887651 232.974034 
L 237.149932 235.88767 
L 237.674494 232.974034 
L 238.723617 232.974034 
L 238.985897 231.517216 
L 239.248178 231.517216 
L 239.510459 228.60358 
L 240.03502 228.60358 
L 240.559582 235.88767 
L 240.821863 232.974034 
L 241.084143 231.517216 
L 241.346424 227.146761 
L 241.870986 232.974034 
L 242.133267 232.974034 
L 242.395547 230.060398 
L 242.657828 228.60358 
L 243.18239 228.60358 
L 243.44467 230.060398 
L 243.706951 232.974034 
L 243.969232 234.430852 
L 244.231513 230.060398 
L 244.756074 235.88767 
L 245.018355 232.974034 
L 245.280636 232.974034 
L 245.542916 237.344489 
L 245.805197 238.801307 
L 246.067478 235.88767 
L 246.329759 237.344489 
L 246.85432 237.344489 
L 247.116601 240.258125 
L 247.378882 240.258125 
L 247.641162 237.344489 
L 247.903443 235.88767 
L 248.428005 241.714943 
L 248.690286 243.171761 
L 248.952566 241.714943 
L 249.214847 238.801307 
L 249.477128 240.258125 
L 249.739409 243.171761 
L 250.001689 244.62858 
L 250.26397 241.714943 
L 250.526251 241.714943 
L 250.788532 237.344489 
L 251.050812 238.801307 
L 251.313093 241.714943 
L 251.575374 241.714943 
L 251.837655 243.171761 
L 252.099935 241.714943 
L 252.362216 238.801307 
L 252.624497 240.258125 
L 252.886778 237.344489 
L 253.149058 237.344489 
L 253.411339 234.430852 
L 253.67362 234.430852 
L 253.935901 230.060398 
L 254.460462 230.060398 
L 254.722743 231.517216 
L 255.509585 227.146761 
L 255.771866 222.776307 
L 256.034147 222.776307 
L 256.558708 225.689943 
L 256.820989 225.689943 
L 257.08327 230.060398 
L 257.345551 228.60358 
L 257.607831 232.974034 
L 257.870112 234.430852 
L 258.132393 232.974034 
L 258.656954 232.974034 
L 258.919235 234.430852 
L 259.443797 228.60358 
L 259.706077 228.60358 
L 260.230639 234.430852 
L 260.49292 232.974034 
L 260.7552 234.430852 
L 261.542043 234.430852 
L 261.804324 235.88767 
L 262.066604 234.430852 
L 262.328885 234.430852 
L 262.591166 235.88767 
L 262.853447 235.88767 
L 263.115727 232.974034 
L 263.378008 231.517216 
L 263.640289 231.517216 
L 263.90257 232.974034 
L 264.16485 228.60358 
L 264.427131 230.060398 
L 264.951693 230.060398 
L 265.213973 232.974034 
L 265.476254 231.517216 
L 265.738535 228.60358 
L 266.263096 228.60358 
L 266.787658 234.430852 
L 267.312219 234.430852 
L 267.5745 231.517216 
L 267.836781 231.517216 
L 268.099062 234.430852 
L 268.361343 235.88767 
L 268.623623 240.258125 
L 268.885904 241.714943 
L 269.410466 235.88767 
L 269.672746 235.88767 
L 269.935027 238.801307 
L 270.721869 238.801307 
L 270.98415 241.714943 
L 271.246431 241.714943 
L 271.508712 244.62858 
L 271.770992 241.714943 
L 272.033273 241.714943 
L 272.295554 243.171761 
L 272.557835 246.085398 
L 272.820115 246.085398 
L 273.082396 244.62858 
L 273.869238 244.62858 
L 274.131519 247.542216 
L 274.3938 248.999034 
L 274.656081 248.999034 
L 274.918362 244.62858 
L 275.442923 241.714943 
L 275.705204 246.085398 
L 275.967485 246.085398 
L 276.229765 248.999034 
L 276.492046 248.999034 
L 276.754327 247.542216 
L 277.016608 251.91267 
L 277.541169 248.999034 
L 277.80345 246.085398 
L 278.065731 247.542216 
L 278.328011 250.455852 
L 278.590292 251.91267 
L 278.852573 254.826307 
L 279.114854 254.826307 
L 279.901696 250.455852 
L 280.163977 253.369489 
L 280.426258 253.369489 
L 280.688538 257.739943 
L 280.950819 257.739943 
L 281.475381 254.826307 
L 281.737661 257.739943 
L 281.999942 257.739943 
L 282.262223 259.196761 
L 283.049065 250.455852 
L 283.311346 250.455852 
L 283.573627 251.91267 
L 283.835907 250.455852 
L 284.098188 250.455852 
L 284.360469 253.369489 
L 284.62275 251.91267 
L 285.147311 246.085398 
L 285.409592 248.999034 
L 285.671873 244.62858 
L 285.934153 243.171761 
L 286.196434 243.171761 
L 286.458715 241.714943 
L 286.720996 241.714943 
L 286.983277 243.171761 
L 287.245557 243.171761 
L 287.507838 240.258125 
L 287.770119 238.801307 
L 288.0324 238.801307 
L 288.29468 240.258125 
L 288.556961 238.801307 
L 289.081523 238.801307 
L 289.343803 234.430852 
L 289.868365 234.430852 
L 290.130646 238.801307 
L 290.392926 238.801307 
L 290.917488 235.88767 
L 291.179769 232.974034 
L 291.70433 238.801307 
L 291.966611 237.344489 
L 292.228892 240.258125 
L 292.491172 238.801307 
L 292.753453 240.258125 
L 293.015734 238.801307 
L 293.278015 243.171761 
L 293.540296 240.258125 
L 293.802576 240.258125 
L 294.064857 237.344489 
L 294.327138 235.88767 
L 294.589419 237.344489 
L 294.851699 240.258125 
L 295.11398 241.714943 
L 295.376261 240.258125 
L 295.638542 235.88767 
L 295.900822 234.430852 
L 296.163103 234.430852 
L 296.425384 231.517216 
L 296.687665 232.974034 
L 296.949945 232.974034 
L 297.212226 231.517216 
L 297.736788 231.517216 
L 297.999068 228.60358 
L 298.261349 227.146761 
L 298.52363 228.60358 
L 298.785911 231.517216 
L 299.572753 219.86267 
L 299.835034 221.319489 
L 300.097315 216.949034 
L 300.621876 216.949034 
L 301.146438 211.121761 
L 301.408718 211.121761 
L 301.670999 208.208125 
L 302.195561 205.294489 
L 302.982403 216.949034 
L 303.244684 216.949034 
L 303.506964 221.319489 
L 303.769245 221.319489 
L 304.031526 222.776307 
L 304.293807 222.776307 
L 304.556087 221.319489 
L 305.080649 224.233125 
L 305.34293 224.233125 
L 305.60521 221.319489 
L 305.867491 221.319489 
L 306.129772 216.949034 
L 306.392053 218.405852 
L 306.654334 218.405852 
L 306.916614 219.86267 
L 307.178895 218.405852 
L 307.441176 218.405852 
L 307.703457 219.86267 
L 307.965737 215.492216 
L 308.228018 215.492216 
L 308.490299 214.035398 
L 308.75258 216.949034 
L 309.01486 212.57858 
L 309.277141 211.121761 
L 309.539422 214.035398 
L 309.801703 215.492216 
L 310.063983 214.035398 
L 310.326264 215.492216 
L 310.588545 215.492216 
L 310.850826 214.035398 
L 311.113106 215.492216 
L 311.375387 215.492216 
L 311.637668 212.57858 
L 311.899949 211.121761 
L 312.162229 211.121761 
L 312.42451 212.57858 
L 312.686791 212.57858 
L 312.949072 209.664943 
L 313.211353 212.57858 
L 313.735914 203.83767 
L 313.998195 203.83767 
L 314.260476 205.294489 
L 314.522756 205.294489 
L 314.785037 208.208125 
L 315.047318 206.751307 
L 315.309599 206.751307 
L 315.571879 202.380852 
L 315.83416 200.924034 
L 316.096441 202.380852 
L 316.358722 200.924034 
L 316.621002 200.924034 
L 316.883283 202.380852 
L 317.145564 205.294489 
L 317.670125 198.010398 
L 317.932406 196.55358 
L 318.719248 184.899034 
L 319.24381 187.81267 
L 319.506091 186.355852 
L 319.768372 187.81267 
L 320.030652 186.355852 
L 320.555214 186.355852 
L 320.817495 184.899034 
L 321.342056 184.899034 
L 321.604337 180.52858 
L 321.866618 179.071761 
L 322.391179 187.81267 
L 322.65346 187.81267 
L 323.178021 190.726307 
L 324.227144 190.726307 
L 324.489425 189.269489 
L 324.751706 189.269489 
L 325.276268 195.096761 
L 325.538548 195.096761 
L 325.800829 196.55358 
L 326.06311 196.55358 
L 326.325391 193.639943 
L 326.587671 192.183125 
L 326.849952 192.183125 
L 327.112233 193.639943 
L 327.374514 190.726307 
L 327.636794 190.726307 
L 327.899075 193.639943 
L 328.161356 193.639943 
L 328.423637 192.183125 
L 328.685917 196.55358 
L 328.948198 196.55358 
L 329.210479 199.467216 
L 329.73504 199.467216 
L 330.521883 203.83767 
L 330.784163 203.83767 
L 331.046444 205.294489 
L 331.571006 202.380852 
L 332.357848 206.751307 
L 332.620129 203.83767 
L 332.88241 203.83767 
L 333.14469 202.380852 
L 333.406971 205.294489 
L 333.669252 206.751307 
L 333.931533 206.751307 
L 334.193813 202.380852 
L 334.456094 202.380852 
L 334.980656 205.294489 
L 335.242936 208.208125 
L 335.505217 203.83767 
L 335.767498 206.751307 
L 336.029779 205.294489 
L 336.292059 202.380852 
L 336.816621 205.294489 
L 337.078902 205.294489 
L 337.341182 208.208125 
L 337.603463 209.664943 
L 337.865744 208.208125 
L 338.128025 205.294489 
L 338.652586 212.57858 
L 338.914867 215.492216 
L 339.177148 214.035398 
L 339.439429 216.949034 
L 339.701709 215.492216 
L 339.96399 218.405852 
L 340.226271 222.776307 
L 340.750832 225.689943 
L 341.013113 228.60358 
L 341.275394 227.146761 
L 341.537675 228.60358 
L 342.062236 221.319489 
L 342.324517 219.86267 
L 342.849078 219.86267 
L 343.37364 216.949034 
L 343.635921 216.949034 
L 343.898201 218.405852 
L 344.160482 215.492216 
L 344.422763 216.949034 
L 344.685044 215.492216 
L 344.947325 216.949034 
L 345.209605 214.035398 
L 345.471886 216.949034 
L 346.258728 216.949034 
L 346.521009 218.405852 
L 347.045571 218.405852 
L 347.307851 222.776307 
L 347.570132 221.319489 
L 347.832413 225.689943 
L 348.094694 227.146761 
L 348.356974 231.517216 
L 348.619255 231.517216 
L 348.881536 230.060398 
L 349.143817 230.060398 
L 349.668378 224.233125 
L 349.930659 222.776307 
L 350.45522 225.689943 
L 350.717501 225.689943 
L 350.979782 228.60358 
L 351.242063 230.060398 
L 351.504344 228.60358 
L 352.028905 228.60358 
L 352.291186 231.517216 
L 352.553467 227.146761 
L 353.078028 235.88767 
L 353.340309 235.88767 
L 353.60259 238.801307 
L 354.127151 232.974034 
L 354.651713 235.88767 
L 354.913993 240.258125 
L 355.438555 240.258125 
L 355.700836 237.344489 
L 355.963116 238.801307 
L 356.487678 235.88767 
L 356.749959 235.88767 
L 357.012239 238.801307 
L 357.27452 238.801307 
L 357.536801 241.714943 
L 357.799082 246.085398 
L 358.061363 247.542216 
L 358.323643 243.171761 
L 358.848205 243.171761 
L 359.110486 241.714943 
L 359.635047 241.714943 
L 359.897328 243.171761 
L 360.159609 243.171761 
L 360.421889 241.714943 
L 360.68417 243.171761 
L 361.208732 248.999034 
L 361.471012 244.62858 
L 361.995574 244.62858 
L 362.520135 238.801307 
L 363.044697 231.517216 
L 363.569259 228.60358 
L 363.831539 230.060398 
L 364.09382 227.146761 
L 364.356101 228.60358 
L 364.618382 228.60358 
L 365.405224 224.233125 
L 365.929785 230.060398 
L 366.454347 230.060398 
L 366.716628 228.60358 
L 366.978908 228.60358 
L 367.241189 230.060398 
L 367.50347 230.060398 
L 367.765751 231.517216 
L 368.028031 231.517216 
L 368.290312 232.974034 
L 368.552593 232.974034 
L 368.814874 228.60358 
L 369.077154 228.60358 
L 369.339435 224.233125 
L 369.601716 224.233125 
L 369.863997 225.689943 
L 370.126278 222.776307 
L 370.650839 219.86267 
L 370.91312 219.86267 
L 371.175401 221.319489 
L 371.437681 219.86267 
L 371.699962 215.492216 
L 372.486804 224.233125 
L 372.749085 221.319489 
L 373.011366 222.776307 
L 373.273647 219.86267 
L 373.798208 222.776307 
L 374.060489 221.319489 
L 374.32277 221.319489 
L 374.58505 216.949034 
L 374.847331 218.405852 
L 375.109612 218.405852 
L 375.371893 219.86267 
L 375.634173 222.776307 
L 375.896454 222.776307 
L 376.158735 219.86267 
L 376.421016 218.405852 
L 376.683297 215.492216 
L 376.945577 218.405852 
L 377.207858 218.405852 
L 377.470139 222.776307 
L 377.73242 222.776307 
L 377.9947 218.405852 
L 378.519262 221.319489 
L 378.781543 221.319489 
L 379.043823 218.405852 
L 379.568385 211.121761 
L 379.830666 211.121761 
L 380.092946 208.208125 
L 380.879789 208.208125 
L 381.142069 209.664943 
L 381.40435 212.57858 
L 381.666631 214.035398 
L 381.928912 212.57858 
L 382.715754 212.57858 
L 382.978035 209.664943 
L 383.240316 208.208125 
L 383.502596 211.121761 
L 383.764877 211.121761 
L 384.027158 214.035398 
L 384.289439 212.57858 
L 384.551719 215.492216 
L 385.338562 211.121761 
L 385.600842 212.57858 
L 385.863123 209.664943 
L 386.649965 209.664943 
L 386.912246 206.751307 
L 387.174527 206.751307 
L 387.436808 205.294489 
L 387.699088 205.294489 
L 387.961369 203.83767 
L 388.22365 203.83767 
L 388.485931 199.467216 
L 389.272773 208.208125 
L 389.797335 208.208125 
L 390.059615 206.751307 
L 390.321896 202.380852 
L 390.846458 199.467216 
L 391.108738 196.55358 
L 391.371019 196.55358 
L 391.6333 193.639943 
L 391.895581 195.096761 
L 392.157861 195.096761 
L 392.420142 190.726307 
L 392.682423 190.726307 
L 392.944704 187.81267 
L 393.469265 193.639943 
L 393.731546 193.639943 
L 394.256107 187.81267 
L 394.518388 187.81267 
L 394.780669 184.899034 
L 395.04295 189.269489 
L 395.30523 187.81267 
L 395.567511 184.899034 
L 395.829792 186.355852 
L 396.092073 189.269489 
L 396.354354 186.355852 
L 396.616634 186.355852 
L 396.878915 187.81267 
L 397.141196 186.355852 
L 397.403477 189.269489 
L 397.665757 190.726307 
L 397.928038 189.269489 
L 398.190319 190.726307 
L 398.71488 190.726307 
L 399.239442 184.899034 
L 399.501723 184.899034 
L 399.764003 186.355852 
L 400.026284 181.985398 
L 400.288565 181.985398 
L 400.813126 184.899034 
L 401.337688 177.614943 
L 401.599969 181.985398 
L 401.862249 183.442216 
L 402.386811 189.269489 
L 402.649092 190.726307 
L 402.911373 195.096761 
L 403.173653 193.639943 
L 403.435934 193.639943 
L 403.698215 192.183125 
L 403.960496 192.183125 
L 404.222776 190.726307 
L 404.747338 184.899034 
L 405.271899 181.985398 
L 405.53418 184.899034 
L 405.796461 180.52858 
L 406.058742 183.442216 
L 406.321022 181.985398 
L 406.583303 177.614943 
L 407.107865 174.701307 
L 407.632426 174.701307 
L 407.894707 171.78767 
L 408.156988 173.244489 
L 408.419269 173.244489 
L 408.681549 176.158125 
L 408.94383 174.701307 
L 409.730672 179.071761 
L 409.992953 183.442216 
L 410.255234 180.52858 
L 410.779795 173.244489 
L 411.042076 173.244489 
L 411.304357 171.78767 
L 411.828918 171.78767 
L 412.091199 174.701307 
L 412.35348 174.701307 
L 412.878041 180.52858 
L 413.140322 179.071761 
L 413.402603 179.071761 
L 413.664884 177.614943 
L 414.189445 180.52858 
L 414.451726 176.158125 
L 414.714007 174.701307 
L 415.238568 174.701307 
L 415.500849 177.614943 
L 415.76313 174.701307 
L 416.025411 176.158125 
L 416.287691 173.244489 
L 416.549972 176.158125 
L 417.074534 176.158125 
L 417.336814 180.52858 
L 417.861376 173.244489 
L 418.123657 171.78767 
L 418.910499 176.158125 
L 419.17278 174.701307 
L 419.43506 176.158125 
L 419.697341 171.78767 
L 419.959622 170.330852 
L 420.221903 165.960398 
L 420.484183 165.960398 
L 421.008745 163.046761 
L 421.271026 160.133125 
L 421.795587 160.133125 
L 422.057868 157.219489 
L 422.320149 158.676307 
L 422.58243 158.676307 
L 422.84471 157.219489 
L 423.106991 157.219489 
L 423.369272 154.305852 
L 423.631553 157.219489 
L 423.893833 152.849034 
L 424.680676 157.219489 
L 424.942956 154.305852 
L 425.205237 152.849034 
L 425.729799 144.108125 
L 425.992079 144.108125 
L 426.25436 147.021761 
L 426.516641 144.108125 
L 426.778922 144.108125 
L 427.041202 142.651307 
L 427.303483 144.108125 
L 427.565764 142.651307 
L 427.828045 147.021761 
L 428.090326 148.47858 
L 428.352606 147.021761 
L 428.614887 147.021761 
L 428.877168 145.564943 
L 429.139449 145.564943 
L 429.401729 148.47858 
L 429.66401 149.935398 
L 429.926291 149.935398 
L 430.188572 154.305852 
L 430.450852 155.76267 
L 430.713133 151.392216 
L 431.237695 157.219489 
L 431.499975 154.305852 
L 431.762256 158.676307 
L 432.024537 154.305852 
L 432.549098 157.219489 
L 433.07366 154.305852 
L 433.335941 154.305852 
L 433.598221 152.849034 
L 433.860502 149.935398 
L 434.122783 152.849034 
L 434.647345 145.564943 
L 434.909625 149.935398 
L 435.171906 149.935398 
L 435.434187 151.392216 
L 435.696468 154.305852 
L 435.958748 155.76267 
L 436.221029 154.305852 
L 436.48331 155.76267 
L 436.745591 151.392216 
L 437.007871 152.849034 
L 437.270152 151.392216 
L 437.532433 147.021761 
L 437.794714 148.47858 
L 438.056994 148.47858 
L 438.319275 151.392216 
L 438.581556 151.392216 
L 438.843837 152.849034 
L 439.106117 151.392216 
L 439.368398 154.305852 
L 439.89296 154.305852 
L 440.15524 157.219489 
L 440.679802 164.50358 
L 440.942083 163.046761 
L 441.466644 163.046761 
L 441.728925 164.50358 
L 441.991206 163.046761 
L 442.253487 160.133125 
L 442.515767 164.50358 
L 443.040329 161.589943 
L 443.30261 158.676307 
L 443.56489 157.219489 
L 443.827171 158.676307 
L 444.351733 164.50358 
L 444.614013 164.50358 
L 444.876294 160.133125 
L 445.400856 160.133125 
L 445.663136 158.676307 
L 445.925417 161.589943 
L 446.187698 161.589943 
L 446.71226 158.676307 
L 446.97454 158.676307 
L 447.236821 160.133125 
L 447.499102 160.133125 
L 447.761383 155.76267 
L 448.023663 157.219489 
L 448.548225 154.305852 
L 448.810506 151.392216 
L 449.072786 149.935398 
L 449.335067 149.935398 
L 449.597348 154.305852 
L 449.859629 154.305852 
L 450.121909 157.219489 
L 450.38419 158.676307 
L 450.646471 157.219489 
L 450.908752 157.219489 
L 451.171032 158.676307 
L 451.433313 157.219489 
L 451.695594 154.305852 
L 452.220155 145.564943 
L 452.482436 148.47858 
L 453.006998 148.47858 
L 453.531559 145.564943 
L 453.79384 148.47858 
L 454.056121 145.564943 
L 454.842963 145.564943 
L 455.105244 147.021761 
L 455.367525 147.021761 
L 455.629805 148.47858 
L 456.154367 148.47858 
L 456.678928 142.651307 
L 456.941209 144.108125 
L 457.20349 147.021761 
L 457.465771 148.47858 
L 457.990332 154.305852 
L 458.252613 155.76267 
L 458.777174 155.76267 
L 459.564017 168.874034 
L 459.826298 168.874034 
L 460.61314 173.244489 
L 460.875421 173.244489 
L 461.137701 171.78767 
L 461.399982 171.78767 
L 461.662263 173.244489 
L 461.924544 173.244489 
L 462.186824 170.330852 
L 462.449105 170.330852 
L 462.711386 173.244489 
L 462.973667 173.244489 
L 463.498228 176.158125 
L 463.760509 174.701307 
L 464.02279 171.78767 
L 464.28507 171.78767 
L 464.547351 174.701307 
L 464.809632 179.071761 
L 465.071913 180.52858 
L 465.334193 176.158125 
L 465.596474 176.158125 
L 465.858755 179.071761 
L 466.645597 174.701307 
L 466.907878 177.614943 
L 467.170159 177.614943 
L 467.69472 170.330852 
L 467.957001 168.874034 
L 468.219282 168.874034 
L 468.481563 165.960398 
L 468.743843 161.589943 
L 469.006124 164.50358 
L 469.530686 164.50358 
L 469.792966 163.046761 
L 470.055247 164.50358 
L 470.317528 161.589943 
L 470.579809 160.133125 
L 470.842089 161.589943 
L 471.10437 158.676307 
L 471.366651 158.676307 
L 471.628932 155.76267 
L 472.153493 155.76267 
L 472.415774 154.305852 
L 472.678055 154.305852 
L 473.202616 161.589943 
L 473.464897 161.589943 
L 473.727178 163.046761 
L 473.989459 165.960398 
L 474.51402 165.960398 
L 474.776301 164.50358 
L 475.038582 164.50358 
L 475.300862 165.960398 
L 475.563143 164.50358 
L 475.825424 164.50358 
L 476.087705 168.874034 
L 476.874547 173.244489 
L 477.136828 170.330852 
L 477.399108 171.78767 
L 477.661389 171.78767 
L 477.92367 173.244489 
L 478.185951 170.330852 
L 478.448231 168.874034 
L 478.710512 165.960398 
L 478.972793 164.50358 
L 479.497355 157.219489 
L 480.021916 157.219489 
L 480.284197 158.676307 
L 480.546478 158.676307 
L 480.808758 155.76267 
L 481.071039 154.305852 
L 481.33332 155.76267 
L 481.595601 155.76267 
L 481.857881 152.849034 
L 482.382443 160.133125 
L 482.644724 163.046761 
L 482.907004 163.046761 
L 483.169285 165.960398 
L 483.693847 163.046761 
L 483.956127 160.133125 
L 484.480689 165.960398 
L 485.005251 165.960398 
L 485.267531 163.046761 
L 485.529812 163.046761 
L 486.054374 165.960398 
L 486.316654 163.046761 
L 486.578935 163.046761 
L 487.103497 168.874034 
L 487.365777 164.50358 
L 487.628058 167.417216 
L 487.890339 164.50358 
L 488.4149 167.417216 
L 488.677181 167.417216 
L 488.939462 164.50358 
L 489.201743 168.874034 
L 489.464023 165.960398 
L 489.726304 165.960398 
L 490.250866 163.046761 
L 490.513146 160.133125 
L 491.037708 157.219489 
L 491.56227 165.960398 
L 491.82455 163.046761 
L 492.086831 163.046761 
L 492.349112 164.50358 
L 492.611393 164.50358 
L 492.873673 167.417216 
L 493.135954 167.417216 
L 493.398235 170.330852 
L 493.660516 168.874034 
L 493.922796 168.874034 
L 494.185077 164.50358 
L 494.447358 163.046761 
L 495.2342 167.417216 
L 495.496481 167.417216 
L 495.758762 165.960398 
L 496.021042 167.417216 
L 496.283323 170.330852 
L 496.545604 165.960398 
L 496.807885 167.417216 
L 497.070165 165.960398 
L 497.332446 165.960398 
L 497.594727 164.50358 
L 497.857008 167.417216 
L 498.119289 168.874034 
L 498.381569 167.417216 
L 498.64385 163.046761 
L 498.906131 163.046761 
L 499.168412 164.50358 
L 499.430692 164.50358 
L 499.692973 160.133125 
L 499.955254 163.046761 
L 500.217535 158.676307 
L 500.479815 157.219489 
L 500.742096 160.133125 
L 501.004377 160.133125 
L 501.266658 158.676307 
L 501.528938 161.589943 
L 501.791219 161.589943 
L 502.0535 158.676307 
L 502.315781 157.219489 
L 502.578061 157.219489 
L 502.840342 155.76267 
L 503.102623 157.219489 
L 503.364904 157.219489 
L 503.627184 160.133125 
L 503.889465 161.589943 
L 504.414027 161.589943 
L 504.676308 164.50358 
L 504.938588 164.50358 
L 505.200869 161.589943 
L 505.46315 163.046761 
L 505.725431 165.960398 
L 505.987711 164.50358 
L 506.249992 160.133125 
L 506.512273 160.133125 
L 506.774554 164.50358 
L 507.561396 168.874034 
L 507.823677 168.874034 
L 508.085957 170.330852 
L 508.348238 168.874034 
L 508.610519 170.330852 
L 509.13508 170.330852 
L 509.397361 171.78767 
L 509.659642 174.701307 
L 509.921923 171.78767 
L 510.184203 173.244489 
L 510.446484 176.158125 
L 510.708765 177.614943 
L 510.971046 180.52858 
L 511.233327 179.071761 
L 511.495607 179.071761 
L 512.020169 184.899034 
L 512.28245 184.899034 
L 512.54473 186.355852 
L 513.069292 186.355852 
L 513.331573 184.899034 
L 513.593853 181.985398 
L 513.856134 180.52858 
L 514.380696 180.52858 
L 514.642976 176.158125 
L 514.905257 174.701307 
L 515.167538 174.701307 
L 515.692099 168.874034 
L 515.95438 167.417216 
L 516.478942 170.330852 
L 517.003503 170.330852 
L 517.265784 171.78767 
L 517.528065 171.78767 
L 517.790346 170.330852 
L 518.052626 174.701307 
L 518.314907 176.158125 
L 518.577188 180.52858 
L 519.626311 174.701307 
L 520.675434 180.52858 
L 520.937715 179.071761 
L 521.199995 179.071761 
L 521.462276 176.158125 
L 521.724557 171.78767 
L 521.986838 171.78767 
L 522.249118 173.244489 
L 522.77368 173.244489 
L 523.035961 171.78767 
L 523.298241 176.158125 
L 523.560522 177.614943 
L 523.822803 176.158125 
L 524.085084 173.244489 
L 524.609645 179.071761 
L 525.134207 181.985398 
L 525.396488 181.985398 
L 525.658768 186.355852 
L 525.921049 183.442216 
L 526.445611 176.158125 
L 526.970172 176.158125 
L 527.232453 177.614943 
L 527.757014 177.614943 
L 528.019295 176.158125 
L 528.281576 177.614943 
L 528.543857 174.701307 
L 528.806137 179.071761 
L 529.068418 180.52858 
L 529.330699 183.442216 
L 529.59298 184.899034 
L 530.117541 184.899034 
L 530.379822 189.269489 
L 530.642103 187.81267 
L 530.904384 184.899034 
L 531.166664 186.355852 
L 531.428945 183.442216 
L 531.691226 186.355852 
L 531.953507 187.81267 
L 532.215787 184.899034 
L 532.478068 186.355852 
L 533.00263 186.355852 
L 533.26491 183.442216 
L 533.527191 183.442216 
L 533.789472 187.81267 
L 534.051753 184.899034 
L 534.314033 180.52858 
L 534.838595 180.52858 
L 535.100876 181.985398 
L 535.625437 181.985398 
L 535.887718 183.442216 
L 536.149999 180.52858 
L 536.41228 181.985398 
L 537.199122 181.985398 
L 537.461403 177.614943 
L 537.723683 179.071761 
L 537.985964 181.985398 
L 538.248245 180.52858 
L 538.510526 180.52858 
L 538.772806 176.158125 
L 539.035087 180.52858 
L 539.297368 177.614943 
L 539.559649 181.985398 
L 540.08421 181.985398 
L 540.608772 184.899034 
L 540.871052 183.442216 
L 541.395614 183.442216 
L 541.657895 184.899034 
L 541.920175 184.899034 
L 542.182456 181.985398 
L 542.444737 181.985398 
L 542.707018 184.899034 
L 542.969299 184.899034 
L 543.231579 181.985398 
L 543.49386 181.985398 
L 543.756141 183.442216 
L 544.018422 180.52858 
L 544.280702 181.985398 
L 544.542983 184.899034 
L 544.805264 181.985398 
L 545.067545 181.985398 
L 545.592106 187.81267 
L 546.116668 184.899034 
L 546.378948 186.355852 
L 546.641229 186.355852 
L 546.90351 183.442216 
L 547.165791 186.355852 
L 547.428071 187.81267 
L 547.690352 186.355852 
L 547.952633 186.355852 
L 548.214914 184.899034 
L 548.477194 187.81267 
L 548.739475 186.355852 
L 549.001756 186.355852 
L 549.264037 187.81267 
L 549.526318 183.442216 
L 549.788598 183.442216 
L 550.050879 184.899034 
L 550.31316 183.442216 
L 550.837721 183.442216 
L 551.100002 181.985398 
L 551.362283 179.071761 
L 551.886844 176.158125 
L 552.149125 173.244489 
L 552.411406 174.701307 
L 552.935967 180.52858 
L 553.460529 183.442216 
L 553.72281 183.442216 
L 553.98509 186.355852 
L 554.247371 190.726307 
L 554.509652 189.269489 
L 554.771933 189.269489 
L 555.034213 187.81267 
L 555.296494 190.726307 
L 555.821056 187.81267 
L 556.083337 184.899034 
L 556.345617 183.442216 
L 556.870179 183.442216 
L 557.13246 186.355852 
L 557.657021 179.071761 
L 557.919302 179.071761 
L 558.181583 180.52858 
L 558.443863 179.071761 
L 558.968425 173.244489 
L 559.230706 168.874034 
L 559.492986 171.78767 
L 559.755267 171.78767 
L 560.017548 170.330852 
L 560.279829 170.330852 
L 560.542109 173.244489 
L 560.80439 171.78767 
L 561.066671 173.244489 
L 561.328952 171.78767 
L 561.591232 171.78767 
L 561.853513 167.417216 
L 562.378075 173.244489 
L 562.902636 173.244489 
L 563.164917 171.78767 
L 563.427198 176.158125 
L 563.689479 173.244489 
L 563.951759 174.701307 
L 564.21404 173.244489 
L 564.738602 167.417216 
L 565.000882 165.960398 
L 565.263163 167.417216 
L 565.525444 167.417216 
L 565.787725 171.78767 
L 566.050005 173.244489 
L 566.312286 168.874034 
L 566.836848 174.701307 
L 567.099128 174.701307 
L 567.361409 176.158125 
L 567.62369 174.701307 
L 567.885971 177.614943 
L 568.148252 176.158125 
L 568.410532 177.614943 
L 568.935094 171.78767 
L 569.197375 171.78767 
L 569.721936 168.874034 
L 569.984217 165.960398 
L 570.246498 164.50358 
L 570.508778 165.960398 
L 570.771059 165.960398 
L 571.03334 161.589943 
L 571.295621 164.50358 
L 571.557901 165.960398 
L 571.820182 164.50358 
L 572.082463 161.589943 
L 572.344744 160.133125 
L 572.607024 160.133125 
L 572.869305 164.50358 
L 573.131586 164.50358 
L 573.393867 167.417216 
L 573.656147 168.874034 
L 573.918428 167.417216 
L 574.180709 163.046761 
L 574.44299 165.960398 
L 574.705271 163.046761 
L 574.967551 161.589943 
L 575.229832 163.046761 
L 575.492113 165.960398 
L 575.754394 163.046761 
L 576.278955 160.133125 
L 576.541236 155.76267 
L 576.803517 155.76267 
L 577.065797 154.305852 
L 577.590359 154.305852 
L 577.85264 151.392216 
L 578.11492 154.305852 
L 578.377201 149.935398 
L 579.164043 149.935398 
L 579.426324 147.021761 
L 579.688605 147.021761 
L 580.213166 149.935398 
L 580.475447 147.021761 
L 580.737728 145.564943 
L 581.000009 142.651307 
L 581.52457 145.564943 
L 582.049132 145.564943 
L 582.311413 142.651307 
L 582.573693 142.651307 
L 582.835974 139.73767 
L 583.098255 139.73767 
L 583.360536 142.651307 
L 583.622816 139.73767 
L 583.885097 135.367216 
L 584.147378 139.73767 
L 584.671939 133.910398 
L 585.196501 133.910398 
L 585.721062 128.083125 
L 585.983343 128.083125 
L 586.245624 129.539943 
L 586.770185 123.71267 
L 587.032466 122.255852 
L 587.819309 113.514943 
L 588.081589 112.058125 
L 588.34387 109.144489 
L 588.606151 107.68767 
L 588.868432 110.601307 
L 589.130712 106.230852 
L 589.655274 106.230852 
L 590.179835 109.144489 
L 590.442116 106.230852 
L 590.704397 106.230852 
L 590.966678 107.68767 
L 591.228958 106.230852 
L 591.491239 107.68767 
L 591.75352 107.68767 
L 592.015801 104.774034 
L 592.278081 103.317216 
L 592.540362 98.946761 
L 592.802643 98.946761 
L 593.589485 94.576307 
L 593.851766 94.576307 
L 594.114047 96.033125 
L 594.376328 96.033125 
L 594.638608 93.119489 
L 595.16317 98.946761 
L 595.425451 97.489943 
L 595.687731 94.576307 
L 595.950012 90.205852 
L 596.212293 90.205852 
L 596.736854 93.119489 
L 596.999135 97.489943 
L 597.261416 96.033125 
L 597.523697 97.489943 
L 597.785977 97.489943 
L 598.048258 100.40358 
L 598.310539 101.860398 
L 598.57282 104.774034 
L 598.8351 101.860398 
L 599.359662 94.576307 
L 599.621943 96.033125 
L 599.884223 91.66267 
L 600.146504 93.119489 
L 600.408785 91.66267 
L 600.671066 91.66267 
L 600.933347 93.119489 
L 601.195627 93.119489 
L 601.457908 88.749034 
L 601.720189 87.292216 
L 601.98247 82.921761 
L 602.24475 81.464943 
L 602.507031 85.835398 
L 602.769312 84.37858 
L 603.031593 84.37858 
L 603.293873 82.921761 
L 603.556154 82.921761 
L 603.818435 84.37858 
L 604.080716 84.37858 
L 604.342996 81.464943 
L 604.605277 81.464943 
L 604.867558 82.921761 
L 605.129839 78.551307 
L 606.178962 78.551307 
L 606.441242 74.180852 
L 606.703523 72.724034 
L 606.965804 74.180852 
L 607.228085 71.267216 
L 607.490366 69.810398 
L 607.752646 69.810398 
L 608.014927 74.180852 
L 608.801769 74.180852 
L 609.06405 72.724034 
L 609.326331 72.724034 
L 609.588612 74.180852 
L 609.850892 69.810398 
L 610.113173 69.810398 
L 610.375454 71.267216 
L 610.637735 71.267216 
L 611.162296 65.439943 
L 611.424577 65.439943 
L 611.686858 66.896761 
L 611.949138 69.810398 
L 612.4737 61.069489 
L 612.735981 59.61267 
L 613.260542 62.526307 
L 613.522823 65.439943 
L 614.047385 65.439943 
L 614.571946 62.526307 
L 614.834227 58.155852 
L 615.096508 56.699034 
L 615.358788 58.155852 
L 615.621069 56.699034 
L 615.88335 59.61267 
L 616.145631 63.983125 
L 616.670192 66.896761 
L 617.194754 66.896761 
L 617.457034 65.439943 
L 617.981596 72.724034 
L 618.243877 71.267216 
L 618.506157 74.180852 
L 618.768438 75.63767 
L 619.293 66.896761 
L 619.555281 65.439943 
L 620.079842 65.439943 
L 620.342123 68.35358 
L 620.604404 66.896761 
L 620.866684 68.35358 
L 621.128965 65.439943 
L 621.391246 63.983125 
L 621.915807 66.896761 
L 622.70265 62.526307 
L 623.489492 62.526307 
L 623.751773 65.439943 
L 624.014053 65.439943 
L 624.276334 63.983125 
L 624.538615 61.069489 
L 624.800896 62.526307 
L 625.063176 65.439943 
L 625.587738 62.526307 
L 625.850019 65.439943 
L 626.37458 72.724034 
L 626.636861 72.724034 
L 626.899142 75.63767 
L 627.161423 77.094489 
L 627.423703 81.464943 
L 627.685984 82.921761 
L 627.948265 82.921761 
L 628.210546 81.464943 
L 628.472826 85.835398 
L 628.735107 84.37858 
L 628.997388 84.37858 
L 629.521949 77.094489 
L 629.78423 81.464943 
L 630.046511 81.464943 
L 630.308792 78.551307 
L 630.833353 78.551307 
L 631.095634 75.63767 
L 631.357915 75.63767 
L 631.620195 74.180852 
L 631.882476 77.094489 
L 632.407038 77.094489 
L 632.669319 75.63767 
L 632.931599 75.63767 
L 633.456161 78.551307 
L 633.980722 85.835398 
L 634.243003 84.37858 
L 634.505284 84.37858 
L 634.767565 85.835398 
L 635.029845 90.205852 
L 635.292126 91.66267 
L 635.816688 91.66267 
L 636.078968 93.119489 
L 636.341249 93.119489 
L 636.60353 91.66267 
L 636.865811 88.749034 
L 637.128091 88.749034 
L 637.390372 85.835398 
L 637.652653 84.37858 
L 638.177214 84.37858 
L 638.439495 87.292216 
L 638.964057 87.292216 
L 639.226338 90.205852 
L 639.488618 91.66267 
L 639.750899 94.576307 
L 640.01318 96.033125 
L 640.275461 93.119489 
L 640.537741 93.119489 
L 640.800022 97.489943 
L 641.062303 98.946761 
L 641.324584 103.317216 
L 641.586864 101.860398 
L 641.849145 97.489943 
L 642.635987 93.119489 
L 643.160549 96.033125 
L 643.42283 96.033125 
L 643.68511 100.40358 
L 643.947391 100.40358 
L 644.209672 98.946761 
L 644.471953 100.40358 
L 644.734233 103.317216 
L 644.996514 104.774034 
L 645.521076 97.489943 
L 645.783357 100.40358 
L 646.307918 103.317216 
L 646.570199 106.230852 
L 646.83248 106.230852 
L 647.09476 104.774034 
L 647.357041 104.774034 
L 647.619322 103.317216 
L 647.881603 104.774034 
L 648.143883 104.774034 
L 648.668445 110.601307 
L 648.930726 110.601307 
L 649.455287 116.42858 
L 649.717568 116.42858 
L 649.979849 112.058125 
L 650.242129 113.514943 
L 650.766691 119.342216 
L 651.028972 120.799034 
L 651.291253 119.342216 
L 651.815814 122.255852 
L 652.078095 119.342216 
L 652.340376 117.885398 
L 652.602656 114.971761 
L 652.864937 113.514943 
L 653.127218 110.601307 
L 653.389499 112.058125 
L 653.651779 112.058125 
L 653.91406 110.601307 
L 654.176341 112.058125 
L 654.438622 112.058125 
L 654.700902 110.601307 
L 654.963183 113.514943 
L 655.225464 112.058125 
L 655.750025 104.774034 
L 656.012306 104.774034 
L 656.274587 101.860398 
L 656.799148 107.68767 
L 657.061429 106.230852 
L 657.32371 101.860398 
L 658.110552 97.489943 
L 658.635114 100.40358 
L 658.897395 98.946761 
L 659.421956 101.860398 
L 659.684237 100.40358 
L 659.946518 101.860398 
L 660.208798 101.860398 
L 660.471079 100.40358 
L 661.257921 104.774034 
L 661.520202 109.144489 
L 662.044764 112.058125 
L 662.569325 112.058125 
L 663.093887 109.144489 
L 663.356167 113.514943 
L 663.880729 116.42858 
L 664.405291 116.42858 
L 664.929852 119.342216 
L 665.192133 116.42858 
L 665.454414 116.42858 
L 665.716694 117.885398 
L 665.978975 120.799034 
L 666.241256 120.799034 
L 666.503537 117.885398 
L 666.765817 116.42858 
L 667.028098 116.42858 
L 667.290379 117.885398 
L 667.55266 117.885398 
L 667.81494 113.514943 
L 668.077221 113.514943 
L 668.339502 112.058125 
L 668.601783 112.058125 
L 668.864063 113.514943 
L 669.126344 112.058125 
L 669.388625 114.971761 
L 670.175467 114.971761 
L 670.700029 122.255852 
L 670.96231 123.71267 
L 671.22459 123.71267 
L 671.749152 117.885398 
L 672.273713 117.885398 
L 672.535994 113.514943 
L 672.798275 113.514943 
L 673.322836 106.230852 
L 673.847398 103.317216 
L 674.109679 106.230852 
L 674.371959 101.860398 
L 674.63424 100.40358 
L 674.896521 104.774034 
L 675.158802 101.860398 
L 675.683363 98.946761 
L 675.945644 98.946761 
L 676.207925 101.860398 
L 676.732486 104.774034 
L 676.994767 107.68767 
L 677.257048 109.144489 
L 677.519329 112.058125 
L 677.781609 112.058125 
L 678.568452 116.42858 
L 679.355294 107.68767 
L 679.617575 109.144489 
L 679.879855 112.058125 
L 680.142136 110.601307 
L 680.666698 104.774034 
L 681.191259 107.68767 
L 681.715821 107.68767 
L 681.978101 110.601307 
L 682.240382 109.144489 
L 682.502663 106.230852 
L 682.764944 106.230852 
L 683.027224 104.774034 
L 683.289505 104.774034 
L 683.814067 107.68767 
L 684.076348 106.230852 
L 684.338628 107.68767 
L 684.600909 110.601307 
L 685.125471 110.601307 
L 685.912313 97.489943 
L 686.174594 97.489943 
L 686.436874 96.033125 
L 687.223717 96.033125 
L 687.485997 97.489943 
L 688.010559 94.576307 
L 688.27284 97.489943 
L 688.53512 97.489943 
L 688.797401 94.576307 
L 689.059682 97.489943 
L 689.584243 97.489943 
L 689.846524 96.033125 
L 690.108805 96.033125 
L 690.371086 93.119489 
L 690.633367 93.119489 
L 691.157928 98.946761 
L 691.420209 98.946761 
L 691.68249 101.860398 
L 691.94477 100.40358 
L 692.469332 106.230852 
L 693.256174 110.601307 
L 693.518455 113.514943 
L 693.780736 114.971761 
L 694.043016 113.514943 
L 694.567578 116.42858 
L 695.092139 123.71267 
L 695.35442 120.799034 
L 695.616701 123.71267 
L 695.878982 123.71267 
L 696.403543 120.799034 
L 696.665824 123.71267 
L 696.928105 125.169489 
L 697.190386 125.169489 
L 697.452666 126.626307 
L 697.977228 126.626307 
L 698.239509 130.996761 
L 698.501789 128.083125 
L 698.76407 126.626307 
L 699.288632 126.626307 
L 699.550912 125.169489 
L 699.813193 126.626307 
L 700.075474 123.71267 
L 700.337755 122.255852 
L 700.600035 117.885398 
L 700.862316 117.885398 
L 701.386878 120.799034 
L 701.649158 119.342216 
L 702.17372 119.342216 
L 702.436001 117.885398 
L 702.698282 114.971761 
L 702.960562 114.971761 
L 703.222843 117.885398 
L 703.485124 119.342216 
L 704.009685 116.42858 
L 704.534247 116.42858 
L 704.796528 114.971761 
L 705.058808 112.058125 
L 705.321089 112.058125 
L 705.58337 110.601307 
L 705.845651 113.514943 
L 706.107931 114.971761 
L 706.370212 113.514943 
L 706.632493 116.42858 
L 706.894774 117.885398 
L 707.419335 125.169489 
L 708.206177 125.169489 
L 708.468458 122.255852 
L 708.730739 117.885398 
L 708.99302 120.799034 
L 709.255301 120.799034 
L 709.517581 123.71267 
L 709.779862 122.255852 
L 710.042143 119.342216 
L 710.304424 117.885398 
L 710.566704 117.885398 
L 710.828985 119.342216 
L 711.091266 119.342216 
L 711.353547 123.71267 
L 711.615827 125.169489 
L 711.878108 125.169489 
L 712.140389 120.799034 
L 712.40267 120.799034 
L 712.927231 126.626307 
L 713.189512 123.71267 
L 713.451793 122.255852 
L 713.714073 123.71267 
L 713.976354 128.083125 
L 714.238635 123.71267 
L 715.025477 123.71267 
L 715.287758 126.626307 
L 715.550039 126.626307 
L 715.81232 125.169489 
L 716.0746 125.169489 
L 716.336881 126.626307 
L 716.599162 123.71267 
L 716.861443 122.255852 
L 717.123723 119.342216 
L 717.386004 119.342216 
L 717.910566 113.514943 
L 718.435127 120.799034 
L 718.697408 119.342216 
L 718.959689 120.799034 
L 719.221969 117.885398 
L 719.746531 114.971761 
L 720.008812 114.971761 
L 720.271092 112.058125 
L 720.533373 110.601307 
L 720.795654 112.058125 
L 721.057935 114.971761 
L 721.320215 114.971761 
L 721.582496 112.058125 
L 721.844777 110.601307 
L 722.107058 110.601307 
L 722.369339 112.058125 
L 722.631619 110.601307 
L 723.156181 113.514943 
L 723.418462 112.058125 
L 723.680742 112.058125 
L 723.943023 110.601307 
L 724.205304 112.058125 
L 724.467585 109.144489 
L 724.729865 110.601307 
L 724.992146 110.601307 
L 725.254427 112.058125 
L 725.778988 112.058125 
L 726.041269 109.144489 
L 726.565831 112.058125 
L 726.828111 112.058125 
L 727.090392 109.144489 
L 727.614954 109.144489 
L 727.877234 106.230852 
L 728.139515 109.144489 
L 728.664077 109.144489 
L 729.188638 106.230852 
L 729.450919 106.230852 
L 729.7132 104.774034 
L 730.500042 104.774034 
L 730.762323 106.230852 
L 731.024604 106.230852 
L 731.286884 109.144489 
L 731.811446 106.230852 
L 732.073727 107.68767 
L 732.336007 104.774034 
L 732.598288 106.230852 
L 732.860569 104.774034 
L 733.12285 107.68767 
L 733.38513 107.68767 
L 734.171973 103.317216 
L 734.434254 100.40358 
L 734.696534 98.946761 
L 734.958815 96.033125 
L 735.483377 98.946761 
L 736.007938 98.946761 
L 736.270219 97.489943 
L 736.5325 100.40358 
L 736.79478 101.860398 
L 737.057061 100.40358 
L 737.319342 101.860398 
L 737.581623 98.946761 
L 738.106184 106.230852 
L 738.368465 103.317216 
L 738.630746 101.860398 
L 738.893026 101.860398 
L 739.155307 100.40358 
L 739.417588 103.317216 
L 739.679869 103.317216 
L 739.942149 106.230852 
L 740.20443 104.774034 
L 740.466711 101.860398 
L 740.728992 100.40358 
L 740.991273 100.40358 
L 741.253553 103.317216 
L 742.040396 107.68767 
L 742.302676 107.68767 
L 742.564957 103.317216 
L 743.089519 103.317216 
L 743.61408 100.40358 
L 743.876361 103.317216 
L 744.138642 104.774034 
L 744.400922 103.317216 
L 744.925484 103.317216 
L 745.450045 100.40358 
L 745.712326 100.40358 
L 745.974607 97.489943 
L 746.236888 96.033125 
L 746.499168 93.119489 
L 746.761449 88.749034 
L 747.02373 91.66267 
L 747.810572 96.033125 
L 748.072853 98.946761 
L 748.335134 96.033125 
L 748.597415 96.033125 
L 748.859695 91.66267 
L 749.121976 90.205852 
L 749.384257 91.66267 
L 749.646538 91.66267 
L 749.908818 88.749034 
L 750.171099 87.292216 
L 750.43338 88.749034 
L 750.695661 87.292216 
L 750.957941 84.37858 
L 751.220222 84.37858 
L 751.744784 90.205852 
L 752.269345 90.205852 
L 752.531626 91.66267 
L 752.793907 91.66267 
L 753.056187 93.119489 
L 753.318468 93.119489 
L 753.84303 98.946761 
L 754.367591 101.860398 
L 754.629872 97.489943 
L 754.892153 96.033125 
L 755.154434 97.489943 
L 755.416714 100.40358 
L 755.678995 96.033125 
L 756.203557 93.119489 
L 756.465837 97.489943 
L 756.728118 98.946761 
L 756.990399 98.946761 
L 757.25268 100.40358 
L 757.777241 97.489943 
L 758.039522 101.860398 
L 758.301803 103.317216 
L 758.564083 106.230852 
L 759.088645 106.230852 
L 759.350926 109.144489 
L 759.613206 109.144489 
L 759.875487 112.058125 
L 760.137768 112.058125 
L 760.66233 109.144489 
L 761.186891 116.42858 
L 761.449172 117.885398 
L 761.711453 116.42858 
L 761.973733 120.799034 
L 762.236014 119.342216 
L 762.498295 116.42858 
L 762.760576 116.42858 
L 763.022856 114.971761 
L 763.285137 117.885398 
L 763.547418 117.885398 
L 763.809699 122.255852 
L 764.071979 122.255852 
L 764.596541 125.169489 
L 765.383383 120.799034 
L 765.645664 120.799034 
L 765.907945 116.42858 
L 766.170225 114.971761 
L 766.432506 114.971761 
L 766.694787 116.42858 
L 766.957068 112.058125 
L 767.219349 112.058125 
L 767.481629 110.601307 
L 767.74391 106.230852 
L 768.006191 109.144489 
L 768.268472 113.514943 
L 768.530752 114.971761 
L 768.793033 113.514943 
L 769.317595 116.42858 
L 770.104437 116.42858 
L 770.366718 113.514943 
L 770.891279 113.514943 
L 771.15356 112.058125 
L 771.415841 109.144489 
L 771.678121 112.058125 
L 771.940402 110.601307 
L 772.202683 112.058125 
L 772.464964 109.144489 
L 772.989525 106.230852 
L 773.251806 109.144489 
L 773.514087 106.230852 
L 773.776368 106.230852 
L 774.038648 107.68767 
L 774.300929 110.601307 
L 774.825491 104.774034 
L 775.087771 104.774034 
L 775.350052 106.230852 
L 775.612333 104.774034 
L 775.874614 100.40358 
L 776.923737 100.40358 
L 777.186017 97.489943 
L 777.448298 96.033125 
L 777.710579 97.489943 
L 778.23514 97.489943 
L 778.497421 101.860398 
L 778.759702 97.489943 
L 779.021983 96.033125 
L 779.284264 93.119489 
L 779.546544 94.576307 
L 779.808825 93.119489 
L 780.071106 94.576307 
L 780.333387 94.576307 
L 780.595667 91.66267 
L 780.857948 91.66267 
L 781.120229 93.119489 
L 781.38251 91.66267 
L 781.907071 91.66267 
L 782.169352 88.749034 
L 782.431633 87.292216 
L 782.693913 90.205852 
L 782.956194 91.66267 
L 783.218475 91.66267 
L 783.480756 88.749034 
L 783.743036 91.66267 
L 784.267598 88.749034 
L 784.529879 90.205852 
L 784.792159 87.292216 
L 785.05444 88.749034 
L 785.316721 87.292216 
L 785.841283 87.292216 
L 786.103563 91.66267 
L 786.365844 90.205852 
L 786.628125 90.205852 
L 786.890406 87.292216 
L 787.152686 90.205852 
L 787.677248 90.205852 
L 788.201809 96.033125 
L 788.46409 96.033125 
L 788.726371 94.576307 
L 788.988652 97.489943 
L 789.513213 97.489943 
L 789.775494 96.033125 
L 790.037775 93.119489 
L 790.300055 93.119489 
L 790.562336 96.033125 
L 791.086898 90.205852 
L 791.349178 90.205852 
L 791.611459 85.835398 
L 791.87374 88.749034 
L 792.136021 87.292216 
L 792.398302 87.292216 
L 792.660582 84.37858 
L 793.185144 84.37858 
L 793.709705 81.464943 
L 793.971986 82.921761 
L 794.234267 82.921761 
L 794.496548 80.008125 
L 794.758828 75.63767 
L 795.021109 77.094489 
L 795.28339 77.094489 
L 795.545671 78.551307 
L 795.807951 77.094489 
L 796.070232 74.180852 
L 796.332513 74.180852 
L 796.857074 77.094489 
L 797.119355 77.094489 
L 797.381636 75.63767 
L 797.906197 68.35358 
L 798.168478 66.896761 
L 798.430759 71.267216 
L 798.69304 69.810398 
L 798.955321 72.724034 
L 799.217601 69.810398 
L 799.742163 72.724034 
L 800.004444 71.267216 
L 800.266724 71.267216 
L 800.791286 74.180852 
L 801.053567 71.267216 
L 801.315847 66.896761 
L 801.840409 63.983125 
L 802.10269 65.439943 
L 802.36497 68.35358 
L 802.627251 65.439943 
L 803.151813 62.526307 
L 803.414093 62.526307 
L 803.676374 61.069489 
L 804.200936 63.983125 
L 804.463216 63.983125 
L 804.725497 66.896761 
L 804.987778 68.35358 
L 805.51234 74.180852 
L 805.77462 75.63767 
L 806.036901 72.724034 
L 806.299182 72.724034 
L 806.561463 74.180852 
L 807.086024 74.180852 
L 807.348305 75.63767 
L 807.610586 72.724034 
L 808.135147 69.810398 
L 808.397428 69.810398 
L 808.659709 68.35358 
L 808.921989 68.35358 
L 809.18427 65.439943 
L 809.446551 68.35358 
L 809.708832 66.896761 
L 809.971112 66.896761 
L 810.233393 63.983125 
L 810.495674 62.526307 
L 810.757955 63.983125 
L 811.020235 62.526307 
L 811.282516 62.526307 
L 811.544797 58.155852 
L 811.807078 56.699034 
L 812.069359 61.069489 
L 812.331639 59.61267 
L 812.59392 55.242216 
L 812.856201 56.699034 
L 813.380762 56.699034 
L 813.643043 58.155852 
L 814.429885 53.785398 
L 814.692166 50.871761 
L 814.954447 52.32858 
L 815.216728 56.699034 
L 815.479008 53.785398 
L 815.741289 55.242216 
L 816.00357 53.785398 
L 816.528131 56.699034 
L 816.790412 59.61267 
L 817.314974 59.61267 
L 817.577255 58.155852 
L 817.839535 53.785398 
L 818.101816 56.699034 
L 818.364097 56.699034 
L 818.626378 59.61267 
L 818.888658 55.242216 
L 819.150939 58.155852 
L 819.41322 55.242216 
L 819.675501 56.699034 
L 819.937781 56.699034 
L 820.200062 53.785398 
L 820.724624 53.785398 
L 821.511466 58.155852 
L 822.036027 58.155852 
L 822.298308 55.242216 
L 822.82287 52.32858 
L 823.08515 52.32858 
L 823.347431 50.871761 
L 823.609712 52.32858 
L 823.871993 50.871761 
L 824.134274 52.32858 
L 824.396554 50.871761 
L 824.658835 50.871761 
L 824.921116 49.414943 
L 825.183397 49.414943 
L 825.445677 45.044489 
L 825.707958 45.044489 
L 825.970239 46.501307 
L 826.23252 49.414943 
L 826.4948 47.958125 
L 826.757081 47.958125 
L 827.019362 49.414943 
L 827.281643 45.044489 
L 827.806204 45.044489 
L 828.068485 43.58767 
L 828.330766 43.58767 
L 828.593046 46.501307 
L 828.855327 45.044489 
L 829.117608 47.958125 
L 829.379889 52.32858 
L 829.642169 50.871761 
L 829.90445 47.958125 
L 830.429012 50.871761 
L 830.691293 50.871761 
L 830.953573 52.32858 
L 831.215854 50.871761 
L 831.478135 52.32858 
L 831.740416 49.414943 
L 832.002696 47.958125 
L 832.264977 47.958125 
L 832.527258 45.044489 
L 832.789539 45.044489 
L 833.051819 42.130852 
L 833.838662 42.130852 
L 834.100942 46.501307 
L 834.363223 45.044489 
L 834.887785 45.044489 
L 835.150065 43.58767 
L 835.412346 47.958125 
L 835.674627 49.414943 
L 835.936908 47.958125 
L 836.199188 47.958125 
L 836.461469 49.414943 
L 836.72375 46.501307 
L 836.72375 46.501307 
" clip-path="url(#p21d60d1637)" style="fill: none; stroke: #6baed6; stroke-width: 1.5; stroke-linecap: square"/>
   </g>
   <g id="line2d_30">
    <path d="M 50.14375 438.385398 
L 836.72375 438.385398 
L 836.72375 438.385398 
" clip-path="url(#p21d60d1637)" style="fill: none; stroke: #2ca02c; stroke-width: 1.5; stroke-linecap: square"/>
   </g>
   <g id="line2d_31">
    <path d="M 50.14375 438.385398 
L 836.72375 438.385398 
L 836.72375 438.385398 
" clip-path="url(#p21d60d1637)" style="fill: none; stroke: #08519c; stroke-width: 1.5; stroke-linecap: square"/>
   </g>
   <g id="patch_3">
    <path d="M 50.14375 458.198125 
L 50.14375 22.318125 
" style="fill: none; stroke: #000000; stroke-width: 0.8; stroke-linejoin: miter; stroke-linecap: square"/>
   </g>
   <g id="patch_4">
    <path d="M 836.72375 458.198125 
L 836.72375 22.318125 
" style="fill: none; stroke: #000000; stroke-width: 0.8; stroke-linejoin: miter; stroke-linecap: square"/>
   </g>
   <g id="patch_5">
    <path d="M 50.14375 458.198125 
L 836.72375 458.198125 
" style="fill: none; stroke: #000000; stroke-width: 0.8; stroke-linejoin: miter; stroke-linecap: square"/>
   </g>
   <g id="patch_6">
    <path d="M 50.14375 22.318125 
L 836.72375 22.318125 
" style="fill: none; stroke: #000000; stroke-width: 0.8; stroke-linejoin: miter; stroke-linecap: square"/>
   </g>
   <g id="text_17">
    <text style="font-size: 12px; font-family: 'Palatino Linotype', 'Book Antiqua', 'Palatino', 'DejaVu Serif', serif; text-anchor: middle" x="443.43375" y="16.318125" transform="rotate(-0 443.43375 16.318125)">Reward-Komponenten</text>
   </g>
   <g id="legend_1">
    <g id="patch_7">
     <path d="M 57.14375 74.3525 
L 194.410938 74.3525 
Q 196.410938 74.3525 196.410938 72.3525 
L 196.410938 29.318125 
Q 196.410938 27.318125 194.410938 27.318125 
L 57.14375 27.318125 
Q 55.14375 27.318125 55.14375 29.318125 
L 55.14375 72.3525 
Q 55.14375 74.3525 57.14375 74.3525 
z
" style="fill: #ffffff; opacity: 0.8; stroke: #cccccc; stroke-linejoin: miter"/>
    </g>
    <g id="line2d_32">
     <path d="M 59.14375 35.416562 
L 69.14375 35.416562 
L 79.14375 35.416562 
" style="fill: none; stroke: #6baed6; stroke-width: 1.5; stroke-linecap: square"/>
    </g>
    <g id="text_18">
     <text style="font-size: 10px; font-family: 'Palatino Linotype', 'Book Antiqua', 'Palatino', 'DejaVu Serif', serif; text-anchor: start" x="87.14375" y="38.916562" transform="rotate(-0 87.14375 38.916562)">Final Reward (Env)</text>
    </g>
    <g id="line2d_33">
     <path d="M 59.14375 50.094687 
L 69.14375 50.094687 
L 79.14375 50.094687 
" style="fill: none; stroke: #2ca02c; stroke-width: 1.5; stroke-linecap: square"/>
    </g>
    <g id="text_19">
     <text style="font-size: 10px; font-family: 'Palatino Linotype', 'Book Antiqua', 'Palatino', 'DejaVu Serif', serif; text-anchor: start" x="87.14375" y="53.594687" transform="rotate(-0 87.14375 53.594687)">Step Reward</text>
    </g>
    <g id="line2d_34">
     <path d="M 59.14375 64.772812 
L 69.14375 64.772812 
L 79.14375 64.772812 
" style="fill: none; stroke: #08519c; stroke-width: 1.5; stroke-linecap: square"/>
    </g>
    <g id="text_20">
     <text style="font-size: 10px; font-family: 'Palatino Linotype', 'Book Antiqua', 'Palatino', 'DejaVu Serif', serif; text-anchor: start" x="87.14375" y="68.272812" transform="rotate(-0 87.14375 68.272812)">Final Reward (Rank)</text>
    </g>
   </g>
  </g>
 </g>
 <defs>
  <clipPath id="p21d60d1637">
   <rect x="50.14375" y="22.318125" width="786.58" height="435.88"/>
  </clipPath>
 </defs>
</svg>
