<?xml version="1.0" encoding="utf-8" standalone="no"?>
<!DOCTYPE svg PUBLIC "-//W3C//DTD SVG 1.1//EN"
  "http://www.w3.org/Graphics/SVG/1.1/DTD/svg11.dtd">
<svg xmlns:xlink="http://www.w3.org/1999/xlink" width="856.638125pt" height="567.754375pt" viewBox="0 0 856.638125 567.754375" xmlns="http://www.w3.org/2000/svg" version="1.1">
 <metadata>
  <rdf:RDF xmlns:dc="http://purl.org/dc/elements/1.1/" xmlns:cc="http://creativecommons.org/ns#" xmlns:rdf="http://www.w3.org/1999/02/22-rdf-syntax-ns#">
   <cc:Work>
    <dc:type rdf:resource="http://purl.org/dc/dcmitype/StillImage"/>
    <dc:date>2025-09-25T07:34:49.475093</dc:date>
    <dc:format>image/svg+xml</dc:format>
    <dc:creator>
     <cc:Agent>
      <dc:title>Matplotlib v3.10.3, https://matplotlib.org/</dc:title>
     </cc:Agent>
    </dc:creator>
   </cc:Work>
  </rdf:RDF>
 </metadata>
 <defs>
  <style type="text/css">*{stroke-linejoin: round; stroke-linecap: butt}</style>
 </defs>
 <g id="figure_1">
  <g id="patch_1">
   <path d="M 0 567.754375 
L 856.638125 567.754375 
L 856.638125 0 
L 0 0 
z
" style="fill: #ffffff"/>
  </g>
  <g id="axes_1">
   <g id="patch_2">
    <path d="M 46.965625 530.198125 
L 830.350625 530.198125 
L 830.350625 22.318125 
L 46.965625 22.318125 
z
" style="fill: #ffffff"/>
   </g>
   <g id="FillBetweenPolyCollection_1">
    <defs>
     <path id="mfb548bc305" d="M 86.134875 -489.431231 
L 86.134875 -474.754832 
L 125.304125 -487.749528 
L 164.473375 -470.36451 
L 203.642625 -461.085761 
L 242.811875 -457.103483 
L 281.981125 -477.752925 
L 321.150375 -484.810274 
L 360.319625 -482.630202 
L 399.488875 -477.491868 
L 438.658125 -474.882495 
L 477.827375 -468.975555 
L 516.996625 -462.818397 
L 556.165875 -464.118373 
L 595.335125 -461.345609 
L 634.504375 -457.968873 
L 673.673625 -460.133129 
L 712.842875 -447.595308 
L 752.012125 -445.178122 
L 791.181375 -439.916138 
L 830.350625 -457.103483 
L 830.350625 -466.627626 
L 830.350625 -466.627626 
L 791.181375 -450.147155 
L 752.012125 -455.205457 
L 712.842875 -457.525451 
L 673.673625 -469.519456 
L 634.504375 -467.454086 
L 595.335125 -470.675567 
L 556.165875 -473.316723 
L 516.996625 -472.078923 
L 477.827375 -477.933902 
L 438.658125 -483.531542 
L 399.488875 -485.997719 
L 360.319625 -490.8413 
L 321.150375 -492.890854 
L 281.981125 -486.244217 
L 242.811875 -466.627626 
L 203.642625 -470.427859 
L 164.473375 -479.251907 
L 125.304125 -497.351687 
L 86.134875 -489.431231 
z
"/>
    </defs>
    <g clip-path="url(#pd4bc2ab22f)">
     <use xlink:href="#mfb548bc305" x="0" y="567.754375" style="fill: #1f77b4; fill-opacity: 0.15"/>
    </g>
   </g>
   <g id="FillBetweenPolyCollection_2">
    <defs>
     <path id="mff56e7087a" d="M 86.134875 -108.237668 
L 86.134875 -93.561269 
L 125.304125 -95.773194 
L 164.473375 -94.69501 
L 203.642625 -92.64335 
L 242.811875 -96.255354 
L 281.981125 -99.625446 
L 321.150375 -117.274182 
L 360.319625 -130.937482 
L 399.488875 -149.715031 
L 438.658125 -155.710572 
L 477.827375 -165.298804 
L 516.996625 -168.637138 
L 556.165875 -168.971062 
L 595.335125 -169.805943 
L 634.504375 -173.564154 
L 673.673625 -179.330613 
L 712.842875 -183.595704 
L 752.012125 -184.348619 
L 791.181375 -188.449132 
L 830.350625 -185.68732 
L 830.350625 -197.497683 
L 830.350625 -197.497683 
L 791.181375 -200.318976 
L 752.012125 -196.129424 
L 712.842875 -195.359675 
L 673.673625 -190.99633 
L 634.504375 -185.089023 
L 595.335125 -181.233909 
L 556.165875 -180.37694 
L 516.996625 -180.034124 
L 477.827375 -176.605057 
L 438.658125 -166.737013 
L 399.488875 -160.551233 
L 360.319625 -141.09297 
L 321.150375 -126.840743 
L 281.981125 -108.283887 
L 242.811875 -104.717394 
L 203.642625 -100.885258 
L 164.473375 -103.063223 
L 125.304125 -106.167388 
L 86.134875 -108.237668 
z
"/>
    </defs>
    <g clip-path="url(#pd4bc2ab22f)">
     <use xlink:href="#mff56e7087a" x="0" y="567.754375" style="fill: #ff7f0e; fill-opacity: 0.15"/>
    </g>
   </g>
   <g id="FillBetweenPolyCollection_3">
    <defs>
     <path id="m2e7218b1b3" d="M 86.134875 -202.373241 
L 86.134875 -181.911976 
L 125.304125 -181.556622 
L 164.473375 -180.250327 
L 203.642625 -182.842863 
L 242.811875 -191.71436 
L 281.981125 -197.913621 
L 321.150375 -222.672639 
L 360.319625 -252.051824 
L 399.488875 -295.398333 
L 438.658125 -316.166402 
L 477.827375 -334.512549 
L 516.996625 -335.532801 
L 556.165875 -335.617827 
L 595.335125 -333.917453 
L 634.504375 -338.679264 
L 673.673625 -346.592577 
L 712.842875 -345.145558 
L 752.012125 -348.380383 
L 791.181375 -346.252082 
L 830.350625 -353.660695 
L 830.350625 -366.033293 
L 830.350625 -366.033293 
L 791.181375 -358.72281 
L 752.012125 -360.824134 
L 712.842875 -357.629929 
L 673.673625 -359.059055 
L 634.504375 -351.238162 
L 595.335125 -346.525613 
L 556.165875 -348.208939 
L 516.996625 -348.12478 
L 477.827375 -347.114811 
L 438.658125 -328.916996 
L 399.488875 -308.234738 
L 360.319625 -264.789337 
L 321.150375 -235.122954 
L 281.981125 -209.972394 
L 242.811875 -203.651964 
L 203.642625 -194.58985 
L 164.473375 -191.937651 
L 125.304125 -195.941834 
L 86.134875 -202.373241 
z
"/>
    </defs>
    <g clip-path="url(#pd4bc2ab22f)">
     <use xlink:href="#m2e7218b1b3" x="0" y="567.754375" style="fill: #2ca02c; fill-opacity: 0.15"/>
    </g>
   </g>
   <g id="matplotlib.axis_1">
    <g id="xtick_1">
     <g id="line2d_1">
      <path d="M 46.965625 530.198125 
L 46.965625 22.318125 
" clip-path="url(#pd4bc2ab22f)" style="fill: none; stroke: #b0b0b0; stroke-width: 0.8; stroke-linecap: square"/>
     </g>
     <g id="line2d_2">
      <defs>
       <path id="m6eb99c7ed7" d="M 0 0 
L 0 3.5 
" style="stroke: #000000; stroke-width: 0.8"/>
      </defs>
      <g>
       <use xlink:href="#m6eb99c7ed7" x="46.965625" y="530.198125" style="stroke: #000000; stroke-width: 0.8"/>
      </g>
     </g>
     <g id="text_1">
      <text style="font-size: 10px; font-family: 'Palatino Linotype', 'Book Antiqua', 'Palatino', 'DejaVu Serif', serif; text-anchor: middle" x="46.965625" y="544.796562" transform="rotate(-0 46.965625 544.796562)">0</text>
     </g>
    </g>
    <g id="xtick_2">
     <g id="line2d_3">
      <path d="M 203.642625 530.198125 
L 203.642625 22.318125 
" clip-path="url(#pd4bc2ab22f)" style="fill: none; stroke: #b0b0b0; stroke-width: 0.8; stroke-linecap: square"/>
     </g>
     <g id="line2d_4">
      <g>
       <use xlink:href="#m6eb99c7ed7" x="203.642625" y="530.198125" style="stroke: #000000; stroke-width: 0.8"/>
      </g>
     </g>
     <g id="text_2">
      <text style="font-size: 10px; font-family: 'Palatino Linotype', 'Book Antiqua', 'Palatino', 'DejaVu Serif', serif; text-anchor: middle" x="203.642625" y="544.796562" transform="rotate(-0 203.642625 544.796562)">20000</text>
     </g>
    </g>
    <g id="xtick_3">
     <g id="line2d_5">
      <path d="M 360.319625 530.198125 
L 360.319625 22.318125 
" clip-path="url(#pd4bc2ab22f)" style="fill: none; stroke: #b0b0b0; stroke-width: 0.8; stroke-linecap: square"/>
     </g>
     <g id="line2d_6">
      <g>
       <use xlink:href="#m6eb99c7ed7" x="360.319625" y="530.198125" style="stroke: #000000; stroke-width: 0.8"/>
      </g>
     </g>
     <g id="text_3">
      <text style="font-size: 10px; font-family: 'Palatino Linotype', 'Book Antiqua', 'Palatino', 'DejaVu Serif', serif; text-anchor: middle" x="360.319625" y="544.796562" transform="rotate(-0 360.319625 544.796562)">40000</text>
     </g>
    </g>
    <g id="xtick_4">
     <g id="line2d_7">
      <path d="M 516.996625 530.198125 
L 516.996625 22.318125 
" clip-path="url(#pd4bc2ab22f)" style="fill: none; stroke: #b0b0b0; stroke-width: 0.8; stroke-linecap: square"/>
     </g>
     <g id="line2d_8">
      <g>
       <use xlink:href="#m6eb99c7ed7" x="516.996625" y="530.198125" style="stroke: #000000; stroke-width: 0.8"/>
      </g>
     </g>
     <g id="text_4">
      <text style="font-size: 10px; font-family: 'Palatino Linotype', 'Book Antiqua', 'Palatino', 'DejaVu Serif', serif; text-anchor: middle" x="516.996625" y="544.796562" transform="rotate(-0 516.996625 544.796562)">60000</text>
     </g>
    </g>
    <g id="xtick_5">
     <g id="line2d_9">
      <path d="M 673.673625 530.198125 
L 673.673625 22.318125 
" clip-path="url(#pd4bc2ab22f)" style="fill: none; stroke: #b0b0b0; stroke-width: 0.8; stroke-linecap: square"/>
     </g>
     <g id="line2d_10">
      <g>
       <use xlink:href="#m6eb99c7ed7" x="673.673625" y="530.198125" style="stroke: #000000; stroke-width: 0.8"/>
      </g>
     </g>
     <g id="text_5">
      <text style="font-size: 10px; font-family: 'Palatino Linotype', 'Book Antiqua', 'Palatino', 'DejaVu Serif', serif; text-anchor: middle" x="673.673625" y="544.796562" transform="rotate(-0 673.673625 544.796562)">80000</text>
     </g>
    </g>
    <g id="xtick_6">
     <g id="line2d_11">
      <path d="M 830.350625 530.198125 
L 830.350625 22.318125 
" clip-path="url(#pd4bc2ab22f)" style="fill: none; stroke: #b0b0b0; stroke-width: 0.8; stroke-linecap: square"/>
     </g>
     <g id="line2d_12">
      <g>
       <use xlink:href="#m6eb99c7ed7" x="830.350625" y="530.198125" style="stroke: #000000; stroke-width: 0.8"/>
      </g>
     </g>
     <g id="text_6">
      <text style="font-size: 10px; font-family: 'Palatino Linotype', 'Book Antiqua', 'Palatino', 'DejaVu Serif', serif; text-anchor: middle" x="830.350625" y="544.796562" transform="rotate(-0 830.350625 544.796562)">100000</text>
     </g>
    </g>
    <g id="text_7">
     <text style="font-size: 10px; font-family: 'Palatino Linotype', 'Book Antiqua', 'Palatino', 'DejaVu Serif', serif; text-anchor: middle" x="438.658125" y="558.474687" transform="rotate(-0 438.658125 558.474687)">Episode</text>
    </g>
   </g>
   <g id="matplotlib.axis_2">
    <g id="ytick_1">
     <g id="line2d_13">
      <path d="M 46.965625 530.198125 
L 830.350625 530.198125 
" clip-path="url(#pd4bc2ab22f)" style="fill: none; stroke: #b0b0b0; stroke-width: 0.8; stroke-linecap: square"/>
     </g>
     <g id="line2d_14">
      <defs>
       <path id="mc8ae974532" d="M 0 0 
L -3.5 0 
" style="stroke: #000000; stroke-width: 0.8"/>
      </defs>
      <g>
       <use xlink:href="#mc8ae974532" x="46.965625" y="530.198125" style="stroke: #000000; stroke-width: 0.8"/>
      </g>
     </g>
     <g id="text_8">
      <text style="font-size: 10px; font-family: 'Palatino Linotype', 'Book Antiqua', 'Palatino', 'DejaVu Serif', serif; text-anchor: end" x="39.965625" y="533.997344" transform="rotate(-0 39.965625 533.997344)">0</text>
     </g>
    </g>
    <g id="ytick_2">
     <g id="line2d_15">
      <path d="M 46.965625 428.622125 
L 830.350625 428.622125 
" clip-path="url(#pd4bc2ab22f)" style="fill: none; stroke: #b0b0b0; stroke-width: 0.8; stroke-linecap: square"/>
     </g>
     <g id="line2d_16">
      <g>
       <use xlink:href="#mc8ae974532" x="46.965625" y="428.622125" style="stroke: #000000; stroke-width: 0.8"/>
      </g>
     </g>
     <g id="text_9">
      <text style="font-size: 10px; font-family: 'Palatino Linotype', 'Book Antiqua', 'Palatino', 'DejaVu Serif', serif; text-anchor: end" x="39.965625" y="432.421344" transform="rotate(-0 39.965625 432.421344)">20</text>
     </g>
    </g>
    <g id="ytick_3">
     <g id="line2d_17">
      <path d="M 46.965625 327.046125 
L 830.350625 327.046125 
" clip-path="url(#pd4bc2ab22f)" style="fill: none; stroke: #b0b0b0; stroke-width: 0.8; stroke-linecap: square"/>
     </g>
     <g id="line2d_18">
      <g>
       <use xlink:href="#mc8ae974532" x="46.965625" y="327.046125" style="stroke: #000000; stroke-width: 0.8"/>
      </g>
     </g>
     <g id="text_10">
      <text style="font-size: 10px; font-family: 'Palatino Linotype', 'Book Antiqua', 'Palatino', 'DejaVu Serif', serif; text-anchor: end" x="39.965625" y="330.845344" transform="rotate(-0 39.965625 330.845344)">40</text>
     </g>
    </g>
    <g id="ytick_4">
     <g id="line2d_19">
      <path d="M 46.965625 225.470125 
L 830.350625 225.470125 
" clip-path="url(#pd4bc2ab22f)" style="fill: none; stroke: #b0b0b0; stroke-width: 0.8; stroke-linecap: square"/>
     </g>
     <g id="line2d_20">
      <g>
       <use xlink:href="#mc8ae974532" x="46.965625" y="225.470125" style="stroke: #000000; stroke-width: 0.8"/>
      </g>
     </g>
     <g id="text_11">
      <text style="font-size: 10px; font-family: 'Palatino Linotype', 'Book Antiqua', 'Palatino', 'DejaVu Serif', serif; text-anchor: end" x="39.965625" y="229.269344" transform="rotate(-0 39.965625 229.269344)">60</text>
     </g>
    </g>
    <g id="ytick_5">
     <g id="line2d_21">
      <path d="M 46.965625 123.894125 
L 830.350625 123.894125 
" clip-path="url(#pd4bc2ab22f)" style="fill: none; stroke: #b0b0b0; stroke-width: 0.8; stroke-linecap: square"/>
     </g>
     <g id="line2d_22">
      <g>
       <use xlink:href="#mc8ae974532" x="46.965625" y="123.894125" style="stroke: #000000; stroke-width: 0.8"/>
      </g>
     </g>
     <g id="text_12">
      <text style="font-size: 10px; font-family: 'Palatino Linotype', 'Book Antiqua', 'Palatino', 'DejaVu Serif', serif; text-anchor: end" x="39.965625" y="127.693344" transform="rotate(-0 39.965625 127.693344)">80</text>
     </g>
    </g>
    <g id="ytick_6">
     <g id="line2d_23">
      <path d="M 46.965625 22.318125 
L 830.350625 22.318125 
" clip-path="url(#pd4bc2ab22f)" style="fill: none; stroke: #b0b0b0; stroke-width: 0.8; stroke-linecap: square"/>
     </g>
     <g id="line2d_24">
      <g>
       <use xlink:href="#mc8ae974532" x="46.965625" y="22.318125" style="stroke: #000000; stroke-width: 0.8"/>
      </g>
     </g>
     <g id="text_13">
      <text style="font-size: 10px; font-family: 'Palatino Linotype', 'Book Antiqua', 'Palatino', 'DejaVu Serif', serif; text-anchor: end" x="39.965625" y="26.117344" transform="rotate(-0 39.965625 26.117344)">100</text>
     </g>
    </g>
    <g id="text_14">
     <text style="font-size: 10px; font-family: 'Palatino Linotype', 'Book Antiqua', 'Palatino', 'DejaVu Serif', serif; text-anchor: middle" x="14.798438" y="276.258125" transform="rotate(-90 14.798438 276.258125)">Winrate (%)</text>
    </g>
   </g>
   <g id="line2d_25">
    <path d="M 86.134875 85.295245 
L 125.304125 75.010675 
L 164.473375 92.828798 
L 203.642625 101.885992 
L 242.811875 105.779738 
L 281.981125 85.633832 
L 321.150375 78.777452 
L 360.319625 80.893618 
L 399.488875 85.887772 
L 438.658125 88.427172 
L 477.827375 94.183145 
L 516.996625 100.193058 
L 556.165875 98.923358 
L 595.335125 101.632052 
L 634.504375 104.933272 
L 673.673625 102.817105 
L 712.842875 115.090872 
L 752.012125 117.460978 
L 791.181375 122.624425 
L 830.350625 105.779738 
" clip-path="url(#pd4bc2ab22f)" style="fill: none; stroke: #1f77b4; stroke-width: 1.5; stroke-linecap: square"/>
    <defs>
     <path id="m6092386ffe" d="M 0 1.5 
C 0.397805 1.5 0.77937 1.341951 1.06066 1.06066 
C 1.341951 0.77937 1.5 0.397805 1.5 0 
C 1.5 -0.397805 1.341951 -0.77937 1.06066 -1.06066 
C 0.77937 -1.341951 0.397805 -1.5 0 -1.5 
C -0.397805 -1.5 -0.77937 -1.341951 -1.06066 -1.06066 
C -1.341951 -0.77937 -1.5 -0.397805 -1.5 0 
C -1.5 0.397805 -1.341951 0.77937 -1.06066 1.06066 
C -0.77937 1.341951 -0.397805 1.5 0 1.5 
z
" style="stroke: #1f77b4"/>
    </defs>
    <g clip-path="url(#pd4bc2ab22f)">
     <use xlink:href="#m6092386ffe" x="86.134875" y="85.295245" style="fill: #1f77b4; stroke: #1f77b4"/>
     <use xlink:href="#m6092386ffe" x="125.304125" y="75.010675" style="fill: #1f77b4; stroke: #1f77b4"/>
     <use xlink:href="#m6092386ffe" x="164.473375" y="92.828798" style="fill: #1f77b4; stroke: #1f77b4"/>
     <use xlink:href="#m6092386ffe" x="203.642625" y="101.885992" style="fill: #1f77b4; stroke: #1f77b4"/>
     <use xlink:href="#m6092386ffe" x="242.811875" y="105.779738" style="fill: #1f77b4; stroke: #1f77b4"/>
     <use xlink:href="#m6092386ffe" x="281.981125" y="85.633832" style="fill: #1f77b4; stroke: #1f77b4"/>
     <use xlink:href="#m6092386ffe" x="321.150375" y="78.777452" style="fill: #1f77b4; stroke: #1f77b4"/>
     <use xlink:href="#m6092386ffe" x="360.319625" y="80.893618" style="fill: #1f77b4; stroke: #1f77b4"/>
     <use xlink:href="#m6092386ffe" x="399.488875" y="85.887772" style="fill: #1f77b4; stroke: #1f77b4"/>
     <use xlink:href="#m6092386ffe" x="438.658125" y="88.427172" style="fill: #1f77b4; stroke: #1f77b4"/>
     <use xlink:href="#m6092386ffe" x="477.827375" y="94.183145" style="fill: #1f77b4; stroke: #1f77b4"/>
     <use xlink:href="#m6092386ffe" x="516.996625" y="100.193058" style="fill: #1f77b4; stroke: #1f77b4"/>
     <use xlink:href="#m6092386ffe" x="556.165875" y="98.923358" style="fill: #1f77b4; stroke: #1f77b4"/>
     <use xlink:href="#m6092386ffe" x="595.335125" y="101.632052" style="fill: #1f77b4; stroke: #1f77b4"/>
     <use xlink:href="#m6092386ffe" x="634.504375" y="104.933272" style="fill: #1f77b4; stroke: #1f77b4"/>
     <use xlink:href="#m6092386ffe" x="673.673625" y="102.817105" style="fill: #1f77b4; stroke: #1f77b4"/>
     <use xlink:href="#m6092386ffe" x="712.842875" y="115.090872" style="fill: #1f77b4; stroke: #1f77b4"/>
     <use xlink:href="#m6092386ffe" x="752.012125" y="117.460978" style="fill: #1f77b4; stroke: #1f77b4"/>
     <use xlink:href="#m6092386ffe" x="791.181375" y="122.624425" style="fill: #1f77b4; stroke: #1f77b4"/>
     <use xlink:href="#m6092386ffe" x="830.350625" y="105.779738" style="fill: #1f77b4; stroke: #1f77b4"/>
    </g>
   </g>
   <g id="line2d_26">
    <path d="M 86.134875 467.221005 
L 125.304125 466.967065 
L 164.473375 468.998585 
L 203.642625 471.114752 
L 242.811875 467.390298 
L 281.981125 463.919785 
L 321.150375 445.805398 
L 360.319625 431.838698 
L 399.488875 412.708552 
L 438.658125 406.613992 
L 477.827375 396.879625 
L 516.996625 393.493758 
L 556.165875 393.155172 
L 595.335125 392.308705 
L 634.504375 388.499605 
L 673.673625 382.658985 
L 712.842875 378.342005 
L 752.012125 377.580185 
L 791.181375 373.432498 
L 830.350625 376.225838 
" clip-path="url(#pd4bc2ab22f)" style="fill: none; stroke: #ff7f0e; stroke-width: 1.5; stroke-linecap: square"/>
    <defs>
     <path id="m9b887b501d" d="M 0 1.5 
C 0.397805 1.5 0.77937 1.341951 1.06066 1.06066 
C 1.341951 0.77937 1.5 0.397805 1.5 0 
C 1.5 -0.397805 1.341951 -0.77937 1.06066 -1.06066 
C 0.77937 -1.341951 0.397805 -1.5 0 -1.5 
C -0.397805 -1.5 -0.77937 -1.341951 -1.06066 -1.06066 
C -1.341951 -0.77937 -1.5 -0.397805 -1.5 0 
C -1.5 0.397805 -1.341951 0.77937 -1.06066 1.06066 
C -0.77937 1.341951 -0.397805 1.5 0 1.5 
z
" style="stroke: #ff7f0e"/>
    </defs>
    <g clip-path="url(#pd4bc2ab22f)">
     <use xlink:href="#m9b887b501d" x="86.134875" y="467.221005" style="fill: #ff7f0e; stroke: #ff7f0e"/>
     <use xlink:href="#m9b887b501d" x="125.304125" y="466.967065" style="fill: #ff7f0e; stroke: #ff7f0e"/>
     <use xlink:href="#m9b887b501d" x="164.473375" y="468.998585" style="fill: #ff7f0e; stroke: #ff7f0e"/>
     <use xlink:href="#m9b887b501d" x="203.642625" y="471.114752" style="fill: #ff7f0e; stroke: #ff7f0e"/>
     <use xlink:href="#m9b887b501d" x="242.811875" y="467.390298" style="fill: #ff7f0e; stroke: #ff7f0e"/>
     <use xlink:href="#m9b887b501d" x="281.981125" y="463.919785" style="fill: #ff7f0e; stroke: #ff7f0e"/>
     <use xlink:href="#m9b887b501d" x="321.150375" y="445.805398" style="fill: #ff7f0e; stroke: #ff7f0e"/>
     <use xlink:href="#m9b887b501d" x="360.319625" y="431.838698" style="fill: #ff7f0e; stroke: #ff7f0e"/>
     <use xlink:href="#m9b887b501d" x="399.488875" y="412.708552" style="fill: #ff7f0e; stroke: #ff7f0e"/>
     <use xlink:href="#m9b887b501d" x="438.658125" y="406.613992" style="fill: #ff7f0e; stroke: #ff7f0e"/>
     <use xlink:href="#m9b887b501d" x="477.827375" y="396.879625" style="fill: #ff7f0e; stroke: #ff7f0e"/>
     <use xlink:href="#m9b887b501d" x="516.996625" y="393.493758" style="fill: #ff7f0e; stroke: #ff7f0e"/>
     <use xlink:href="#m9b887b501d" x="556.165875" y="393.155172" style="fill: #ff7f0e; stroke: #ff7f0e"/>
     <use xlink:href="#m9b887b501d" x="595.335125" y="392.308705" style="fill: #ff7f0e; stroke: #ff7f0e"/>
     <use xlink:href="#m9b887b501d" x="634.504375" y="388.499605" style="fill: #ff7f0e; stroke: #ff7f0e"/>
     <use xlink:href="#m9b887b501d" x="673.673625" y="382.658985" style="fill: #ff7f0e; stroke: #ff7f0e"/>
     <use xlink:href="#m9b887b501d" x="712.842875" y="378.342005" style="fill: #ff7f0e; stroke: #ff7f0e"/>
     <use xlink:href="#m9b887b501d" x="752.012125" y="377.580185" style="fill: #ff7f0e; stroke: #ff7f0e"/>
     <use xlink:href="#m9b887b501d" x="791.181375" y="373.432498" style="fill: #ff7f0e; stroke: #ff7f0e"/>
     <use xlink:href="#m9b887b501d" x="830.350625" y="376.225838" style="fill: #ff7f0e; stroke: #ff7f0e"/>
    </g>
   </g>
   <g id="line2d_27">
    <path d="M 86.134875 375.802605 
L 125.304125 379.103825 
L 164.473375 381.727872 
L 203.642625 379.103825 
L 242.811875 370.131278 
L 281.981125 363.867425 
L 321.150375 338.896658 
L 360.319625 309.354972 
L 399.488875 265.931232 
L 438.658125 245.192798 
L 477.827375 226.909118 
L 516.996625 225.893358 
L 556.165875 225.808712 
L 595.335125 227.501645 
L 634.504375 222.761432 
L 673.673625 214.889292 
L 712.842875 216.328285 
L 752.012125 213.111712 
L 791.181375 215.227878 
L 830.350625 207.863618 
" clip-path="url(#pd4bc2ab22f)" style="fill: none; stroke: #2ca02c; stroke-width: 1.5; stroke-linecap: square"/>
    <defs>
     <path id="m40dd792667" d="M 0 1.5 
C 0.397805 1.5 0.77937 1.341951 1.06066 1.06066 
C 1.341951 0.77937 1.5 0.397805 1.5 0 
C 1.5 -0.397805 1.341951 -0.77937 1.06066 -1.06066 
C 0.77937 -1.341951 0.397805 -1.5 0 -1.5 
C -0.397805 -1.5 -0.77937 -1.341951 -1.06066 -1.06066 
C -1.341951 -0.77937 -1.5 -0.397805 -1.5 0 
C -1.5 0.397805 -1.341951 0.77937 -1.06066 1.06066 
C -0.77937 1.341951 -0.397805 1.5 0 1.5 
z
" style="stroke: #2ca02c"/>
    </defs>
    <g clip-path="url(#pd4bc2ab22f)">
     <use xlink:href="#m40dd792667" x="86.134875" y="375.802605" style="fill: #2ca02c; stroke: #2ca02c"/>
     <use xlink:href="#m40dd792667" x="125.304125" y="379.103825" style="fill: #2ca02c; stroke: #2ca02c"/>
     <use xlink:href="#m40dd792667" x="164.473375" y="381.727872" style="fill: #2ca02c; stroke: #2ca02c"/>
     <use xlink:href="#m40dd792667" x="203.642625" y="379.103825" style="fill: #2ca02c; stroke: #2ca02c"/>
     <use xlink:href="#m40dd792667" x="242.811875" y="370.131278" style="fill: #2ca02c; stroke: #2ca02c"/>
     <use xlink:href="#m40dd792667" x="281.981125" y="363.867425" style="fill: #2ca02c; stroke: #2ca02c"/>
     <use xlink:href="#m40dd792667" x="321.150375" y="338.896658" style="fill: #2ca02c; stroke: #2ca02c"/>
     <use xlink:href="#m40dd792667" x="360.319625" y="309.354972" style="fill: #2ca02c; stroke: #2ca02c"/>
     <use xlink:href="#m40dd792667" x="399.488875" y="265.931232" style="fill: #2ca02c; stroke: #2ca02c"/>
     <use xlink:href="#m40dd792667" x="438.658125" y="245.192798" style="fill: #2ca02c; stroke: #2ca02c"/>
     <use xlink:href="#m40dd792667" x="477.827375" y="226.909118" style="fill: #2ca02c; stroke: #2ca02c"/>
     <use xlink:href="#m40dd792667" x="516.996625" y="225.893358" style="fill: #2ca02c; stroke: #2ca02c"/>
     <use xlink:href="#m40dd792667" x="556.165875" y="225.808712" style="fill: #2ca02c; stroke: #2ca02c"/>
     <use xlink:href="#m40dd792667" x="595.335125" y="227.501645" style="fill: #2ca02c; stroke: #2ca02c"/>
     <use xlink:href="#m40dd792667" x="634.504375" y="222.761432" style="fill: #2ca02c; stroke: #2ca02c"/>
     <use xlink:href="#m40dd792667" x="673.673625" y="214.889292" style="fill: #2ca02c; stroke: #2ca02c"/>
     <use xlink:href="#m40dd792667" x="712.842875" y="216.328285" style="fill: #2ca02c; stroke: #2ca02c"/>
     <use xlink:href="#m40dd792667" x="752.012125" y="213.111712" style="fill: #2ca02c; stroke: #2ca02c"/>
     <use xlink:href="#m40dd792667" x="791.181375" y="215.227878" style="fill: #2ca02c; stroke: #2ca02c"/>
     <use xlink:href="#m40dd792667" x="830.350625" y="207.863618" style="fill: #2ca02c; stroke: #2ca02c"/>
    </g>
   </g>
   <g id="line2d_28">
    <path d="M 86.134875 309.439618 
L 125.304125 307.027188 
L 164.473375 314.518418 
L 203.642625 317.368189 
L 242.811875 314.433772 
L 281.981125 304.473681 
L 321.150375 287.826503 
L 360.319625 274.029096 
L 399.488875 254.842518 
L 438.658125 246.744654 
L 477.827375 239.323963 
L 516.996625 239.860058 
L 556.165875 239.295747 
L 595.335125 240.480801 
L 634.504375 238.731436 
L 673.673625 233.455127 
L 712.842875 236.587054 
L 752.012125 236.050958 
L 791.181375 237.094934 
L 830.350625 229.956398 
" clip-path="url(#pd4bc2ab22f)" style="fill: none; stroke-dasharray: 5.55,2.4; stroke-dashoffset: 0; stroke: #444444; stroke-width: 1.5"/>
    <defs>
     <path id="mdb4aa36c4c" d="M 0 1.5 
C 0.397805 1.5 0.77937 1.341951 1.06066 1.06066 
C 1.341951 0.77937 1.5 0.397805 1.5 0 
C 1.5 -0.397805 1.341951 -0.77937 1.06066 -1.06066 
C 0.77937 -1.341951 0.397805 -1.5 0 -1.5 
C -0.397805 -1.5 -0.77937 -1.341951 -1.06066 -1.06066 
C -1.341951 -0.77937 -1.5 -0.397805 -1.5 0 
C -1.5 0.397805 -1.341951 0.77937 -1.06066 1.06066 
C -0.77937 1.341951 -0.397805 1.5 0 1.5 
z
" style="stroke: #444444"/>
    </defs>
    <g clip-path="url(#pd4bc2ab22f)">
     <use xlink:href="#mdb4aa36c4c" x="86.134875" y="309.439618" style="fill: #444444; stroke: #444444"/>
     <use xlink:href="#mdb4aa36c4c" x="125.304125" y="307.027188" style="fill: #444444; stroke: #444444"/>
     <use xlink:href="#mdb4aa36c4c" x="164.473375" y="314.518418" style="fill: #444444; stroke: #444444"/>
     <use xlink:href="#mdb4aa36c4c" x="203.642625" y="317.368189" style="fill: #444444; stroke: #444444"/>
     <use xlink:href="#mdb4aa36c4c" x="242.811875" y="314.433772" style="fill: #444444; stroke: #444444"/>
     <use xlink:href="#mdb4aa36c4c" x="281.981125" y="304.473681" style="fill: #444444; stroke: #444444"/>
     <use xlink:href="#mdb4aa36c4c" x="321.150375" y="287.826503" style="fill: #444444; stroke: #444444"/>
     <use xlink:href="#mdb4aa36c4c" x="360.319625" y="274.029096" style="fill: #444444; stroke: #444444"/>
     <use xlink:href="#mdb4aa36c4c" x="399.488875" y="254.842518" style="fill: #444444; stroke: #444444"/>
     <use xlink:href="#mdb4aa36c4c" x="438.658125" y="246.744654" style="fill: #444444; stroke: #444444"/>
     <use xlink:href="#mdb4aa36c4c" x="477.827375" y="239.323963" style="fill: #444444; stroke: #444444"/>
     <use xlink:href="#mdb4aa36c4c" x="516.996625" y="239.860058" style="fill: #444444; stroke: #444444"/>
     <use xlink:href="#mdb4aa36c4c" x="556.165875" y="239.295747" style="fill: #444444; stroke: #444444"/>
     <use xlink:href="#mdb4aa36c4c" x="595.335125" y="240.480801" style="fill: #444444; stroke: #444444"/>
     <use xlink:href="#mdb4aa36c4c" x="634.504375" y="238.731436" style="fill: #444444; stroke: #444444"/>
     <use xlink:href="#mdb4aa36c4c" x="673.673625" y="233.455127" style="fill: #444444; stroke: #444444"/>
     <use xlink:href="#mdb4aa36c4c" x="712.842875" y="236.587054" style="fill: #444444; stroke: #444444"/>
     <use xlink:href="#mdb4aa36c4c" x="752.012125" y="236.050958" style="fill: #444444; stroke: #444444"/>
     <use xlink:href="#mdb4aa36c4c" x="791.181375" y="237.094934" style="fill: #444444; stroke: #444444"/>
     <use xlink:href="#mdb4aa36c4c" x="830.350625" y="229.956398" style="fill: #444444; stroke: #444444"/>
    </g>
   </g>
   <g id="line2d_29">
    <path d="M 46.965625 403.228125 
L 830.350625 403.228125 
" clip-path="url(#pd4bc2ab22f)" style="fill: none; stroke: #ff0000; stroke-linecap: square"/>
   </g>
   <g id="patch_3">
    <path d="M 46.965625 530.198125 
L 46.965625 22.318125 
" style="fill: none; stroke: #000000; stroke-width: 0.8; stroke-linejoin: miter; stroke-linecap: square"/>
   </g>
   <g id="patch_4">
    <path d="M 830.350625 530.198125 
L 830.350625 22.318125 
" style="fill: none; stroke: #000000; stroke-width: 0.8; stroke-linejoin: miter; stroke-linecap: square"/>
   </g>
   <g id="patch_5">
    <path d="M 46.965625 530.198125 
L 830.350625 530.198125 
" style="fill: none; stroke: #000000; stroke-width: 0.8; stroke-linejoin: miter; stroke-linecap: square"/>
   </g>
   <g id="patch_6">
    <path d="M 46.965625 22.318125 
L 830.350625 22.318125 
" style="fill: none; stroke: #000000; stroke-width: 0.8; stroke-linejoin: miter; stroke-linecap: square"/>
   </g>
   <g id="text_15">
    <text style="font-size: 12px; font-family: 'Palatino Linotype', 'Book Antiqua', 'Palatino', 'DejaVu Serif', serif; text-anchor: middle" x="438.658125" y="16.318125" transform="rotate(-0 438.658125 16.318125)">Lernkurve (Benchmark) - K4A2 vs. feste Heuristiken</text>
   </g>
   <g id="legend_1">
    <g id="patch_7">
     <path d="M 730.755313 103.993125 
L 823.350625 103.993125 
Q 825.350625 103.993125 825.350625 101.993125 
L 825.350625 29.318125 
Q 825.350625 27.318125 823.350625 27.318125 
L 730.755313 27.318125 
Q 728.755313 27.318125 728.755313 29.318125 
L 728.755313 101.993125 
Q 728.755313 103.993125 730.755313 103.993125 
z
" style="fill: #ffffff; opacity: 0.8; stroke: #cccccc; stroke-linejoin: miter"/>
    </g>
    <g id="line2d_30">
     <path d="M 732.755313 35.416562 
L 742.755313 35.416562 
L 752.755313 35.416562 
" style="fill: none; stroke: #1f77b4; stroke-width: 1.5; stroke-linecap: square"/>
     <g>
      <use xlink:href="#m6092386ffe" x="742.755313" y="35.416562" style="fill: #1f77b4; stroke: #1f77b4"/>
     </g>
    </g>
    <g id="text_16">
     <text style="font-size: 10px; font-family: 'Palatino Linotype', 'Book Antiqua', 'Palatino', 'DejaVu Serif', serif; text-anchor: start" x="760.755313" y="38.916562" transform="rotate(-0 760.755313 38.916562)">Single Only</text>
    </g>
    <g id="line2d_31">
     <path d="M 732.755313 50.236875 
L 742.755313 50.236875 
L 752.755313 50.236875 
" style="fill: none; stroke: #ff7f0e; stroke-width: 1.5; stroke-linecap: square"/>
     <g>
      <use xlink:href="#m9b887b501d" x="742.755313" y="50.236875" style="fill: #ff7f0e; stroke: #ff7f0e"/>
     </g>
    </g>
    <g id="text_17">
     <text style="font-size: 10px; font-family: 'Palatino Linotype', 'Book Antiqua', 'Palatino', 'DejaVu Serif', serif; text-anchor: start" x="760.755313" y="53.736875" transform="rotate(-0 760.755313 53.736875)">Max Combo</text>
    </g>
    <g id="line2d_32">
     <path d="M 732.755313 64.915 
L 742.755313 64.915 
L 752.755313 64.915 
" style="fill: none; stroke: #2ca02c; stroke-width: 1.5; stroke-linecap: square"/>
     <g>
      <use xlink:href="#m40dd792667" x="742.755313" y="64.915" style="fill: #2ca02c; stroke: #2ca02c"/>
     </g>
    </g>
    <g id="text_18">
     <text style="font-size: 10px; font-family: 'Palatino Linotype', 'Book Antiqua', 'Palatino', 'DejaVu Serif', serif; text-anchor: start" x="760.755313" y="68.415" transform="rotate(-0 760.755313 68.415)">Random 2</text>
    </g>
    <g id="line2d_33">
     <path d="M 732.755313 79.593125 
L 742.755313 79.593125 
L 752.755313 79.593125 
" style="fill: none; stroke-dasharray: 5.55,2.4; stroke-dashoffset: 0; stroke: #444444; stroke-width: 1.5"/>
     <g>
      <use xlink:href="#mdb4aa36c4c" x="742.755313" y="79.593125" style="fill: #444444; stroke: #444444"/>
     </g>
    </g>
    <g id="text_19">
     <text style="font-size: 10px; font-family: 'Palatino Linotype', 'Book Antiqua', 'Palatino', 'DejaVu Serif', serif; text-anchor: start" x="760.755313" y="83.093125" transform="rotate(-0 760.755313 83.093125)">Avg Macro</text>
    </g>
    <g id="line2d_34">
     <path d="M 732.755313 94.413437 
L 742.755313 94.413437 
L 752.755313 94.413437 
" style="fill: none; stroke: #ff0000; stroke-linecap: square"/>
    </g>
    <g id="text_20">
     <text style="font-size: 10px; font-family: 'Palatino Linotype', 'Book Antiqua', 'Palatino', 'DejaVu Serif', serif; text-anchor: start" x="760.755313" y="97.913437" transform="rotate(-0 760.755313 97.913437)">25% Linie</text>
    </g>
   </g>
  </g>
 </g>
 <defs>
  <clipPath id="pd4bc2ab22f">
   <rect x="46.965625" y="22.318125" width="783.385" height="507.88"/>
  </clipPath>
 </defs>
</svg>
