<?xml version="1.0" encoding="utf-8" standalone="no"?>
<!DOCTYPE svg PUBLIC "-//W3C//DTD SVG 1.1//EN"
  "http://www.w3.org/Graphics/SVG/1.1/DTD/svg11.dtd">
<svg xmlns:xlink="http://www.w3.org/1999/xlink" width="856.606875pt" height="567.754375pt" viewBox="0 0 856.606875 567.754375" xmlns="http://www.w3.org/2000/svg" version="1.1">
 <metadata>
  <rdf:RDF xmlns:dc="http://purl.org/dc/elements/1.1/" xmlns:cc="http://creativecommons.org/ns#" xmlns:rdf="http://www.w3.org/1999/02/22-rdf-syntax-ns#">
   <cc:Work>
    <dc:type rdf:resource="http://purl.org/dc/dcmitype/StillImage"/>
    <dc:date>2025-09-24T23:20:14.260165</dc:date>
    <dc:format>image/svg+xml</dc:format>
    <dc:creator>
     <cc:Agent>
      <dc:title>Matplotlib v3.10.3, https://matplotlib.org/</dc:title>
     </cc:Agent>
    </dc:creator>
   </cc:Work>
  </rdf:RDF>
 </metadata>
 <defs>
  <style type="text/css">*{stroke-linejoin: round; stroke-linecap: butt}</style>
 </defs>
 <g id="figure_1">
  <g id="patch_1">
   <path d="M 0 567.754375 
L 856.606875 567.754375 
L 856.606875 0 
L 0 0 
z
" style="fill: #ffffff"/>
  </g>
  <g id="axes_1">
   <g id="patch_2">
    <path d="M 46.965625 530.198125 
L 833.500625 530.198125 
L 833.500625 22.318125 
L 46.965625 22.318125 
z
" style="fill: #ffffff"/>
   </g>
   <g id="FillBetweenPolyCollection_1">
    <defs>
     <path id="mba8b957049" d="M 145.2825 -498.312866 
L 145.2825 -484.628732 
L 243.599375 -475.381063 
L 341.91625 -463.858343 
L 440.233125 -464.806091 
L 538.55 -463.976052 
L 636.866875 -461.1836 
L 735.18375 -463.769152 
L 833.500625 -472.984875 
L 833.500625 -479.805356 
L 833.500625 -479.805356 
L 735.18375 -470.947494 
L 636.866875 -468.456196 
L 538.55 -471.146741 
L 440.233125 -472.770318 
L 341.91625 -473.069197 
L 243.599375 -485.872695 
L 145.2825 -498.312866 
z
"/>
    </defs>
    <g clip-path="url(#peaf76490e5)">
     <use xlink:href="#mba8b957049" x="0" y="567.754375" style="fill: #1f77b4; fill-opacity: 0.15"/>
    </g>
   </g>
   <g id="FillBetweenPolyCollection_2">
    <defs>
     <path id="m9205f2ee3f" d="M 145.2825 -214.492336 
L 145.2825 -193.617479 
L 243.599375 -206.125039 
L 341.91625 -214.439744 
L 440.233125 -221.771624 
L 538.55 -225.338998 
L 636.866875 -233.880097 
L 735.18375 -239.038027 
L 833.500625 -243.135588 
L 833.500625 -252.941245 
L 833.500625 -252.941245 
L 735.18375 -248.81431 
L 636.866875 -243.615467 
L 538.55 -234.996814 
L 440.233125 -232.535091 
L 341.91625 -226.775717 
L 243.599375 -221.097902 
L 145.2825 -214.492336 
z
"/>
    </defs>
    <g clip-path="url(#peaf76490e5)">
     <use xlink:href="#m9205f2ee3f" x="0" y="567.754375" style="fill: #ff7f0e; fill-opacity: 0.15"/>
    </g>
   </g>
   <g id="FillBetweenPolyCollection_3">
    <defs>
     <path id="m8005db296b" d="M 145.2825 -358.855601 
L 145.2825 -337.177012 
L 243.599375 -358.948541 
L 341.91625 -373.105485 
L 440.233125 -378.44815 
L 538.55 -381.562216 
L 636.866875 -392.569299 
L 735.18375 -398.30802 
L 833.500625 -398.923085 
L 833.500625 -407.856949 
L 833.500625 -407.856949 
L 735.18375 -407.253569 
L 636.866875 -401.620147 
L 538.55 -390.796777 
L 440.233125 -388.816303 
L 341.91625 -385.162685 
L 243.599375 -373.978502 
L 145.2825 -358.855601 
z
"/>
    </defs>
    <g clip-path="url(#peaf76490e5)">
     <use xlink:href="#m8005db296b" x="0" y="567.754375" style="fill: #2ca02c; fill-opacity: 0.15"/>
    </g>
   </g>
   <g id="matplotlib.axis_1">
    <g id="xtick_1">
     <g id="line2d_1">
      <path d="M 46.965625 530.198125 
L 46.965625 22.318125 
" clip-path="url(#peaf76490e5)" style="fill: none; stroke: #b0b0b0; stroke-width: 0.8; stroke-linecap: square"/>
     </g>
     <g id="line2d_2">
      <defs>
       <path id="m296675156c" d="M 0 0 
L 0 3.5 
" style="stroke: #000000; stroke-width: 0.8"/>
      </defs>
      <g>
       <use xlink:href="#m296675156c" x="46.965625" y="530.198125" style="stroke: #000000; stroke-width: 0.8"/>
      </g>
     </g>
     <g id="text_1">
      <text style="font-size: 10px; font-family: 'Palatino Linotype', 'Book Antiqua', 'Palatino', 'DejaVu Serif', serif; text-anchor: middle" x="46.965625" y="544.796562" transform="rotate(-0 46.965625 544.796562)">0</text>
     </g>
    </g>
    <g id="xtick_2">
     <g id="line2d_3">
      <path d="M 145.2825 530.198125 
L 145.2825 22.318125 
" clip-path="url(#peaf76490e5)" style="fill: none; stroke: #b0b0b0; stroke-width: 0.8; stroke-linecap: square"/>
     </g>
     <g id="line2d_4">
      <g>
       <use xlink:href="#m296675156c" x="145.2825" y="530.198125" style="stroke: #000000; stroke-width: 0.8"/>
      </g>
     </g>
     <g id="text_2">
      <text style="font-size: 10px; font-family: 'Palatino Linotype', 'Book Antiqua', 'Palatino', 'DejaVu Serif', serif; text-anchor: middle" x="145.2825" y="544.796562" transform="rotate(-0 145.2825 544.796562)">5000</text>
     </g>
    </g>
    <g id="xtick_3">
     <g id="line2d_5">
      <path d="M 243.599375 530.198125 
L 243.599375 22.318125 
" clip-path="url(#peaf76490e5)" style="fill: none; stroke: #b0b0b0; stroke-width: 0.8; stroke-linecap: square"/>
     </g>
     <g id="line2d_6">
      <g>
       <use xlink:href="#m296675156c" x="243.599375" y="530.198125" style="stroke: #000000; stroke-width: 0.8"/>
      </g>
     </g>
     <g id="text_3">
      <text style="font-size: 10px; font-family: 'Palatino Linotype', 'Book Antiqua', 'Palatino', 'DejaVu Serif', serif; text-anchor: middle" x="243.599375" y="544.796562" transform="rotate(-0 243.599375 544.796562)">10000</text>
     </g>
    </g>
    <g id="xtick_4">
     <g id="line2d_7">
      <path d="M 341.91625 530.198125 
L 341.91625 22.318125 
" clip-path="url(#peaf76490e5)" style="fill: none; stroke: #b0b0b0; stroke-width: 0.8; stroke-linecap: square"/>
     </g>
     <g id="line2d_8">
      <g>
       <use xlink:href="#m296675156c" x="341.91625" y="530.198125" style="stroke: #000000; stroke-width: 0.8"/>
      </g>
     </g>
     <g id="text_4">
      <text style="font-size: 10px; font-family: 'Palatino Linotype', 'Book Antiqua', 'Palatino', 'DejaVu Serif', serif; text-anchor: middle" x="341.91625" y="544.796562" transform="rotate(-0 341.91625 544.796562)">15000</text>
     </g>
    </g>
    <g id="xtick_5">
     <g id="line2d_9">
      <path d="M 440.233125 530.198125 
L 440.233125 22.318125 
" clip-path="url(#peaf76490e5)" style="fill: none; stroke: #b0b0b0; stroke-width: 0.8; stroke-linecap: square"/>
     </g>
     <g id="line2d_10">
      <g>
       <use xlink:href="#m296675156c" x="440.233125" y="530.198125" style="stroke: #000000; stroke-width: 0.8"/>
      </g>
     </g>
     <g id="text_5">
      <text style="font-size: 10px; font-family: 'Palatino Linotype', 'Book Antiqua', 'Palatino', 'DejaVu Serif', serif; text-anchor: middle" x="440.233125" y="544.796562" transform="rotate(-0 440.233125 544.796562)">20000</text>
     </g>
    </g>
    <g id="xtick_6">
     <g id="line2d_11">
      <path d="M 538.55 530.198125 
L 538.55 22.318125 
" clip-path="url(#peaf76490e5)" style="fill: none; stroke: #b0b0b0; stroke-width: 0.8; stroke-linecap: square"/>
     </g>
     <g id="line2d_12">
      <g>
       <use xlink:href="#m296675156c" x="538.55" y="530.198125" style="stroke: #000000; stroke-width: 0.8"/>
      </g>
     </g>
     <g id="text_6">
      <text style="font-size: 10px; font-family: 'Palatino Linotype', 'Book Antiqua', 'Palatino', 'DejaVu Serif', serif; text-anchor: middle" x="538.55" y="544.796562" transform="rotate(-0 538.55 544.796562)">25000</text>
     </g>
    </g>
    <g id="xtick_7">
     <g id="line2d_13">
      <path d="M 636.866875 530.198125 
L 636.866875 22.318125 
" clip-path="url(#peaf76490e5)" style="fill: none; stroke: #b0b0b0; stroke-width: 0.8; stroke-linecap: square"/>
     </g>
     <g id="line2d_14">
      <g>
       <use xlink:href="#m296675156c" x="636.866875" y="530.198125" style="stroke: #000000; stroke-width: 0.8"/>
      </g>
     </g>
     <g id="text_7">
      <text style="font-size: 10px; font-family: 'Palatino Linotype', 'Book Antiqua', 'Palatino', 'DejaVu Serif', serif; text-anchor: middle" x="636.866875" y="544.796562" transform="rotate(-0 636.866875 544.796562)">30000</text>
     </g>
    </g>
    <g id="xtick_8">
     <g id="line2d_15">
      <path d="M 735.18375 530.198125 
L 735.18375 22.318125 
" clip-path="url(#peaf76490e5)" style="fill: none; stroke: #b0b0b0; stroke-width: 0.8; stroke-linecap: square"/>
     </g>
     <g id="line2d_16">
      <g>
       <use xlink:href="#m296675156c" x="735.18375" y="530.198125" style="stroke: #000000; stroke-width: 0.8"/>
      </g>
     </g>
     <g id="text_8">
      <text style="font-size: 10px; font-family: 'Palatino Linotype', 'Book Antiqua', 'Palatino', 'DejaVu Serif', serif; text-anchor: middle" x="735.18375" y="544.796562" transform="rotate(-0 735.18375 544.796562)">35000</text>
     </g>
    </g>
    <g id="xtick_9">
     <g id="line2d_17">
      <path d="M 833.500625 530.198125 
L 833.500625 22.318125 
" clip-path="url(#peaf76490e5)" style="fill: none; stroke: #b0b0b0; stroke-width: 0.8; stroke-linecap: square"/>
     </g>
     <g id="line2d_18">
      <g>
       <use xlink:href="#m296675156c" x="833.500625" y="530.198125" style="stroke: #000000; stroke-width: 0.8"/>
      </g>
     </g>
     <g id="text_9">
      <text style="font-size: 10px; font-family: 'Palatino Linotype', 'Book Antiqua', 'Palatino', 'DejaVu Serif', serif; text-anchor: middle" x="833.500625" y="544.796562" transform="rotate(-0 833.500625 544.796562)">40000</text>
     </g>
    </g>
    <g id="text_10">
     <text style="font-size: 10px; font-family: 'Palatino Linotype', 'Book Antiqua', 'Palatino', 'DejaVu Serif', serif; text-anchor: middle" x="440.233125" y="558.474687" transform="rotate(-0 440.233125 558.474687)">Episode</text>
    </g>
   </g>
   <g id="matplotlib.axis_2">
    <g id="ytick_1">
     <g id="line2d_19">
      <path d="M 46.965625 530.198125 
L 833.500625 530.198125 
" clip-path="url(#peaf76490e5)" style="fill: none; stroke: #b0b0b0; stroke-width: 0.8; stroke-linecap: square"/>
     </g>
     <g id="line2d_20">
      <defs>
       <path id="m08e2a024b8" d="M 0 0 
L -3.5 0 
" style="stroke: #000000; stroke-width: 0.8"/>
      </defs>
      <g>
       <use xlink:href="#m08e2a024b8" x="46.965625" y="530.198125" style="stroke: #000000; stroke-width: 0.8"/>
      </g>
     </g>
     <g id="text_11">
      <text style="font-size: 10px; font-family: 'Palatino Linotype', 'Book Antiqua', 'Palatino', 'DejaVu Serif', serif; text-anchor: end" x="39.965625" y="533.997344" transform="rotate(-0 39.965625 533.997344)">0</text>
     </g>
    </g>
    <g id="ytick_2">
     <g id="line2d_21">
      <path d="M 46.965625 428.622125 
L 833.500625 428.622125 
" clip-path="url(#peaf76490e5)" style="fill: none; stroke: #b0b0b0; stroke-width: 0.8; stroke-linecap: square"/>
     </g>
     <g id="line2d_22">
      <g>
       <use xlink:href="#m08e2a024b8" x="46.965625" y="428.622125" style="stroke: #000000; stroke-width: 0.8"/>
      </g>
     </g>
     <g id="text_12">
      <text style="font-size: 10px; font-family: 'Palatino Linotype', 'Book Antiqua', 'Palatino', 'DejaVu Serif', serif; text-anchor: end" x="39.965625" y="432.421344" transform="rotate(-0 39.965625 432.421344)">20</text>
     </g>
    </g>
    <g id="ytick_3">
     <g id="line2d_23">
      <path d="M 46.965625 327.046125 
L 833.500625 327.046125 
" clip-path="url(#peaf76490e5)" style="fill: none; stroke: #b0b0b0; stroke-width: 0.8; stroke-linecap: square"/>
     </g>
     <g id="line2d_24">
      <g>
       <use xlink:href="#m08e2a024b8" x="46.965625" y="327.046125" style="stroke: #000000; stroke-width: 0.8"/>
      </g>
     </g>
     <g id="text_13">
      <text style="font-size: 10px; font-family: 'Palatino Linotype', 'Book Antiqua', 'Palatino', 'DejaVu Serif', serif; text-anchor: end" x="39.965625" y="330.845344" transform="rotate(-0 39.965625 330.845344)">40</text>
     </g>
    </g>
    <g id="ytick_4">
     <g id="line2d_25">
      <path d="M 46.965625 225.470125 
L 833.500625 225.470125 
" clip-path="url(#peaf76490e5)" style="fill: none; stroke: #b0b0b0; stroke-width: 0.8; stroke-linecap: square"/>
     </g>
     <g id="line2d_26">
      <g>
       <use xlink:href="#m08e2a024b8" x="46.965625" y="225.470125" style="stroke: #000000; stroke-width: 0.8"/>
      </g>
     </g>
     <g id="text_14">
      <text style="font-size: 10px; font-family: 'Palatino Linotype', 'Book Antiqua', 'Palatino', 'DejaVu Serif', serif; text-anchor: end" x="39.965625" y="229.269344" transform="rotate(-0 39.965625 229.269344)">60</text>
     </g>
    </g>
    <g id="ytick_5">
     <g id="line2d_27">
      <path d="M 46.965625 123.894125 
L 833.500625 123.894125 
" clip-path="url(#peaf76490e5)" style="fill: none; stroke: #b0b0b0; stroke-width: 0.8; stroke-linecap: square"/>
     </g>
     <g id="line2d_28">
      <g>
       <use xlink:href="#m08e2a024b8" x="46.965625" y="123.894125" style="stroke: #000000; stroke-width: 0.8"/>
      </g>
     </g>
     <g id="text_15">
      <text style="font-size: 10px; font-family: 'Palatino Linotype', 'Book Antiqua', 'Palatino', 'DejaVu Serif', serif; text-anchor: end" x="39.965625" y="127.693344" transform="rotate(-0 39.965625 127.693344)">80</text>
     </g>
    </g>
    <g id="ytick_6">
     <g id="line2d_29">
      <path d="M 46.965625 22.318125 
L 833.500625 22.318125 
" clip-path="url(#peaf76490e5)" style="fill: none; stroke: #b0b0b0; stroke-width: 0.8; stroke-linecap: square"/>
     </g>
     <g id="line2d_30">
      <g>
       <use xlink:href="#m08e2a024b8" x="46.965625" y="22.318125" style="stroke: #000000; stroke-width: 0.8"/>
      </g>
     </g>
     <g id="text_16">
      <text style="font-size: 10px; font-family: 'Palatino Linotype', 'Book Antiqua', 'Palatino', 'DejaVu Serif', serif; text-anchor: end" x="39.965625" y="26.117344" transform="rotate(-0 39.965625 26.117344)">100</text>
     </g>
    </g>
    <g id="text_17">
     <text style="font-size: 10px; font-family: 'Palatino Linotype', 'Book Antiqua', 'Palatino', 'DejaVu Serif', serif; text-anchor: middle" x="14.798438" y="276.258125" transform="rotate(-90 14.798438 276.258125)">Winrate (%)</text>
    </g>
   </g>
   <g id="line2d_31">
    <path d="M 145.2825 75.899465 
L 243.599375 86.945855 
L 341.91625 99.177298 
L 440.233125 98.881035 
L 538.55 100.125341 
L 636.866875 102.867893 
L 735.18375 100.328493 
L 833.500625 91.288229 
" clip-path="url(#peaf76490e5)" style="fill: none; stroke: #1f77b4; stroke-width: 1.5; stroke-linecap: square"/>
    <defs>
     <path id="m872b07240b" d="M 0 1.5 
C 0.397805 1.5 0.77937 1.341951 1.06066 1.06066 
C 1.341951 0.77937 1.5 0.397805 1.5 0 
C 1.5 -0.397805 1.341951 -0.77937 1.06066 -1.06066 
C 0.77937 -1.341951 0.397805 -1.5 0 -1.5 
C -0.397805 -1.5 -0.77937 -1.341951 -1.06066 -1.06066 
C -1.341951 -0.77937 -1.5 -0.397805 -1.5 0 
C -1.5 0.397805 -1.341951 0.77937 -1.06066 1.06066 
C -0.77937 1.341951 -0.397805 1.5 0 1.5 
z
" style="stroke: #1f77b4"/>
    </defs>
    <g clip-path="url(#peaf76490e5)">
     <use xlink:href="#m872b07240b" x="145.2825" y="75.899465" style="fill: #1f77b4; stroke: #1f77b4"/>
     <use xlink:href="#m872b07240b" x="243.599375" y="86.945855" style="fill: #1f77b4; stroke: #1f77b4"/>
     <use xlink:href="#m872b07240b" x="341.91625" y="99.177298" style="fill: #1f77b4; stroke: #1f77b4"/>
     <use xlink:href="#m872b07240b" x="440.233125" y="98.881035" style="fill: #1f77b4; stroke: #1f77b4"/>
     <use xlink:href="#m872b07240b" x="538.55" y="100.125341" style="fill: #1f77b4; stroke: #1f77b4"/>
     <use xlink:href="#m872b07240b" x="636.866875" y="102.867893" style="fill: #1f77b4; stroke: #1f77b4"/>
     <use xlink:href="#m872b07240b" x="735.18375" y="100.328493" style="fill: #1f77b4; stroke: #1f77b4"/>
     <use xlink:href="#m872b07240b" x="833.500625" y="91.288229" style="fill: #1f77b4; stroke: #1f77b4"/>
    </g>
   </g>
   <g id="line2d_32">
    <path d="M 145.2825 363.867425 
L 243.599375 354.217705 
L 341.91625 347.192032 
L 440.233125 340.631915 
L 538.55 337.610029 
L 636.866875 329.026857 
L 735.18375 323.846481 
L 833.500625 319.732653 
" clip-path="url(#peaf76490e5)" style="fill: none; stroke: #ff7f0e; stroke-width: 1.5; stroke-linecap: square"/>
    <defs>
     <path id="m2c6aa2a4d4" d="M 0 1.5 
C 0.397805 1.5 0.77937 1.341951 1.06066 1.06066 
C 1.341951 0.77937 1.5 0.397805 1.5 0 
C 1.5 -0.397805 1.341951 -0.77937 1.06066 -1.06066 
C 0.77937 -1.341951 0.397805 -1.5 0 -1.5 
C -0.397805 -1.5 -0.77937 -1.341951 -1.06066 -1.06066 
C -1.341951 -0.77937 -1.5 -0.397805 -1.5 0 
C -1.5 0.397805 -1.341951 0.77937 -1.06066 1.06066 
C -0.77937 1.341951 -0.397805 1.5 0 1.5 
z
" style="stroke: #ff7f0e"/>
    </defs>
    <g clip-path="url(#peaf76490e5)">
     <use xlink:href="#m2c6aa2a4d4" x="145.2825" y="363.867425" style="fill: #ff7f0e; stroke: #ff7f0e"/>
     <use xlink:href="#m2c6aa2a4d4" x="243.599375" y="354.217705" style="fill: #ff7f0e; stroke: #ff7f0e"/>
     <use xlink:href="#m2c6aa2a4d4" x="341.91625" y="347.192032" style="fill: #ff7f0e; stroke: #ff7f0e"/>
     <use xlink:href="#m2c6aa2a4d4" x="440.233125" y="340.631915" style="fill: #ff7f0e; stroke: #ff7f0e"/>
     <use xlink:href="#m2c6aa2a4d4" x="538.55" y="337.610029" style="fill: #ff7f0e; stroke: #ff7f0e"/>
     <use xlink:href="#m2c6aa2a4d4" x="636.866875" y="329.026857" style="fill: #ff7f0e; stroke: #ff7f0e"/>
     <use xlink:href="#m2c6aa2a4d4" x="735.18375" y="323.846481" style="fill: #ff7f0e; stroke: #ff7f0e"/>
     <use xlink:href="#m2c6aa2a4d4" x="833.500625" y="319.732653" style="fill: #ff7f0e; stroke: #ff7f0e"/>
    </g>
   </g>
   <g id="line2d_33">
    <path d="M 145.2825 219.629505 
L 243.599375 201.218855 
L 341.91625 188.564178 
L 440.233125 184.077905 
L 538.55 181.538505 
L 636.866875 170.619085 
L 735.18375 164.930829 
L 833.500625 164.321373 
" clip-path="url(#peaf76490e5)" style="fill: none; stroke: #2ca02c; stroke-width: 1.5; stroke-linecap: square"/>
    <defs>
     <path id="m0846241cf6" d="M 0 1.5 
C 0.397805 1.5 0.77937 1.341951 1.06066 1.06066 
C 1.341951 0.77937 1.5 0.397805 1.5 0 
C 1.5 -0.397805 1.341951 -0.77937 1.06066 -1.06066 
C 0.77937 -1.341951 0.397805 -1.5 0 -1.5 
C -0.397805 -1.5 -0.77937 -1.341951 -1.06066 -1.06066 
C -1.341951 -0.77937 -1.5 -0.397805 -1.5 0 
C -1.5 0.397805 -1.341951 0.77937 -1.06066 1.06066 
C -0.77937 1.341951 -0.397805 1.5 0 1.5 
z
" style="stroke: #2ca02c"/>
    </defs>
    <g clip-path="url(#peaf76490e5)">
     <use xlink:href="#m0846241cf6" x="145.2825" y="219.629505" style="fill: #2ca02c; stroke: #2ca02c"/>
     <use xlink:href="#m0846241cf6" x="243.599375" y="201.218855" style="fill: #2ca02c; stroke: #2ca02c"/>
     <use xlink:href="#m0846241cf6" x="341.91625" y="188.564178" style="fill: #2ca02c; stroke: #2ca02c"/>
     <use xlink:href="#m0846241cf6" x="440.233125" y="184.077905" style="fill: #2ca02c; stroke: #2ca02c"/>
     <use xlink:href="#m0846241cf6" x="538.55" y="181.538505" style="fill: #2ca02c; stroke: #2ca02c"/>
     <use xlink:href="#m0846241cf6" x="636.866875" y="170.619085" style="fill: #2ca02c; stroke: #2ca02c"/>
     <use xlink:href="#m0846241cf6" x="735.18375" y="164.930829" style="fill: #2ca02c; stroke: #2ca02c"/>
     <use xlink:href="#m0846241cf6" x="833.500625" y="164.321373" style="fill: #2ca02c; stroke: #2ca02c"/>
    </g>
   </g>
   <g id="line2d_34">
    <path d="M 46.965625 403.228125 
L 833.500625 403.228125 
" clip-path="url(#peaf76490e5)" style="fill: none; stroke: #ff0000; stroke-linecap: square"/>
   </g>
   <g id="patch_3">
    <path d="M 46.965625 530.198125 
L 46.965625 22.318125 
" style="fill: none; stroke: #000000; stroke-width: 0.8; stroke-linejoin: miter; stroke-linecap: square"/>
   </g>
   <g id="patch_4">
    <path d="M 833.500625 530.198125 
L 833.500625 22.318125 
" style="fill: none; stroke: #000000; stroke-width: 0.8; stroke-linejoin: miter; stroke-linecap: square"/>
   </g>
   <g id="patch_5">
    <path d="M 46.965625 530.198125 
L 833.500625 530.198125 
" style="fill: none; stroke: #000000; stroke-width: 0.8; stroke-linejoin: miter; stroke-linecap: square"/>
   </g>
   <g id="patch_6">
    <path d="M 46.965625 22.318125 
L 833.500625 22.318125 
" style="fill: none; stroke: #000000; stroke-width: 0.8; stroke-linejoin: miter; stroke-linecap: square"/>
   </g>
   <g id="text_18">
    <text style="font-size: 12px; font-family: 'Palatino Linotype', 'Book Antiqua', 'Palatino', 'DejaVu Serif', serif; text-anchor: middle" x="440.233125" y="16.318125" transform="rotate(-0 440.233125 16.318125)">Lernkurve (Benchmark) - K1A2 vs. feste Heuristiken</text>
   </g>
   <g id="legend_1">
    <g id="patch_7">
     <path d="M 733.905313 89.172812 
L 826.500625 89.172812 
Q 828.500625 89.172812 828.500625 87.172812 
L 828.500625 29.318125 
Q 828.500625 27.318125 826.500625 27.318125 
L 733.905313 27.318125 
Q 731.905313 27.318125 731.905313 29.318125 
L 731.905313 87.172812 
Q 731.905313 89.172812 733.905313 89.172812 
z
" style="fill: #ffffff; opacity: 0.8; stroke: #cccccc; stroke-linejoin: miter"/>
    </g>
    <g id="line2d_35">
     <path d="M 735.905313 35.416562 
L 745.905313 35.416562 
L 755.905313 35.416562 
" style="fill: none; stroke: #1f77b4; stroke-width: 1.5; stroke-linecap: square"/>
     <g>
      <use xlink:href="#m872b07240b" x="745.905313" y="35.416562" style="fill: #1f77b4; stroke: #1f77b4"/>
     </g>
    </g>
    <g id="text_19">
     <text style="font-size: 10px; font-family: 'Palatino Linotype', 'Book Antiqua', 'Palatino', 'DejaVu Serif', serif; text-anchor: start" x="763.905313" y="38.916562" transform="rotate(-0 763.905313 38.916562)">Single Only</text>
    </g>
    <g id="line2d_36">
     <path d="M 735.905313 50.236875 
L 745.905313 50.236875 
L 755.905313 50.236875 
" style="fill: none; stroke: #ff7f0e; stroke-width: 1.5; stroke-linecap: square"/>
     <g>
      <use xlink:href="#m2c6aa2a4d4" x="745.905313" y="50.236875" style="fill: #ff7f0e; stroke: #ff7f0e"/>
     </g>
    </g>
    <g id="text_20">
     <text style="font-size: 10px; font-family: 'Palatino Linotype', 'Book Antiqua', 'Palatino', 'DejaVu Serif', serif; text-anchor: start" x="763.905313" y="53.736875" transform="rotate(-0 763.905313 53.736875)">Max Combo</text>
    </g>
    <g id="line2d_37">
     <path d="M 735.905313 64.915 
L 745.905313 64.915 
L 755.905313 64.915 
" style="fill: none; stroke: #2ca02c; stroke-width: 1.5; stroke-linecap: square"/>
     <g>
      <use xlink:href="#m0846241cf6" x="745.905313" y="64.915" style="fill: #2ca02c; stroke: #2ca02c"/>
     </g>
    </g>
    <g id="text_21">
     <text style="font-size: 10px; font-family: 'Palatino Linotype', 'Book Antiqua', 'Palatino', 'DejaVu Serif', serif; text-anchor: start" x="763.905313" y="68.415" transform="rotate(-0 763.905313 68.415)">Random 2</text>
    </g>
    <g id="line2d_38">
     <path d="M 735.905313 79.593125 
L 745.905313 79.593125 
L 755.905313 79.593125 
" style="fill: none; stroke: #ff0000; stroke-linecap: square"/>
    </g>
    <g id="text_22">
     <text style="font-size: 10px; font-family: 'Palatino Linotype', 'Book Antiqua', 'Palatino', 'DejaVu Serif', serif; text-anchor: start" x="763.905313" y="83.093125" transform="rotate(-0 763.905313 83.093125)">25% Linie</text>
    </g>
   </g>
  </g>
 </g>
 <defs>
  <clipPath id="peaf76490e5">
   <rect x="46.965625" y="22.318125" width="786.535" height="507.88"/>
  </clipPath>
 </defs>
</svg>
