<?xml version="1.0" encoding="utf-8" standalone="no"?>
<!DOCTYPE svg PUBLIC "-//W3C//DTD SVG 1.1//EN"
  "http://www.w3.org/Graphics/SVG/1.1/DTD/svg11.dtd">
<svg xmlns:xlink="http://www.w3.org/1999/xlink" width="856.638125pt" height="567.754375pt" viewBox="0 0 856.638125 567.754375" xmlns="http://www.w3.org/2000/svg" version="1.1">
 <metadata>
  <rdf:RDF xmlns:dc="http://purl.org/dc/elements/1.1/" xmlns:cc="http://creativecommons.org/ns#" xmlns:rdf="http://www.w3.org/1999/02/22-rdf-syntax-ns#">
   <cc:Work>
    <dc:type rdf:resource="http://purl.org/dc/dcmitype/StillImage"/>
    <dc:date>2025-09-25T02:09:44.053815</dc:date>
    <dc:format>image/svg+xml</dc:format>
    <dc:creator>
     <cc:Agent>
      <dc:title>Matplotlib v3.10.3, https://matplotlib.org/</dc:title>
     </cc:Agent>
    </dc:creator>
   </cc:Work>
  </rdf:RDF>
 </metadata>
 <defs>
  <style type="text/css">*{stroke-linejoin: round; stroke-linecap: butt}</style>
 </defs>
 <g id="figure_1">
  <g id="patch_1">
   <path d="M 0 567.754375 
L 856.638125 567.754375 
L 856.638125 0 
L 0 0 
z
" style="fill: #ffffff"/>
  </g>
  <g id="axes_1">
   <g id="patch_2">
    <path d="M 46.965625 530.198125 
L 830.350625 530.198125 
L 830.350625 22.318125 
L 46.965625 22.318125 
z
" style="fill: #ffffff"/>
   </g>
   <g id="FillBetweenPolyCollection_1">
    <defs>
     <path id="md951d956e3" d="M 86.134875 -410.521612 
L 86.134875 -390.440612 
L 125.304125 -399.536136 
L 164.473375 -416.942501 
L 203.642625 -433.367546 
L 242.811875 -448.027074 
L 281.981125 -449.495373 
L 321.150375 -450.445692 
L 360.319625 -455.632721 
L 399.488875 -458.315079 
L 438.658125 -449.581758 
L 477.827375 -441.209569 
L 516.996625 -431.301176 
L 556.165875 -433.023098 
L 595.335125 -430.182203 
L 634.504375 -436.640857 
L 673.673625 -440.261021 
L 712.842875 -447.595308 
L 752.012125 -445.609675 
L 791.181375 -441.727031 
L 830.350625 -429.321602 
L 830.350625 -439.931935 
L 830.350625 -439.931935 
L 791.181375 -451.889147 
L 752.012125 -455.619829 
L 712.842875 -457.525451 
L 673.673625 -450.479012 
L 634.504375 -446.993405 
L 595.335125 -440.763184 
L 556.165875 -443.505394 
L 516.996625 -441.843616 
L 477.827375 -451.391499 
L 438.658125 -459.430256 
L 399.488875 -467.784621 
L 360.319625 -465.222244 
L 321.150375 -460.258172 
L 281.981125 -459.347456 
L 242.811875 -457.939609 
L 203.642625 -443.837686 
L 164.473375 -427.948394 
L 125.304125 -413.558953 
L 86.134875 -410.521612 
z
"/>
    </defs>
    <g clip-path="url(#pf800d37316)">
     <use xlink:href="#md951d956e3" x="0" y="567.754375" style="fill: #1f77b4; fill-opacity: 0.15"/>
    </g>
   </g>
   <g id="FillBetweenPolyCollection_2">
    <defs>
     <path id="mca6b77621e" d="M 86.134875 -267.022253 
L 86.134875 -245.003361 
L 125.304125 -274.24896 
L 164.473375 -293.874217 
L 203.642625 -326.949064 
L 242.811875 -343.358373 
L 281.981125 -354.001465 
L 321.150375 -357.580326 
L 360.319625 -360.990092 
L 399.488875 -358.773596 
L 438.658125 -356.301998 
L 477.827375 -356.472431 
L 516.996625 -357.495098 
L 556.165875 -364.742352 
L 595.335125 -366.875034 
L 634.504375 -365.254148 
L 673.673625 -361.245878 
L 712.842875 -353.319937 
L 752.012125 -355.44988 
L 791.181375 -355.705507 
L 830.350625 -360.478544 
L 830.350625 -372.750245 
L 830.350625 -372.750245 
L 791.181375 -368.048921 
L 752.012125 -367.796993 
L 712.842875 -365.697311 
L 673.673625 -373.505576 
L 634.504375 -377.449001 
L 595.335125 -379.042631 
L 556.165875 -376.945687 
L 516.996625 -369.812215 
L 477.827375 -368.804662 
L 438.658125 -368.636725 
L 399.488875 -371.071493 
L 360.319625 -373.253806 
L 321.150375 -369.896173 
L 281.981125 -366.369263 
L 242.811875 -355.864228 
L 203.642625 -339.620831 
L 164.473375 -306.713525 
L 125.304125 -289.97001 
L 86.134875 -267.022253 
z
"/>
    </defs>
    <g clip-path="url(#pf800d37316)">
     <use xlink:href="#mca6b77621e" x="0" y="567.754375" style="fill: #ff7f0e; fill-opacity: 0.15"/>
    </g>
   </g>
   <g id="FillBetweenPolyCollection_3">
    <defs>
     <path id="m91795e29ca" d="M 86.134875 -411.01792 
L 86.134875 -390.958117 
L 125.304125 -416.827607 
L 164.473375 -434.314885 
L 203.642625 -457.968873 
L 242.811875 -467.587138 
L 281.981125 -472.275226 
L 321.150375 -475.143336 
L 360.319625 -482.36871 
L 399.488875 -481.932944 
L 438.658125 -480.713155 
L 477.827375 -475.839015 
L 516.996625 -473.317888 
L 556.165875 -476.360875 
L 595.335125 -476.534847 
L 634.504375 -474.273948 
L 673.673625 -470.451337 
L 712.842875 -464.725177 
L 752.012125 -466.112522 
L 791.181375 -467.50038 
L 830.350625 -472.883406 
L 830.350625 -481.639376 
L 830.350625 -481.639376 
L 791.181375 -476.532931 
L 752.012125 -475.213829 
L 712.842875 -473.894213 
L 673.673625 -479.334264 
L 634.504375 -482.955794 
L 595.335125 -485.093705 
L 556.165875 -484.929307 
L 516.996625 -482.050819 
L 477.827375 -484.436057 
L 438.658125 -489.036278 
L 399.488875 -490.185079 
L 360.319625 -490.595237 
L 321.150375 -483.778256 
L 281.981125 -481.06326 
L 242.811875 -476.615358 
L 203.642625 -467.454086 
L 164.473375 -444.751382 
L 125.304125 -430.262793 
L 86.134875 -411.01792 
z
"/>
    </defs>
    <g clip-path="url(#pf800d37316)">
     <use xlink:href="#m91795e29ca" x="0" y="567.754375" style="fill: #2ca02c; fill-opacity: 0.15"/>
    </g>
   </g>
   <g id="matplotlib.axis_1">
    <g id="xtick_1">
     <g id="line2d_1">
      <path d="M 46.965625 530.198125 
L 46.965625 22.318125 
" clip-path="url(#pf800d37316)" style="fill: none; stroke: #b0b0b0; stroke-width: 0.8; stroke-linecap: square"/>
     </g>
     <g id="line2d_2">
      <defs>
       <path id="m15c1360db7" d="M 0 0 
L 0 3.5 
" style="stroke: #000000; stroke-width: 0.8"/>
      </defs>
      <g>
       <use xlink:href="#m15c1360db7" x="46.965625" y="530.198125" style="stroke: #000000; stroke-width: 0.8"/>
      </g>
     </g>
     <g id="text_1">
      <text style="font-size: 10px; font-family: 'Palatino Linotype', 'Book Antiqua', 'Palatino', 'DejaVu Serif', serif; text-anchor: middle" x="46.965625" y="544.796562" transform="rotate(-0 46.965625 544.796562)">0</text>
     </g>
    </g>
    <g id="xtick_2">
     <g id="line2d_3">
      <path d="M 203.642625 530.198125 
L 203.642625 22.318125 
" clip-path="url(#pf800d37316)" style="fill: none; stroke: #b0b0b0; stroke-width: 0.8; stroke-linecap: square"/>
     </g>
     <g id="line2d_4">
      <g>
       <use xlink:href="#m15c1360db7" x="203.642625" y="530.198125" style="stroke: #000000; stroke-width: 0.8"/>
      </g>
     </g>
     <g id="text_2">
      <text style="font-size: 10px; font-family: 'Palatino Linotype', 'Book Antiqua', 'Palatino', 'DejaVu Serif', serif; text-anchor: middle" x="203.642625" y="544.796562" transform="rotate(-0 203.642625 544.796562)">20000</text>
     </g>
    </g>
    <g id="xtick_3">
     <g id="line2d_5">
      <path d="M 360.319625 530.198125 
L 360.319625 22.318125 
" clip-path="url(#pf800d37316)" style="fill: none; stroke: #b0b0b0; stroke-width: 0.8; stroke-linecap: square"/>
     </g>
     <g id="line2d_6">
      <g>
       <use xlink:href="#m15c1360db7" x="360.319625" y="530.198125" style="stroke: #000000; stroke-width: 0.8"/>
      </g>
     </g>
     <g id="text_3">
      <text style="font-size: 10px; font-family: 'Palatino Linotype', 'Book Antiqua', 'Palatino', 'DejaVu Serif', serif; text-anchor: middle" x="360.319625" y="544.796562" transform="rotate(-0 360.319625 544.796562)">40000</text>
     </g>
    </g>
    <g id="xtick_4">
     <g id="line2d_7">
      <path d="M 516.996625 530.198125 
L 516.996625 22.318125 
" clip-path="url(#pf800d37316)" style="fill: none; stroke: #b0b0b0; stroke-width: 0.8; stroke-linecap: square"/>
     </g>
     <g id="line2d_8">
      <g>
       <use xlink:href="#m15c1360db7" x="516.996625" y="530.198125" style="stroke: #000000; stroke-width: 0.8"/>
      </g>
     </g>
     <g id="text_4">
      <text style="font-size: 10px; font-family: 'Palatino Linotype', 'Book Antiqua', 'Palatino', 'DejaVu Serif', serif; text-anchor: middle" x="516.996625" y="544.796562" transform="rotate(-0 516.996625 544.796562)">60000</text>
     </g>
    </g>
    <g id="xtick_5">
     <g id="line2d_9">
      <path d="M 673.673625 530.198125 
L 673.673625 22.318125 
" clip-path="url(#pf800d37316)" style="fill: none; stroke: #b0b0b0; stroke-width: 0.8; stroke-linecap: square"/>
     </g>
     <g id="line2d_10">
      <g>
       <use xlink:href="#m15c1360db7" x="673.673625" y="530.198125" style="stroke: #000000; stroke-width: 0.8"/>
      </g>
     </g>
     <g id="text_5">
      <text style="font-size: 10px; font-family: 'Palatino Linotype', 'Book Antiqua', 'Palatino', 'DejaVu Serif', serif; text-anchor: middle" x="673.673625" y="544.796562" transform="rotate(-0 673.673625 544.796562)">80000</text>
     </g>
    </g>
    <g id="xtick_6">
     <g id="line2d_11">
      <path d="M 830.350625 530.198125 
L 830.350625 22.318125 
" clip-path="url(#pf800d37316)" style="fill: none; stroke: #b0b0b0; stroke-width: 0.8; stroke-linecap: square"/>
     </g>
     <g id="line2d_12">
      <g>
       <use xlink:href="#m15c1360db7" x="830.350625" y="530.198125" style="stroke: #000000; stroke-width: 0.8"/>
      </g>
     </g>
     <g id="text_6">
      <text style="font-size: 10px; font-family: 'Palatino Linotype', 'Book Antiqua', 'Palatino', 'DejaVu Serif', serif; text-anchor: middle" x="830.350625" y="544.796562" transform="rotate(-0 830.350625 544.796562)">100000</text>
     </g>
    </g>
    <g id="text_7">
     <text style="font-size: 10px; font-family: 'Palatino Linotype', 'Book Antiqua', 'Palatino', 'DejaVu Serif', serif; text-anchor: middle" x="438.658125" y="558.474687" transform="rotate(-0 438.658125 558.474687)">Episode</text>
    </g>
   </g>
   <g id="matplotlib.axis_2">
    <g id="ytick_1">
     <g id="line2d_13">
      <path d="M 46.965625 530.198125 
L 830.350625 530.198125 
" clip-path="url(#pf800d37316)" style="fill: none; stroke: #b0b0b0; stroke-width: 0.8; stroke-linecap: square"/>
     </g>
     <g id="line2d_14">
      <defs>
       <path id="mcb3d0bd3a3" d="M 0 0 
L -3.5 0 
" style="stroke: #000000; stroke-width: 0.8"/>
      </defs>
      <g>
       <use xlink:href="#mcb3d0bd3a3" x="46.965625" y="530.198125" style="stroke: #000000; stroke-width: 0.8"/>
      </g>
     </g>
     <g id="text_8">
      <text style="font-size: 10px; font-family: 'Palatino Linotype', 'Book Antiqua', 'Palatino', 'DejaVu Serif', serif; text-anchor: end" x="39.965625" y="533.997344" transform="rotate(-0 39.965625 533.997344)">0</text>
     </g>
    </g>
    <g id="ytick_2">
     <g id="line2d_15">
      <path d="M 46.965625 428.622125 
L 830.350625 428.622125 
" clip-path="url(#pf800d37316)" style="fill: none; stroke: #b0b0b0; stroke-width: 0.8; stroke-linecap: square"/>
     </g>
     <g id="line2d_16">
      <g>
       <use xlink:href="#mcb3d0bd3a3" x="46.965625" y="428.622125" style="stroke: #000000; stroke-width: 0.8"/>
      </g>
     </g>
     <g id="text_9">
      <text style="font-size: 10px; font-family: 'Palatino Linotype', 'Book Antiqua', 'Palatino', 'DejaVu Serif', serif; text-anchor: end" x="39.965625" y="432.421344" transform="rotate(-0 39.965625 432.421344)">20</text>
     </g>
    </g>
    <g id="ytick_3">
     <g id="line2d_17">
      <path d="M 46.965625 327.046125 
L 830.350625 327.046125 
" clip-path="url(#pf800d37316)" style="fill: none; stroke: #b0b0b0; stroke-width: 0.8; stroke-linecap: square"/>
     </g>
     <g id="line2d_18">
      <g>
       <use xlink:href="#mcb3d0bd3a3" x="46.965625" y="327.046125" style="stroke: #000000; stroke-width: 0.8"/>
      </g>
     </g>
     <g id="text_10">
      <text style="font-size: 10px; font-family: 'Palatino Linotype', 'Book Antiqua', 'Palatino', 'DejaVu Serif', serif; text-anchor: end" x="39.965625" y="330.845344" transform="rotate(-0 39.965625 330.845344)">40</text>
     </g>
    </g>
    <g id="ytick_4">
     <g id="line2d_19">
      <path d="M 46.965625 225.470125 
L 830.350625 225.470125 
" clip-path="url(#pf800d37316)" style="fill: none; stroke: #b0b0b0; stroke-width: 0.8; stroke-linecap: square"/>
     </g>
     <g id="line2d_20">
      <g>
       <use xlink:href="#mcb3d0bd3a3" x="46.965625" y="225.470125" style="stroke: #000000; stroke-width: 0.8"/>
      </g>
     </g>
     <g id="text_11">
      <text style="font-size: 10px; font-family: 'Palatino Linotype', 'Book Antiqua', 'Palatino', 'DejaVu Serif', serif; text-anchor: end" x="39.965625" y="229.269344" transform="rotate(-0 39.965625 229.269344)">60</text>
     </g>
    </g>
    <g id="ytick_5">
     <g id="line2d_21">
      <path d="M 46.965625 123.894125 
L 830.350625 123.894125 
" clip-path="url(#pf800d37316)" style="fill: none; stroke: #b0b0b0; stroke-width: 0.8; stroke-linecap: square"/>
     </g>
     <g id="line2d_22">
      <g>
       <use xlink:href="#mcb3d0bd3a3" x="46.965625" y="123.894125" style="stroke: #000000; stroke-width: 0.8"/>
      </g>
     </g>
     <g id="text_12">
      <text style="font-size: 10px; font-family: 'Palatino Linotype', 'Book Antiqua', 'Palatino', 'DejaVu Serif', serif; text-anchor: end" x="39.965625" y="127.693344" transform="rotate(-0 39.965625 127.693344)">80</text>
     </g>
    </g>
    <g id="ytick_6">
     <g id="line2d_23">
      <path d="M 46.965625 22.318125 
L 830.350625 22.318125 
" clip-path="url(#pf800d37316)" style="fill: none; stroke: #b0b0b0; stroke-width: 0.8; stroke-linecap: square"/>
     </g>
     <g id="line2d_24">
      <g>
       <use xlink:href="#mcb3d0bd3a3" x="46.965625" y="22.318125" style="stroke: #000000; stroke-width: 0.8"/>
      </g>
     </g>
     <g id="text_13">
      <text style="font-size: 10px; font-family: 'Palatino Linotype', 'Book Antiqua', 'Palatino', 'DejaVu Serif', serif; text-anchor: end" x="39.965625" y="26.117344" transform="rotate(-0 39.965625 26.117344)">100</text>
     </g>
    </g>
    <g id="text_14">
     <text style="font-size: 10px; font-family: 'Palatino Linotype', 'Book Antiqua', 'Palatino', 'DejaVu Serif', serif; text-anchor: middle" x="14.798438" y="276.258125" transform="rotate(-90 14.798438 276.258125)">Winrate (%)</text>
    </g>
   </g>
   <g id="line2d_25">
    <path d="M 86.134875 167.063925 
L 125.304125 161.096335 
L 164.473375 145.225085 
L 203.642625 129.057572 
L 242.811875 114.667638 
L 281.981125 113.228645 
L 321.150375 112.297532 
L 360.319625 107.218732 
L 399.488875 104.594685 
L 438.658125 113.143998 
L 477.827375 121.354725 
L 516.996625 131.089092 
L 556.165875 129.396158 
L 595.335125 132.189498 
L 634.504375 125.840998 
L 673.673625 122.285838 
L 712.842875 115.090872 
L 752.012125 117.037745 
L 791.181375 120.846845 
L 830.350625 133.035965 
" clip-path="url(#pf800d37316)" style="fill: none; stroke: #1f77b4; stroke-width: 1.5; stroke-linecap: square"/>
    <defs>
     <path id="m7747482d7a" d="M 0 1.5 
C 0.397805 1.5 0.77937 1.341951 1.06066 1.06066 
C 1.341951 0.77937 1.5 0.397805 1.5 0 
C 1.5 -0.397805 1.341951 -0.77937 1.06066 -1.06066 
C 0.77937 -1.341951 0.397805 -1.5 0 -1.5 
C -0.397805 -1.5 -0.77937 -1.341951 -1.06066 -1.06066 
C -1.341951 -0.77937 -1.5 -0.397805 -1.5 0 
C -1.5 0.397805 -1.341951 0.77937 -1.06066 1.06066 
C -0.77937 1.341951 -0.397805 1.5 0 1.5 
z
" style="stroke: #1f77b4"/>
    </defs>
    <g clip-path="url(#pf800d37316)">
     <use xlink:href="#m7747482d7a" x="86.134875" y="167.063925" style="fill: #1f77b4; stroke: #1f77b4"/>
     <use xlink:href="#m7747482d7a" x="125.304125" y="161.096335" style="fill: #1f77b4; stroke: #1f77b4"/>
     <use xlink:href="#m7747482d7a" x="164.473375" y="145.225085" style="fill: #1f77b4; stroke: #1f77b4"/>
     <use xlink:href="#m7747482d7a" x="203.642625" y="129.057572" style="fill: #1f77b4; stroke: #1f77b4"/>
     <use xlink:href="#m7747482d7a" x="242.811875" y="114.667638" style="fill: #1f77b4; stroke: #1f77b4"/>
     <use xlink:href="#m7747482d7a" x="281.981125" y="113.228645" style="fill: #1f77b4; stroke: #1f77b4"/>
     <use xlink:href="#m7747482d7a" x="321.150375" y="112.297532" style="fill: #1f77b4; stroke: #1f77b4"/>
     <use xlink:href="#m7747482d7a" x="360.319625" y="107.218732" style="fill: #1f77b4; stroke: #1f77b4"/>
     <use xlink:href="#m7747482d7a" x="399.488875" y="104.594685" style="fill: #1f77b4; stroke: #1f77b4"/>
     <use xlink:href="#m7747482d7a" x="438.658125" y="113.143998" style="fill: #1f77b4; stroke: #1f77b4"/>
     <use xlink:href="#m7747482d7a" x="477.827375" y="121.354725" style="fill: #1f77b4; stroke: #1f77b4"/>
     <use xlink:href="#m7747482d7a" x="516.996625" y="131.089092" style="fill: #1f77b4; stroke: #1f77b4"/>
     <use xlink:href="#m7747482d7a" x="556.165875" y="129.396158" style="fill: #1f77b4; stroke: #1f77b4"/>
     <use xlink:href="#m7747482d7a" x="595.335125" y="132.189498" style="fill: #1f77b4; stroke: #1f77b4"/>
     <use xlink:href="#m7747482d7a" x="634.504375" y="125.840998" style="fill: #1f77b4; stroke: #1f77b4"/>
     <use xlink:href="#m7747482d7a" x="673.673625" y="122.285838" style="fill: #1f77b4; stroke: #1f77b4"/>
     <use xlink:href="#m7747482d7a" x="712.842875" y="115.090872" style="fill: #1f77b4; stroke: #1f77b4"/>
     <use xlink:href="#m7747482d7a" x="752.012125" y="117.037745" style="fill: #1f77b4; stroke: #1f77b4"/>
     <use xlink:href="#m7747482d7a" x="791.181375" y="120.846845" style="fill: #1f77b4; stroke: #1f77b4"/>
     <use xlink:href="#m7747482d7a" x="830.350625" y="133.035965" style="fill: #1f77b4; stroke: #1f77b4"/>
    </g>
   </g>
   <g id="line2d_26">
    <path d="M 86.134875 311.809725 
L 125.304125 285.653905 
L 164.473375 267.454872 
L 203.642625 234.442672 
L 242.811875 218.105865 
L 281.981125 207.525032 
L 321.150375 203.969872 
L 360.319625 200.584005 
L 399.488875 202.784818 
L 438.658125 205.239572 
L 477.827375 205.070278 
L 516.996625 204.054518 
L 556.165875 196.859552 
L 595.335125 194.743385 
L 634.504375 196.351672 
L 673.673625 200.330065 
L 712.842875 208.202205 
L 752.012125 206.086038 
L 791.181375 205.832098 
L 830.350625 201.091885 
" clip-path="url(#pf800d37316)" style="fill: none; stroke: #ff7f0e; stroke-width: 1.5; stroke-linecap: square"/>
    <defs>
     <path id="m926e2c4cac" d="M 0 1.5 
C 0.397805 1.5 0.77937 1.341951 1.06066 1.06066 
C 1.341951 0.77937 1.5 0.397805 1.5 0 
C 1.5 -0.397805 1.341951 -0.77937 1.06066 -1.06066 
C 0.77937 -1.341951 0.397805 -1.5 0 -1.5 
C -0.397805 -1.5 -0.77937 -1.341951 -1.06066 -1.06066 
C -1.341951 -0.77937 -1.5 -0.397805 -1.5 0 
C -1.5 0.397805 -1.341951 0.77937 -1.06066 1.06066 
C -0.77937 1.341951 -0.397805 1.5 0 1.5 
z
" style="stroke: #ff7f0e"/>
    </defs>
    <g clip-path="url(#pf800d37316)">
     <use xlink:href="#m926e2c4cac" x="86.134875" y="311.809725" style="fill: #ff7f0e; stroke: #ff7f0e"/>
     <use xlink:href="#m926e2c4cac" x="125.304125" y="285.653905" style="fill: #ff7f0e; stroke: #ff7f0e"/>
     <use xlink:href="#m926e2c4cac" x="164.473375" y="267.454872" style="fill: #ff7f0e; stroke: #ff7f0e"/>
     <use xlink:href="#m926e2c4cac" x="203.642625" y="234.442672" style="fill: #ff7f0e; stroke: #ff7f0e"/>
     <use xlink:href="#m926e2c4cac" x="242.811875" y="218.105865" style="fill: #ff7f0e; stroke: #ff7f0e"/>
     <use xlink:href="#m926e2c4cac" x="281.981125" y="207.525032" style="fill: #ff7f0e; stroke: #ff7f0e"/>
     <use xlink:href="#m926e2c4cac" x="321.150375" y="203.969872" style="fill: #ff7f0e; stroke: #ff7f0e"/>
     <use xlink:href="#m926e2c4cac" x="360.319625" y="200.584005" style="fill: #ff7f0e; stroke: #ff7f0e"/>
     <use xlink:href="#m926e2c4cac" x="399.488875" y="202.784818" style="fill: #ff7f0e; stroke: #ff7f0e"/>
     <use xlink:href="#m926e2c4cac" x="438.658125" y="205.239572" style="fill: #ff7f0e; stroke: #ff7f0e"/>
     <use xlink:href="#m926e2c4cac" x="477.827375" y="205.070278" style="fill: #ff7f0e; stroke: #ff7f0e"/>
     <use xlink:href="#m926e2c4cac" x="516.996625" y="204.054518" style="fill: #ff7f0e; stroke: #ff7f0e"/>
     <use xlink:href="#m926e2c4cac" x="556.165875" y="196.859552" style="fill: #ff7f0e; stroke: #ff7f0e"/>
     <use xlink:href="#m926e2c4cac" x="595.335125" y="194.743385" style="fill: #ff7f0e; stroke: #ff7f0e"/>
     <use xlink:href="#m926e2c4cac" x="634.504375" y="196.351672" style="fill: #ff7f0e; stroke: #ff7f0e"/>
     <use xlink:href="#m926e2c4cac" x="673.673625" y="200.330065" style="fill: #ff7f0e; stroke: #ff7f0e"/>
     <use xlink:href="#m926e2c4cac" x="712.842875" y="208.202205" style="fill: #ff7f0e; stroke: #ff7f0e"/>
     <use xlink:href="#m926e2c4cac" x="752.012125" y="206.086038" style="fill: #ff7f0e; stroke: #ff7f0e"/>
     <use xlink:href="#m926e2c4cac" x="791.181375" y="205.832098" style="fill: #ff7f0e; stroke: #ff7f0e"/>
     <use xlink:href="#m926e2c4cac" x="830.350625" y="201.091885" style="fill: #ff7f0e; stroke: #ff7f0e"/>
    </g>
   </g>
   <g id="line2d_27">
    <path d="M 86.134875 166.556045 
L 125.304125 144.082355 
L 164.473375 128.126458 
L 203.642625 104.933272 
L 242.811875 95.537492 
L 281.981125 90.966572 
L 321.150375 88.173232 
L 360.319625 81.147558 
L 399.488875 81.570792 
L 438.658125 82.755845 
L 477.827375 87.496058 
L 516.996625 89.950812 
L 556.165875 86.988178 
L 595.335125 86.818885 
L 634.504375 89.019698 
L 673.673625 92.744152 
L 712.842875 98.330832 
L 752.012125 96.976485 
L 791.181375 95.622138 
L 830.350625 90.374045 
" clip-path="url(#pf800d37316)" style="fill: none; stroke: #2ca02c; stroke-width: 1.5; stroke-linecap: square"/>
    <defs>
     <path id="mb3bd8d9e18" d="M 0 1.5 
C 0.397805 1.5 0.77937 1.341951 1.06066 1.06066 
C 1.341951 0.77937 1.5 0.397805 1.5 0 
C 1.5 -0.397805 1.341951 -0.77937 1.06066 -1.06066 
C 0.77937 -1.341951 0.397805 -1.5 0 -1.5 
C -0.397805 -1.5 -0.77937 -1.341951 -1.06066 -1.06066 
C -1.341951 -0.77937 -1.5 -0.397805 -1.5 0 
C -1.5 0.397805 -1.341951 0.77937 -1.06066 1.06066 
C -0.77937 1.341951 -0.397805 1.5 0 1.5 
z
" style="stroke: #2ca02c"/>
    </defs>
    <g clip-path="url(#pf800d37316)">
     <use xlink:href="#mb3bd8d9e18" x="86.134875" y="166.556045" style="fill: #2ca02c; stroke: #2ca02c"/>
     <use xlink:href="#mb3bd8d9e18" x="125.304125" y="144.082355" style="fill: #2ca02c; stroke: #2ca02c"/>
     <use xlink:href="#mb3bd8d9e18" x="164.473375" y="128.126458" style="fill: #2ca02c; stroke: #2ca02c"/>
     <use xlink:href="#mb3bd8d9e18" x="203.642625" y="104.933272" style="fill: #2ca02c; stroke: #2ca02c"/>
     <use xlink:href="#mb3bd8d9e18" x="242.811875" y="95.537492" style="fill: #2ca02c; stroke: #2ca02c"/>
     <use xlink:href="#mb3bd8d9e18" x="281.981125" y="90.966572" style="fill: #2ca02c; stroke: #2ca02c"/>
     <use xlink:href="#mb3bd8d9e18" x="321.150375" y="88.173232" style="fill: #2ca02c; stroke: #2ca02c"/>
     <use xlink:href="#mb3bd8d9e18" x="360.319625" y="81.147558" style="fill: #2ca02c; stroke: #2ca02c"/>
     <use xlink:href="#mb3bd8d9e18" x="399.488875" y="81.570792" style="fill: #2ca02c; stroke: #2ca02c"/>
     <use xlink:href="#mb3bd8d9e18" x="438.658125" y="82.755845" style="fill: #2ca02c; stroke: #2ca02c"/>
     <use xlink:href="#mb3bd8d9e18" x="477.827375" y="87.496058" style="fill: #2ca02c; stroke: #2ca02c"/>
     <use xlink:href="#mb3bd8d9e18" x="516.996625" y="89.950812" style="fill: #2ca02c; stroke: #2ca02c"/>
     <use xlink:href="#mb3bd8d9e18" x="556.165875" y="86.988178" style="fill: #2ca02c; stroke: #2ca02c"/>
     <use xlink:href="#mb3bd8d9e18" x="595.335125" y="86.818885" style="fill: #2ca02c; stroke: #2ca02c"/>
     <use xlink:href="#mb3bd8d9e18" x="634.504375" y="89.019698" style="fill: #2ca02c; stroke: #2ca02c"/>
     <use xlink:href="#mb3bd8d9e18" x="673.673625" y="92.744152" style="fill: #2ca02c; stroke: #2ca02c"/>
     <use xlink:href="#mb3bd8d9e18" x="712.842875" y="98.330832" style="fill: #2ca02c; stroke: #2ca02c"/>
     <use xlink:href="#mb3bd8d9e18" x="752.012125" y="96.976485" style="fill: #2ca02c; stroke: #2ca02c"/>
     <use xlink:href="#mb3bd8d9e18" x="791.181375" y="95.622138" style="fill: #2ca02c; stroke: #2ca02c"/>
     <use xlink:href="#mb3bd8d9e18" x="830.350625" y="90.374045" style="fill: #2ca02c; stroke: #2ca02c"/>
    </g>
   </g>
   <g id="line2d_28">
    <path d="M 86.134875 215.143232 
L 125.304125 196.944198 
L 164.473375 180.268805 
L 203.642625 156.144505 
L 242.811875 142.770332 
L 281.981125 137.240083 
L 321.150375 134.813545 
L 360.319625 129.650098 
L 399.488875 129.650098 
L 438.658125 133.713138 
L 477.827375 137.973687 
L 516.996625 141.698141 
L 556.165875 137.747963 
L 595.335125 137.917256 
L 634.504375 137.070789 
L 673.673625 138.453352 
L 712.842875 140.541303 
L 752.012125 140.033423 
L 791.181375 140.767027 
L 830.350625 141.500632 
" clip-path="url(#pf800d37316)" style="fill: none; stroke-dasharray: 5.55,2.4; stroke-dashoffset: 0; stroke: #444444; stroke-width: 1.5"/>
    <defs>
     <path id="mf3595e27fc" d="M 0 1.5 
C 0.397805 1.5 0.77937 1.341951 1.06066 1.06066 
C 1.341951 0.77937 1.5 0.397805 1.5 0 
C 1.5 -0.397805 1.341951 -0.77937 1.06066 -1.06066 
C 0.77937 -1.341951 0.397805 -1.5 0 -1.5 
C -0.397805 -1.5 -0.77937 -1.341951 -1.06066 -1.06066 
C -1.341951 -0.77937 -1.5 -0.397805 -1.5 0 
C -1.5 0.397805 -1.341951 0.77937 -1.06066 1.06066 
C -0.77937 1.341951 -0.397805 1.5 0 1.5 
z
" style="stroke: #444444"/>
    </defs>
    <g clip-path="url(#pf800d37316)">
     <use xlink:href="#mf3595e27fc" x="86.134875" y="215.143232" style="fill: #444444; stroke: #444444"/>
     <use xlink:href="#mf3595e27fc" x="125.304125" y="196.944198" style="fill: #444444; stroke: #444444"/>
     <use xlink:href="#mf3595e27fc" x="164.473375" y="180.268805" style="fill: #444444; stroke: #444444"/>
     <use xlink:href="#mf3595e27fc" x="203.642625" y="156.144505" style="fill: #444444; stroke: #444444"/>
     <use xlink:href="#mf3595e27fc" x="242.811875" y="142.770332" style="fill: #444444; stroke: #444444"/>
     <use xlink:href="#mf3595e27fc" x="281.981125" y="137.240083" style="fill: #444444; stroke: #444444"/>
     <use xlink:href="#mf3595e27fc" x="321.150375" y="134.813545" style="fill: #444444; stroke: #444444"/>
     <use xlink:href="#mf3595e27fc" x="360.319625" y="129.650098" style="fill: #444444; stroke: #444444"/>
     <use xlink:href="#mf3595e27fc" x="399.488875" y="129.650098" style="fill: #444444; stroke: #444444"/>
     <use xlink:href="#mf3595e27fc" x="438.658125" y="133.713138" style="fill: #444444; stroke: #444444"/>
     <use xlink:href="#mf3595e27fc" x="477.827375" y="137.973687" style="fill: #444444; stroke: #444444"/>
     <use xlink:href="#mf3595e27fc" x="516.996625" y="141.698141" style="fill: #444444; stroke: #444444"/>
     <use xlink:href="#mf3595e27fc" x="556.165875" y="137.747963" style="fill: #444444; stroke: #444444"/>
     <use xlink:href="#mf3595e27fc" x="595.335125" y="137.917256" style="fill: #444444; stroke: #444444"/>
     <use xlink:href="#mf3595e27fc" x="634.504375" y="137.070789" style="fill: #444444; stroke: #444444"/>
     <use xlink:href="#mf3595e27fc" x="673.673625" y="138.453352" style="fill: #444444; stroke: #444444"/>
     <use xlink:href="#mf3595e27fc" x="712.842875" y="140.541303" style="fill: #444444; stroke: #444444"/>
     <use xlink:href="#mf3595e27fc" x="752.012125" y="140.033423" style="fill: #444444; stroke: #444444"/>
     <use xlink:href="#mf3595e27fc" x="791.181375" y="140.767027" style="fill: #444444; stroke: #444444"/>
     <use xlink:href="#mf3595e27fc" x="830.350625" y="141.500632" style="fill: #444444; stroke: #444444"/>
    </g>
   </g>
   <g id="line2d_29">
    <path d="M 46.965625 403.228125 
L 830.350625 403.228125 
" clip-path="url(#pf800d37316)" style="fill: none; stroke: #ff0000; stroke-linecap: square"/>
   </g>
   <g id="patch_3">
    <path d="M 46.965625 530.198125 
L 46.965625 22.318125 
" style="fill: none; stroke: #000000; stroke-width: 0.8; stroke-linejoin: miter; stroke-linecap: square"/>
   </g>
   <g id="patch_4">
    <path d="M 830.350625 530.198125 
L 830.350625 22.318125 
" style="fill: none; stroke: #000000; stroke-width: 0.8; stroke-linejoin: miter; stroke-linecap: square"/>
   </g>
   <g id="patch_5">
    <path d="M 46.965625 530.198125 
L 830.350625 530.198125 
" style="fill: none; stroke: #000000; stroke-width: 0.8; stroke-linejoin: miter; stroke-linecap: square"/>
   </g>
   <g id="patch_6">
    <path d="M 46.965625 22.318125 
L 830.350625 22.318125 
" style="fill: none; stroke: #000000; stroke-width: 0.8; stroke-linejoin: miter; stroke-linecap: square"/>
   </g>
   <g id="text_15">
    <text style="font-size: 12px; font-family: 'Palatino Linotype', 'Book Antiqua', 'Palatino', 'DejaVu Serif', serif; text-anchor: middle" x="438.658125" y="16.318125" transform="rotate(-0 438.658125 16.318125)">Lernkurve (Benchmark) - K1A2 vs. feste Heuristiken</text>
   </g>
   <g id="legend_1">
    <g id="patch_7">
     <path d="M 730.755313 103.993125 
L 823.350625 103.993125 
Q 825.350625 103.993125 825.350625 101.993125 
L 825.350625 29.318125 
Q 825.350625 27.318125 823.350625 27.318125 
L 730.755313 27.318125 
Q 728.755313 27.318125 728.755313 29.318125 
L 728.755313 101.993125 
Q 728.755313 103.993125 730.755313 103.993125 
z
" style="fill: #ffffff; opacity: 0.8; stroke: #cccccc; stroke-linejoin: miter"/>
    </g>
    <g id="line2d_30">
     <path d="M 732.755313 35.416562 
L 742.755313 35.416562 
L 752.755313 35.416562 
" style="fill: none; stroke: #1f77b4; stroke-width: 1.5; stroke-linecap: square"/>
     <g>
      <use xlink:href="#m7747482d7a" x="742.755313" y="35.416562" style="fill: #1f77b4; stroke: #1f77b4"/>
     </g>
    </g>
    <g id="text_16">
     <text style="font-size: 10px; font-family: 'Palatino Linotype', 'Book Antiqua', 'Palatino', 'DejaVu Serif', serif; text-anchor: start" x="760.755313" y="38.916562" transform="rotate(-0 760.755313 38.916562)">Single Only</text>
    </g>
    <g id="line2d_31">
     <path d="M 732.755313 50.236875 
L 742.755313 50.236875 
L 752.755313 50.236875 
" style="fill: none; stroke: #ff7f0e; stroke-width: 1.5; stroke-linecap: square"/>
     <g>
      <use xlink:href="#m926e2c4cac" x="742.755313" y="50.236875" style="fill: #ff7f0e; stroke: #ff7f0e"/>
     </g>
    </g>
    <g id="text_17">
     <text style="font-size: 10px; font-family: 'Palatino Linotype', 'Book Antiqua', 'Palatino', 'DejaVu Serif', serif; text-anchor: start" x="760.755313" y="53.736875" transform="rotate(-0 760.755313 53.736875)">Max Combo</text>
    </g>
    <g id="line2d_32">
     <path d="M 732.755313 64.915 
L 742.755313 64.915 
L 752.755313 64.915 
" style="fill: none; stroke: #2ca02c; stroke-width: 1.5; stroke-linecap: square"/>
     <g>
      <use xlink:href="#mb3bd8d9e18" x="742.755313" y="64.915" style="fill: #2ca02c; stroke: #2ca02c"/>
     </g>
    </g>
    <g id="text_18">
     <text style="font-size: 10px; font-family: 'Palatino Linotype', 'Book Antiqua', 'Palatino', 'DejaVu Serif', serif; text-anchor: start" x="760.755313" y="68.415" transform="rotate(-0 760.755313 68.415)">Random 2</text>
    </g>
    <g id="line2d_33">
     <path d="M 732.755313 79.593125 
L 742.755313 79.593125 
L 752.755313 79.593125 
" style="fill: none; stroke-dasharray: 5.55,2.4; stroke-dashoffset: 0; stroke: #444444; stroke-width: 1.5"/>
     <g>
      <use xlink:href="#mf3595e27fc" x="742.755313" y="79.593125" style="fill: #444444; stroke: #444444"/>
     </g>
    </g>
    <g id="text_19">
     <text style="font-size: 10px; font-family: 'Palatino Linotype', 'Book Antiqua', 'Palatino', 'DejaVu Serif', serif; text-anchor: start" x="760.755313" y="83.093125" transform="rotate(-0 760.755313 83.093125)">Avg Macro</text>
    </g>
    <g id="line2d_34">
     <path d="M 732.755313 94.413437 
L 742.755313 94.413437 
L 752.755313 94.413437 
" style="fill: none; stroke: #ff0000; stroke-linecap: square"/>
    </g>
    <g id="text_20">
     <text style="font-size: 10px; font-family: 'Palatino Linotype', 'Book Antiqua', 'Palatino', 'DejaVu Serif', serif; text-anchor: start" x="760.755313" y="97.913437" transform="rotate(-0 760.755313 97.913437)">25% Linie</text>
    </g>
   </g>
  </g>
 </g>
 <defs>
  <clipPath id="pf800d37316">
   <rect x="46.965625" y="22.318125" width="783.385" height="507.88"/>
  </clipPath>
 </defs>
</svg>
