<?xml version="1.0" encoding="utf-8" standalone="no"?>
<!DOCTYPE svg PUBLIC "-//W3C//DTD SVG 1.1//EN"
  "http://www.w3.org/Graphics/SVG/1.1/DTD/svg11.dtd">
<svg xmlns:xlink="http://www.w3.org/1999/xlink" width="856.638125pt" height="567.754375pt" viewBox="0 0 856.638125 567.754375" xmlns="http://www.w3.org/2000/svg" version="1.1">
 <metadata>
  <rdf:RDF xmlns:dc="http://purl.org/dc/elements/1.1/" xmlns:cc="http://creativecommons.org/ns#" xmlns:rdf="http://www.w3.org/1999/02/22-rdf-syntax-ns#">
   <cc:Work>
    <dc:type rdf:resource="http://purl.org/dc/dcmitype/StillImage"/>
    <dc:date>2025-09-25T07:02:02.125371</dc:date>
    <dc:format>image/svg+xml</dc:format>
    <dc:creator>
     <cc:Agent>
      <dc:title>Matplotlib v3.10.3, https://matplotlib.org/</dc:title>
     </cc:Agent>
    </dc:creator>
   </cc:Work>
  </rdf:RDF>
 </metadata>
 <defs>
  <style type="text/css">*{stroke-linejoin: round; stroke-linecap: butt}</style>
 </defs>
 <g id="figure_1">
  <g id="patch_1">
   <path d="M 0 567.754375 
L 856.638125 567.754375 
L 856.638125 0 
L 0 0 
z
" style="fill: #ffffff"/>
  </g>
  <g id="axes_1">
   <g id="patch_2">
    <path d="M 46.965625 530.198125 
L 830.350625 530.198125 
L 830.350625 22.318125 
L 46.965625 22.318125 
z
" style="fill: #ffffff"/>
   </g>
   <g id="FillBetweenPolyCollection_1">
    <defs>
     <path id="me339954fa4" d="M 86.134875 -45.06805 
L 86.134875 -40.649336 
L 125.304125 -76.052368 
L 164.473375 -159.460774 
L 203.642625 -246.40462 
L 242.811875 -359.199802 
L 281.981125 -399.18829 
L 321.150375 -448.631613 
L 360.319625 -442.158289 
L 399.488875 -435.348529 
L 438.658125 -439.398854 
L 477.827375 -439.312645 
L 516.996625 -445.437049 
L 556.165875 -429.149497 
L 595.335125 -434.917821 
L 634.504375 -429.235549 
L 673.673625 -437.502579 
L 712.842875 -429.665827 
L 752.012125 -421.839606 
L 791.181375 -410.247146 
L 830.350625 -411.362575 
L 830.350625 -422.531295 
L 830.350625 -422.531295 
L 791.181375 -421.447318 
L 752.012125 -432.694834 
L 712.842875 -440.264449 
L 673.673625 -447.823533 
L 634.504375 -439.848803 
L 595.335125 -445.332742 
L 556.165875 -439.76567 
L 516.996625 -455.454084 
L 477.827375 -449.566352 
L 438.658125 -449.649328 
L 399.488875 -445.747958 
L 360.319625 -452.303814 
L 321.150375 -458.519366 
L 281.981125 -410.681308 
L 242.811875 -371.491211 
L 203.642625 -259.101146 
L 164.473375 -170.600136 
L 125.304125 -84.789406 
L 86.134875 -45.06805 
z
"/>
    </defs>
    <g clip-path="url(#p9a72d04c0d)">
     <use xlink:href="#me339954fa4" x="0" y="567.754375" style="fill: #1f77b4; fill-opacity: 0.15"/>
    </g>
   </g>
   <g id="FillBetweenPolyCollection_2">
    <defs>
     <path id="mc7e018face" d="M 86.134875 -38.529916 
L 86.134875 -37.55625 
L 125.304125 -51.374749 
L 164.473375 -77.194167 
L 203.642625 -105.55299 
L 242.811875 -137.078465 
L 281.981125 -148.882797 
L 321.150375 -166.30013 
L 360.319625 -179.915872 
L 399.488875 -204.369216 
L 438.658125 -219.39537 
L 477.827375 -225.530718 
L 516.996625 -215.615404 
L 556.165875 -209.570846 
L 595.335125 -203.949869 
L 634.504375 -211.333407 
L 673.673625 -208.228185 
L 712.842875 -215.951335 
L 752.012125 -214.523715 
L 791.181375 -227.548727 
L 830.350625 -222.336454 
L 830.350625 -234.782399 
L 830.350625 -234.782399 
L 791.181375 -240.059596 
L 752.012125 -226.860932 
L 712.842875 -228.309457 
L 673.673625 -220.467586 
L 634.504375 -223.622209 
L 595.335125 -216.117466 
L 556.165875 -221.831885 
L 516.996625 -227.968648 
L 477.827375 -238.017165 
L 438.658125 -231.802007 
L 399.488875 -216.544045 
L 360.319625 -191.595365 
L 321.150375 -177.633951 
L 281.981125 -159.691617 
L 242.811875 -147.471678 
L 203.642625 -114.537664 
L 164.473375 -84.358474 
L 125.304125 -56.95188 
L 86.134875 -38.529916 
z
"/>
    </defs>
    <g clip-path="url(#p9a72d04c0d)">
     <use xlink:href="#mc7e018face" x="0" y="567.754375" style="fill: #ff7f0e; fill-opacity: 0.15"/>
    </g>
   </g>
   <g id="FillBetweenPolyCollection_3">
    <defs>
     <path id="m289cb2dbb9" d="M 86.134875 -45.06805 
L 86.134875 -40.649336 
L 125.304125 -100.060618 
L 164.473375 -152.045916 
L 203.642625 -221.412009 
L 242.811875 -275.011282 
L 281.981125 -287.52622 
L 321.150375 -313.705877 
L 360.319625 -326.949064 
L 399.488875 -361.75747 
L 438.658125 -380.707751 
L 477.827375 -389.600306 
L 516.996625 -374.557068 
L 556.165875 -370.203067 
L 595.335125 -361.586936 
L 634.504375 -370.971258 
L 673.673625 -354.853446 
L 712.842875 -356.216783 
L 752.012125 -350.424014 
L 791.181375 -360.819573 
L 830.350625 -359.626029 
L 830.350625 -371.910909 
L 830.350625 -371.910909 
L 791.181375 -373.085956 
L 752.012125 -362.840944 
L 712.842875 -368.552756 
L 673.673625 -367.209132 
L 634.504375 -383.067287 
L 595.335125 -373.841258 
L 556.165875 -382.312813 
L 516.996625 -386.587248 
L 477.827375 -401.320571 
L 438.658125 -392.617885 
L 399.488875 -374.009094 
L 360.319625 -339.620831 
L 321.150375 -326.471156 
L 281.981125 -300.372645 
L 242.811875 -287.848202 
L 203.642625 -233.845808 
L 164.473375 -162.957529 
L 125.304125 -110.759337 
L 86.134875 -45.06805 
z
"/>
    </defs>
    <g clip-path="url(#p9a72d04c0d)">
     <use xlink:href="#m289cb2dbb9" x="0" y="567.754375" style="fill: #2ca02c; fill-opacity: 0.15"/>
    </g>
   </g>
   <g id="matplotlib.axis_1">
    <g id="xtick_1">
     <g id="line2d_1">
      <path d="M 46.965625 530.198125 
L 46.965625 22.318125 
" clip-path="url(#p9a72d04c0d)" style="fill: none; stroke: #b0b0b0; stroke-width: 0.8; stroke-linecap: square"/>
     </g>
     <g id="line2d_2">
      <defs>
       <path id="mfba66a3656" d="M 0 0 
L 0 3.5 
" style="stroke: #000000; stroke-width: 0.8"/>
      </defs>
      <g>
       <use xlink:href="#mfba66a3656" x="46.965625" y="530.198125" style="stroke: #000000; stroke-width: 0.8"/>
      </g>
     </g>
     <g id="text_1">
      <text style="font-size: 10px; font-family: 'Palatino Linotype', 'Book Antiqua', 'Palatino', 'DejaVu Serif', serif; text-anchor: middle" x="46.965625" y="544.796562" transform="rotate(-0 46.965625 544.796562)">0</text>
     </g>
    </g>
    <g id="xtick_2">
     <g id="line2d_3">
      <path d="M 203.642625 530.198125 
L 203.642625 22.318125 
" clip-path="url(#p9a72d04c0d)" style="fill: none; stroke: #b0b0b0; stroke-width: 0.8; stroke-linecap: square"/>
     </g>
     <g id="line2d_4">
      <g>
       <use xlink:href="#mfba66a3656" x="203.642625" y="530.198125" style="stroke: #000000; stroke-width: 0.8"/>
      </g>
     </g>
     <g id="text_2">
      <text style="font-size: 10px; font-family: 'Palatino Linotype', 'Book Antiqua', 'Palatino', 'DejaVu Serif', serif; text-anchor: middle" x="203.642625" y="544.796562" transform="rotate(-0 203.642625 544.796562)">20000</text>
     </g>
    </g>
    <g id="xtick_3">
     <g id="line2d_5">
      <path d="M 360.319625 530.198125 
L 360.319625 22.318125 
" clip-path="url(#p9a72d04c0d)" style="fill: none; stroke: #b0b0b0; stroke-width: 0.8; stroke-linecap: square"/>
     </g>
     <g id="line2d_6">
      <g>
       <use xlink:href="#mfba66a3656" x="360.319625" y="530.198125" style="stroke: #000000; stroke-width: 0.8"/>
      </g>
     </g>
     <g id="text_3">
      <text style="font-size: 10px; font-family: 'Palatino Linotype', 'Book Antiqua', 'Palatino', 'DejaVu Serif', serif; text-anchor: middle" x="360.319625" y="544.796562" transform="rotate(-0 360.319625 544.796562)">40000</text>
     </g>
    </g>
    <g id="xtick_4">
     <g id="line2d_7">
      <path d="M 516.996625 530.198125 
L 516.996625 22.318125 
" clip-path="url(#p9a72d04c0d)" style="fill: none; stroke: #b0b0b0; stroke-width: 0.8; stroke-linecap: square"/>
     </g>
     <g id="line2d_8">
      <g>
       <use xlink:href="#mfba66a3656" x="516.996625" y="530.198125" style="stroke: #000000; stroke-width: 0.8"/>
      </g>
     </g>
     <g id="text_4">
      <text style="font-size: 10px; font-family: 'Palatino Linotype', 'Book Antiqua', 'Palatino', 'DejaVu Serif', serif; text-anchor: middle" x="516.996625" y="544.796562" transform="rotate(-0 516.996625 544.796562)">60000</text>
     </g>
    </g>
    <g id="xtick_5">
     <g id="line2d_9">
      <path d="M 673.673625 530.198125 
L 673.673625 22.318125 
" clip-path="url(#p9a72d04c0d)" style="fill: none; stroke: #b0b0b0; stroke-width: 0.8; stroke-linecap: square"/>
     </g>
     <g id="line2d_10">
      <g>
       <use xlink:href="#mfba66a3656" x="673.673625" y="530.198125" style="stroke: #000000; stroke-width: 0.8"/>
      </g>
     </g>
     <g id="text_5">
      <text style="font-size: 10px; font-family: 'Palatino Linotype', 'Book Antiqua', 'Palatino', 'DejaVu Serif', serif; text-anchor: middle" x="673.673625" y="544.796562" transform="rotate(-0 673.673625 544.796562)">80000</text>
     </g>
    </g>
    <g id="xtick_6">
     <g id="line2d_11">
      <path d="M 830.350625 530.198125 
L 830.350625 22.318125 
" clip-path="url(#p9a72d04c0d)" style="fill: none; stroke: #b0b0b0; stroke-width: 0.8; stroke-linecap: square"/>
     </g>
     <g id="line2d_12">
      <g>
       <use xlink:href="#mfba66a3656" x="830.350625" y="530.198125" style="stroke: #000000; stroke-width: 0.8"/>
      </g>
     </g>
     <g id="text_6">
      <text style="font-size: 10px; font-family: 'Palatino Linotype', 'Book Antiqua', 'Palatino', 'DejaVu Serif', serif; text-anchor: middle" x="830.350625" y="544.796562" transform="rotate(-0 830.350625 544.796562)">100000</text>
     </g>
    </g>
    <g id="text_7">
     <text style="font-size: 10px; font-family: 'Palatino Linotype', 'Book Antiqua', 'Palatino', 'DejaVu Serif', serif; text-anchor: middle" x="438.658125" y="558.474687" transform="rotate(-0 438.658125 558.474687)">Episode</text>
    </g>
   </g>
   <g id="matplotlib.axis_2">
    <g id="ytick_1">
     <g id="line2d_13">
      <path d="M 46.965625 530.198125 
L 830.350625 530.198125 
" clip-path="url(#p9a72d04c0d)" style="fill: none; stroke: #b0b0b0; stroke-width: 0.8; stroke-linecap: square"/>
     </g>
     <g id="line2d_14">
      <defs>
       <path id="m703b1b814c" d="M 0 0 
L -3.5 0 
" style="stroke: #000000; stroke-width: 0.8"/>
      </defs>
      <g>
       <use xlink:href="#m703b1b814c" x="46.965625" y="530.198125" style="stroke: #000000; stroke-width: 0.8"/>
      </g>
     </g>
     <g id="text_8">
      <text style="font-size: 10px; font-family: 'Palatino Linotype', 'Book Antiqua', 'Palatino', 'DejaVu Serif', serif; text-anchor: end" x="39.965625" y="533.997344" transform="rotate(-0 39.965625 533.997344)">0</text>
     </g>
    </g>
    <g id="ytick_2">
     <g id="line2d_15">
      <path d="M 46.965625 428.622125 
L 830.350625 428.622125 
" clip-path="url(#p9a72d04c0d)" style="fill: none; stroke: #b0b0b0; stroke-width: 0.8; stroke-linecap: square"/>
     </g>
     <g id="line2d_16">
      <g>
       <use xlink:href="#m703b1b814c" x="46.965625" y="428.622125" style="stroke: #000000; stroke-width: 0.8"/>
      </g>
     </g>
     <g id="text_9">
      <text style="font-size: 10px; font-family: 'Palatino Linotype', 'Book Antiqua', 'Palatino', 'DejaVu Serif', serif; text-anchor: end" x="39.965625" y="432.421344" transform="rotate(-0 39.965625 432.421344)">20</text>
     </g>
    </g>
    <g id="ytick_3">
     <g id="line2d_17">
      <path d="M 46.965625 327.046125 
L 830.350625 327.046125 
" clip-path="url(#p9a72d04c0d)" style="fill: none; stroke: #b0b0b0; stroke-width: 0.8; stroke-linecap: square"/>
     </g>
     <g id="line2d_18">
      <g>
       <use xlink:href="#m703b1b814c" x="46.965625" y="327.046125" style="stroke: #000000; stroke-width: 0.8"/>
      </g>
     </g>
     <g id="text_10">
      <text style="font-size: 10px; font-family: 'Palatino Linotype', 'Book Antiqua', 'Palatino', 'DejaVu Serif', serif; text-anchor: end" x="39.965625" y="330.845344" transform="rotate(-0 39.965625 330.845344)">40</text>
     </g>
    </g>
    <g id="ytick_4">
     <g id="line2d_19">
      <path d="M 46.965625 225.470125 
L 830.350625 225.470125 
" clip-path="url(#p9a72d04c0d)" style="fill: none; stroke: #b0b0b0; stroke-width: 0.8; stroke-linecap: square"/>
     </g>
     <g id="line2d_20">
      <g>
       <use xlink:href="#m703b1b814c" x="46.965625" y="225.470125" style="stroke: #000000; stroke-width: 0.8"/>
      </g>
     </g>
     <g id="text_11">
      <text style="font-size: 10px; font-family: 'Palatino Linotype', 'Book Antiqua', 'Palatino', 'DejaVu Serif', serif; text-anchor: end" x="39.965625" y="229.269344" transform="rotate(-0 39.965625 229.269344)">60</text>
     </g>
    </g>
    <g id="ytick_5">
     <g id="line2d_21">
      <path d="M 46.965625 123.894125 
L 830.350625 123.894125 
" clip-path="url(#p9a72d04c0d)" style="fill: none; stroke: #b0b0b0; stroke-width: 0.8; stroke-linecap: square"/>
     </g>
     <g id="line2d_22">
      <g>
       <use xlink:href="#m703b1b814c" x="46.965625" y="123.894125" style="stroke: #000000; stroke-width: 0.8"/>
      </g>
     </g>
     <g id="text_12">
      <text style="font-size: 10px; font-family: 'Palatino Linotype', 'Book Antiqua', 'Palatino', 'DejaVu Serif', serif; text-anchor: end" x="39.965625" y="127.693344" transform="rotate(-0 39.965625 127.693344)">80</text>
     </g>
    </g>
    <g id="ytick_6">
     <g id="line2d_23">
      <path d="M 46.965625 22.318125 
L 830.350625 22.318125 
" clip-path="url(#p9a72d04c0d)" style="fill: none; stroke: #b0b0b0; stroke-width: 0.8; stroke-linecap: square"/>
     </g>
     <g id="line2d_24">
      <g>
       <use xlink:href="#m703b1b814c" x="46.965625" y="22.318125" style="stroke: #000000; stroke-width: 0.8"/>
      </g>
     </g>
     <g id="text_13">
      <text style="font-size: 10px; font-family: 'Palatino Linotype', 'Book Antiqua', 'Palatino', 'DejaVu Serif', serif; text-anchor: end" x="39.965625" y="26.117344" transform="rotate(-0 39.965625 26.117344)">100</text>
     </g>
    </g>
    <g id="text_14">
     <text style="font-size: 10px; font-family: 'Palatino Linotype', 'Book Antiqua', 'Palatino', 'DejaVu Serif', serif; text-anchor: middle" x="14.798438" y="276.258125" transform="rotate(-90 14.798438 276.258125)">Winrate (%)</text>
    </g>
   </g>
   <g id="line2d_25">
    <path d="M 86.134875 525.373265 
L 125.304125 487.536205 
L 164.473375 402.804892 
L 203.642625 315.026298 
L 242.811875 202.361585 
L 281.981125 162.746945 
L 321.150375 114.075112 
L 360.319625 120.423612 
L 399.488875 127.110698 
L 438.658125 123.132305 
L 477.827375 123.216952 
L 516.996625 117.207038 
L 556.165875 133.205258 
L 595.335125 127.533932 
L 634.504375 133.120612 
L 673.673625 124.994532 
L 712.842875 132.697378 
L 752.012125 140.400225 
L 791.181375 151.827525 
L 830.350625 150.727118 
" clip-path="url(#p9a72d04c0d)" style="fill: none; stroke: #1f77b4; stroke-width: 1.5; stroke-linecap: square"/>
    <defs>
     <path id="m9a789411c9" d="M 0 1.5 
C 0.397805 1.5 0.77937 1.341951 1.06066 1.06066 
C 1.341951 0.77937 1.5 0.397805 1.5 0 
C 1.5 -0.397805 1.341951 -0.77937 1.06066 -1.06066 
C 0.77937 -1.341951 0.397805 -1.5 0 -1.5 
C -0.397805 -1.5 -0.77937 -1.341951 -1.06066 -1.06066 
C -1.341951 -0.77937 -1.5 -0.397805 -1.5 0 
C -1.5 0.397805 -1.341951 0.77937 -1.06066 1.06066 
C -0.77937 1.341951 -0.397805 1.5 0 1.5 
z
" style="stroke: #1f77b4"/>
    </defs>
    <g clip-path="url(#p9a72d04c0d)">
     <use xlink:href="#m9a789411c9" x="86.134875" y="525.373265" style="fill: #1f77b4; stroke: #1f77b4"/>
     <use xlink:href="#m9a789411c9" x="125.304125" y="487.536205" style="fill: #1f77b4; stroke: #1f77b4"/>
     <use xlink:href="#m9a789411c9" x="164.473375" y="402.804892" style="fill: #1f77b4; stroke: #1f77b4"/>
     <use xlink:href="#m9a789411c9" x="203.642625" y="315.026298" style="fill: #1f77b4; stroke: #1f77b4"/>
     <use xlink:href="#m9a789411c9" x="242.811875" y="202.361585" style="fill: #1f77b4; stroke: #1f77b4"/>
     <use xlink:href="#m9a789411c9" x="281.981125" y="162.746945" style="fill: #1f77b4; stroke: #1f77b4"/>
     <use xlink:href="#m9a789411c9" x="321.150375" y="114.075112" style="fill: #1f77b4; stroke: #1f77b4"/>
     <use xlink:href="#m9a789411c9" x="360.319625" y="120.423612" style="fill: #1f77b4; stroke: #1f77b4"/>
     <use xlink:href="#m9a789411c9" x="399.488875" y="127.110698" style="fill: #1f77b4; stroke: #1f77b4"/>
     <use xlink:href="#m9a789411c9" x="438.658125" y="123.132305" style="fill: #1f77b4; stroke: #1f77b4"/>
     <use xlink:href="#m9a789411c9" x="477.827375" y="123.216952" style="fill: #1f77b4; stroke: #1f77b4"/>
     <use xlink:href="#m9a789411c9" x="516.996625" y="117.207038" style="fill: #1f77b4; stroke: #1f77b4"/>
     <use xlink:href="#m9a789411c9" x="556.165875" y="133.205258" style="fill: #1f77b4; stroke: #1f77b4"/>
     <use xlink:href="#m9a789411c9" x="595.335125" y="127.533932" style="fill: #1f77b4; stroke: #1f77b4"/>
     <use xlink:href="#m9a789411c9" x="634.504375" y="133.120612" style="fill: #1f77b4; stroke: #1f77b4"/>
     <use xlink:href="#m9a789411c9" x="673.673625" y="124.994532" style="fill: #1f77b4; stroke: #1f77b4"/>
     <use xlink:href="#m9a789411c9" x="712.842875" y="132.697378" style="fill: #1f77b4; stroke: #1f77b4"/>
     <use xlink:href="#m9a789411c9" x="752.012125" y="140.400225" style="fill: #1f77b4; stroke: #1f77b4"/>
     <use xlink:href="#m9a789411c9" x="791.181375" y="151.827525" style="fill: #1f77b4; stroke: #1f77b4"/>
     <use xlink:href="#m9a789411c9" x="830.350625" y="150.727118" style="fill: #1f77b4; stroke: #1f77b4"/>
    </g>
   </g>
   <g id="line2d_26">
    <path d="M 86.134875 530.198125 
L 125.304125 513.818995 
L 164.473375 487.112972 
L 203.642625 457.825225 
L 242.811875 425.574845 
L 281.981125 413.555018 
L 321.150375 395.863865 
L 360.319625 382.066458 
L 399.488875 357.349632 
L 438.658125 342.197878 
L 477.827375 336.018672 
L 516.996625 346.006978 
L 556.165875 352.101538 
L 595.335125 357.772865 
L 634.504375 350.323958 
L 673.673625 353.455885 
L 712.842875 345.668392 
L 752.012125 347.107385 
L 791.181375 333.987152 
L 830.350625 339.235245 
" clip-path="url(#p9a72d04c0d)" style="fill: none; stroke: #ff7f0e; stroke-width: 1.5; stroke-linecap: square"/>
    <defs>
     <path id="m586cdbb2ee" d="M 0 1.5 
C 0.397805 1.5 0.77937 1.341951 1.06066 1.06066 
C 1.341951 0.77937 1.5 0.397805 1.5 0 
C 1.5 -0.397805 1.341951 -0.77937 1.06066 -1.06066 
C 0.77937 -1.341951 0.397805 -1.5 0 -1.5 
C -0.397805 -1.5 -0.77937 -1.341951 -1.06066 -1.06066 
C -1.341951 -0.77937 -1.5 -0.397805 -1.5 0 
C -1.5 0.397805 -1.341951 0.77937 -1.06066 1.06066 
C -0.77937 1.341951 -0.397805 1.5 0 1.5 
z
" style="stroke: #ff7f0e"/>
    </defs>
    <g clip-path="url(#p9a72d04c0d)">
     <use xlink:href="#m586cdbb2ee" x="86.134875" y="530.198125" style="fill: #ff7f0e; stroke: #ff7f0e"/>
     <use xlink:href="#m586cdbb2ee" x="125.304125" y="513.818995" style="fill: #ff7f0e; stroke: #ff7f0e"/>
     <use xlink:href="#m586cdbb2ee" x="164.473375" y="487.112972" style="fill: #ff7f0e; stroke: #ff7f0e"/>
     <use xlink:href="#m586cdbb2ee" x="203.642625" y="457.825225" style="fill: #ff7f0e; stroke: #ff7f0e"/>
     <use xlink:href="#m586cdbb2ee" x="242.811875" y="425.574845" style="fill: #ff7f0e; stroke: #ff7f0e"/>
     <use xlink:href="#m586cdbb2ee" x="281.981125" y="413.555018" style="fill: #ff7f0e; stroke: #ff7f0e"/>
     <use xlink:href="#m586cdbb2ee" x="321.150375" y="395.863865" style="fill: #ff7f0e; stroke: #ff7f0e"/>
     <use xlink:href="#m586cdbb2ee" x="360.319625" y="382.066458" style="fill: #ff7f0e; stroke: #ff7f0e"/>
     <use xlink:href="#m586cdbb2ee" x="399.488875" y="357.349632" style="fill: #ff7f0e; stroke: #ff7f0e"/>
     <use xlink:href="#m586cdbb2ee" x="438.658125" y="342.197878" style="fill: #ff7f0e; stroke: #ff7f0e"/>
     <use xlink:href="#m586cdbb2ee" x="477.827375" y="336.018672" style="fill: #ff7f0e; stroke: #ff7f0e"/>
     <use xlink:href="#m586cdbb2ee" x="516.996625" y="346.006978" style="fill: #ff7f0e; stroke: #ff7f0e"/>
     <use xlink:href="#m586cdbb2ee" x="556.165875" y="352.101538" style="fill: #ff7f0e; stroke: #ff7f0e"/>
     <use xlink:href="#m586cdbb2ee" x="595.335125" y="357.772865" style="fill: #ff7f0e; stroke: #ff7f0e"/>
     <use xlink:href="#m586cdbb2ee" x="634.504375" y="350.323958" style="fill: #ff7f0e; stroke: #ff7f0e"/>
     <use xlink:href="#m586cdbb2ee" x="673.673625" y="353.455885" style="fill: #ff7f0e; stroke: #ff7f0e"/>
     <use xlink:href="#m586cdbb2ee" x="712.842875" y="345.668392" style="fill: #ff7f0e; stroke: #ff7f0e"/>
     <use xlink:href="#m586cdbb2ee" x="752.012125" y="347.107385" style="fill: #ff7f0e; stroke: #ff7f0e"/>
     <use xlink:href="#m586cdbb2ee" x="791.181375" y="333.987152" style="fill: #ff7f0e; stroke: #ff7f0e"/>
     <use xlink:href="#m586cdbb2ee" x="830.350625" y="339.235245" style="fill: #ff7f0e; stroke: #ff7f0e"/>
    </g>
   </g>
   <g id="line2d_27">
    <path d="M 86.134875 525.373265 
L 125.304125 462.523115 
L 164.473375 410.338445 
L 203.642625 340.166358 
L 242.811875 286.331078 
L 281.981125 273.803372 
L 321.150375 247.647552 
L 360.319625 234.442672 
L 399.488875 199.822185 
L 438.658125 181.030625 
L 477.827375 172.227372 
L 516.996625 187.125185 
L 556.165875 191.442165 
L 595.335125 199.991478 
L 634.504375 190.680345 
L 673.673625 206.678565 
L 712.842875 205.324218 
L 752.012125 211.080192 
L 791.181375 200.753298 
L 830.350625 201.938352 
" clip-path="url(#p9a72d04c0d)" style="fill: none; stroke: #2ca02c; stroke-width: 1.5; stroke-linecap: square"/>
    <defs>
     <path id="m72dbe739ac" d="M 0 1.5 
C 0.397805 1.5 0.77937 1.341951 1.06066 1.06066 
C 1.341951 0.77937 1.5 0.397805 1.5 0 
C 1.5 -0.397805 1.341951 -0.77937 1.06066 -1.06066 
C 0.77937 -1.341951 0.397805 -1.5 0 -1.5 
C -0.397805 -1.5 -0.77937 -1.341951 -1.06066 -1.06066 
C -1.341951 -0.77937 -1.5 -0.397805 -1.5 0 
C -1.5 0.397805 -1.341951 0.77937 -1.06066 1.06066 
C -0.77937 1.341951 -0.397805 1.5 0 1.5 
z
" style="stroke: #2ca02c"/>
    </defs>
    <g clip-path="url(#p9a72d04c0d)">
     <use xlink:href="#m72dbe739ac" x="86.134875" y="525.373265" style="fill: #2ca02c; stroke: #2ca02c"/>
     <use xlink:href="#m72dbe739ac" x="125.304125" y="462.523115" style="fill: #2ca02c; stroke: #2ca02c"/>
     <use xlink:href="#m72dbe739ac" x="164.473375" y="410.338445" style="fill: #2ca02c; stroke: #2ca02c"/>
     <use xlink:href="#m72dbe739ac" x="203.642625" y="340.166358" style="fill: #2ca02c; stroke: #2ca02c"/>
     <use xlink:href="#m72dbe739ac" x="242.811875" y="286.331078" style="fill: #2ca02c; stroke: #2ca02c"/>
     <use xlink:href="#m72dbe739ac" x="281.981125" y="273.803372" style="fill: #2ca02c; stroke: #2ca02c"/>
     <use xlink:href="#m72dbe739ac" x="321.150375" y="247.647552" style="fill: #2ca02c; stroke: #2ca02c"/>
     <use xlink:href="#m72dbe739ac" x="360.319625" y="234.442672" style="fill: #2ca02c; stroke: #2ca02c"/>
     <use xlink:href="#m72dbe739ac" x="399.488875" y="199.822185" style="fill: #2ca02c; stroke: #2ca02c"/>
     <use xlink:href="#m72dbe739ac" x="438.658125" y="181.030625" style="fill: #2ca02c; stroke: #2ca02c"/>
     <use xlink:href="#m72dbe739ac" x="477.827375" y="172.227372" style="fill: #2ca02c; stroke: #2ca02c"/>
     <use xlink:href="#m72dbe739ac" x="516.996625" y="187.125185" style="fill: #2ca02c; stroke: #2ca02c"/>
     <use xlink:href="#m72dbe739ac" x="556.165875" y="191.442165" style="fill: #2ca02c; stroke: #2ca02c"/>
     <use xlink:href="#m72dbe739ac" x="595.335125" y="199.991478" style="fill: #2ca02c; stroke: #2ca02c"/>
     <use xlink:href="#m72dbe739ac" x="634.504375" y="190.680345" style="fill: #2ca02c; stroke: #2ca02c"/>
     <use xlink:href="#m72dbe739ac" x="673.673625" y="206.678565" style="fill: #2ca02c; stroke: #2ca02c"/>
     <use xlink:href="#m72dbe739ac" x="712.842875" y="205.324218" style="fill: #2ca02c; stroke: #2ca02c"/>
     <use xlink:href="#m72dbe739ac" x="752.012125" y="211.080192" style="fill: #2ca02c; stroke: #2ca02c"/>
     <use xlink:href="#m72dbe739ac" x="791.181375" y="200.753298" style="fill: #2ca02c; stroke: #2ca02c"/>
     <use xlink:href="#m72dbe739ac" x="830.350625" y="201.938352" style="fill: #2ca02c; stroke: #2ca02c"/>
    </g>
   </g>
   <g id="line2d_28">
    <path d="M 86.134875 526.981552 
L 125.304125 487.959438 
L 164.473375 433.418769 
L 203.642625 371.005961 
L 242.811875 304.755836 
L 281.981125 283.368445 
L 321.150375 252.528843 
L 360.319625 245.644247 
L 399.488875 228.094172 
L 438.658125 215.453603 
L 477.827375 210.487665 
L 516.996625 216.779734 
L 556.165875 225.582987 
L 595.335125 228.432758 
L 634.504375 224.708305 
L 673.673625 228.376327 
L 712.842875 227.896663 
L 752.012125 232.862601 
L 791.181375 228.855992 
L 830.350625 230.633572 
" clip-path="url(#p9a72d04c0d)" style="fill: none; stroke-dasharray: 5.55,2.4; stroke-dashoffset: 0; stroke: #444444; stroke-width: 1.5"/>
    <defs>
     <path id="mfbd2b8d9f7" d="M 0 1.5 
C 0.397805 1.5 0.77937 1.341951 1.06066 1.06066 
C 1.341951 0.77937 1.5 0.397805 1.5 0 
C 1.5 -0.397805 1.341951 -0.77937 1.06066 -1.06066 
C 0.77937 -1.341951 0.397805 -1.5 0 -1.5 
C -0.397805 -1.5 -0.77937 -1.341951 -1.06066 -1.06066 
C -1.341951 -0.77937 -1.5 -0.397805 -1.5 0 
C -1.5 0.397805 -1.341951 0.77937 -1.06066 1.06066 
C -0.77937 1.341951 -0.397805 1.5 0 1.5 
z
" style="stroke: #444444"/>
    </defs>
    <g clip-path="url(#p9a72d04c0d)">
     <use xlink:href="#mfbd2b8d9f7" x="86.134875" y="526.981552" style="fill: #444444; stroke: #444444"/>
     <use xlink:href="#mfbd2b8d9f7" x="125.304125" y="487.959438" style="fill: #444444; stroke: #444444"/>
     <use xlink:href="#mfbd2b8d9f7" x="164.473375" y="433.418769" style="fill: #444444; stroke: #444444"/>
     <use xlink:href="#mfbd2b8d9f7" x="203.642625" y="371.005961" style="fill: #444444; stroke: #444444"/>
     <use xlink:href="#mfbd2b8d9f7" x="242.811875" y="304.755836" style="fill: #444444; stroke: #444444"/>
     <use xlink:href="#mfbd2b8d9f7" x="281.981125" y="283.368445" style="fill: #444444; stroke: #444444"/>
     <use xlink:href="#mfbd2b8d9f7" x="321.150375" y="252.528843" style="fill: #444444; stroke: #444444"/>
     <use xlink:href="#mfbd2b8d9f7" x="360.319625" y="245.644247" style="fill: #444444; stroke: #444444"/>
     <use xlink:href="#mfbd2b8d9f7" x="399.488875" y="228.094172" style="fill: #444444; stroke: #444444"/>
     <use xlink:href="#mfbd2b8d9f7" x="438.658125" y="215.453603" style="fill: #444444; stroke: #444444"/>
     <use xlink:href="#mfbd2b8d9f7" x="477.827375" y="210.487665" style="fill: #444444; stroke: #444444"/>
     <use xlink:href="#mfbd2b8d9f7" x="516.996625" y="216.779734" style="fill: #444444; stroke: #444444"/>
     <use xlink:href="#mfbd2b8d9f7" x="556.165875" y="225.582987" style="fill: #444444; stroke: #444444"/>
     <use xlink:href="#mfbd2b8d9f7" x="595.335125" y="228.432758" style="fill: #444444; stroke: #444444"/>
     <use xlink:href="#mfbd2b8d9f7" x="634.504375" y="224.708305" style="fill: #444444; stroke: #444444"/>
     <use xlink:href="#mfbd2b8d9f7" x="673.673625" y="228.376327" style="fill: #444444; stroke: #444444"/>
     <use xlink:href="#mfbd2b8d9f7" x="712.842875" y="227.896663" style="fill: #444444; stroke: #444444"/>
     <use xlink:href="#mfbd2b8d9f7" x="752.012125" y="232.862601" style="fill: #444444; stroke: #444444"/>
     <use xlink:href="#mfbd2b8d9f7" x="791.181375" y="228.855992" style="fill: #444444; stroke: #444444"/>
     <use xlink:href="#mfbd2b8d9f7" x="830.350625" y="230.633572" style="fill: #444444; stroke: #444444"/>
    </g>
   </g>
   <g id="line2d_29">
    <path d="M 46.965625 403.228125 
L 830.350625 403.228125 
" clip-path="url(#p9a72d04c0d)" style="fill: none; stroke: #ff0000; stroke-linecap: square"/>
   </g>
   <g id="patch_3">
    <path d="M 46.965625 530.198125 
L 46.965625 22.318125 
" style="fill: none; stroke: #000000; stroke-width: 0.8; stroke-linejoin: miter; stroke-linecap: square"/>
   </g>
   <g id="patch_4">
    <path d="M 830.350625 530.198125 
L 830.350625 22.318125 
" style="fill: none; stroke: #000000; stroke-width: 0.8; stroke-linejoin: miter; stroke-linecap: square"/>
   </g>
   <g id="patch_5">
    <path d="M 46.965625 530.198125 
L 830.350625 530.198125 
" style="fill: none; stroke: #000000; stroke-width: 0.8; stroke-linejoin: miter; stroke-linecap: square"/>
   </g>
   <g id="patch_6">
    <path d="M 46.965625 22.318125 
L 830.350625 22.318125 
" style="fill: none; stroke: #000000; stroke-width: 0.8; stroke-linejoin: miter; stroke-linecap: square"/>
   </g>
   <g id="text_15">
    <text style="font-size: 12px; font-family: 'Palatino Linotype', 'Book Antiqua', 'Palatino', 'DejaVu Serif', serif; text-anchor: middle" x="438.658125" y="16.318125" transform="rotate(-0 438.658125 16.318125)">Lernkurve (Benchmark) - K4A2 vs. feste Heuristiken</text>
   </g>
   <g id="legend_1">
    <g id="patch_7">
     <path d="M 730.755313 103.993125 
L 823.350625 103.993125 
Q 825.350625 103.993125 825.350625 101.993125 
L 825.350625 29.318125 
Q 825.350625 27.318125 823.350625 27.318125 
L 730.755313 27.318125 
Q 728.755313 27.318125 728.755313 29.318125 
L 728.755313 101.993125 
Q 728.755313 103.993125 730.755313 103.993125 
z
" style="fill: #ffffff; opacity: 0.8; stroke: #cccccc; stroke-linejoin: miter"/>
    </g>
    <g id="line2d_30">
     <path d="M 732.755313 35.416562 
L 742.755313 35.416562 
L 752.755313 35.416562 
" style="fill: none; stroke: #1f77b4; stroke-width: 1.5; stroke-linecap: square"/>
     <g>
      <use xlink:href="#m9a789411c9" x="742.755313" y="35.416562" style="fill: #1f77b4; stroke: #1f77b4"/>
     </g>
    </g>
    <g id="text_16">
     <text style="font-size: 10px; font-family: 'Palatino Linotype', 'Book Antiqua', 'Palatino', 'DejaVu Serif', serif; text-anchor: start" x="760.755313" y="38.916562" transform="rotate(-0 760.755313 38.916562)">Single Only</text>
    </g>
    <g id="line2d_31">
     <path d="M 732.755313 50.236875 
L 742.755313 50.236875 
L 752.755313 50.236875 
" style="fill: none; stroke: #ff7f0e; stroke-width: 1.5; stroke-linecap: square"/>
     <g>
      <use xlink:href="#m586cdbb2ee" x="742.755313" y="50.236875" style="fill: #ff7f0e; stroke: #ff7f0e"/>
     </g>
    </g>
    <g id="text_17">
     <text style="font-size: 10px; font-family: 'Palatino Linotype', 'Book Antiqua', 'Palatino', 'DejaVu Serif', serif; text-anchor: start" x="760.755313" y="53.736875" transform="rotate(-0 760.755313 53.736875)">Max Combo</text>
    </g>
    <g id="line2d_32">
     <path d="M 732.755313 64.915 
L 742.755313 64.915 
L 752.755313 64.915 
" style="fill: none; stroke: #2ca02c; stroke-width: 1.5; stroke-linecap: square"/>
     <g>
      <use xlink:href="#m72dbe739ac" x="742.755313" y="64.915" style="fill: #2ca02c; stroke: #2ca02c"/>
     </g>
    </g>
    <g id="text_18">
     <text style="font-size: 10px; font-family: 'Palatino Linotype', 'Book Antiqua', 'Palatino', 'DejaVu Serif', serif; text-anchor: start" x="760.755313" y="68.415" transform="rotate(-0 760.755313 68.415)">Random 2</text>
    </g>
    <g id="line2d_33">
     <path d="M 732.755313 79.593125 
L 742.755313 79.593125 
L 752.755313 79.593125 
" style="fill: none; stroke-dasharray: 5.55,2.4; stroke-dashoffset: 0; stroke: #444444; stroke-width: 1.5"/>
     <g>
      <use xlink:href="#mfbd2b8d9f7" x="742.755313" y="79.593125" style="fill: #444444; stroke: #444444"/>
     </g>
    </g>
    <g id="text_19">
     <text style="font-size: 10px; font-family: 'Palatino Linotype', 'Book Antiqua', 'Palatino', 'DejaVu Serif', serif; text-anchor: start" x="760.755313" y="83.093125" transform="rotate(-0 760.755313 83.093125)">Avg Macro</text>
    </g>
    <g id="line2d_34">
     <path d="M 732.755313 94.413437 
L 742.755313 94.413437 
L 752.755313 94.413437 
" style="fill: none; stroke: #ff0000; stroke-linecap: square"/>
    </g>
    <g id="text_20">
     <text style="font-size: 10px; font-family: 'Palatino Linotype', 'Book Antiqua', 'Palatino', 'DejaVu Serif', serif; text-anchor: start" x="760.755313" y="97.913437" transform="rotate(-0 760.755313 97.913437)">25% Linie</text>
    </g>
   </g>
  </g>
 </g>
 <defs>
  <clipPath id="p9a72d04c0d">
   <rect x="46.965625" y="22.318125" width="783.385" height="507.88"/>
  </clipPath>
 </defs>
</svg>
