<?xml version="1.0" encoding="utf-8" standalone="no"?>
<!DOCTYPE svg PUBLIC "-//W3C//DTD SVG 1.1//EN"
  "http://www.w3.org/Graphics/SVG/1.1/DTD/svg11.dtd">
<svg xmlns:xlink="http://www.w3.org/1999/xlink" width="856.638125pt" height="567.754375pt" viewBox="0 0 856.638125 567.754375" xmlns="http://www.w3.org/2000/svg" version="1.1">
 <metadata>
  <rdf:RDF xmlns:dc="http://purl.org/dc/elements/1.1/" xmlns:cc="http://creativecommons.org/ns#" xmlns:rdf="http://www.w3.org/1999/02/22-rdf-syntax-ns#">
   <cc:Work>
    <dc:type rdf:resource="http://purl.org/dc/dcmitype/StillImage"/>
    <dc:date>2025-09-25T08:48:24.358320</dc:date>
    <dc:format>image/svg+xml</dc:format>
    <dc:creator>
     <cc:Agent>
      <dc:title>Matplotlib v3.10.3, https://matplotlib.org/</dc:title>
     </cc:Agent>
    </dc:creator>
   </cc:Work>
  </rdf:RDF>
 </metadata>
 <defs>
  <style type="text/css">*{stroke-linejoin: round; stroke-linecap: butt}</style>
 </defs>
 <g id="figure_1">
  <g id="patch_1">
   <path d="M 0 567.754375 
L 856.638125 567.754375 
L 856.638125 0 
L 0 0 
z
" style="fill: #ffffff"/>
  </g>
  <g id="axes_1">
   <g id="patch_2">
    <path d="M 46.965625 530.198125 
L 830.350625 530.198125 
L 830.350625 22.318125 
L 46.965625 22.318125 
z
" style="fill: #ffffff"/>
   </g>
   <g id="FillBetweenPolyCollection_1">
    <defs>
     <path id="mb4643b7165" d="M 86.134875 -386.880607 
L 86.134875 -365.925515 
L 125.304125 -364.970031 
L 164.473375 -377.802692 
L 203.642625 -395.93386 
L 242.811875 -413.851502 
L 281.981125 -417.371922 
L 321.150375 -419.519456 
L 360.319625 -427.686808 
L 399.488875 -438.278247 
L 438.658125 -440.950857 
L 477.827375 -433.367546 
L 516.996625 -430.354339 
L 556.165875 -431.215093 
L 595.335125 -441.640784 
L 634.504375 -441.295809 
L 673.673625 -445.868625 
L 712.842875 -440.605928 
L 752.012125 -432.162072 
L 791.181375 -421.839606 
L 830.350625 -424.160619 
L 830.350625 -434.941817 
L 830.350625 -434.941817 
L 791.181375 -432.694834 
L 752.012125 -442.67457 
L 712.842875 -450.810845 
L 673.673625 -455.868434 
L 634.504375 -451.474444 
L 595.335125 -451.806209 
L 556.165875 -441.760514 
L 516.996625 -440.929418 
L 477.827375 -443.837686 
L 438.658125 -451.142656 
L 399.488875 -448.570531 
L 360.319625 -438.352213 
L 321.150375 -430.446989 
L 281.981125 -428.364898 
L 242.811875 -424.948733 
L 203.642625 -407.506707 
L 164.473375 -389.770654 
L 125.304125 -379.88074 
L 86.134875 -386.880607 
z
"/>
    </defs>
    <g clip-path="url(#p332980f9f4)">
     <use xlink:href="#mb4643b7165" x="0" y="567.754375" style="fill: #1f77b4; fill-opacity: 0.15"/>
    </g>
   </g>
   <g id="FillBetweenPolyCollection_2">
    <defs>
     <path id="mc3f161f684" d="M 86.134875 -216.29473 
L 86.134875 -195.363429 
L 125.304125 -228.639512 
L 164.473375 -252.304761 
L 203.642625 -289.472512 
L 242.811875 -313.705877 
L 281.981125 -327.54373 
L 321.150375 -338.168956 
L 360.319625 -345.82648 
L 399.488875 -350.424014 
L 438.658125 -350.934993 
L 477.827375 -345.996718 
L 516.996625 -344.549792 
L 556.165875 -343.613665 
L 595.335125 -348.720957 
L 634.504375 -348.210101 
L 673.673625 -350.168535 
L 712.842875 -346.677703 
L 752.012125 -341.146141 
L 791.181375 -341.061066 
L 830.350625 -340.125286 
L 830.350625 -352.668285 
L 830.350625 -352.668285 
L 791.181375 -353.593541 
L 752.012125 -353.67765 
L 712.842875 -359.143114 
L 673.673625 -362.588867 
L 634.504375 -360.656046 
L 595.335125 -361.160301 
L 556.165875 -356.116492 
L 516.996625 -357.0414 
L 477.827375 -358.470619 
L 438.658125 -363.345075 
L 399.488875 -362.840944 
L 360.319625 -358.302487 
L 321.150375 -350.73336 
L 281.981125 -340.21046 
L 242.811875 -326.471156 
L 203.642625 -302.317608 
L 164.473375 -265.043955 
L 125.304125 -243.995075 
L 86.134875 -216.29473 
z
"/>
    </defs>
    <g clip-path="url(#p332980f9f4)">
     <use xlink:href="#mc3f161f684" x="0" y="567.754375" style="fill: #ff7f0e; fill-opacity: 0.15"/>
    </g>
   </g>
   <g id="FillBetweenPolyCollection_3">
    <defs>
     <path id="m9013bcdd4f" d="M 86.134875 -383.88556 
L 86.134875 -362.837686 
L 125.304125 -388.465295 
L 164.473375 -405.958719 
L 203.642625 -432.506467 
L 242.811875 -444.315128 
L 281.981125 -449.495373 
L 321.150375 -451.396204 
L 360.319625 -458.834441 
L 399.488875 -464.291736 
L 438.658125 -465.592208 
L 477.827375 -457.276547 
L 516.996625 -453.989514 
L 556.165875 -452.692673 
L 595.335125 -452.692673 
L 634.504375 -448.286153 
L 673.673625 -453.124912 
L 712.842875 -453.643653 
L 752.012125 -453.038461 
L 791.181375 -447.077239 
L 830.350625 -449.14985 
L 830.350625 -459.016239 
L 830.350625 -459.016239 
L 791.181375 -457.02841 
L 752.012125 -462.740953 
L 712.842875 -463.320056 
L 673.673625 -462.823687 
L 634.504375 -458.188086 
L 595.335125 -462.410001 
L 556.165875 -462.410001 
L 516.996625 -463.650936 
L 477.827375 -466.792932 
L 438.658125 -474.719033 
L 399.488875 -473.48173 
L 360.319625 -468.280369 
L 321.150375 -461.168695 
L 281.981125 -459.347456 
L 242.811875 -454.3766 
L 203.642625 -443.006915 
L 164.473375 -417.276495 
L 125.304125 -402.811909 
L 86.134875 -383.88556 
z
"/>
    </defs>
    <g clip-path="url(#p332980f9f4)">
     <use xlink:href="#m9013bcdd4f" x="0" y="567.754375" style="fill: #2ca02c; fill-opacity: 0.15"/>
    </g>
   </g>
   <g id="matplotlib.axis_1">
    <g id="xtick_1">
     <g id="line2d_1">
      <path d="M 46.965625 530.198125 
L 46.965625 22.318125 
" clip-path="url(#p332980f9f4)" style="fill: none; stroke: #b0b0b0; stroke-width: 0.8; stroke-linecap: square"/>
     </g>
     <g id="line2d_2">
      <defs>
       <path id="m2dd6f1d445" d="M 0 0 
L 0 3.5 
" style="stroke: #000000; stroke-width: 0.8"/>
      </defs>
      <g>
       <use xlink:href="#m2dd6f1d445" x="46.965625" y="530.198125" style="stroke: #000000; stroke-width: 0.8"/>
      </g>
     </g>
     <g id="text_1">
      <text style="font-size: 10px; font-family: 'Palatino Linotype', 'Book Antiqua', 'Palatino', 'DejaVu Serif', serif; text-anchor: middle" x="46.965625" y="544.796562" transform="rotate(-0 46.965625 544.796562)">0</text>
     </g>
    </g>
    <g id="xtick_2">
     <g id="line2d_3">
      <path d="M 203.642625 530.198125 
L 203.642625 22.318125 
" clip-path="url(#p332980f9f4)" style="fill: none; stroke: #b0b0b0; stroke-width: 0.8; stroke-linecap: square"/>
     </g>
     <g id="line2d_4">
      <g>
       <use xlink:href="#m2dd6f1d445" x="203.642625" y="530.198125" style="stroke: #000000; stroke-width: 0.8"/>
      </g>
     </g>
     <g id="text_2">
      <text style="font-size: 10px; font-family: 'Palatino Linotype', 'Book Antiqua', 'Palatino', 'DejaVu Serif', serif; text-anchor: middle" x="203.642625" y="544.796562" transform="rotate(-0 203.642625 544.796562)">20000</text>
     </g>
    </g>
    <g id="xtick_3">
     <g id="line2d_5">
      <path d="M 360.319625 530.198125 
L 360.319625 22.318125 
" clip-path="url(#p332980f9f4)" style="fill: none; stroke: #b0b0b0; stroke-width: 0.8; stroke-linecap: square"/>
     </g>
     <g id="line2d_6">
      <g>
       <use xlink:href="#m2dd6f1d445" x="360.319625" y="530.198125" style="stroke: #000000; stroke-width: 0.8"/>
      </g>
     </g>
     <g id="text_3">
      <text style="font-size: 10px; font-family: 'Palatino Linotype', 'Book Antiqua', 'Palatino', 'DejaVu Serif', serif; text-anchor: middle" x="360.319625" y="544.796562" transform="rotate(-0 360.319625 544.796562)">40000</text>
     </g>
    </g>
    <g id="xtick_4">
     <g id="line2d_7">
      <path d="M 516.996625 530.198125 
L 516.996625 22.318125 
" clip-path="url(#p332980f9f4)" style="fill: none; stroke: #b0b0b0; stroke-width: 0.8; stroke-linecap: square"/>
     </g>
     <g id="line2d_8">
      <g>
       <use xlink:href="#m2dd6f1d445" x="516.996625" y="530.198125" style="stroke: #000000; stroke-width: 0.8"/>
      </g>
     </g>
     <g id="text_4">
      <text style="font-size: 10px; font-family: 'Palatino Linotype', 'Book Antiqua', 'Palatino', 'DejaVu Serif', serif; text-anchor: middle" x="516.996625" y="544.796562" transform="rotate(-0 516.996625 544.796562)">60000</text>
     </g>
    </g>
    <g id="xtick_5">
     <g id="line2d_9">
      <path d="M 673.673625 530.198125 
L 673.673625 22.318125 
" clip-path="url(#p332980f9f4)" style="fill: none; stroke: #b0b0b0; stroke-width: 0.8; stroke-linecap: square"/>
     </g>
     <g id="line2d_10">
      <g>
       <use xlink:href="#m2dd6f1d445" x="673.673625" y="530.198125" style="stroke: #000000; stroke-width: 0.8"/>
      </g>
     </g>
     <g id="text_5">
      <text style="font-size: 10px; font-family: 'Palatino Linotype', 'Book Antiqua', 'Palatino', 'DejaVu Serif', serif; text-anchor: middle" x="673.673625" y="544.796562" transform="rotate(-0 673.673625 544.796562)">80000</text>
     </g>
    </g>
    <g id="xtick_6">
     <g id="line2d_11">
      <path d="M 830.350625 530.198125 
L 830.350625 22.318125 
" clip-path="url(#p332980f9f4)" style="fill: none; stroke: #b0b0b0; stroke-width: 0.8; stroke-linecap: square"/>
     </g>
     <g id="line2d_12">
      <g>
       <use xlink:href="#m2dd6f1d445" x="830.350625" y="530.198125" style="stroke: #000000; stroke-width: 0.8"/>
      </g>
     </g>
     <g id="text_6">
      <text style="font-size: 10px; font-family: 'Palatino Linotype', 'Book Antiqua', 'Palatino', 'DejaVu Serif', serif; text-anchor: middle" x="830.350625" y="544.796562" transform="rotate(-0 830.350625 544.796562)">100000</text>
     </g>
    </g>
    <g id="text_7">
     <text style="font-size: 10px; font-family: 'Palatino Linotype', 'Book Antiqua', 'Palatino', 'DejaVu Serif', serif; text-anchor: middle" x="438.658125" y="558.474687" transform="rotate(-0 438.658125 558.474687)">Episode</text>
    </g>
   </g>
   <g id="matplotlib.axis_2">
    <g id="ytick_1">
     <g id="line2d_13">
      <path d="M 46.965625 530.198125 
L 830.350625 530.198125 
" clip-path="url(#p332980f9f4)" style="fill: none; stroke: #b0b0b0; stroke-width: 0.8; stroke-linecap: square"/>
     </g>
     <g id="line2d_14">
      <defs>
       <path id="m698a7014cd" d="M 0 0 
L -3.5 0 
" style="stroke: #000000; stroke-width: 0.8"/>
      </defs>
      <g>
       <use xlink:href="#m698a7014cd" x="46.965625" y="530.198125" style="stroke: #000000; stroke-width: 0.8"/>
      </g>
     </g>
     <g id="text_8">
      <text style="font-size: 10px; font-family: 'Palatino Linotype', 'Book Antiqua', 'Palatino', 'DejaVu Serif', serif; text-anchor: end" x="39.965625" y="533.997344" transform="rotate(-0 39.965625 533.997344)">0</text>
     </g>
    </g>
    <g id="ytick_2">
     <g id="line2d_15">
      <path d="M 46.965625 428.622125 
L 830.350625 428.622125 
" clip-path="url(#p332980f9f4)" style="fill: none; stroke: #b0b0b0; stroke-width: 0.8; stroke-linecap: square"/>
     </g>
     <g id="line2d_16">
      <g>
       <use xlink:href="#m698a7014cd" x="46.965625" y="428.622125" style="stroke: #000000; stroke-width: 0.8"/>
      </g>
     </g>
     <g id="text_9">
      <text style="font-size: 10px; font-family: 'Palatino Linotype', 'Book Antiqua', 'Palatino', 'DejaVu Serif', serif; text-anchor: end" x="39.965625" y="432.421344" transform="rotate(-0 39.965625 432.421344)">20</text>
     </g>
    </g>
    <g id="ytick_3">
     <g id="line2d_17">
      <path d="M 46.965625 327.046125 
L 830.350625 327.046125 
" clip-path="url(#p332980f9f4)" style="fill: none; stroke: #b0b0b0; stroke-width: 0.8; stroke-linecap: square"/>
     </g>
     <g id="line2d_18">
      <g>
       <use xlink:href="#m698a7014cd" x="46.965625" y="327.046125" style="stroke: #000000; stroke-width: 0.8"/>
      </g>
     </g>
     <g id="text_10">
      <text style="font-size: 10px; font-family: 'Palatino Linotype', 'Book Antiqua', 'Palatino', 'DejaVu Serif', serif; text-anchor: end" x="39.965625" y="330.845344" transform="rotate(-0 39.965625 330.845344)">40</text>
     </g>
    </g>
    <g id="ytick_4">
     <g id="line2d_19">
      <path d="M 46.965625 225.470125 
L 830.350625 225.470125 
" clip-path="url(#p332980f9f4)" style="fill: none; stroke: #b0b0b0; stroke-width: 0.8; stroke-linecap: square"/>
     </g>
     <g id="line2d_20">
      <g>
       <use xlink:href="#m698a7014cd" x="46.965625" y="225.470125" style="stroke: #000000; stroke-width: 0.8"/>
      </g>
     </g>
     <g id="text_11">
      <text style="font-size: 10px; font-family: 'Palatino Linotype', 'Book Antiqua', 'Palatino', 'DejaVu Serif', serif; text-anchor: end" x="39.965625" y="229.269344" transform="rotate(-0 39.965625 229.269344)">60</text>
     </g>
    </g>
    <g id="ytick_5">
     <g id="line2d_21">
      <path d="M 46.965625 123.894125 
L 830.350625 123.894125 
" clip-path="url(#p332980f9f4)" style="fill: none; stroke: #b0b0b0; stroke-width: 0.8; stroke-linecap: square"/>
     </g>
     <g id="line2d_22">
      <g>
       <use xlink:href="#m698a7014cd" x="46.965625" y="123.894125" style="stroke: #000000; stroke-width: 0.8"/>
      </g>
     </g>
     <g id="text_12">
      <text style="font-size: 10px; font-family: 'Palatino Linotype', 'Book Antiqua', 'Palatino', 'DejaVu Serif', serif; text-anchor: end" x="39.965625" y="127.693344" transform="rotate(-0 39.965625 127.693344)">80</text>
     </g>
    </g>
    <g id="ytick_6">
     <g id="line2d_23">
      <path d="M 46.965625 22.318125 
L 830.350625 22.318125 
" clip-path="url(#p332980f9f4)" style="fill: none; stroke: #b0b0b0; stroke-width: 0.8; stroke-linecap: square"/>
     </g>
     <g id="line2d_24">
      <g>
       <use xlink:href="#m698a7014cd" x="46.965625" y="22.318125" style="stroke: #000000; stroke-width: 0.8"/>
      </g>
     </g>
     <g id="text_13">
      <text style="font-size: 10px; font-family: 'Palatino Linotype', 'Book Antiqua', 'Palatino', 'DejaVu Serif', serif; text-anchor: end" x="39.965625" y="26.117344" transform="rotate(-0 39.965625 26.117344)">100</text>
     </g>
    </g>
    <g id="text_14">
     <text style="font-size: 10px; font-family: 'Palatino Linotype', 'Book Antiqua', 'Palatino', 'DejaVu Serif', serif; text-anchor: middle" x="14.798438" y="276.258125" transform="rotate(-90 14.798438 276.258125)">Winrate (%)</text>
    </g>
   </g>
   <g id="line2d_25">
    <path d="M 86.134875 191.188225 
L 125.304125 195.251265 
L 164.473375 183.908612 
L 203.642625 165.963518 
L 242.811875 148.272365 
L 281.981125 144.801852 
L 321.150375 142.685685 
L 360.319625 134.644252 
L 399.488875 124.232712 
L 438.658125 121.608665 
L 477.827375 129.057572 
L 516.996625 132.020205 
L 556.165875 131.173738 
L 595.335125 120.931492 
L 634.504375 121.270078 
L 673.673625 116.783805 
L 712.842875 121.947252 
L 752.012125 130.242625 
L 791.181375 140.400225 
L 830.350625 138.114765 
" clip-path="url(#p332980f9f4)" style="fill: none; stroke: #1f77b4; stroke-width: 1.5; stroke-linecap: square"/>
    <defs>
     <path id="m8fcae957a4" d="M 0 1.5 
C 0.397805 1.5 0.77937 1.341951 1.06066 1.06066 
C 1.341951 0.77937 1.5 0.397805 1.5 0 
C 1.5 -0.397805 1.341951 -0.77937 1.06066 -1.06066 
C 0.77937 -1.341951 0.397805 -1.5 0 -1.5 
C -0.397805 -1.5 -0.77937 -1.341951 -1.06066 -1.06066 
C -1.341951 -0.77937 -1.5 -0.397805 -1.5 0 
C -1.5 0.397805 -1.341951 0.77937 -1.06066 1.06066 
C -0.77937 1.341951 -0.397805 1.5 0 1.5 
z
" style="stroke: #1f77b4"/>
    </defs>
    <g clip-path="url(#p332980f9f4)">
     <use xlink:href="#m8fcae957a4" x="86.134875" y="191.188225" style="fill: #1f77b4; stroke: #1f77b4"/>
     <use xlink:href="#m8fcae957a4" x="125.304125" y="195.251265" style="fill: #1f77b4; stroke: #1f77b4"/>
     <use xlink:href="#m8fcae957a4" x="164.473375" y="183.908612" style="fill: #1f77b4; stroke: #1f77b4"/>
     <use xlink:href="#m8fcae957a4" x="203.642625" y="165.963518" style="fill: #1f77b4; stroke: #1f77b4"/>
     <use xlink:href="#m8fcae957a4" x="242.811875" y="148.272365" style="fill: #1f77b4; stroke: #1f77b4"/>
     <use xlink:href="#m8fcae957a4" x="281.981125" y="144.801852" style="fill: #1f77b4; stroke: #1f77b4"/>
     <use xlink:href="#m8fcae957a4" x="321.150375" y="142.685685" style="fill: #1f77b4; stroke: #1f77b4"/>
     <use xlink:href="#m8fcae957a4" x="360.319625" y="134.644252" style="fill: #1f77b4; stroke: #1f77b4"/>
     <use xlink:href="#m8fcae957a4" x="399.488875" y="124.232712" style="fill: #1f77b4; stroke: #1f77b4"/>
     <use xlink:href="#m8fcae957a4" x="438.658125" y="121.608665" style="fill: #1f77b4; stroke: #1f77b4"/>
     <use xlink:href="#m8fcae957a4" x="477.827375" y="129.057572" style="fill: #1f77b4; stroke: #1f77b4"/>
     <use xlink:href="#m8fcae957a4" x="516.996625" y="132.020205" style="fill: #1f77b4; stroke: #1f77b4"/>
     <use xlink:href="#m8fcae957a4" x="556.165875" y="131.173738" style="fill: #1f77b4; stroke: #1f77b4"/>
     <use xlink:href="#m8fcae957a4" x="595.335125" y="120.931492" style="fill: #1f77b4; stroke: #1f77b4"/>
     <use xlink:href="#m8fcae957a4" x="634.504375" y="121.270078" style="fill: #1f77b4; stroke: #1f77b4"/>
     <use xlink:href="#m8fcae957a4" x="673.673625" y="116.783805" style="fill: #1f77b4; stroke: #1f77b4"/>
     <use xlink:href="#m8fcae957a4" x="712.842875" y="121.947252" style="fill: #1f77b4; stroke: #1f77b4"/>
     <use xlink:href="#m8fcae957a4" x="752.012125" y="130.242625" style="fill: #1f77b4; stroke: #1f77b4"/>
     <use xlink:href="#m8fcae957a4" x="791.181375" y="140.400225" style="fill: #1f77b4; stroke: #1f77b4"/>
     <use xlink:href="#m8fcae957a4" x="830.350625" y="138.114765" style="fill: #1f77b4; stroke: #1f77b4"/>
    </g>
   </g>
   <g id="line2d_26">
    <path d="M 86.134875 362.089845 
L 125.304125 331.490075 
L 164.473375 309.101032 
L 203.642625 271.856498 
L 242.811875 247.647552 
L 281.981125 233.850145 
L 321.150375 223.269312 
L 360.319625 215.651112 
L 399.488875 211.080192 
L 438.658125 210.572312 
L 477.827375 215.481818 
L 516.996625 216.920812 
L 556.165875 217.851925 
L 595.335125 212.773125 
L 634.504375 213.281005 
L 673.673625 211.334132 
L 712.842875 214.804645 
L 752.012125 220.306678 
L 791.181375 220.391325 
L 830.350625 221.322438 
" clip-path="url(#p332980f9f4)" style="fill: none; stroke: #ff7f0e; stroke-width: 1.5; stroke-linecap: square"/>
    <defs>
     <path id="m7ffbb49707" d="M 0 1.5 
C 0.397805 1.5 0.77937 1.341951 1.06066 1.06066 
C 1.341951 0.77937 1.5 0.397805 1.5 0 
C 1.5 -0.397805 1.341951 -0.77937 1.06066 -1.06066 
C 0.77937 -1.341951 0.397805 -1.5 0 -1.5 
C -0.397805 -1.5 -0.77937 -1.341951 -1.06066 -1.06066 
C -1.341951 -0.77937 -1.5 -0.397805 -1.5 0 
C -1.5 0.397805 -1.341951 0.77937 -1.06066 1.06066 
C -0.77937 1.341951 -0.397805 1.5 0 1.5 
z
" style="stroke: #ff7f0e"/>
    </defs>
    <g clip-path="url(#p332980f9f4)">
     <use xlink:href="#m7ffbb49707" x="86.134875" y="362.089845" style="fill: #ff7f0e; stroke: #ff7f0e"/>
     <use xlink:href="#m7ffbb49707" x="125.304125" y="331.490075" style="fill: #ff7f0e; stroke: #ff7f0e"/>
     <use xlink:href="#m7ffbb49707" x="164.473375" y="309.101032" style="fill: #ff7f0e; stroke: #ff7f0e"/>
     <use xlink:href="#m7ffbb49707" x="203.642625" y="271.856498" style="fill: #ff7f0e; stroke: #ff7f0e"/>
     <use xlink:href="#m7ffbb49707" x="242.811875" y="247.647552" style="fill: #ff7f0e; stroke: #ff7f0e"/>
     <use xlink:href="#m7ffbb49707" x="281.981125" y="233.850145" style="fill: #ff7f0e; stroke: #ff7f0e"/>
     <use xlink:href="#m7ffbb49707" x="321.150375" y="223.269312" style="fill: #ff7f0e; stroke: #ff7f0e"/>
     <use xlink:href="#m7ffbb49707" x="360.319625" y="215.651112" style="fill: #ff7f0e; stroke: #ff7f0e"/>
     <use xlink:href="#m7ffbb49707" x="399.488875" y="211.080192" style="fill: #ff7f0e; stroke: #ff7f0e"/>
     <use xlink:href="#m7ffbb49707" x="438.658125" y="210.572312" style="fill: #ff7f0e; stroke: #ff7f0e"/>
     <use xlink:href="#m7ffbb49707" x="477.827375" y="215.481818" style="fill: #ff7f0e; stroke: #ff7f0e"/>
     <use xlink:href="#m7ffbb49707" x="516.996625" y="216.920812" style="fill: #ff7f0e; stroke: #ff7f0e"/>
     <use xlink:href="#m7ffbb49707" x="556.165875" y="217.851925" style="fill: #ff7f0e; stroke: #ff7f0e"/>
     <use xlink:href="#m7ffbb49707" x="595.335125" y="212.773125" style="fill: #ff7f0e; stroke: #ff7f0e"/>
     <use xlink:href="#m7ffbb49707" x="634.504375" y="213.281005" style="fill: #ff7f0e; stroke: #ff7f0e"/>
     <use xlink:href="#m7ffbb49707" x="673.673625" y="211.334132" style="fill: #ff7f0e; stroke: #ff7f0e"/>
     <use xlink:href="#m7ffbb49707" x="712.842875" y="214.804645" style="fill: #ff7f0e; stroke: #ff7f0e"/>
     <use xlink:href="#m7ffbb49707" x="752.012125" y="220.306678" style="fill: #ff7f0e; stroke: #ff7f0e"/>
     <use xlink:href="#m7ffbb49707" x="791.181375" y="220.391325" style="fill: #ff7f0e; stroke: #ff7f0e"/>
     <use xlink:href="#m7ffbb49707" x="830.350625" y="221.322438" style="fill: #ff7f0e; stroke: #ff7f0e"/>
    </g>
   </g>
   <g id="line2d_27">
    <path d="M 86.134875 194.235505 
L 125.304125 172.015755 
L 164.473375 156.059858 
L 203.642625 129.904038 
L 242.811875 118.307445 
L 281.981125 113.228645 
L 321.150375 111.366418 
L 360.319625 104.086805 
L 399.488875 98.754065 
L 438.658125 97.484365 
L 477.827375 105.610445 
L 516.996625 108.827018 
L 556.165875 110.096718 
L 595.335125 110.096718 
L 634.504375 114.413698 
L 673.673625 109.673485 
L 712.842875 109.165605 
L 752.012125 109.758132 
L 791.181375 115.598752 
L 830.350625 113.567232 
" clip-path="url(#p332980f9f4)" style="fill: none; stroke: #2ca02c; stroke-width: 1.5; stroke-linecap: square"/>
    <defs>
     <path id="md2dc987400" d="M 0 1.5 
C 0.397805 1.5 0.77937 1.341951 1.06066 1.06066 
C 1.341951 0.77937 1.5 0.397805 1.5 0 
C 1.5 -0.397805 1.341951 -0.77937 1.06066 -1.06066 
C 0.77937 -1.341951 0.397805 -1.5 0 -1.5 
C -0.397805 -1.5 -0.77937 -1.341951 -1.06066 -1.06066 
C -1.341951 -0.77937 -1.5 -0.397805 -1.5 0 
C -1.5 0.397805 -1.341951 0.77937 -1.06066 1.06066 
C -0.77937 1.341951 -0.397805 1.5 0 1.5 
z
" style="stroke: #2ca02c"/>
    </defs>
    <g clip-path="url(#p332980f9f4)">
     <use xlink:href="#md2dc987400" x="86.134875" y="194.235505" style="fill: #2ca02c; stroke: #2ca02c"/>
     <use xlink:href="#md2dc987400" x="125.304125" y="172.015755" style="fill: #2ca02c; stroke: #2ca02c"/>
     <use xlink:href="#md2dc987400" x="164.473375" y="156.059858" style="fill: #2ca02c; stroke: #2ca02c"/>
     <use xlink:href="#md2dc987400" x="203.642625" y="129.904038" style="fill: #2ca02c; stroke: #2ca02c"/>
     <use xlink:href="#md2dc987400" x="242.811875" y="118.307445" style="fill: #2ca02c; stroke: #2ca02c"/>
     <use xlink:href="#md2dc987400" x="281.981125" y="113.228645" style="fill: #2ca02c; stroke: #2ca02c"/>
     <use xlink:href="#md2dc987400" x="321.150375" y="111.366418" style="fill: #2ca02c; stroke: #2ca02c"/>
     <use xlink:href="#md2dc987400" x="360.319625" y="104.086805" style="fill: #2ca02c; stroke: #2ca02c"/>
     <use xlink:href="#md2dc987400" x="399.488875" y="98.754065" style="fill: #2ca02c; stroke: #2ca02c"/>
     <use xlink:href="#md2dc987400" x="438.658125" y="97.484365" style="fill: #2ca02c; stroke: #2ca02c"/>
     <use xlink:href="#md2dc987400" x="477.827375" y="105.610445" style="fill: #2ca02c; stroke: #2ca02c"/>
     <use xlink:href="#md2dc987400" x="516.996625" y="108.827018" style="fill: #2ca02c; stroke: #2ca02c"/>
     <use xlink:href="#md2dc987400" x="556.165875" y="110.096718" style="fill: #2ca02c; stroke: #2ca02c"/>
     <use xlink:href="#md2dc987400" x="595.335125" y="110.096718" style="fill: #2ca02c; stroke: #2ca02c"/>
     <use xlink:href="#md2dc987400" x="634.504375" y="114.413698" style="fill: #2ca02c; stroke: #2ca02c"/>
     <use xlink:href="#md2dc987400" x="673.673625" y="109.673485" style="fill: #2ca02c; stroke: #2ca02c"/>
     <use xlink:href="#md2dc987400" x="712.842875" y="109.165605" style="fill: #2ca02c; stroke: #2ca02c"/>
     <use xlink:href="#md2dc987400" x="752.012125" y="109.758132" style="fill: #2ca02c; stroke: #2ca02c"/>
     <use xlink:href="#md2dc987400" x="791.181375" y="115.598752" style="fill: #2ca02c; stroke: #2ca02c"/>
     <use xlink:href="#md2dc987400" x="830.350625" y="113.567232" style="fill: #2ca02c; stroke: #2ca02c"/>
    </g>
   </g>
   <g id="line2d_28">
    <path d="M 86.134875 249.171192 
L 125.304125 232.919032 
L 164.473375 216.356501 
L 203.642625 189.241352 
L 242.811875 171.409121 
L 281.981125 163.960214 
L 321.150375 159.107138 
L 360.319625 151.460723 
L 399.488875 144.688989 
L 438.658125 143.221781 
L 477.827375 150.049945 
L 516.996625 152.589345 
L 556.165875 153.040794 
L 595.335125 147.933778 
L 634.504375 149.654927 
L 673.673625 145.930474 
L 712.842875 148.639167 
L 752.012125 153.435812 
L 791.181375 158.796767 
L 830.350625 157.668145 
" clip-path="url(#p332980f9f4)" style="fill: none; stroke-dasharray: 5.55,2.4; stroke-dashoffset: 0; stroke: #444444; stroke-width: 1.5"/>
    <defs>
     <path id="m47b33c6ad0" d="M 0 1.5 
C 0.397805 1.5 0.77937 1.341951 1.06066 1.06066 
C 1.341951 0.77937 1.5 0.397805 1.5 0 
C 1.5 -0.397805 1.341951 -0.77937 1.06066 -1.06066 
C 0.77937 -1.341951 0.397805 -1.5 0 -1.5 
C -0.397805 -1.5 -0.77937 -1.341951 -1.06066 -1.06066 
C -1.341951 -0.77937 -1.5 -0.397805 -1.5 0 
C -1.5 0.397805 -1.341951 0.77937 -1.06066 1.06066 
C -0.77937 1.341951 -0.397805 1.5 0 1.5 
z
" style="stroke: #444444"/>
    </defs>
    <g clip-path="url(#p332980f9f4)">
     <use xlink:href="#m47b33c6ad0" x="86.134875" y="249.171192" style="fill: #444444; stroke: #444444"/>
     <use xlink:href="#m47b33c6ad0" x="125.304125" y="232.919032" style="fill: #444444; stroke: #444444"/>
     <use xlink:href="#m47b33c6ad0" x="164.473375" y="216.356501" style="fill: #444444; stroke: #444444"/>
     <use xlink:href="#m47b33c6ad0" x="203.642625" y="189.241352" style="fill: #444444; stroke: #444444"/>
     <use xlink:href="#m47b33c6ad0" x="242.811875" y="171.409121" style="fill: #444444; stroke: #444444"/>
     <use xlink:href="#m47b33c6ad0" x="281.981125" y="163.960214" style="fill: #444444; stroke: #444444"/>
     <use xlink:href="#m47b33c6ad0" x="321.150375" y="159.107138" style="fill: #444444; stroke: #444444"/>
     <use xlink:href="#m47b33c6ad0" x="360.319625" y="151.460723" style="fill: #444444; stroke: #444444"/>
     <use xlink:href="#m47b33c6ad0" x="399.488875" y="144.688989" style="fill: #444444; stroke: #444444"/>
     <use xlink:href="#m47b33c6ad0" x="438.658125" y="143.221781" style="fill: #444444; stroke: #444444"/>
     <use xlink:href="#m47b33c6ad0" x="477.827375" y="150.049945" style="fill: #444444; stroke: #444444"/>
     <use xlink:href="#m47b33c6ad0" x="516.996625" y="152.589345" style="fill: #444444; stroke: #444444"/>
     <use xlink:href="#m47b33c6ad0" x="556.165875" y="153.040794" style="fill: #444444; stroke: #444444"/>
     <use xlink:href="#m47b33c6ad0" x="595.335125" y="147.933778" style="fill: #444444; stroke: #444444"/>
     <use xlink:href="#m47b33c6ad0" x="634.504375" y="149.654927" style="fill: #444444; stroke: #444444"/>
     <use xlink:href="#m47b33c6ad0" x="673.673625" y="145.930474" style="fill: #444444; stroke: #444444"/>
     <use xlink:href="#m47b33c6ad0" x="712.842875" y="148.639167" style="fill: #444444; stroke: #444444"/>
     <use xlink:href="#m47b33c6ad0" x="752.012125" y="153.435812" style="fill: #444444; stroke: #444444"/>
     <use xlink:href="#m47b33c6ad0" x="791.181375" y="158.796767" style="fill: #444444; stroke: #444444"/>
     <use xlink:href="#m47b33c6ad0" x="830.350625" y="157.668145" style="fill: #444444; stroke: #444444"/>
    </g>
   </g>
   <g id="line2d_29">
    <path d="M 46.965625 403.228125 
L 830.350625 403.228125 
" clip-path="url(#p332980f9f4)" style="fill: none; stroke: #ff0000; stroke-linecap: square"/>
   </g>
   <g id="patch_3">
    <path d="M 46.965625 530.198125 
L 46.965625 22.318125 
" style="fill: none; stroke: #000000; stroke-width: 0.8; stroke-linejoin: miter; stroke-linecap: square"/>
   </g>
   <g id="patch_4">
    <path d="M 830.350625 530.198125 
L 830.350625 22.318125 
" style="fill: none; stroke: #000000; stroke-width: 0.8; stroke-linejoin: miter; stroke-linecap: square"/>
   </g>
   <g id="patch_5">
    <path d="M 46.965625 530.198125 
L 830.350625 530.198125 
" style="fill: none; stroke: #000000; stroke-width: 0.8; stroke-linejoin: miter; stroke-linecap: square"/>
   </g>
   <g id="patch_6">
    <path d="M 46.965625 22.318125 
L 830.350625 22.318125 
" style="fill: none; stroke: #000000; stroke-width: 0.8; stroke-linejoin: miter; stroke-linecap: square"/>
   </g>
   <g id="text_15">
    <text style="font-size: 12px; font-family: 'Palatino Linotype', 'Book Antiqua', 'Palatino', 'DejaVu Serif', serif; text-anchor: middle" x="438.658125" y="16.318125" transform="rotate(-0 438.658125 16.318125)">Lernkurve (Benchmark) - K1A2 vs. feste Heuristiken</text>
   </g>
   <g id="legend_1">
    <g id="patch_7">
     <path d="M 730.755313 103.993125 
L 823.350625 103.993125 
Q 825.350625 103.993125 825.350625 101.993125 
L 825.350625 29.318125 
Q 825.350625 27.318125 823.350625 27.318125 
L 730.755313 27.318125 
Q 728.755313 27.318125 728.755313 29.318125 
L 728.755313 101.993125 
Q 728.755313 103.993125 730.755313 103.993125 
z
" style="fill: #ffffff; opacity: 0.8; stroke: #cccccc; stroke-linejoin: miter"/>
    </g>
    <g id="line2d_30">
     <path d="M 732.755313 35.416562 
L 742.755313 35.416562 
L 752.755313 35.416562 
" style="fill: none; stroke: #1f77b4; stroke-width: 1.5; stroke-linecap: square"/>
     <g>
      <use xlink:href="#m8fcae957a4" x="742.755313" y="35.416562" style="fill: #1f77b4; stroke: #1f77b4"/>
     </g>
    </g>
    <g id="text_16">
     <text style="font-size: 10px; font-family: 'Palatino Linotype', 'Book Antiqua', 'Palatino', 'DejaVu Serif', serif; text-anchor: start" x="760.755313" y="38.916562" transform="rotate(-0 760.755313 38.916562)">Single Only</text>
    </g>
    <g id="line2d_31">
     <path d="M 732.755313 50.236875 
L 742.755313 50.236875 
L 752.755313 50.236875 
" style="fill: none; stroke: #ff7f0e; stroke-width: 1.5; stroke-linecap: square"/>
     <g>
      <use xlink:href="#m7ffbb49707" x="742.755313" y="50.236875" style="fill: #ff7f0e; stroke: #ff7f0e"/>
     </g>
    </g>
    <g id="text_17">
     <text style="font-size: 10px; font-family: 'Palatino Linotype', 'Book Antiqua', 'Palatino', 'DejaVu Serif', serif; text-anchor: start" x="760.755313" y="53.736875" transform="rotate(-0 760.755313 53.736875)">Max Combo</text>
    </g>
    <g id="line2d_32">
     <path d="M 732.755313 64.915 
L 742.755313 64.915 
L 752.755313 64.915 
" style="fill: none; stroke: #2ca02c; stroke-width: 1.5; stroke-linecap: square"/>
     <g>
      <use xlink:href="#md2dc987400" x="742.755313" y="64.915" style="fill: #2ca02c; stroke: #2ca02c"/>
     </g>
    </g>
    <g id="text_18">
     <text style="font-size: 10px; font-family: 'Palatino Linotype', 'Book Antiqua', 'Palatino', 'DejaVu Serif', serif; text-anchor: start" x="760.755313" y="68.415" transform="rotate(-0 760.755313 68.415)">Random 2</text>
    </g>
    <g id="line2d_33">
     <path d="M 732.755313 79.593125 
L 742.755313 79.593125 
L 752.755313 79.593125 
" style="fill: none; stroke-dasharray: 5.55,2.4; stroke-dashoffset: 0; stroke: #444444; stroke-width: 1.5"/>
     <g>
      <use xlink:href="#m47b33c6ad0" x="742.755313" y="79.593125" style="fill: #444444; stroke: #444444"/>
     </g>
    </g>
    <g id="text_19">
     <text style="font-size: 10px; font-family: 'Palatino Linotype', 'Book Antiqua', 'Palatino', 'DejaVu Serif', serif; text-anchor: start" x="760.755313" y="83.093125" transform="rotate(-0 760.755313 83.093125)">Avg Macro</text>
    </g>
    <g id="line2d_34">
     <path d="M 732.755313 94.413437 
L 742.755313 94.413437 
L 752.755313 94.413437 
" style="fill: none; stroke: #ff0000; stroke-linecap: square"/>
    </g>
    <g id="text_20">
     <text style="font-size: 10px; font-family: 'Palatino Linotype', 'Book Antiqua', 'Palatino', 'DejaVu Serif', serif; text-anchor: start" x="760.755313" y="97.913437" transform="rotate(-0 760.755313 97.913437)">25% Linie</text>
    </g>
   </g>
  </g>
 </g>
 <defs>
  <clipPath id="p332980f9f4">
   <rect x="46.965625" y="22.318125" width="783.385" height="507.88"/>
  </clipPath>
 </defs>
</svg>
